<?xml version="1.0" encoding="UTF-8" standalone="no"?>
<!DOCTYPE svg PUBLIC "-//W3C//DTD SVG 1.1//EN"
 "http://www.w3.org/Graphics/SVG/1.1/DTD/svg11.dtd">
<!-- Generated by graphviz version 2.38.0 (20140413.2041)
 -->
<!-- Title: /home/travis/build/AliceO2Group/Monitoring/examples/1&#45;Basic.cxx Pages: 1 -->
<!--zoomable 386 -->
<svg id="main" version="1.1" xmlns="http://www.w3.org/2000/svg" xmlns:xlink="http://www.w3.org/1999/xlink" xml:space="preserve" onload="init(evt)">
<style type="text/css"><![CDATA[
.edge:hover path { stroke: red; }
.edge:hover polygon { stroke: red; fill: red; }
]]></style>
<script type="text/javascript"><![CDATA[
var edges = document.getElementsByTagName('g');
if (edges && edges.length) {
  for (var i=0;i<edges.length;i++) {
    if (edges[i].id.substr(0,4)=='edge') {
      edges[i].setAttribute('class','edge');
    }
  }
}
]]></script>
        <defs>
                <circle id="rim" cx="0" cy="0" r="7"/>
                <circle id="rim2" cx="0" cy="0" r="3.5"/>
                <g id="zoomPlus">
                        <use xlink:href="#rim" fill="#404040">
                                <set attributeName="fill" to="#808080" begin="zoomplus.mouseover" end="zoomplus.mouseout"/>
                        </use>
                        <path d="M-4,0h8M0,-4v8" fill="none" stroke="white" stroke-width="1.5" pointer-events="none"/>
                </g>
                <g id="zoomMin">
                        <use xlink:href="#rim" fill="#404040">
                                <set attributeName="fill" to="#808080" begin="zoomminus.mouseover" end="zoomminus.mouseout"/>
                        </use>
                        <path d="M-4,0h8" fill="none" stroke="white" stroke-width="1.5" pointer-events="none"/>
                </g>
                <g id="dirArrow">
                        <path fill="none" stroke="white" stroke-width="1.5" d="M0,-3.0v7 M-2.5,-0.5L0,-3.0L2.5,-0.5"/>
                </g>
               <g id="resetDef">
                       <use xlink:href="#rim2" fill="#404040">
                               <set attributeName="fill" to="#808080" begin="reset.mouseover" end="reset.mouseout"/>
                       </use>
               </g>
        </defs>

<script type="text/javascript">
var viewWidth = 1104;
var viewHeight = 386;
var sectionId = 'dynsection-0';
</script>
<script xlink:href="svgpan.js"/>
<svg id="graph" class="graph">
<g id="viewport">
<title>/home/travis/build/AliceO2Group/Monitoring/examples/1&#45;Basic.cxx</title>
<!-- Node1 -->
<g id="node1" class="node"><title>Node1</title>
<polygon fill="#bfbfbf" stroke="black" points="166.627,-336.5 166.627,-377.5 294.627,-377.5 294.627,-336.5 166.627,-336.5"/>
<text text-anchor="start" x="174.627" y="-365.5" font-family="Helvetica,sans-Serif" font-size="10.00">/home/travis/build</text>
<text text-anchor="start" x="174.627" y="-354.5" font-family="Helvetica,sans-Serif" font-size="10.00">/AliceO2Group/Monitoring</text>
<text text-anchor="middle" x="230.627" y="-343.5" font-family="Helvetica,sans-Serif" font-size="10.00">/examples/1&#45;Basic.cxx</text>
</g>
<!-- Node2 -->
<g id="node2" class="node"><title>Node2</title>
<g id="a_node2"><a xlink:href="MonitoringFactory_8h.html" target="_top" xlink:title="Monitoring/MonitoringFactory.h">
<polygon fill="none" stroke="black" points="155.127,-280.5 155.127,-299.5 306.127,-299.5 306.127,-280.5 155.127,-280.5"/>
<text text-anchor="middle" x="230.627" y="-287.5" font-family="Helvetica,sans-Serif" font-size="10.00">Monitoring/MonitoringFactory.h</text>
</a>
</g>
</g>
<!-- Node1&#45;&gt;Node2 -->
<g id="edge1" class="edge"><title>Node1&#45;&gt;Node2</title>
<path fill="none" stroke="midnightblue" d="M230.627,-336.498C230.627,-328.065 230.627,-318.235 230.627,-309.874"/>
<polygon fill="midnightblue" stroke="midnightblue" points="234.127,-309.652 230.627,-299.652 227.127,-309.653 234.127,-309.652"/>
</g>
<!-- Node3 -->
<g id="node3" class="node"><title>Node3</title>
<g id="a_node3"><a xlink:href="Monitoring_8h.html" target="_top" xlink:title="Monitoring/Monitoring.h">
<polygon fill="none" stroke="black" points="171.627,-224.5 171.627,-243.5 289.627,-243.5 289.627,-224.5 171.627,-224.5"/>
<text text-anchor="middle" x="230.627" y="-231.5" font-family="Helvetica,sans-Serif" font-size="10.00">Monitoring/Monitoring.h</text>
</a>
</g>
</g>
<!-- Node2&#45;&gt;Node3 -->
<g id="edge2" class="edge"><title>Node2&#45;&gt;Node3</title>
<path fill="none" stroke="midnightblue" d="M230.627,-280.083C230.627,-273.006 230.627,-262.861 230.627,-253.986"/>
<polygon fill="midnightblue" stroke="midnightblue" points="234.127,-253.751 230.627,-243.751 227.127,-253.751 234.127,-253.751"/>
</g>
<!-- Node4 -->
<g id="node4" class="node"><title>Node4</title>
<polygon fill="none" stroke="#bfbfbf" points="1049.63,-112.5 1049.63,-131.5 1095.63,-131.5 1095.63,-112.5 1049.63,-112.5"/>
<text text-anchor="middle" x="1072.63" y="-119.5" font-family="Helvetica,sans-Serif" font-size="10.00">atomic</text>
</g>
<!-- Node3&#45;&gt;Node4 -->
<g id="edge3" class="edge"><title>Node3&#45;&gt;Node4</title>
<path fill="none" stroke="midnightblue" d="M289.793,-232.478C399.042,-230.662 639.462,-222.683 838.627,-188 911.807,-175.256 995.087,-149.269 1039.91,-134.301"/>
<polygon fill="midnightblue" stroke="midnightblue" points="1041.04,-137.614 1049.4,-131.105 1038.8,-130.98 1041.04,-137.614"/>
</g>
<!-- Node5 -->
<g id="node5" class="node"><title>Node5</title>
<polygon fill="none" stroke="#bfbfbf" points="273.627,-56.5 273.627,-75.5 319.627,-75.5 319.627,-56.5 273.627,-56.5"/>
<text text-anchor="middle" x="296.627" y="-63.5" font-family="Helvetica,sans-Serif" font-size="10.00">chrono</text>
</g>
<!-- Node3&#45;&gt;Node5 -->
<g id="edge4" class="edge"><title>Node3&#45;&gt;Node5</title>
<path fill="none" stroke="midnightblue" d="M198.328,-224.489C138.473,-207.207 20.2726,-165.098 64.627,-112 93.4375,-77.51 219.796,-85.9217 263.627,-76 263.728,-75.9771 263.83,-75.954 263.932,-75.9309"/>
<polygon fill="midnightblue" stroke="midnightblue" points="264.736,-79.3373 273.612,-73.5521 263.066,-72.5395 264.736,-79.3373"/>
</g>
<!-- Node6 -->
<g id="node6" class="node"><title>Node6</title>
<polygon fill="none" stroke="#bfbfbf" points="220.127,-56.5 220.127,-75.5 255.127,-75.5 255.127,-56.5 220.127,-56.5"/>
<text text-anchor="middle" x="237.627" y="-63.5" font-family="Helvetica,sans-Serif" font-size="10.00">map</text>
</g>
<!-- Node3&#45;&gt;Node6 -->
<g id="edge5" class="edge"><title>Node3&#45;&gt;Node6</title>
<path fill="none" stroke="midnightblue" d="M171.15,-227.645C118.998,-221.572 48.8747,-209.583 31.627,-188 10.5404,-161.613 10.444,-138.31 31.627,-112 53.703,-84.581 158.872,-72.9621 209.827,-68.8783"/>
<polygon fill="midnightblue" stroke="midnightblue" points="210.122,-72.366 219.828,-68.1182 209.591,-65.3862 210.122,-72.366"/>
</g>
<!-- Node7 -->
<g id="node7" class="node"><title>Node7</title>
<polygon fill="none" stroke="#bfbfbf" points="73.627,-112.5 73.627,-131.5 125.627,-131.5 125.627,-112.5 73.627,-112.5"/>
<text text-anchor="middle" x="99.627" y="-119.5" font-family="Helvetica,sans-Serif" font-size="10.00">memory</text>
</g>
<!-- Node3&#45;&gt;Node7 -->
<g id="edge6" class="edge"><title>Node3&#45;&gt;Node7</title>
<path fill="none" stroke="midnightblue" d="M199.617,-224.4C178.906,-217.374 152.168,-205.679 133.627,-188 120.113,-175.114 110.926,-155.666 105.542,-141.4"/>
<polygon fill="midnightblue" stroke="midnightblue" points="108.756,-139.985 102.158,-131.695 102.146,-142.29 108.756,-139.985"/>
</g>
<!-- Node8 -->
<g id="node8" class="node"><title>Node8</title>
<polygon fill="none" stroke="#bfbfbf" points="491.127,-0.5 491.127,-19.5 532.127,-19.5 532.127,-0.5 491.127,-0.5"/>
<text text-anchor="middle" x="511.627" y="-7.5" font-family="Helvetica,sans-Serif" font-size="10.00">string</text>
</g>
<!-- Node3&#45;&gt;Node8 -->
<g id="edge7" class="edge"><title>Node3&#45;&gt;Node8</title>
<path fill="none" stroke="midnightblue" d="M171.511,-228.827C114.782,-223.447 34.9535,-211.79 15.627,-188 -5.67087,-161.783 -4.5624,-139.08 15.627,-112 71.8876,-36.5381 381.303,-16.6457 480.801,-12.1626"/>
<polygon fill="midnightblue" stroke="midnightblue" points="481.24,-15.647 491.081,-11.7212 480.94,-8.65346 481.24,-15.647"/>
</g>
<!-- Node9 -->
<g id="node9" class="node"><title>Node9</title>
<polygon fill="none" stroke="#bfbfbf" points="149.627,-168.5 149.627,-187.5 193.627,-187.5 193.627,-168.5 149.627,-168.5"/>
<text text-anchor="middle" x="171.627" y="-175.5" font-family="Helvetica,sans-Serif" font-size="10.00">thread</text>
</g>
<!-- Node3&#45;&gt;Node9 -->
<g id="edge8" class="edge"><title>Node3&#45;&gt;Node9</title>
<path fill="none" stroke="midnightblue" d="M221.148,-224.324C212.426,-216.341 199.284,-204.313 188.729,-194.653"/>
<polygon fill="midnightblue" stroke="midnightblue" points="191.019,-192.004 181.279,-187.834 186.293,-197.167 191.019,-192.004"/>
</g>
<!-- Node10 -->
<g id="node10" class="node"><title>Node10</title>
<polygon fill="none" stroke="#bfbfbf" points="211.627,-168.5 211.627,-187.5 249.627,-187.5 249.627,-168.5 211.627,-168.5"/>
<text text-anchor="middle" x="230.627" y="-175.5" font-family="Helvetica,sans-Serif" font-size="10.00">tuple</text>
</g>
<!-- Node3&#45;&gt;Node10 -->
<g id="edge9" class="edge"><title>Node3&#45;&gt;Node10</title>
<path fill="none" stroke="midnightblue" d="M230.627,-224.083C230.627,-217.006 230.627,-206.861 230.627,-197.986"/>
<polygon fill="midnightblue" stroke="midnightblue" points="234.127,-197.751 230.627,-187.751 227.127,-197.751 234.127,-197.751"/>
</g>
<!-- Node11 -->
<g id="node11" class="node"><title>Node11</title>
<polygon fill="none" stroke="#bfbfbf" points="144.127,-112.5 144.127,-131.5 227.127,-131.5 227.127,-112.5 144.127,-112.5"/>
<text text-anchor="middle" x="185.627" y="-119.5" font-family="Helvetica,sans-Serif" font-size="10.00">unordered_map</text>
</g>
<!-- Node3&#45;&gt;Node11 -->
<g id="edge10" class="edge"><title>Node3&#45;&gt;Node11</title>
<path fill="none" stroke="midnightblue" d="M193.525,-224.458C174.182,-217.918 152.199,-206.724 140.627,-188 129.69,-170.303 147.481,-150.775 163.814,-137.788"/>
<polygon fill="midnightblue" stroke="midnightblue" points="166.138,-140.421 172.063,-131.638 161.954,-134.809 166.138,-140.421"/>
</g>
<!-- Node12 -->
<g id="node12" class="node"><title>Node12</title>
<polygon fill="none" stroke="#bfbfbf" points="603.627,-56.5 603.627,-75.5 647.627,-75.5 647.627,-56.5 603.627,-56.5"/>
<text text-anchor="middle" x="625.627" y="-63.5" font-family="Helvetica,sans-Serif" font-size="10.00">vector</text>
</g>
<!-- Node3&#45;&gt;Node12 -->
<g id="edge11" class="edge"><title>Node3&#45;&gt;Node12</title>
<path fill="none" stroke="midnightblue" d="M289.64,-229.767C389.511,-223.738 583.238,-209.416 605.627,-188 633.36,-161.471 631.955,-112.313 628.695,-85.5448"/>
<polygon fill="midnightblue" stroke="midnightblue" points="632.149,-84.9758 627.263,-75.5746 625.22,-85.9705 632.149,-84.9758"/>
</g>
<!-- Node13 -->
<g id="node13" class="node"><title>Node13</title>
<polygon fill="none" stroke="#bfbfbf" points="554.127,-168.5 554.127,-187.5 597.127,-187.5 597.127,-168.5 554.127,-168.5"/>
<text text-anchor="middle" x="575.627" y="-175.5" font-family="Helvetica,sans-Serif" font-size="10.00">deque</text>
</g>
<!-- Node3&#45;&gt;Node13 -->
<g id="edge12" class="edge"><title>Node3&#45;&gt;Node13</title>
<path fill="none" stroke="midnightblue" d="M289.805,-227.024C351.088,-220.274 449.718,-207.843 544.049,-187.837"/>
<polygon fill="midnightblue" stroke="midnightblue" points="545.006,-191.211 554.046,-185.685 543.533,-184.368 545.006,-191.211"/>
</g>
<!-- Node14 -->
<g id="node14" class="node"><title>Node14</title>
<g id="a_node14"><a xlink:href="Backend_8h.html" target="_top" xlink:title="Monitoring/Backend.h">
<polygon fill="none" stroke="black" points="425.127,-168.5 425.127,-187.5 536.127,-187.5 536.127,-168.5 425.127,-168.5"/>
<text text-anchor="middle" x="480.627" y="-175.5" font-family="Helvetica,sans-Serif" font-size="10.00">Monitoring/Backend.h</text>
</a>
</g>
</g>
<!-- Node3&#45;&gt;Node14 -->
<g id="edge13" class="edge"><title>Node3&#45;&gt;Node14</title>
<path fill="none" stroke="midnightblue" d="M270.24,-224.444C313.852,-215.023 384.027,-199.866 431.205,-189.675"/>
<polygon fill="midnightblue" stroke="midnightblue" points="432.164,-193.049 441.199,-187.516 430.686,-186.207 432.164,-193.049"/>
</g>
<!-- Node19 -->
<g id="node19" class="node"><title>Node19</title>
<g id="a_node19"><a xlink:href="DerivedMetrics_8h.html" target="_top" xlink:title="Monitoring/DerivedMetrics.h">
<polygon fill="none" stroke="black" points="268.127,-168.5 268.127,-187.5 407.127,-187.5 407.127,-168.5 268.127,-168.5"/>
<text text-anchor="middle" x="337.627" y="-175.5" font-family="Helvetica,sans-Serif" font-size="10.00">Monitoring/DerivedMetrics.h</text>
</a>
</g>
</g>
<!-- Node3&#45;&gt;Node19 -->
<g id="edge25" class="edge"><title>Node3&#45;&gt;Node19</title>
<path fill="none" stroke="midnightblue" d="M247.818,-224.324C264.978,-215.664 291.573,-202.242 311.374,-192.249"/>
<polygon fill="midnightblue" stroke="midnightblue" points="313.128,-195.285 320.478,-187.655 309.974,-189.035 313.128,-195.285"/>
</g>
<!-- Node20 -->
<g id="node20" class="node"><title>Node20</title>
<g id="a_node20"><a xlink:href="ProcessMonitor_8h.html" target="_top" xlink:title="Monitoring/ProcessMonitor.h">
<polygon fill="none" stroke="black" points="689.127,-168.5 689.127,-187.5 830.127,-187.5 830.127,-168.5 689.127,-168.5"/>
<text text-anchor="middle" x="759.627" y="-175.5" font-family="Helvetica,sans-Serif" font-size="10.00">Monitoring/ProcessMonitor.h</text>
</a>
</g>
</g>
<!-- Node3&#45;&gt;Node20 -->
<g id="edge31" class="edge"><title>Node3&#45;&gt;Node20</title>
<path fill="none" stroke="midnightblue" d="M289.77,-226.963C384.711,-217.271 571.314,-198.223 678.584,-187.273"/>
<polygon fill="midnightblue" stroke="midnightblue" points="679.118,-190.737 688.711,-186.239 678.407,-183.773 679.118,-190.737"/>
</g>
<!-- Node14&#45;&gt;Node5 -->
<g id="edge14" class="edge"><title>Node14&#45;&gt;Node5</title>
<path fill="none" stroke="midnightblue" d="M459.912,-168.363C440.491,-159.971 410.894,-146.414 386.627,-132 360.709,-116.605 332.866,-95.7587 315.125,-81.8687"/>
<polygon fill="midnightblue" stroke="midnightblue" points="317.294,-79.122 307.28,-75.6631 312.951,-84.6121 317.294,-79.122"/>
</g>
<!-- Node14&#45;&gt;Node8 -->
<g id="edge15" class="edge"><title>Node14&#45;&gt;Node8</title>
<path fill="none" stroke="midnightblue" d="M487.134,-168.424C499.344,-151.727 525.301,-113.225 534.627,-76 538.754,-59.5299 531.246,-41.3561 523.73,-28.4229"/>
<polygon fill="midnightblue" stroke="midnightblue" points="526.488,-26.2363 518.174,-19.6694 520.578,-29.9878 526.488,-26.2363"/>
</g>
<!-- Node15 -->
<g id="node15" class="node"><title>Node15</title>
<g id="a_node15"><a xlink:href="Metric_8h.html" target="_top" xlink:title="Monitoring/Metric.h">
<polygon fill="none" stroke="black" points="395.627,-112.5 395.627,-131.5 495.627,-131.5 495.627,-112.5 395.627,-112.5"/>
<text text-anchor="middle" x="445.627" y="-119.5" font-family="Helvetica,sans-Serif" font-size="10.00">Monitoring/Metric.h</text>
</a>
</g>
</g>
<!-- Node14&#45;&gt;Node15 -->
<g id="edge16" class="edge"><title>Node14&#45;&gt;Node15</title>
<path fill="none" stroke="midnightblue" d="M474.847,-168.083C469.955,-160.534 462.8,-149.495 456.794,-140.23"/>
<polygon fill="midnightblue" stroke="midnightblue" points="459.675,-138.239 451.299,-131.751 453.801,-142.046 459.675,-138.239"/>
</g>
<!-- Node15&#45;&gt;Node5 -->
<g id="edge18" class="edge"><title>Node15&#45;&gt;Node5</title>
<path fill="none" stroke="midnightblue" d="M422.018,-112.444C397.023,-103.385 357.39,-89.0213 329.381,-78.8705"/>
<polygon fill="midnightblue" stroke="midnightblue" points="330.231,-75.4558 319.636,-75.339 327.846,-82.0369 330.231,-75.4558"/>
</g>
<!-- Node15&#45;&gt;Node6 -->
<g id="edge19" class="edge"><title>Node15&#45;&gt;Node6</title>
<path fill="none" stroke="midnightblue" d="M407.61,-112.459C372.909,-104.461 320.018,-91.768 265.179,-75.9817"/>
<polygon fill="midnightblue" stroke="midnightblue" points="265.863,-72.5358 255.284,-73.1051 263.909,-79.2575 265.863,-72.5358"/>
</g>
<!-- Node15&#45;&gt;Node8 -->
<g id="edge17" class="edge"><title>Node15&#45;&gt;Node8</title>
<path fill="none" stroke="midnightblue" d="M471.131,-112.472C487.614,-105.478 507.766,-93.792 517.627,-76 525.517,-61.7654 522.666,-43.0463 518.643,-29.3536"/>
<polygon fill="midnightblue" stroke="midnightblue" points="521.873,-27.9788 515.348,-19.6316 515.243,-30.2259 521.873,-27.9788"/>
</g>
<!-- Node15&#45;&gt;Node12 -->
<g id="edge22" class="edge"><title>Node15&#45;&gt;Node12</title>
<path fill="none" stroke="midnightblue" d="M474.149,-112.444C506.67,-102.687 559.706,-86.7764 593.615,-76.6036"/>
<polygon fill="midnightblue" stroke="midnightblue" points="594.908,-79.8698 603.481,-73.6439 592.897,-73.165 594.908,-79.8698"/>
</g>
<!-- Node16 -->
<g id="node16" class="node"><title>Node16</title>
<polygon fill="none" stroke="#bfbfbf" points="338.127,-56.5 338.127,-75.5 379.127,-75.5 379.127,-56.5 338.127,-56.5"/>
<text text-anchor="middle" x="358.627" y="-63.5" font-family="Helvetica,sans-Serif" font-size="10.00">regex</text>
</g>
<!-- Node15&#45;&gt;Node16 -->
<g id="edge20" class="edge"><title>Node15&#45;&gt;Node16</title>
<path fill="none" stroke="midnightblue" d="M431.649,-112.324C418.077,-103.9 397.247,-90.9709 381.302,-81.0741"/>
<polygon fill="midnightblue" stroke="midnightblue" points="382.913,-77.9544 372.57,-75.6545 379.221,-83.9019 382.913,-77.9544"/>
</g>
<!-- Node17 -->
<g id="node17" class="node"><title>Node17</title>
<polygon fill="none" stroke="#bfbfbf" points="397.627,-56.5 397.627,-75.5 443.627,-75.5 443.627,-56.5 397.627,-56.5"/>
<text text-anchor="middle" x="420.627" y="-63.5" font-family="Helvetica,sans-Serif" font-size="10.00">variant</text>
</g>
<!-- Node15&#45;&gt;Node17 -->
<g id="edge21" class="edge"><title>Node15&#45;&gt;Node17</title>
<path fill="none" stroke="midnightblue" d="M441.499,-112.083C438.113,-104.77 433.211,-94.1814 429.008,-85.1034"/>
<polygon fill="midnightblue" stroke="midnightblue" points="432.056,-83.3553 424.678,-75.7511 425.704,-86.2962 432.056,-83.3553"/>
</g>
<!-- Node18 -->
<g id="node18" class="node"><title>Node18</title>
<g id="a_node18"><a xlink:href="Tags_8h.html" target="_top" xlink:title="Tags.h">
<polygon fill="none" stroke="black" points="462.127,-56.5 462.127,-75.5 509.127,-75.5 509.127,-56.5 462.127,-56.5"/>
<text text-anchor="middle" x="485.627" y="-63.5" font-family="Helvetica,sans-Serif" font-size="10.00">Tags.h</text>
</a>
</g>
</g>
<!-- Node15&#45;&gt;Node18 -->
<g id="edge23" class="edge"><title>Node15&#45;&gt;Node18</title>
<path fill="none" stroke="midnightblue" d="M452.232,-112.083C457.882,-104.455 466.172,-93.2645 473.078,-83.9408"/>
<polygon fill="midnightblue" stroke="midnightblue" points="476.005,-85.87 479.145,-75.7511 470.38,-81.7034 476.005,-85.87"/>
</g>
<!-- Node18&#45;&gt;Node8 -->
<g id="edge24" class="edge"><title>Node18&#45;&gt;Node8</title>
<path fill="none" stroke="midnightblue" d="M489.92,-56.083C493.479,-48.6913 498.65,-37.9533 503.051,-28.8111"/>
<polygon fill="midnightblue" stroke="midnightblue" points="506.229,-30.2795 507.414,-19.7511 499.922,-27.2427 506.229,-30.2795"/>
</g>
<!-- Node19&#45;&gt;Node7 -->
<g id="edge27" class="edge"><title>Node19&#45;&gt;Node7</title>
<path fill="none" stroke="midnightblue" d="M297.094,-168.433C258.137,-160.107 197.363,-146.874 135.852,-132.237"/>
<polygon fill="midnightblue" stroke="midnightblue" points="136.516,-128.797 125.977,-129.877 134.889,-135.606 136.516,-128.797"/>
</g>
<!-- Node19&#45;&gt;Node8 -->
<g id="edge28" class="edge"><title>Node19&#45;&gt;Node8</title>
<path fill="none" stroke="midnightblue" d="M318,-168.373C288.299,-154.092 233.026,-122.433 210.627,-76 206.765,-67.994 204.825,-62.7341 210.627,-56 245.247,-15.8191 410.682,-10.9845 480.466,-10.7689"/>
<polygon fill="midnightblue" stroke="midnightblue" points="480.81,-14.2688 490.81,-10.7693 480.81,-7.26882 480.81,-14.2688"/>
</g>
<!-- Node19&#45;&gt;Node11 -->
<g id="edge26" class="edge"><title>Node19&#45;&gt;Node11</title>
<path fill="none" stroke="midnightblue" d="M313.542,-168.444C288.082,-159.399 247.733,-145.064 219.168,-134.916"/>
<polygon fill="midnightblue" stroke="midnightblue" points="220.194,-131.566 209.599,-131.516 217.851,-138.162 220.194,-131.566"/>
</g>
<!-- Node19&#45;&gt;Node12 -->
<g id="edge29" class="edge"><title>Node19&#45;&gt;Node12</title>
<path fill="none" stroke="midnightblue" d="M379.664,-168.49C413.963,-160.882 463.325,-148.405 504.627,-132 540.626,-117.701 579.658,-95.3782 603.379,-80.9708"/>
<polygon fill="midnightblue" stroke="midnightblue" points="605.287,-83.9069 611.974,-75.6891 601.622,-77.943 605.287,-83.9069"/>
</g>
<!-- Node19&#45;&gt;Node15 -->
<g id="edge30" class="edge"><title>Node19&#45;&gt;Node15</title>
<path fill="none" stroke="midnightblue" d="M354.979,-168.324C372.299,-159.664 399.142,-146.242 419.129,-136.249"/>
<polygon fill="midnightblue" stroke="midnightblue" points="420.939,-139.257 428.318,-131.655 417.808,-132.996 420.939,-139.257"/>
</g>
<!-- Node20&#45;&gt;Node4 -->
<g id="edge32" class="edge"><title>Node20&#45;&gt;Node4</title>
<path fill="none" stroke="midnightblue" d="M825.342,-168.463C882.321,-160.579 966.839,-147.728 1039.63,-132 1039.73,-131.978 1039.83,-131.956 1039.93,-131.934"/>
<polygon fill="midnightblue" stroke="midnightblue" points="1040.72,-135.345 1049.63,-129.61 1039.08,-128.538 1040.72,-135.345"/>
</g>
<!-- Node20&#45;&gt;Node8 -->
<g id="edge35" class="edge"><title>Node20&#45;&gt;Node8</title>
<path fill="none" stroke="midnightblue" d="M752.114,-168.405C744.234,-159.372 731.506,-144.734 720.627,-132 691.944,-98.425 693.421,-80.4182 656.627,-56 621.462,-32.6625 573.56,-20.9142 542.612,-15.3877"/>
<polygon fill="midnightblue" stroke="midnightblue" points="542.861,-11.8808 532.42,-13.6835 541.706,-18.785 542.861,-11.8808"/>
</g>
<!-- Node20&#45;&gt;Node12 -->
<g id="edge36" class="edge"><title>Node20&#45;&gt;Node12</title>
<path fill="none" stroke="midnightblue" d="M743.411,-168.415C728.289,-160.06 705.452,-146.527 687.627,-132 669.407,-117.151 651.15,-97.2561 639.216,-83.4039"/>
<polygon fill="midnightblue" stroke="midnightblue" points="641.791,-81.0295 632.658,-75.6589 636.449,-85.5526 641.791,-81.0295"/>
</g>
<!-- Node20&#45;&gt;Node15 -->
<g id="edge38" class="edge"><title>Node20&#45;&gt;Node15</title>
<path fill="none" stroke="midnightblue" d="M709.873,-168.444C654.292,-158.885 564.363,-143.419 505.111,-133.23"/>
<polygon fill="midnightblue" stroke="midnightblue" points="505.597,-129.762 495.148,-131.516 504.411,-136.661 505.597,-129.762"/>
</g>
<!-- Node21 -->
<g id="node21" class="node"><title>Node21</title>
<polygon fill="none" stroke="#bfbfbf" points="730.127,-112.5 730.127,-131.5 859.127,-131.5 859.127,-112.5 730.127,-112.5"/>
<text text-anchor="middle" x="794.627" y="-119.5" font-family="Helvetica,sans-Serif" font-size="10.00">boost/algorithm/string.hpp</text>
</g>
<!-- Node20&#45;&gt;Node21 -->
<g id="edge33" class="edge"><title>Node20&#45;&gt;Node21</title>
<path fill="none" stroke="midnightblue" d="M765.407,-168.083C770.299,-160.534 777.454,-149.495 783.46,-140.23"/>
<polygon fill="midnightblue" stroke="midnightblue" points="786.453,-142.046 788.955,-131.751 780.579,-138.239 786.453,-142.046"/>
</g>
<!-- Node22 -->
<g id="node22" class="node"><title>Node22</title>
<polygon fill="none" stroke="#bfbfbf" points="877.627,-112.5 877.627,-131.5 931.627,-131.5 931.627,-112.5 877.627,-112.5"/>
<text text-anchor="middle" x="904.627" y="-119.5" font-family="Helvetica,sans-Serif" font-size="10.00">iostream</text>
</g>
<!-- Node20&#45;&gt;Node22 -->
<g id="edge34" class="edge"><title>Node20&#45;&gt;Node22</title>
<path fill="none" stroke="midnightblue" d="M782.603,-168.444C806.784,-159.438 845.045,-145.189 872.273,-135.049"/>
<polygon fill="midnightblue" stroke="midnightblue" points="873.609,-138.286 881.759,-131.516 871.166,-131.727 873.609,-138.286"/>
</g>
<!-- Node23 -->
<g id="node23" class="node"><title>Node23</title>
<polygon fill="none" stroke="#bfbfbf" points="950.127,-112.5 950.127,-131.5 1031.13,-131.5 1031.13,-112.5 950.127,-112.5"/>
<text text-anchor="middle" x="990.627" y="-119.5" font-family="Helvetica,sans-Serif" font-size="10.00">sys/resource.h</text>
</g>
<!-- Node20&#45;&gt;Node23 -->
<g id="edge37" class="edge"><title>Node20&#45;&gt;Node23</title>
<path fill="none" stroke="midnightblue" d="M796.23,-168.444C836.358,-159.063 900.825,-143.993 944.412,-133.804"/>
<polygon fill="midnightblue" stroke="midnightblue" points="945.255,-137.201 954.196,-131.516 943.661,-130.385 945.255,-137.201"/>
</g>
</g>
</svg>
        <g id="navigator" transform="translate(0 0)" fill="#404254">
                <rect fill="#f2f5e9" fill-opacity="0.5" stroke="#606060" stroke-width=".5" x="0" y="0" width="60" height="60"/>
                <use id="zoomplus" xlink:href="#zoomPlus" x="17" y="9" onmousedown="handleZoom(evt,'in')"/>
                <use id="zoomminus" xlink:href="#zoomMin" x="42" y="9" onmousedown="handleZoom(evt,'out')"/>
                <use id="reset" xlink:href="#resetDef" x="30" y="36" onmousedown="handleReset()"/>
                <g id="arrowUp" xlink:href="#dirArrow" transform="translate(30 24)" onmousedown="handlePan(0,-1)">
                  <use xlink:href="#rim" fill="#404040">
                        <set attributeName="fill" to="#808080" begin="arrowUp.mouseover" end="arrowUp.mouseout"/>
                  </use>
                  <path fill="none" stroke="white" stroke-width="1.5" d="M0,-3.0v7 M-2.5,-0.5L0,-3.0L2.5,-0.5"/>
                </g>
                <g id="arrowRight" xlink:href="#dirArrow" transform="rotate(90) translate(36 -43)" onmousedown="handlePan(1,0)">
                  <use xlink:href="#rim" fill="#404040">
                        <set attributeName="fill" to="#808080" begin="arrowRight.mouseover" end="arrowRight.mouseout"/>
                  </use>
                  <path fill="none" stroke="white" stroke-width="1.5" d="M0,-3.0v7 M-2.5,-0.5L0,-3.0L2.5,-0.5"/>
                </g>
                <g id="arrowDown" xlink:href="#dirArrow" transform="rotate(180) translate(-30 -48)" onmousedown="handlePan(0,1)">
                  <use xlink:href="#rim" fill="#404040">
                        <set attributeName="fill" to="#808080" begin="arrowDown.mouseover" end="arrowDown.mouseout"/>
                  </use>
                  <path fill="none" stroke="white" stroke-width="1.5" d="M0,-3.0v7 M-2.5,-0.5L0,-3.0L2.5,-0.5"/>
                </g>
                <g id="arrowLeft" xlink:href="#dirArrow" transform="rotate(270) translate(-36 17)" onmousedown="handlePan(-1,0)">
                  <use xlink:href="#rim" fill="#404040">
                        <set attributeName="fill" to="#808080" begin="arrowLeft.mouseover" end="arrowLeft.mouseout"/>
                  </use>
                  <path fill="none" stroke="white" stroke-width="1.5" d="M0,-3.0v7 M-2.5,-0.5L0,-3.0L2.5,-0.5"/>
                </g>
        </g>
        <svg viewBox="0 0 15 15" width="100%" height="30px" preserveAspectRatio="xMaxYMin meet">
         <g id="arrow_out" transform="scale(0.3 0.3)">
          <a xlink:href="1-Basic_8cxx__incl_org.svg" target="_base">
           <rect id="button" ry="5" rx="5" y="6" x="6" height="38" width="38"
                fill="#f2f5e9" fill-opacity="0.5" stroke="#606060" stroke-width="1.0"/>
           <path id="arrow"
             d="M 11.500037,31.436501 C 11.940474,20.09759 22.043105,11.32322 32.158766,21.979434 L 37.068811,17.246167 C 37.068811,17.246167 37.088388,32 37.088388,32 L 22.160133,31.978069 C 22.160133,31.978069 26.997745,27.140456 26.997745,27.140456 C 18.528582,18.264221 13.291696,25.230495 11.500037,31.436501 z"
             style="fill:#404040;"/>
          </a>
         </g>
        </svg>
</svg>
