<?xml version="1.0" encoding="UTF-8" standalone="no"?>
<!DOCTYPE svg PUBLIC "-//W3C//DTD SVG 1.1//EN"
 "http://www.w3.org/Graphics/SVG/1.1/DTD/svg11.dtd">
<!-- Generated by graphviz version 2.38.0 (20140413.2041)
 -->
<!-- Title: /home/travis/build/AliceO2Group/Monitoring/src/Backends/ApMonBackend.h Pages: 1 -->
<svg width="593pt" height="274pt"
 viewBox="0.00 0.00 593.10 274.00" xmlns="http://www.w3.org/2000/svg" xmlns:xlink="http://www.w3.org/1999/xlink">
<g id="graph0" class="graph" transform="scale(1 1) rotate(0) translate(4 270)">
<title>/home/travis/build/AliceO2Group/Monitoring/src/Backends/ApMonBackend.h</title>
<!-- Node1 -->
<g id="node1" class="node"><title>Node1</title>
<polygon fill="#bfbfbf" stroke="black" points="351.104,-224.5 351.104,-265.5 511.104,-265.5 511.104,-224.5 351.104,-224.5"/>
<text text-anchor="start" x="359.104" y="-253.5" font-family="Helvetica,sans-Serif" font-size="10.00">/home/travis/build</text>
<text text-anchor="start" x="359.104" y="-242.5" font-family="Helvetica,sans-Serif" font-size="10.00">/AliceO2Group/Monitoring</text>
<text text-anchor="middle" x="431.104" y="-231.5" font-family="Helvetica,sans-Serif" font-size="10.00">/src/Backends/ApMonBackend.h</text>
</g>
<!-- Node2 -->
<g id="node2" class="node"><title>Node2</title>
<g id="a_node2"><a xlink:href="Backend_8h.html" target="_top" xlink:title="Monitoring/Backend.h">
<polygon fill="none" stroke="black" points="212.604,-168.5 212.604,-187.5 323.604,-187.5 323.604,-168.5 212.604,-168.5"/>
<text text-anchor="middle" x="268.104" y="-175.5" font-family="Helvetica,sans-Serif" font-size="10.00">Monitoring/Backend.h</text>
</a>
</g>
</g>
<!-- Node1&#45;&gt;Node2 -->
<g id="edge1" class="edge"><title>Node1&#45;&gt;Node2</title>
<path fill="none" stroke="midnightblue" d="M382.199,-224.498C355.286,-213.766 322.695,-200.769 299.248,-191.419"/>
<polygon fill="midnightblue" stroke="midnightblue" points="300.387,-188.106 289.802,-187.652 297.794,-194.608 300.387,-188.106"/>
</g>
<!-- Node3 -->
<g id="node3" class="node"><title>Node3</title>
<polygon fill="none" stroke="#bfbfbf" points="357.104,-56.5 357.104,-75.5 403.104,-75.5 403.104,-56.5 357.104,-56.5"/>
<text text-anchor="middle" x="380.104" y="-63.5" font-family="Helvetica,sans-Serif" font-size="10.00">chrono</text>
</g>
<!-- Node1&#45;&gt;Node3 -->
<g id="edge15" class="edge"><title>Node1&#45;&gt;Node3</title>
<path fill="none" stroke="midnightblue" d="M425.452,-224.382C415.526,-189.932 395.1,-119.042 385.418,-85.4424"/>
<polygon fill="midnightblue" stroke="midnightblue" points="388.71,-84.2238 382.578,-75.5838 381.983,-86.1619 388.71,-84.2238"/>
</g>
<!-- Node4 -->
<g id="node4" class="node"><title>Node4</title>
<polygon fill="none" stroke="#bfbfbf" points="228.604,-0.5 228.604,-19.5 269.604,-19.5 269.604,-0.5 228.604,-0.5"/>
<text text-anchor="middle" x="249.104" y="-7.5" font-family="Helvetica,sans-Serif" font-size="10.00">string</text>
</g>
<!-- Node1&#45;&gt;Node4 -->
<g id="edge14" class="edge"><title>Node1&#45;&gt;Node4</title>
<path fill="none" stroke="midnightblue" d="M435.639,-224.237C443.005,-186.667 452.945,-104.381 412.104,-56 395.127,-35.8881 321.969,-21.8735 279.657,-15.2814"/>
<polygon fill="midnightblue" stroke="midnightblue" points="280.028,-11.7978 269.618,-13.7662 278.983,-18.7194 280.028,-11.7978"/>
</g>
<!-- Node11 -->
<g id="node11" class="node"><title>Node11</title>
<polygon fill="none" stroke="#bfbfbf" points="459.104,-168.5 459.104,-187.5 515.104,-187.5 515.104,-168.5 459.104,-168.5"/>
<text text-anchor="middle" x="487.104" y="-175.5" font-family="Helvetica,sans-Serif" font-size="10.00">ApMon.h</text>
</g>
<!-- Node1&#45;&gt;Node11 -->
<g id="edge13" class="edge"><title>Node1&#45;&gt;Node11</title>
<path fill="none" stroke="midnightblue" d="M447.906,-224.498C455.914,-215.203 465.385,-204.21 473.011,-195.358"/>
<polygon fill="midnightblue" stroke="midnightblue" points="475.774,-197.513 479.65,-187.652 470.471,-192.944 475.774,-197.513"/>
</g>
<!-- Node12 -->
<g id="node12" class="node"><title>Node12</title>
<polygon fill="none" stroke="#bfbfbf" points="533.104,-168.5 533.104,-187.5 585.104,-187.5 585.104,-168.5 533.104,-168.5"/>
<text text-anchor="middle" x="559.104" y="-175.5" font-family="Helvetica,sans-Serif" font-size="10.00">memory</text>
</g>
<!-- Node1&#45;&gt;Node12 -->
<g id="edge16" class="edge"><title>Node1&#45;&gt;Node12</title>
<path fill="none" stroke="midnightblue" d="M469.509,-224.498C489.983,-214.101 514.641,-201.579 532.901,-192.306"/>
<polygon fill="midnightblue" stroke="midnightblue" points="534.734,-195.301 542.066,-187.652 531.565,-189.06 534.734,-195.301"/>
</g>
<!-- Node2&#45;&gt;Node3 -->
<g id="edge2" class="edge"><title>Node2&#45;&gt;Node3</title>
<path fill="none" stroke="midnightblue" d="M276.893,-168.368C295.703,-149.894 340.097,-106.293 364.075,-82.7436"/>
<polygon fill="midnightblue" stroke="midnightblue" points="366.675,-85.0956 371.357,-75.5914 361.77,-80.1015 366.675,-85.0956"/>
</g>
<!-- Node2&#45;&gt;Node4 -->
<g id="edge3" class="edge"><title>Node2&#45;&gt;Node4</title>
<path fill="none" stroke="midnightblue" d="M212.532,-173.477C149.929,-166.19 50.8386,-143.917 4.10441,-76 -0.934425,-68.6773 -1.58499,-62.8296 4.10441,-56 31.0095,-23.7031 158.332,-14.5078 218.048,-11.9526"/>
<polygon fill="midnightblue" stroke="midnightblue" points="218.517,-15.4371 228.372,-11.5487 218.243,-8.44242 218.517,-15.4371"/>
</g>
<!-- Node5 -->
<g id="node5" class="node"><title>Node5</title>
<g id="a_node5"><a xlink:href="Metric_8h.html" target="_top" xlink:title="Monitoring/Metric.h">
<polygon fill="none" stroke="black" points="188.104,-112.5 188.104,-131.5 288.104,-131.5 288.104,-112.5 188.104,-112.5"/>
<text text-anchor="middle" x="238.104" y="-119.5" font-family="Helvetica,sans-Serif" font-size="10.00">Monitoring/Metric.h</text>
</a>
</g>
</g>
<!-- Node2&#45;&gt;Node5 -->
<g id="edge4" class="edge"><title>Node2&#45;&gt;Node5</title>
<path fill="none" stroke="midnightblue" d="M263.151,-168.083C259,-160.613 252.951,-149.724 247.838,-140.52"/>
<polygon fill="midnightblue" stroke="midnightblue" points="250.882,-138.793 242.966,-131.751 244.763,-142.192 250.882,-138.793"/>
</g>
<!-- Node5&#45;&gt;Node3 -->
<g id="edge6" class="edge"><title>Node5&#45;&gt;Node3</title>
<path fill="none" stroke="midnightblue" d="M260.605,-112.444C284.182,-103.478 321.427,-89.314 348.068,-79.1827"/>
<polygon fill="midnightblue" stroke="midnightblue" points="349.606,-82.3424 357.709,-75.5164 347.118,-75.7995 349.606,-82.3424"/>
</g>
<!-- Node5&#45;&gt;Node4 -->
<g id="edge5" class="edge"><title>Node5&#45;&gt;Node4</title>
<path fill="none" stroke="midnightblue" d="M242.471,-112.307C246.664,-103.437 252.704,-89.1449 255.104,-76 257.907,-60.6518 255.96,-43.013 253.561,-29.9861"/>
<polygon fill="midnightblue" stroke="midnightblue" points="256.924,-28.9673 251.445,-19.899 250.073,-30.4045 256.924,-28.9673"/>
</g>
<!-- Node6 -->
<g id="node6" class="node"><title>Node6</title>
<polygon fill="none" stroke="#bfbfbf" points="303.604,-56.5 303.604,-75.5 338.604,-75.5 338.604,-56.5 303.604,-56.5"/>
<text text-anchor="middle" x="321.104" y="-63.5" font-family="Helvetica,sans-Serif" font-size="10.00">map</text>
</g>
<!-- Node5&#45;&gt;Node6 -->
<g id="edge7" class="edge"><title>Node5&#45;&gt;Node6</title>
<path fill="none" stroke="midnightblue" d="M251.44,-112.324C264.266,-103.979 283.889,-91.2122 299.044,-81.3524"/>
<polygon fill="midnightblue" stroke="midnightblue" points="301.329,-84.0417 307.802,-75.6545 297.511,-78.1742 301.329,-84.0417"/>
</g>
<!-- Node7 -->
<g id="node7" class="node"><title>Node7</title>
<polygon fill="none" stroke="#bfbfbf" points="13.6044,-56.5 13.6044,-75.5 54.6044,-75.5 54.6044,-56.5 13.6044,-56.5"/>
<text text-anchor="middle" x="34.1044" y="-63.5" font-family="Helvetica,sans-Serif" font-size="10.00">regex</text>
</g>
<!-- Node5&#45;&gt;Node7 -->
<g id="edge8" class="edge"><title>Node5&#45;&gt;Node7</title>
<path fill="none" stroke="midnightblue" d="M203.335,-112.425C170.13,-104.144 118.46,-91.0188 64.4763,-76.0222"/>
<polygon fill="midnightblue" stroke="midnightblue" points="65.3039,-72.6195 54.731,-73.3014 63.4214,-79.3616 65.3039,-72.6195"/>
</g>
<!-- Node8 -->
<g id="node8" class="node"><title>Node8</title>
<polygon fill="none" stroke="#bfbfbf" points="73.1044,-56.5 73.1044,-75.5 119.104,-75.5 119.104,-56.5 73.1044,-56.5"/>
<text text-anchor="middle" x="96.1044" y="-63.5" font-family="Helvetica,sans-Serif" font-size="10.00">variant</text>
</g>
<!-- Node5&#45;&gt;Node8 -->
<g id="edge9" class="edge"><title>Node5&#45;&gt;Node8</title>
<path fill="none" stroke="midnightblue" d="M215.604,-112.444C192.027,-103.478 154.782,-89.314 128.14,-79.1827"/>
<polygon fill="midnightblue" stroke="midnightblue" points="129.091,-75.7995 118.499,-75.5164 126.602,-82.3424 129.091,-75.7995"/>
</g>
<!-- Node9 -->
<g id="node9" class="node"><title>Node9</title>
<polygon fill="none" stroke="#bfbfbf" points="137.104,-56.5 137.104,-75.5 181.104,-75.5 181.104,-56.5 137.104,-56.5"/>
<text text-anchor="middle" x="159.104" y="-63.5" font-family="Helvetica,sans-Serif" font-size="10.00">vector</text>
</g>
<!-- Node5&#45;&gt;Node9 -->
<g id="edge10" class="edge"><title>Node5&#45;&gt;Node9</title>
<path fill="none" stroke="midnightblue" d="M225.412,-112.324C213.203,-103.979 194.526,-91.2122 180.101,-81.3524"/>
<polygon fill="midnightblue" stroke="midnightblue" points="181.996,-78.4082 171.766,-75.6545 178.046,-84.1871 181.996,-78.4082"/>
</g>
<!-- Node10 -->
<g id="node10" class="node"><title>Node10</title>
<g id="a_node10"><a xlink:href="Tags_8h.html" target="_top" xlink:title="Tags.h">
<polygon fill="none" stroke="black" points="199.604,-56.5 199.604,-75.5 246.604,-75.5 246.604,-56.5 199.604,-56.5"/>
<text text-anchor="middle" x="223.104" y="-63.5" font-family="Helvetica,sans-Serif" font-size="10.00">Tags.h</text>
</a>
</g>
</g>
<!-- Node5&#45;&gt;Node10 -->
<g id="edge11" class="edge"><title>Node5&#45;&gt;Node10</title>
<path fill="none" stroke="midnightblue" d="M235.627,-112.083C233.618,-104.849 230.718,-94.4087 228.215,-85.3968"/>
<polygon fill="midnightblue" stroke="midnightblue" points="231.584,-84.4495 225.535,-75.7511 224.839,-86.323 231.584,-84.4495"/>
</g>
<!-- Node10&#45;&gt;Node4 -->
<g id="edge12" class="edge"><title>Node10&#45;&gt;Node4</title>
<path fill="none" stroke="midnightblue" d="M227.398,-56.083C230.957,-48.6913 236.127,-37.9533 240.529,-28.8111"/>
<polygon fill="midnightblue" stroke="midnightblue" points="243.706,-30.2795 244.891,-19.7511 237.399,-27.2427 243.706,-30.2795"/>
</g>
</g>
</svg>
