<?xml version="1.0" encoding="UTF-8" standalone="no"?>
<!DOCTYPE svg PUBLIC "-//W3C//DTD SVG 1.1//EN"
 "http://www.w3.org/Graphics/SVG/1.1/DTD/svg11.dtd">
<!-- Generated by graphviz version 2.38.0 (20140413.2041)
 -->
<!-- Title: /home/travis/build/AliceO2Group/Monitoring/src/Backends/ApMonBackend.cxx Pages: 1 -->
<!--zoomable 341 -->
<svg id="main" version="1.1" xmlns="http://www.w3.org/2000/svg" xmlns:xlink="http://www.w3.org/1999/xlink" xml:space="preserve" onload="init(evt)">
<style type="text/css"><![CDATA[
.edge:hover path { stroke: red; }
.edge:hover polygon { stroke: red; fill: red; }
]]></style>
<script type="text/javascript"><![CDATA[
var edges = document.getElementsByTagName('g');
if (edges && edges.length) {
  for (var i=0;i<edges.length;i++) {
    if (edges[i].id.substr(0,4)=='edge') {
      edges[i].setAttribute('class','edge');
    }
  }
}
]]></script>
        <defs>
                <circle id="rim" cx="0" cy="0" r="7"/>
                <circle id="rim2" cx="0" cy="0" r="3.5"/>
                <g id="zoomPlus">
                        <use xlink:href="#rim" fill="#404040">
                                <set attributeName="fill" to="#808080" begin="zoomplus.mouseover" end="zoomplus.mouseout"/>
                        </use>
                        <path d="M-4,0h8M0,-4v8" fill="none" stroke="white" stroke-width="1.5" pointer-events="none"/>
                </g>
                <g id="zoomMin">
                        <use xlink:href="#rim" fill="#404040">
                                <set attributeName="fill" to="#808080" begin="zoomminus.mouseover" end="zoomminus.mouseout"/>
                        </use>
                        <path d="M-4,0h8" fill="none" stroke="white" stroke-width="1.5" pointer-events="none"/>
                </g>
                <g id="dirArrow">
                        <path fill="none" stroke="white" stroke-width="1.5" d="M0,-3.0v7 M-2.5,-0.5L0,-3.0L2.5,-0.5"/>
                </g>
               <g id="resetDef">
                       <use xlink:href="#rim2" fill="#404040">
                               <set attributeName="fill" to="#808080" begin="reset.mouseover" end="reset.mouseout"/>
                       </use>
               </g>
        </defs>

<script type="text/javascript">
var viewWidth = 786;
var viewHeight = 341;
var sectionId = 'dynsection-0';
</script>
<script xlink:href="svgpan.js"/>
<svg id="graph" class="graph">
<g id="viewport">
<title>/home/travis/build/AliceO2Group/Monitoring/src/Backends/ApMonBackend.cxx</title>
<!-- Node1 -->
<g id="node1" class="node"><title>Node1</title>
<polygon fill="#bfbfbf" stroke="black" points="489.047,-291.5 489.047,-332.5 659.047,-332.5 659.047,-291.5 489.047,-291.5"/>
<text text-anchor="start" x="497.047" y="-320.5" font-family="Helvetica,sans-Serif" font-size="10.00">/home/travis/build</text>
<text text-anchor="start" x="497.047" y="-309.5" font-family="Helvetica,sans-Serif" font-size="10.00">/AliceO2Group/Monitoring</text>
<text text-anchor="middle" x="574.047" y="-298.5" font-family="Helvetica,sans-Serif" font-size="10.00">/src/Backends/ApMonBackend.cxx</text>
</g>
<!-- Node2 -->
<g id="node2" class="node"><title>Node2</title>
<g id="a_node2"><a xlink:href="ApMonBackend_8h.html" target="_top" xlink:title="ApMonBackend.h">
<polygon fill="none" stroke="black" points="307.047,-230 307.047,-249 401.047,-249 401.047,-230 307.047,-230"/>
<text text-anchor="middle" x="354.047" y="-237" font-family="Helvetica,sans-Serif" font-size="10.00">ApMonBackend.h</text>
</a>
</g>
</g>
<!-- Node1&#45;&gt;Node2 -->
<g id="edge1" class="edge"><title>Node1&#45;&gt;Node2</title>
<path fill="none" stroke="midnightblue" d="M513.057,-291.455C473.644,-278.825 423.679,-262.814 390.381,-252.143"/>
<polygon fill="midnightblue" stroke="midnightblue" points="391.203,-248.732 380.612,-249.013 389.067,-255.398 391.203,-248.732"/>
</g>
<!-- Node14 -->
<g id="node14" class="node"><title>Node14</title>
<polygon fill="none" stroke="#bfbfbf" points="585.047,-168.5 585.047,-187.5 639.047,-187.5 639.047,-168.5 585.047,-168.5"/>
<text text-anchor="middle" x="612.047" y="-175.5" font-family="Helvetica,sans-Serif" font-size="10.00">iostream</text>
</g>
<!-- Node1&#45;&gt;Node14 -->
<g id="edge18" class="edge"><title>Node1&#45;&gt;Node14</title>
<path fill="none" stroke="midnightblue" d="M589.936,-291.254C597.182,-281.055 605.028,-268.038 609.047,-255 614.869,-236.113 614.909,-213.333 613.937,-197.667"/>
<polygon fill="midnightblue" stroke="midnightblue" points="617.424,-197.356 613.119,-187.675 610.447,-197.927 617.424,-197.356"/>
</g>
<!-- Node15 -->
<g id="node15" class="node"><title>Node15</title>
<polygon fill="none" stroke="#bfbfbf" points="548.047,-230 548.047,-249 600.047,-249 600.047,-230 548.047,-230"/>
<text text-anchor="middle" x="574.047" y="-237" font-family="Helvetica,sans-Serif" font-size="10.00">sstream</text>
</g>
<!-- Node1&#45;&gt;Node15 -->
<g id="edge19" class="edge"><title>Node1&#45;&gt;Node15</title>
<path fill="none" stroke="midnightblue" d="M574.047,-291.362C574.047,-281.297 574.047,-269.104 574.047,-259.18"/>
<polygon fill="midnightblue" stroke="midnightblue" points="577.547,-259.173 574.047,-249.173 570.547,-259.173 577.547,-259.173"/>
</g>
<!-- Node16 -->
<g id="node16" class="node"><title>Node16</title>
<g id="a_node16"><a xlink:href="MonLogger_8h.html" target="_top" xlink:title="../MonLogger.h">
<polygon fill="none" stroke="black" points="448.047,-230 448.047,-249 530.047,-249 530.047,-230 448.047,-230"/>
<text text-anchor="middle" x="489.047" y="-237" font-family="Helvetica,sans-Serif" font-size="10.00">../MonLogger.h</text>
</a>
</g>
</g>
<!-- Node1&#45;&gt;Node16 -->
<g id="edge20" class="edge"><title>Node1&#45;&gt;Node16</title>
<path fill="none" stroke="midnightblue" d="M550.369,-291.362C536.799,-280.107 520.021,-266.19 507.446,-255.761"/>
<polygon fill="midnightblue" stroke="midnightblue" points="509.435,-252.863 499.504,-249.173 504.967,-258.251 509.435,-252.863"/>
</g>
<!-- Node18 -->
<g id="node18" class="node"><title>Node18</title>
<g id="a_node18"><a xlink:href="MonitoringException_8h.html" target="_top" xlink:title="../Exceptions/Monitoring\lException.h">
<polygon fill="none" stroke="black" points="656.047,-224.5 656.047,-254.5 778.047,-254.5 778.047,-224.5 656.047,-224.5"/>
<text text-anchor="start" x="664.047" y="-242.5" font-family="Helvetica,sans-Serif" font-size="10.00">../Exceptions/Monitoring</text>
<text text-anchor="middle" x="717.047" y="-231.5" font-family="Helvetica,sans-Serif" font-size="10.00">Exception.h</text>
</a>
</g>
</g>
<!-- Node1&#45;&gt;Node18 -->
<g id="edge24" class="edge"><title>Node1&#45;&gt;Node18</title>
<path fill="none" stroke="midnightblue" d="M613.88,-291.362C634.284,-281.302 659,-269.117 679.124,-259.196"/>
<polygon fill="midnightblue" stroke="midnightblue" points="680.883,-262.231 688.305,-254.67 677.788,-255.953 680.883,-262.231"/>
</g>
<!-- Node3 -->
<g id="node3" class="node"><title>Node3</title>
<g id="a_node3"><a xlink:href="Backend_8h.html" target="_top" xlink:title="Monitoring/Backend.h">
<polygon fill="none" stroke="black" points="121.547,-168.5 121.547,-187.5 232.547,-187.5 232.547,-168.5 121.547,-168.5"/>
<text text-anchor="middle" x="177.047" y="-175.5" font-family="Helvetica,sans-Serif" font-size="10.00">Monitoring/Backend.h</text>
</a>
</g>
</g>
<!-- Node2&#45;&gt;Node3 -->
<g id="edge2" class="edge"><title>Node2&#45;&gt;Node3</title>
<path fill="none" stroke="midnightblue" d="M328.687,-229.975C298.062,-219.68 246.39,-202.31 212.001,-190.75"/>
<polygon fill="midnightblue" stroke="midnightblue" points="212.953,-187.378 202.359,-187.509 210.723,-194.013 212.953,-187.378"/>
</g>
<!-- Node4 -->
<g id="node4" class="node"><title>Node4</title>
<polygon fill="none" stroke="#bfbfbf" points="362.047,-56.5 362.047,-75.5 408.047,-75.5 408.047,-56.5 362.047,-56.5"/>
<text text-anchor="middle" x="385.047" y="-63.5" font-family="Helvetica,sans-Serif" font-size="10.00">chrono</text>
</g>
<!-- Node2&#45;&gt;Node4 -->
<g id="edge16" class="edge"><title>Node2&#45;&gt;Node4</title>
<path fill="none" stroke="midnightblue" d="M335.116,-229.967C311.957,-218.169 277.093,-195.219 288.047,-168 303.177,-130.402 339.734,-98.9422 363.397,-81.5697"/>
<polygon fill="midnightblue" stroke="midnightblue" points="365.643,-84.2667 371.762,-75.6178 361.585,-78.563 365.643,-84.2667"/>
</g>
<!-- Node5 -->
<g id="node5" class="node"><title>Node5</title>
<polygon fill="none" stroke="#bfbfbf" points="200.547,-0.5 200.547,-19.5 241.547,-19.5 241.547,-0.5 200.547,-0.5"/>
<text text-anchor="middle" x="221.047" y="-7.5" font-family="Helvetica,sans-Serif" font-size="10.00">string</text>
</g>
<!-- Node2&#45;&gt;Node5 -->
<g id="edge15" class="edge"><title>Node2&#45;&gt;Node5</title>
<path fill="none" stroke="midnightblue" d="M379.02,-229.841C397.332,-222.021 420.871,-208.549 432.047,-188 450.103,-154.799 497.887,-144.691 417.047,-56 395.135,-31.9611 301.288,-19.0763 251.828,-13.8434"/>
<polygon fill="midnightblue" stroke="midnightblue" points="252.007,-10.3436 241.704,-12.8138 251.298,-17.3077 252.007,-10.3436"/>
</g>
<!-- Node12 -->
<g id="node12" class="node"><title>Node12</title>
<polygon fill="none" stroke="#bfbfbf" points="297.047,-168.5 297.047,-187.5 353.047,-187.5 353.047,-168.5 297.047,-168.5"/>
<text text-anchor="middle" x="325.047" y="-175.5" font-family="Helvetica,sans-Serif" font-size="10.00">ApMon.h</text>
</g>
<!-- Node2&#45;&gt;Node12 -->
<g id="edge14" class="edge"><title>Node2&#45;&gt;Node12</title>
<path fill="none" stroke="midnightblue" d="M349.892,-229.975C345.671,-221.315 339.01,-207.649 333.647,-196.645"/>
<polygon fill="midnightblue" stroke="midnightblue" points="336.721,-194.965 329.194,-187.509 330.429,-198.032 336.721,-194.965"/>
</g>
<!-- Node13 -->
<g id="node13" class="node"><title>Node13</title>
<polygon fill="none" stroke="#bfbfbf" points="371.047,-168.5 371.047,-187.5 423.047,-187.5 423.047,-168.5 371.047,-168.5"/>
<text text-anchor="middle" x="397.047" y="-175.5" font-family="Helvetica,sans-Serif" font-size="10.00">memory</text>
</g>
<!-- Node2&#45;&gt;Node13 -->
<g id="edge17" class="edge"><title>Node2&#45;&gt;Node13</title>
<path fill="none" stroke="midnightblue" d="M360.208,-229.975C366.658,-221.05 376.951,-206.807 385.019,-195.643"/>
<polygon fill="midnightblue" stroke="midnightblue" points="387.877,-197.664 390.897,-187.509 382.203,-193.564 387.877,-197.664"/>
</g>
<!-- Node3&#45;&gt;Node4 -->
<g id="edge3" class="edge"><title>Node3&#45;&gt;Node4</title>
<path fill="none" stroke="midnightblue" d="M187.805,-168.33C204.746,-154.969 239.018,-129.103 271.047,-112 297.206,-98.0307 328.672,-85.9337 351.912,-77.811"/>
<polygon fill="midnightblue" stroke="midnightblue" points="353.322,-81.0278 361.646,-74.4729 351.051,-74.4064 353.322,-81.0278"/>
</g>
<!-- Node3&#45;&gt;Node5 -->
<g id="edge4" class="edge"><title>Node3&#45;&gt;Node5</title>
<path fill="none" stroke="midnightblue" d="M143.785,-168.382C83.5708,-151.212 -33.4215,-109.716 10.0467,-56 32.3653,-28.4195 137.205,-17.0158 190.206,-12.9506"/>
<polygon fill="midnightblue" stroke="midnightblue" points="190.658,-16.427 200.378,-12.2119 190.151,-9.44542 190.658,-16.427"/>
</g>
<!-- Node6 -->
<g id="node6" class="node"><title>Node6</title>
<g id="a_node6"><a xlink:href="Metric_8h.html" target="_top" xlink:title="Monitoring/Metric.h">
<polygon fill="none" stroke="black" points="119.047,-112.5 119.047,-131.5 219.047,-131.5 219.047,-112.5 119.047,-112.5"/>
<text text-anchor="middle" x="169.047" y="-119.5" font-family="Helvetica,sans-Serif" font-size="10.00">Monitoring/Metric.h</text>
</a>
</g>
</g>
<!-- Node3&#45;&gt;Node6 -->
<g id="edge5" class="edge"><title>Node3&#45;&gt;Node6</title>
<path fill="none" stroke="midnightblue" d="M175.726,-168.083C174.666,-160.927 173.141,-150.635 171.816,-141.691"/>
<polygon fill="midnightblue" stroke="midnightblue" points="175.271,-141.13 170.343,-131.751 168.347,-142.156 175.271,-141.13"/>
</g>
<!-- Node6&#45;&gt;Node4 -->
<g id="edge7" class="edge"><title>Node6&#45;&gt;Node4</title>
<path fill="none" stroke="midnightblue" d="M204.881,-112.47C241.823,-103.61 301.058,-89.2199 352.047,-76 352.147,-75.9739 352.248,-75.9478 352.349,-75.9216"/>
<polygon fill="midnightblue" stroke="midnightblue" points="353.217,-79.3124 361.987,-73.3682 351.425,-72.5458 353.217,-79.3124"/>
</g>
<!-- Node6&#45;&gt;Node5 -->
<g id="edge6" class="edge"><title>Node6&#45;&gt;Node5</title>
<path fill="none" stroke="midnightblue" d="M176.578,-112.237C183.726,-103.541 194.345,-89.5834 201.047,-76 208.393,-61.1102 213.703,-42.9651 216.998,-29.6342"/>
<polygon fill="midnightblue" stroke="midnightblue" points="220.441,-30.2778 219.291,-19.7456 213.622,-28.6961 220.441,-30.2778"/>
</g>
<!-- Node7 -->
<g id="node7" class="node"><title>Node7</title>
<polygon fill="none" stroke="#bfbfbf" points="249.547,-56.5 249.547,-75.5 284.547,-75.5 284.547,-56.5 249.547,-56.5"/>
<text text-anchor="middle" x="267.047" y="-63.5" font-family="Helvetica,sans-Serif" font-size="10.00">map</text>
</g>
<!-- Node6&#45;&gt;Node7 -->
<g id="edge8" class="edge"><title>Node6&#45;&gt;Node7</title>
<path fill="none" stroke="midnightblue" d="M184.792,-112.324C200.365,-103.743 224.424,-90.486 242.506,-80.5224"/>
<polygon fill="midnightblue" stroke="midnightblue" points="244.271,-83.546 251.34,-75.6545 240.893,-77.4152 244.271,-83.546"/>
</g>
<!-- Node8 -->
<g id="node8" class="node"><title>Node8</title>
<polygon fill="none" stroke="#bfbfbf" points="302.547,-56.5 302.547,-75.5 343.547,-75.5 343.547,-56.5 302.547,-56.5"/>
<text text-anchor="middle" x="323.047" y="-63.5" font-family="Helvetica,sans-Serif" font-size="10.00">regex</text>
</g>
<!-- Node6&#45;&gt;Node8 -->
<g id="edge9" class="edge"><title>Node6&#45;&gt;Node8</title>
<path fill="none" stroke="midnightblue" d="M193.448,-112.444C220.305,-103.026 263.515,-87.8746 292.577,-77.6842"/>
<polygon fill="midnightblue" stroke="midnightblue" points="293.938,-80.916 302.216,-74.3042 291.621,-74.3104 293.938,-80.916"/>
</g>
<!-- Node9 -->
<g id="node9" class="node"><title>Node9</title>
<polygon fill="none" stroke="#bfbfbf" points="19.0467,-56.5 19.0467,-75.5 65.0467,-75.5 65.0467,-56.5 19.0467,-56.5"/>
<text text-anchor="middle" x="42.0467" y="-63.5" font-family="Helvetica,sans-Serif" font-size="10.00">variant</text>
</g>
<!-- Node6&#45;&gt;Node9 -->
<g id="edge10" class="edge"><title>Node6&#45;&gt;Node9</title>
<path fill="none" stroke="midnightblue" d="M148.923,-112.444C128.022,-103.557 95.112,-89.5632 71.3306,-79.4514"/>
<polygon fill="midnightblue" stroke="midnightblue" points="72.6483,-76.2085 62.0761,-75.5164 69.9092,-82.6504 72.6483,-76.2085"/>
</g>
<!-- Node10 -->
<g id="node10" class="node"><title>Node10</title>
<polygon fill="none" stroke="#bfbfbf" points="83.0467,-56.5 83.0467,-75.5 127.047,-75.5 127.047,-56.5 83.0467,-56.5"/>
<text text-anchor="middle" x="105.047" y="-63.5" font-family="Helvetica,sans-Serif" font-size="10.00">vector</text>
</g>
<!-- Node6&#45;&gt;Node10 -->
<g id="edge11" class="edge"><title>Node6&#45;&gt;Node10</title>
<path fill="none" stroke="midnightblue" d="M158.764,-112.324C149.21,-104.263 134.767,-92.0765 123.262,-82.3695"/>
<polygon fill="midnightblue" stroke="midnightblue" points="125.416,-79.6076 115.516,-75.8339 120.902,-84.9577 125.416,-79.6076"/>
</g>
<!-- Node11 -->
<g id="node11" class="node"><title>Node11</title>
<g id="a_node11"><a xlink:href="Tags_8h.html" target="_top" xlink:title="Tags.h">
<polygon fill="none" stroke="black" points="145.547,-56.5 145.547,-75.5 192.547,-75.5 192.547,-56.5 145.547,-56.5"/>
<text text-anchor="middle" x="169.047" y="-63.5" font-family="Helvetica,sans-Serif" font-size="10.00">Tags.h</text>
</a>
</g>
</g>
<!-- Node6&#45;&gt;Node11 -->
<g id="edge12" class="edge"><title>Node6&#45;&gt;Node11</title>
<path fill="none" stroke="midnightblue" d="M169.047,-112.083C169.047,-105.006 169.047,-94.8611 169.047,-85.9865"/>
<polygon fill="midnightblue" stroke="midnightblue" points="172.547,-85.751 169.047,-75.7511 165.547,-85.7511 172.547,-85.751"/>
</g>
<!-- Node11&#45;&gt;Node5 -->
<g id="edge13" class="edge"><title>Node11&#45;&gt;Node5</title>
<path fill="none" stroke="midnightblue" d="M177.633,-56.083C185.206,-48.2195 196.425,-36.5688 205.561,-27.0813"/>
<polygon fill="midnightblue" stroke="midnightblue" points="208.204,-29.3821 212.62,-19.7511 203.162,-24.5266 208.204,-29.3821"/>
</g>
<!-- Node16&#45;&gt;Node4 -->
<g id="edge21" class="edge"><title>Node16&#45;&gt;Node4</title>
<path fill="none" stroke="midnightblue" d="M483.746,-229.76C467.401,-202.806 417.56,-120.616 395.613,-84.4237"/>
<polygon fill="midnightblue" stroke="midnightblue" points="398.391,-82.2552 390.213,-75.5194 392.406,-85.8849 398.391,-82.2552"/>
</g>
<!-- Node16&#45;&gt;Node14 -->
<g id="edge23" class="edge"><title>Node16&#45;&gt;Node14</title>
<path fill="none" stroke="midnightblue" d="M506.67,-229.975C527.22,-220.034 561.41,-203.495 585.253,-191.961"/>
<polygon fill="midnightblue" stroke="midnightblue" points="586.979,-195.015 594.456,-187.509 583.93,-188.713 586.979,-195.015"/>
</g>
<!-- Node17 -->
<g id="node17" class="node"><title>Node17</title>
<polygon fill="none" stroke="#bfbfbf" points="517.047,-168.5 517.047,-187.5 567.047,-187.5 567.047,-168.5 517.047,-168.5"/>
<text text-anchor="middle" x="542.047" y="-175.5" font-family="Helvetica,sans-Serif" font-size="10.00">iomanip</text>
</g>
<!-- Node16&#45;&gt;Node17 -->
<g id="edge22" class="edge"><title>Node16&#45;&gt;Node17</title>
<path fill="none" stroke="midnightblue" d="M496.64,-229.975C504.748,-220.873 517.782,-206.241 527.81,-194.983"/>
<polygon fill="midnightblue" stroke="midnightblue" points="530.429,-197.304 534.467,-187.509 525.202,-192.648 530.429,-197.304"/>
</g>
<!-- Node18&#45;&gt;Node5 -->
<g id="edge26" class="edge"><title>Node18&#45;&gt;Node5</title>
<path fill="none" stroke="midnightblue" d="M705.413,-224.272C692.496,-209.071 670.49,-184.887 648.047,-168 564.149,-104.874 538.737,-91.8346 440.047,-56 375.301,-32.4906 295.082,-19.9509 251.955,-14.4694"/>
<polygon fill="midnightblue" stroke="midnightblue" points="252.174,-10.97 241.822,-13.2255 251.321,-17.9179 252.174,-10.97"/>
</g>
<!-- Node19 -->
<g id="node19" class="node"><title>Node19</title>
<polygon fill="none" stroke="#bfbfbf" points="695.547,-168.5 695.547,-187.5 754.547,-187.5 754.547,-168.5 695.547,-168.5"/>
<text text-anchor="middle" x="725.047" y="-175.5" font-family="Helvetica,sans-Serif" font-size="10.00">exception</text>
</g>
<!-- Node18&#45;&gt;Node19 -->
<g id="edge25" class="edge"><title>Node18&#45;&gt;Node19</title>
<path fill="none" stroke="midnightblue" d="M718.943,-224.399C720.021,-216.377 721.385,-206.233 722.55,-197.569"/>
<polygon fill="midnightblue" stroke="midnightblue" points="726.019,-198.035 723.883,-187.658 719.081,-197.102 726.019,-198.035"/>
</g>
</g>
</svg>
        <g id="navigator" transform="translate(0 0)" fill="#404254">
                <rect fill="#f2f5e9" fill-opacity="0.5" stroke="#606060" stroke-width=".5" x="0" y="0" width="60" height="60"/>
                <use id="zoomplus" xlink:href="#zoomPlus" x="17" y="9" onmousedown="handleZoom(evt,'in')"/>
                <use id="zoomminus" xlink:href="#zoomMin" x="42" y="9" onmousedown="handleZoom(evt,'out')"/>
                <use id="reset" xlink:href="#resetDef" x="30" y="36" onmousedown="handleReset()"/>
                <g id="arrowUp" xlink:href="#dirArrow" transform="translate(30 24)" onmousedown="handlePan(0,-1)">
                  <use xlink:href="#rim" fill="#404040">
                        <set attributeName="fill" to="#808080" begin="arrowUp.mouseover" end="arrowUp.mouseout"/>
                  </use>
                  <path fill="none" stroke="white" stroke-width="1.5" d="M0,-3.0v7 M-2.5,-0.5L0,-3.0L2.5,-0.5"/>
                </g>
                <g id="arrowRight" xlink:href="#dirArrow" transform="rotate(90) translate(36 -43)" onmousedown="handlePan(1,0)">
                  <use xlink:href="#rim" fill="#404040">
                        <set attributeName="fill" to="#808080" begin="arrowRight.mouseover" end="arrowRight.mouseout"/>
                  </use>
                  <path fill="none" stroke="white" stroke-width="1.5" d="M0,-3.0v7 M-2.5,-0.5L0,-3.0L2.5,-0.5"/>
                </g>
                <g id="arrowDown" xlink:href="#dirArrow" transform="rotate(180) translate(-30 -48)" onmousedown="handlePan(0,1)">
                  <use xlink:href="#rim" fill="#404040">
                        <set attributeName="fill" to="#808080" begin="arrowDown.mouseover" end="arrowDown.mouseout"/>
                  </use>
                  <path fill="none" stroke="white" stroke-width="1.5" d="M0,-3.0v7 M-2.5,-0.5L0,-3.0L2.5,-0.5"/>
                </g>
                <g id="arrowLeft" xlink:href="#dirArrow" transform="rotate(270) translate(-36 17)" onmousedown="handlePan(-1,0)">
                  <use xlink:href="#rim" fill="#404040">
                        <set attributeName="fill" to="#808080" begin="arrowLeft.mouseover" end="arrowLeft.mouseout"/>
                  </use>
                  <path fill="none" stroke="white" stroke-width="1.5" d="M0,-3.0v7 M-2.5,-0.5L0,-3.0L2.5,-0.5"/>
                </g>
        </g>
        <svg viewBox="0 0 15 15" width="100%" height="30px" preserveAspectRatio="xMaxYMin meet">
         <g id="arrow_out" transform="scale(0.3 0.3)">
          <a xlink:href="ApMonBackend_8cxx__incl_org.svg" target="_base">
           <rect id="button" ry="5" rx="5" y="6" x="6" height="38" width="38"
                fill="#f2f5e9" fill-opacity="0.5" stroke="#606060" stroke-width="1.0"/>
           <path id="arrow"
             d="M 11.500037,31.436501 C 11.940474,20.09759 22.043105,11.32322 32.158766,21.979434 L 37.068811,17.246167 C 37.068811,17.246167 37.088388,32 37.088388,32 L 22.160133,31.978069 C 22.160133,31.978069 26.997745,27.140456 26.997745,27.140456 C 18.528582,18.264221 13.291696,25.230495 11.500037,31.436501 z"
             style="fill:#404040;"/>
          </a>
         </g>
        </svg>
</svg>
