<?xml version="1.0" encoding="UTF-8" standalone="no"?>
<!DOCTYPE svg PUBLIC "-//W3C//DTD SVG 1.1//EN"
 "http://www.w3.org/Graphics/SVG/1.1/DTD/svg11.dtd">
<!-- Generated by graphviz version 2.38.0 (20140413.2041)
 -->
<!-- Title: /home/travis/build/AliceO2Group/Monitoring/include/Monitoring/Backend.h Pages: 1 -->
<svg width="409pt" height="218pt"
 viewBox="0.00 0.00 408.81 218.00" xmlns="http://www.w3.org/2000/svg" xmlns:xlink="http://www.w3.org/1999/xlink">
<g id="graph0" class="graph" transform="scale(1 1) rotate(0) translate(4 214)">
<title>/home/travis/build/AliceO2Group/Monitoring/include/Monitoring/Backend.h</title>
<!-- Node1 -->
<g id="node1" class="node"><title>Node1</title>
<polygon fill="#bfbfbf" stroke="black" points="111,-168.5 111,-209.5 259,-209.5 259,-168.5 111,-168.5"/>
<text text-anchor="start" x="119" y="-197.5" font-family="Helvetica,sans-Serif" font-size="10.00">/home/travis/build</text>
<text text-anchor="start" x="119" y="-186.5" font-family="Helvetica,sans-Serif" font-size="10.00">/AliceO2Group/Monitoring</text>
<text text-anchor="middle" x="185" y="-175.5" font-family="Helvetica,sans-Serif" font-size="10.00">/include/Monitoring/Backend.h</text>
</g>
<!-- Node2 -->
<g id="node2" class="node"><title>Node2</title>
<polygon fill="none" stroke="#bfbfbf" points="0,-56.5 0,-75.5 46,-75.5 46,-56.5 0,-56.5"/>
<text text-anchor="middle" x="23" y="-63.5" font-family="Helvetica,sans-Serif" font-size="10.00">chrono</text>
</g>
<!-- Node1&#45;&gt;Node2 -->
<g id="edge1" class="edge"><title>Node1&#45;&gt;Node2</title>
<path fill="none" stroke="midnightblue" d="M158.611,-168.29C126.111,-144.015 71.6528,-103.339 42.6213,-81.6554"/>
<polygon fill="midnightblue" stroke="midnightblue" points="44.5867,-78.7548 34.4803,-75.5748 40.3977,-84.3632 44.5867,-78.7548"/>
</g>
<!-- Node3 -->
<g id="node3" class="node"><title>Node3</title>
<polygon fill="none" stroke="#bfbfbf" points="291.5,-0.5 291.5,-19.5 332.5,-19.5 332.5,-0.5 291.5,-0.5"/>
<text text-anchor="middle" x="312" y="-7.5" font-family="Helvetica,sans-Serif" font-size="10.00">string</text>
</g>
<!-- Node1&#45;&gt;Node3 -->
<g id="edge2" class="edge"><title>Node1&#45;&gt;Node3</title>
<path fill="none" stroke="midnightblue" d="M259.179,-170.082C307.63,-154.11 367.241,-125.378 397,-76 412.852,-49.6971 372.786,-30.2598 342.411,-19.7893"/>
<polygon fill="midnightblue" stroke="midnightblue" points="343.168,-16.355 332.576,-16.5853 341,-23.0107 343.168,-16.355"/>
</g>
<!-- Node4 -->
<g id="node4" class="node"><title>Node4</title>
<g id="a_node4"><a xlink:href="Metric_8h.html" target="_top" xlink:title="Monitoring/Metric.h">
<polygon fill="none" stroke="black" points="135,-112.5 135,-131.5 235,-131.5 235,-112.5 135,-112.5"/>
<text text-anchor="middle" x="185" y="-119.5" font-family="Helvetica,sans-Serif" font-size="10.00">Monitoring/Metric.h</text>
</a>
</g>
</g>
<!-- Node1&#45;&gt;Node4 -->
<g id="edge3" class="edge"><title>Node1&#45;&gt;Node4</title>
<path fill="none" stroke="midnightblue" d="M185,-168.498C185,-160.065 185,-150.235 185,-141.874"/>
<polygon fill="midnightblue" stroke="midnightblue" points="188.5,-141.652 185,-131.652 181.5,-141.653 188.5,-141.652"/>
</g>
<!-- Node4&#45;&gt;Node2 -->
<g id="edge5" class="edge"><title>Node4&#45;&gt;Node2</title>
<path fill="none" stroke="midnightblue" d="M159.331,-112.444C131.356,-103.119 86.5148,-88.1716 55.9574,-77.9858"/>
<polygon fill="midnightblue" stroke="midnightblue" points="56.7808,-74.571 46.1871,-74.729 54.5671,-81.2118 56.7808,-74.571"/>
</g>
<!-- Node4&#45;&gt;Node3 -->
<g id="edge4" class="edge"><title>Node4&#45;&gt;Node3</title>
<path fill="none" stroke="midnightblue" d="M153.109,-112.456C118.898,-101.737 72.1137,-81.6144 93,-56 116.399,-27.3045 226.551,-16.3869 281.157,-12.6865"/>
<polygon fill="midnightblue" stroke="midnightblue" points="281.539,-16.1694 291.295,-12.0395 281.093,-9.18358 281.539,-16.1694"/>
</g>
<!-- Node5 -->
<g id="node5" class="node"><title>Node5</title>
<polygon fill="none" stroke="#bfbfbf" points="353.5,-56.5 353.5,-75.5 388.5,-75.5 388.5,-56.5 353.5,-56.5"/>
<text text-anchor="middle" x="371" y="-63.5" font-family="Helvetica,sans-Serif" font-size="10.00">map</text>
</g>
<!-- Node4&#45;&gt;Node5 -->
<g id="edge6" class="edge"><title>Node4&#45;&gt;Node5</title>
<path fill="none" stroke="midnightblue" d="M216.802,-112.462C247.041,-104.241 294.009,-91.2108 343.684,-75.9921"/>
<polygon fill="midnightblue" stroke="midnightblue" points="344.793,-79.3128 353.319,-73.023 342.731,-72.6233 344.793,-79.3128"/>
</g>
<!-- Node6 -->
<g id="node6" class="node"><title>Node6</title>
<polygon fill="none" stroke="#bfbfbf" points="102.5,-56.5 102.5,-75.5 143.5,-75.5 143.5,-56.5 102.5,-56.5"/>
<text text-anchor="middle" x="123" y="-63.5" font-family="Helvetica,sans-Serif" font-size="10.00">regex</text>
</g>
<!-- Node4&#45;&gt;Node6 -->
<g id="edge7" class="edge"><title>Node4&#45;&gt;Node6</title>
<path fill="none" stroke="midnightblue" d="M175.039,-112.324C165.873,-104.341 152.063,-92.3128 140.972,-82.6529"/>
<polygon fill="midnightblue" stroke="midnightblue" points="142.982,-79.7624 133.143,-75.8339 138.385,-85.041 142.982,-79.7624"/>
</g>
<!-- Node7 -->
<g id="node7" class="node"><title>Node7</title>
<polygon fill="none" stroke="#bfbfbf" points="162,-56.5 162,-75.5 208,-75.5 208,-56.5 162,-56.5"/>
<text text-anchor="middle" x="185" y="-63.5" font-family="Helvetica,sans-Serif" font-size="10.00">variant</text>
</g>
<!-- Node4&#45;&gt;Node7 -->
<g id="edge8" class="edge"><title>Node4&#45;&gt;Node7</title>
<path fill="none" stroke="midnightblue" d="M185,-112.083C185,-105.006 185,-94.8611 185,-85.9865"/>
<polygon fill="midnightblue" stroke="midnightblue" points="188.5,-85.751 185,-75.7511 181.5,-85.7511 188.5,-85.751"/>
</g>
<!-- Node8 -->
<g id="node8" class="node"><title>Node8</title>
<polygon fill="none" stroke="#bfbfbf" points="226,-56.5 226,-75.5 270,-75.5 270,-56.5 226,-56.5"/>
<text text-anchor="middle" x="248" y="-63.5" font-family="Helvetica,sans-Serif" font-size="10.00">vector</text>
</g>
<!-- Node4&#45;&gt;Node8 -->
<g id="edge9" class="edge"><title>Node4&#45;&gt;Node8</title>
<path fill="none" stroke="midnightblue" d="M195.122,-112.324C204.526,-104.263 218.744,-92.0765 230.069,-82.3695"/>
<polygon fill="midnightblue" stroke="midnightblue" points="232.379,-84.9993 237.694,-75.8339 227.823,-79.6844 232.379,-84.9993"/>
</g>
<!-- Node9 -->
<g id="node9" class="node"><title>Node9</title>
<g id="a_node9"><a xlink:href="Tags_8h.html" target="_top" xlink:title="Tags.h">
<polygon fill="none" stroke="black" points="288.5,-56.5 288.5,-75.5 335.5,-75.5 335.5,-56.5 288.5,-56.5"/>
<text text-anchor="middle" x="312" y="-63.5" font-family="Helvetica,sans-Serif" font-size="10.00">Tags.h</text>
</a>
</g>
</g>
<!-- Node4&#45;&gt;Node9 -->
<g id="edge10" class="edge"><title>Node4&#45;&gt;Node9</title>
<path fill="none" stroke="midnightblue" d="M205.124,-112.444C226.024,-103.557 258.935,-89.5632 282.716,-79.4514"/>
<polygon fill="midnightblue" stroke="midnightblue" points="284.138,-82.6504 291.971,-75.5164 281.398,-76.2085 284.138,-82.6504"/>
</g>
<!-- Node9&#45;&gt;Node3 -->
<g id="edge11" class="edge"><title>Node9&#45;&gt;Node3</title>
<path fill="none" stroke="midnightblue" d="M312,-56.083C312,-49.0059 312,-38.8611 312,-29.9865"/>
<polygon fill="midnightblue" stroke="midnightblue" points="315.5,-29.751 312,-19.7511 308.5,-29.7511 315.5,-29.751"/>
</g>
</g>
</svg>
