<?xml version="1.0" encoding="UTF-8" standalone="no"?>
<!DOCTYPE svg PUBLIC "-//W3C//DTD SVG 1.1//EN"
 "http://www.w3.org/Graphics/SVG/1.1/DTD/svg11.dtd">
<!-- Generated by graphviz version 2.38.0 (20140413.2041)
 -->
<!-- Title: /home/travis/build/AliceO2Group/Monitoring/include/Monitoring/Backend.h Pages: 1 -->
<!--zoomable 295 -->
<svg id="main" version="1.1" xmlns="http://www.w3.org/2000/svg" xmlns:xlink="http://www.w3.org/1999/xlink" xml:space="preserve" onload="init(evt)">
<style type="text/css"><![CDATA[
.edge:hover path { stroke: red; }
.edge:hover polygon { stroke: red; fill: red; }
]]></style>
<script type="text/javascript"><![CDATA[
var edges = document.getElementsByTagName('g');
if (edges && edges.length) {
  for (var i=0;i<edges.length;i++) {
    if (edges[i].id.substr(0,4)=='edge') {
      edges[i].setAttribute('class','edge');
    }
  }
}
]]></script>
        <defs>
                <circle id="rim" cx="0" cy="0" r="7"/>
                <circle id="rim2" cx="0" cy="0" r="3.5"/>
                <g id="zoomPlus">
                        <use xlink:href="#rim" fill="#404040">
                                <set attributeName="fill" to="#808080" begin="zoomplus.mouseover" end="zoomplus.mouseout"/>
                        </use>
                        <path d="M-4,0h8M0,-4v8" fill="none" stroke="white" stroke-width="1.5" pointer-events="none"/>
                </g>
                <g id="zoomMin">
                        <use xlink:href="#rim" fill="#404040">
                                <set attributeName="fill" to="#808080" begin="zoomminus.mouseover" end="zoomminus.mouseout"/>
                        </use>
                        <path d="M-4,0h8" fill="none" stroke="white" stroke-width="1.5" pointer-events="none"/>
                </g>
                <g id="dirArrow">
                        <path fill="none" stroke="white" stroke-width="1.5" d="M0,-3.0v7 M-2.5,-0.5L0,-3.0L2.5,-0.5"/>
                </g>
               <g id="resetDef">
                       <use xlink:href="#rim2" fill="#404040">
                               <set attributeName="fill" to="#808080" begin="reset.mouseover" end="reset.mouseout"/>
                       </use>
               </g>
        </defs>

<script type="text/javascript">
var viewWidth = 2709;
var viewHeight = 295;
var sectionId = 'dynsection-1';
</script>
<script xlink:href="svgpan.js"/>
<svg id="graph" class="graph">
<g id="viewport">
<title>/home/travis/build/AliceO2Group/Monitoring/include/Monitoring/Backend.h</title>
<!-- Node1 -->
<g id="node1" class="node"><title>Node1</title>
<polygon fill="#bfbfbf" stroke="black" points="2136,-245.5 2136,-286.5 2284,-286.5 2284,-245.5 2136,-245.5"/>
<text text-anchor="start" x="2144" y="-274.5" font-family="Helvetica,sans-Serif" font-size="10.00">/home/travis/build</text>
<text text-anchor="start" x="2144" y="-263.5" font-family="Helvetica,sans-Serif" font-size="10.00">/AliceO2Group/Monitoring</text>
<text text-anchor="middle" x="2210" y="-252.5" font-family="Helvetica,sans-Serif" font-size="10.00">/include/Monitoring/Backend.h</text>
</g>
<!-- Node2 -->
<g id="node2" class="node"><title>Node2</title>
<g id="a_node2"><a xlink:href="Monitoring_8h.html" target="_top" xlink:title="/home/travis/build\l/AliceO2Group/Monitoring\l/include/Monitoring/Monitoring.h">
<polygon fill="none" stroke="black" points="1581.5,-167.5 1581.5,-208.5 1736.5,-208.5 1736.5,-167.5 1581.5,-167.5"/>
<text text-anchor="start" x="1589.5" y="-196.5" font-family="Helvetica,sans-Serif" font-size="10.00">/home/travis/build</text>
<text text-anchor="start" x="1589.5" y="-185.5" font-family="Helvetica,sans-Serif" font-size="10.00">/AliceO2Group/Monitoring</text>
<text text-anchor="middle" x="1659" y="-174.5" font-family="Helvetica,sans-Serif" font-size="10.00">/include/Monitoring/Monitoring.h</text>
</a>
</g>
</g>
<!-- Node1&#45;&gt;Node2 -->
<g id="edge1" class="edge"><title>Node1&#45;&gt;Node2</title>
<path fill="none" stroke="midnightblue" d="M2125.96,-253.409C2020.05,-238.8 1839.46,-213.89 1736.65,-199.711"/>
<polygon fill="midnightblue" stroke="midnightblue" points="2125.59,-256.89 2135.98,-254.79 2126.55,-249.956 2125.59,-256.89"/>
</g>
<!-- Node21 -->
<g id="node21" class="node"><title>Node21</title>
<g id="a_node21"><a xlink:href="ApMonBackend_8h.html" target="_top" xlink:title="/home/travis/build\l/AliceO2Group/Monitoring\l/src/Backends/ApMonBackend.h">
<polygon fill="none" stroke="black" points="1967,-167.5 1967,-208.5 2127,-208.5 2127,-167.5 1967,-167.5"/>
<text text-anchor="start" x="1975" y="-196.5" font-family="Helvetica,sans-Serif" font-size="10.00">/home/travis/build</text>
<text text-anchor="start" x="1975" y="-185.5" font-family="Helvetica,sans-Serif" font-size="10.00">/AliceO2Group/Monitoring</text>
<text text-anchor="middle" x="2047" y="-174.5" font-family="Helvetica,sans-Serif" font-size="10.00">/src/Backends/ApMonBackend.h</text>
</a>
</g>
</g>
<!-- Node1&#45;&gt;Node21 -->
<g id="edge20" class="edge"><title>Node1&#45;&gt;Node21</title>
<path fill="none" stroke="midnightblue" d="M2158.93,-241.189C2136.38,-230.675 2110.2,-218.469 2088.83,-208.506"/>
<polygon fill="midnightblue" stroke="midnightblue" points="2157.48,-244.374 2168.02,-245.428 2160.44,-238.03 2157.48,-244.374"/>
</g>
<!-- Node23 -->
<g id="node23" class="node"><title>Node23</title>
<g id="a_node23"><a xlink:href="InfluxDB_8h.html" target="_top" xlink:title="/home/travis/build\l/AliceO2Group/Monitoring\l/src/Backends/InfluxDB.h">
<polygon fill="none" stroke="black" points="2145.5,-167.5 2145.5,-208.5 2274.5,-208.5 2274.5,-167.5 2145.5,-167.5"/>
<text text-anchor="start" x="2153.5" y="-196.5" font-family="Helvetica,sans-Serif" font-size="10.00">/home/travis/build</text>
<text text-anchor="start" x="2153.5" y="-185.5" font-family="Helvetica,sans-Serif" font-size="10.00">/AliceO2Group/Monitoring</text>
<text text-anchor="middle" x="2210" y="-174.5" font-family="Helvetica,sans-Serif" font-size="10.00">/src/Backends/InfluxDB.h</text>
</a>
</g>
</g>
<!-- Node1&#45;&gt;Node23 -->
<g id="edge22" class="edge"><title>Node1&#45;&gt;Node23</title>
<path fill="none" stroke="midnightblue" d="M2210,-235.297C2210,-226.301 2210,-216.653 2210,-208.506"/>
<polygon fill="midnightblue" stroke="midnightblue" points="2206.5,-235.428 2210,-245.428 2213.5,-235.428 2206.5,-235.428"/>
</g>
<!-- Node25 -->
<g id="node25" class="node"><title>Node25</title>
<g id="a_node25"><a xlink:href="Noop_8h.html" target="_top" xlink:title="/home/travis/build\l/AliceO2Group/Monitoring\l/src/Backends/Noop.h">
<polygon fill="none" stroke="black" points="2293,-167.5 2293,-208.5 2421,-208.5 2421,-167.5 2293,-167.5"/>
<text text-anchor="start" x="2301" y="-196.5" font-family="Helvetica,sans-Serif" font-size="10.00">/home/travis/build</text>
<text text-anchor="start" x="2301" y="-185.5" font-family="Helvetica,sans-Serif" font-size="10.00">/AliceO2Group/Monitoring</text>
<text text-anchor="middle" x="2357" y="-174.5" font-family="Helvetica,sans-Serif" font-size="10.00">/src/Backends/Noop.h</text>
</a>
</g>
</g>
<!-- Node1&#45;&gt;Node25 -->
<g id="edge25" class="edge"><title>Node1&#45;&gt;Node25</title>
<path fill="none" stroke="midnightblue" d="M2256.87,-240.768C2277.02,-230.35 2300.26,-218.336 2319.27,-208.506"/>
<polygon fill="midnightblue" stroke="midnightblue" points="2255.13,-237.726 2247.86,-245.428 2258.35,-243.945 2255.13,-237.726"/>
</g>
<!-- Node27 -->
<g id="node27" class="node"><title>Node27</title>
<g id="a_node27"><a xlink:href="Backends_2StdOut_8h_source.html" target="_top" xlink:title="/home/travis/build\l/AliceO2Group/Monitoring\l/src/Backends/StdOut.h">
<polygon fill="none" stroke="black" points="2477,-167.5 2477,-208.5 2605,-208.5 2605,-167.5 2477,-167.5"/>
<text text-anchor="start" x="2485" y="-196.5" font-family="Helvetica,sans-Serif" font-size="10.00">/home/travis/build</text>
<text text-anchor="start" x="2485" y="-185.5" font-family="Helvetica,sans-Serif" font-size="10.00">/AliceO2Group/Monitoring</text>
<text text-anchor="middle" x="2541" y="-174.5" font-family="Helvetica,sans-Serif" font-size="10.00">/src/Backends/StdOut.h</text>
</a>
</g>
</g>
<!-- Node1&#45;&gt;Node27 -->
<g id="edge28" class="edge"><title>Node1&#45;&gt;Node27</title>
<path fill="none" stroke="midnightblue" d="M2294.31,-245.641C2351.06,-232.613 2424.73,-215.697 2476.74,-203.755"/>
<polygon fill="midnightblue" stroke="midnightblue" points="2293.25,-242.295 2284.28,-247.944 2294.81,-249.117 2293.25,-242.295"/>
</g>
<!-- Node3 -->
<g id="node3" class="node"><title>Node3</title>
<g id="a_node3"><a xlink:href="MonitoringFactory_8h.html" target="_top" xlink:title="/home/travis/build\l/AliceO2Group/Monitoring\l/include/Monitoring/Monitoring\lFactory.h">
<polygon fill="none" stroke="black" points="1311,-78.5 1311,-130.5 1457,-130.5 1457,-78.5 1311,-78.5"/>
<text text-anchor="start" x="1319" y="-118.5" font-family="Helvetica,sans-Serif" font-size="10.00">/home/travis/build</text>
<text text-anchor="start" x="1319" y="-107.5" font-family="Helvetica,sans-Serif" font-size="10.00">/AliceO2Group/Monitoring</text>
<text text-anchor="start" x="1319" y="-96.5" font-family="Helvetica,sans-Serif" font-size="10.00">/include/Monitoring/Monitoring</text>
<text text-anchor="middle" x="1384" y="-85.5" font-family="Helvetica,sans-Serif" font-size="10.00">Factory.h</text>
</a>
</g>
</g>
<!-- Node2&#45;&gt;Node3 -->
<g id="edge2" class="edge"><title>Node2&#45;&gt;Node3</title>
<path fill="none" stroke="midnightblue" d="M1583.32,-164.57C1543.95,-152.904 1496.05,-138.707 1457.07,-127.156"/>
<polygon fill="midnightblue" stroke="midnightblue" points="1582.55,-167.993 1593.13,-167.479 1584.54,-161.281 1582.55,-167.993"/>
</g>
<!-- Node20 -->
<g id="node20" class="node"><title>Node20</title>
<g id="a_node20"><a xlink:href="Monitoring_8cxx.html" target="_top" xlink:title="/home/travis/build\l/AliceO2Group/Monitoring\l/src/Monitoring.cxx">
<polygon fill="none" stroke="black" points="1595,-84 1595,-125 1723,-125 1723,-84 1595,-84"/>
<text text-anchor="start" x="1603" y="-113" font-family="Helvetica,sans-Serif" font-size="10.00">/home/travis/build</text>
<text text-anchor="start" x="1603" y="-102" font-family="Helvetica,sans-Serif" font-size="10.00">/AliceO2Group/Monitoring</text>
<text text-anchor="middle" x="1659" y="-91" font-family="Helvetica,sans-Serif" font-size="10.00">/src/Monitoring.cxx</text>
</a>
</g>
</g>
<!-- Node2&#45;&gt;Node20 -->
<g id="edge19" class="edge"><title>Node2&#45;&gt;Node20</title>
<path fill="none" stroke="midnightblue" d="M1659,-157.065C1659,-146.382 1659,-134.63 1659,-125.047"/>
<polygon fill="midnightblue" stroke="midnightblue" points="1655.5,-157.271 1659,-167.271 1662.5,-157.271 1655.5,-157.271"/>
</g>
<!-- Node4 -->
<g id="node4" class="node"><title>Node4</title>
<g id="a_node4"><a xlink:href="1-Basic_8cxx.html" target="_top" xlink:title="/home/travis/build\l/AliceO2Group/Monitoring\l/examples/1&#45;Basic.cxx">
<polygon fill="none" stroke="black" points="0,-0.5 0,-41.5 128,-41.5 128,-0.5 0,-0.5"/>
<text text-anchor="start" x="8" y="-29.5" font-family="Helvetica,sans-Serif" font-size="10.00">/home/travis/build</text>
<text text-anchor="start" x="8" y="-18.5" font-family="Helvetica,sans-Serif" font-size="10.00">/AliceO2Group/Monitoring</text>
<text text-anchor="middle" x="64" y="-7.5" font-family="Helvetica,sans-Serif" font-size="10.00">/examples/1&#45;Basic.cxx</text>
</a>
</g>
</g>
<!-- Node3&#45;&gt;Node4 -->
<g id="edge3" class="edge"><title>Node3&#45;&gt;Node4</title>
<path fill="none" stroke="midnightblue" d="M1300.67,-101.76C1059.23,-96.3432 362.125,-77.9483 137,-42 134.145,-41.5441 131.242,-41.0189 128.32,-40.4397"/>
<polygon fill="midnightblue" stroke="midnightblue" points="1300.72,-105.262 1310.79,-101.986 1300.87,-98.2636 1300.72,-105.262"/>
</g>
<!-- Node5 -->
<g id="node5" class="node"><title>Node5</title>
<g id="a_node5"><a xlink:href="10-Buffering_8cxx.html" target="_top" xlink:title="/home/travis/build\l/AliceO2Group/Monitoring\l/examples/10&#45;Buffering.cxx">
<polygon fill="none" stroke="black" points="146,-0.5 146,-41.5 282,-41.5 282,-0.5 146,-0.5"/>
<text text-anchor="start" x="154" y="-29.5" font-family="Helvetica,sans-Serif" font-size="10.00">/home/travis/build</text>
<text text-anchor="start" x="154" y="-18.5" font-family="Helvetica,sans-Serif" font-size="10.00">/AliceO2Group/Monitoring</text>
<text text-anchor="middle" x="214" y="-7.5" font-family="Helvetica,sans-Serif" font-size="10.00">/examples/10&#45;Buffering.cxx</text>
</a>
</g>
</g>
<!-- Node3&#45;&gt;Node5 -->
<g id="edge4" class="edge"><title>Node3&#45;&gt;Node5</title>
<path fill="none" stroke="midnightblue" d="M1300.77,-104.406C1117.25,-105.185 664.417,-100.411 291,-42 288.134,-41.5518 285.221,-41.0425 282.286,-40.4852"/>
<polygon fill="midnightblue" stroke="midnightblue" points="1300.91,-107.905 1310.89,-104.356 1300.87,-100.905 1300.91,-107.905"/>
</g>
<!-- Node6 -->
<g id="node6" class="node"><title>Node6</title>
<g id="a_node6"><a xlink:href="2-TaggedMetrics_8cxx.html" target="_top" xlink:title="/home/travis/build\l/AliceO2Group/Monitoring\l/examples/2&#45;TaggedMetrics.cxx">
<polygon fill="none" stroke="black" points="300,-0.5 300,-41.5 456,-41.5 456,-0.5 300,-0.5"/>
<text text-anchor="start" x="308" y="-29.5" font-family="Helvetica,sans-Serif" font-size="10.00">/home/travis/build</text>
<text text-anchor="start" x="308" y="-18.5" font-family="Helvetica,sans-Serif" font-size="10.00">/AliceO2Group/Monitoring</text>
<text text-anchor="middle" x="378" y="-7.5" font-family="Helvetica,sans-Serif" font-size="10.00">/examples/2&#45;TaggedMetrics.cxx</text>
</a>
</g>
</g>
<!-- Node3&#45;&gt;Node6 -->
<g id="edge5" class="edge"><title>Node3&#45;&gt;Node6</title>
<path fill="none" stroke="midnightblue" d="M1300.54,-102.351C1138.59,-99.1442 770.723,-87.0773 465,-42 462.087,-41.5705 459.127,-41.0945 456.143,-40.5814"/>
<polygon fill="midnightblue" stroke="midnightblue" points="1300.84,-105.858 1310.91,-102.55 1300.98,-98.859 1300.84,-105.858"/>
</g>
<!-- Node7 -->
<g id="node7" class="node"><title>Node7</title>
<polygon fill="none" stroke="#bfbfbf" points="474.5,-0.5 474.5,-41.5 607.5,-41.5 607.5,-0.5 474.5,-0.5"/>
<text text-anchor="start" x="482.5" y="-29.5" font-family="Helvetica,sans-Serif" font-size="10.00">/home/travis/build</text>
<text text-anchor="start" x="482.5" y="-18.5" font-family="Helvetica,sans-Serif" font-size="10.00">/AliceO2Group/Monitoring</text>
<text text-anchor="middle" x="541" y="-7.5" font-family="Helvetica,sans-Serif" font-size="10.00">/examples/3&#45;Verbosity.cxx</text>
</g>
<!-- Node3&#45;&gt;Node7 -->
<g id="edge6" class="edge"><title>Node3&#45;&gt;Node7</title>
<path fill="none" stroke="midnightblue" d="M1300.58,-101.746C1158.9,-97.671 862.605,-84.3962 616,-42 613.211,-41.5205 610.375,-40.9851 607.518,-40.4062"/>
<polygon fill="midnightblue" stroke="midnightblue" points="1300.83,-105.254 1310.92,-102.035 1301.02,-98.257 1300.83,-105.254"/>
</g>
<!-- Node8 -->
<g id="node8" class="node"><title>Node8</title>
<g id="a_node8"><a xlink:href="4-RateDerivedMetric_8cxx.html" target="_top" xlink:title="/home/travis/build\l/AliceO2Group/Monitoring\l/examples/4&#45;RateDerivedMetric.cxx">
<polygon fill="none" stroke="black" points="625.5,-0.5 625.5,-41.5 798.5,-41.5 798.5,-0.5 625.5,-0.5"/>
<text text-anchor="start" x="633.5" y="-29.5" font-family="Helvetica,sans-Serif" font-size="10.00">/home/travis/build</text>
<text text-anchor="start" x="633.5" y="-18.5" font-family="Helvetica,sans-Serif" font-size="10.00">/AliceO2Group/Monitoring</text>
<text text-anchor="middle" x="712" y="-7.5" font-family="Helvetica,sans-Serif" font-size="10.00">/examples/4&#45;RateDerivedMetric.cxx</text>
</a>
</g>
</g>
<!-- Node3&#45;&gt;Node8 -->
<g id="edge7" class="edge"><title>Node3&#45;&gt;Node8</title>
<path fill="none" stroke="midnightblue" d="M1300.56,-97.2762C1188.05,-88.2756 981.651,-69.6192 807,-42 804.253,-41.5656 801.466,-41.1041 798.654,-40.6209"/>
<polygon fill="midnightblue" stroke="midnightblue" points="1300.57,-100.788 1310.82,-98.0909 1301.13,-93.8102 1300.57,-100.788"/>
</g>
<!-- Node9 -->
<g id="node9" class="node"><title>Node9</title>
<g id="a_node9"><a xlink:href="5-Benchmark_8cxx.html" target="_top" xlink:title="/home/travis/build\l/AliceO2Group/Monitoring\l/examples/5&#45;Benchmark.cxx">
<polygon fill="none" stroke="black" points="816.5,-0.5 816.5,-41.5 957.5,-41.5 957.5,-0.5 816.5,-0.5"/>
<text text-anchor="start" x="824.5" y="-29.5" font-family="Helvetica,sans-Serif" font-size="10.00">/home/travis/build</text>
<text text-anchor="start" x="824.5" y="-18.5" font-family="Helvetica,sans-Serif" font-size="10.00">/AliceO2Group/Monitoring</text>
<text text-anchor="middle" x="887" y="-7.5" font-family="Helvetica,sans-Serif" font-size="10.00">/examples/5&#45;Benchmark.cxx</text>
</a>
</g>
</g>
<!-- Node3&#45;&gt;Node9 -->
<g id="edge8" class="edge"><title>Node3&#45;&gt;Node9</title>
<path fill="none" stroke="midnightblue" d="M1300.67,-93.7791C1216,-83.3071 1081.26,-65.0069 966,-42 963.225,-41.4461 960.402,-40.8567 957.554,-40.2407"/>
<polygon fill="midnightblue" stroke="midnightblue" points="1300.39,-97.2711 1310.74,-95.0172 1301.25,-90.3234 1300.39,-97.2711"/>
</g>
<!-- Node10 -->
<g id="node10" class="node"><title>Node10</title>
<g id="a_node10"><a xlink:href="6-Increment_8cxx.html" target="_top" xlink:title="/home/travis/build\l/AliceO2Group/Monitoring\l/examples/6&#45;Increment.cxx">
<polygon fill="none" stroke="black" points="975.5,-0.5 975.5,-41.5 1110.5,-41.5 1110.5,-0.5 975.5,-0.5"/>
<text text-anchor="start" x="983.5" y="-29.5" font-family="Helvetica,sans-Serif" font-size="10.00">/home/travis/build</text>
<text text-anchor="start" x="983.5" y="-18.5" font-family="Helvetica,sans-Serif" font-size="10.00">/AliceO2Group/Monitoring</text>
<text text-anchor="middle" x="1043" y="-7.5" font-family="Helvetica,sans-Serif" font-size="10.00">/examples/6&#45;Increment.cxx</text>
</a>
</g>
</g>
<!-- Node3&#45;&gt;Node10 -->
<g id="edge9" class="edge"><title>Node3&#45;&gt;Node10</title>
<path fill="none" stroke="midnightblue" d="M1300.85,-84.8605C1248.56,-72.9756 1179.73,-57.034 1119,-42 1116.22,-41.3115 1113.38,-40.6013 1110.52,-39.8778"/>
<polygon fill="midnightblue" stroke="midnightblue" points="1300.22,-88.3066 1310.75,-87.1065 1301.77,-81.4802 1300.22,-88.3066"/>
</g>
<!-- Node11 -->
<g id="node11" class="node"><title>Node11</title>
<polygon fill="none" stroke="#bfbfbf" points="1128.5,-0.5 1128.5,-41.5 1301.5,-41.5 1301.5,-0.5 1128.5,-0.5"/>
<text text-anchor="start" x="1136.5" y="-29.5" font-family="Helvetica,sans-Serif" font-size="10.00">/home/travis/build</text>
<text text-anchor="start" x="1136.5" y="-18.5" font-family="Helvetica,sans-Serif" font-size="10.00">/AliceO2Group/Monitoring</text>
<text text-anchor="middle" x="1215" y="-7.5" font-family="Helvetica,sans-Serif" font-size="10.00">/examples/7&#45;InternalBenchamrk.cxx</text>
</g>
<!-- Node3&#45;&gt;Node11 -->
<g id="edge10" class="edge"><title>Node3&#45;&gt;Node11</title>
<path fill="none" stroke="midnightblue" d="M1322.83,-74.0012C1300.48,-63.2235 1275.77,-51.3065 1255.65,-41.6027"/>
<polygon fill="midnightblue" stroke="midnightblue" points="1321.39,-77.191 1331.92,-78.3823 1324.43,-70.8859 1321.39,-77.191"/>
</g>
<!-- Node12 -->
<g id="node12" class="node"><title>Node12</title>
<g id="a_node12"><a xlink:href="8-DbFiller_8cxx.html" target="_top" xlink:title="/home/travis/build\l/AliceO2Group/Monitoring\l/examples/8&#45;DbFiller.cxx">
<polygon fill="none" stroke="black" points="1320,-0.5 1320,-41.5 1448,-41.5 1448,-0.5 1320,-0.5"/>
<text text-anchor="start" x="1328" y="-29.5" font-family="Helvetica,sans-Serif" font-size="10.00">/home/travis/build</text>
<text text-anchor="start" x="1328" y="-18.5" font-family="Helvetica,sans-Serif" font-size="10.00">/AliceO2Group/Monitoring</text>
<text text-anchor="middle" x="1384" y="-7.5" font-family="Helvetica,sans-Serif" font-size="10.00">/examples/8&#45;DbFiller.cxx</text>
</a>
</g>
</g>
<!-- Node3&#45;&gt;Node12 -->
<g id="edge11" class="edge"><title>Node3&#45;&gt;Node12</title>
<path fill="none" stroke="midnightblue" d="M1384,-68.1474C1384,-59.0546 1384,-49.5968 1384,-41.6282"/>
<polygon fill="midnightblue" stroke="midnightblue" points="1380.5,-68.1596 1384,-78.1596 1387.5,-68.1597 1380.5,-68.1596"/>
</g>
<!-- Node13 -->
<g id="node13" class="node"><title>Node13</title>
<g id="a_node13"><a xlink:href="MonitoringFactory_8cxx.html" target="_top" xlink:title="/home/travis/build\l/AliceO2Group/Monitoring\l/src/MonitoringFactory.cxx">
<polygon fill="none" stroke="black" points="2382.5,-0.5 2382.5,-41.5 2515.5,-41.5 2515.5,-0.5 2382.5,-0.5"/>
<text text-anchor="start" x="2390.5" y="-29.5" font-family="Helvetica,sans-Serif" font-size="10.00">/home/travis/build</text>
<text text-anchor="start" x="2390.5" y="-18.5" font-family="Helvetica,sans-Serif" font-size="10.00">/AliceO2Group/Monitoring</text>
<text text-anchor="middle" x="2449" y="-7.5" font-family="Helvetica,sans-Serif" font-size="10.00">/src/MonitoringFactory.cxx</text>
</a>
</g>
</g>
<!-- Node3&#45;&gt;Node13 -->
<g id="edge12" class="edge"><title>Node3&#45;&gt;Node13</title>
<path fill="none" stroke="midnightblue" d="M1467.32,-91.4627C1503.69,-86.6015 1546.89,-81.3579 1586,-78 1934.86,-48.0495 2026.87,-94.8501 2373,-42 2376.1,-41.5263 2379.26,-40.9764 2382.44,-40.3676"/>
<polygon fill="midnightblue" stroke="midnightblue" points="1466.69,-88.0155 1457.25,-92.8218 1467.63,-94.9526 1466.69,-88.0155"/>
</g>
<!-- Node14 -->
<g id="node14" class="node"><title>Node14</title>
<polygon fill="none" stroke="#bfbfbf" points="1466,-0.5 1466,-41.5 1594,-41.5 1594,-0.5 1466,-0.5"/>
<text text-anchor="start" x="1474" y="-29.5" font-family="Helvetica,sans-Serif" font-size="10.00">/home/travis/build</text>
<text text-anchor="start" x="1474" y="-18.5" font-family="Helvetica,sans-Serif" font-size="10.00">/AliceO2Group/Monitoring</text>
<text text-anchor="middle" x="1530" y="-7.5" font-family="Helvetica,sans-Serif" font-size="10.00">/test/testApMon.cxx</text>
</g>
<!-- Node3&#45;&gt;Node14 -->
<g id="edge13" class="edge"><title>Node3&#45;&gt;Node14</title>
<path fill="none" stroke="midnightblue" d="M1437.84,-73.4453C1456.8,-62.8637 1477.61,-51.2468 1494.65,-41.7338"/>
<polygon fill="midnightblue" stroke="midnightblue" points="1436.02,-70.452 1429,-78.3823 1439.43,-76.5641 1436.02,-70.452"/>
</g>
<!-- Node15 -->
<g id="node15" class="node"><title>Node15</title>
<polygon fill="none" stroke="#bfbfbf" points="1612,-0.5 1612,-41.5 1740,-41.5 1740,-0.5 1612,-0.5"/>
<text text-anchor="start" x="1620" y="-29.5" font-family="Helvetica,sans-Serif" font-size="10.00">/home/travis/build</text>
<text text-anchor="start" x="1620" y="-18.5" font-family="Helvetica,sans-Serif" font-size="10.00">/AliceO2Group/Monitoring</text>
<text text-anchor="middle" x="1676" y="-7.5" font-family="Helvetica,sans-Serif" font-size="10.00">/test/testInfluxDb.cxx</text>
</g>
<!-- Node3&#45;&gt;Node15 -->
<g id="edge14" class="edge"><title>Node3&#45;&gt;Node15</title>
<path fill="none" stroke="midnightblue" d="M1467.23,-80.2708C1513.08,-67.4732 1569.13,-51.8278 1611.61,-39.972"/>
<polygon fill="midnightblue" stroke="midnightblue" points="1466,-76.9797 1457.31,-83.0393 1467.88,-83.722 1466,-76.9797"/>
</g>
<!-- Node16 -->
<g id="node16" class="node"><title>Node16</title>
<polygon fill="none" stroke="#bfbfbf" points="1758,-0.5 1758,-41.5 1886,-41.5 1886,-0.5 1758,-0.5"/>
<text text-anchor="start" x="1766" y="-29.5" font-family="Helvetica,sans-Serif" font-size="10.00">/home/travis/build</text>
<text text-anchor="start" x="1766" y="-18.5" font-family="Helvetica,sans-Serif" font-size="10.00">/AliceO2Group/Monitoring</text>
<text text-anchor="middle" x="1822" y="-7.5" font-family="Helvetica,sans-Serif" font-size="10.00">/test/testMonitoring.cxx</text>
</g>
<!-- Node3&#45;&gt;Node16 -->
<g id="edge15" class="edge"><title>Node3&#45;&gt;Node16</title>
<path fill="none" stroke="midnightblue" d="M1467.36,-91.8921C1541.64,-80.9705 1653.11,-63.1585 1749,-42 1751.95,-41.3488 1754.96,-40.6532 1758,-39.9263"/>
<polygon fill="midnightblue" stroke="midnightblue" points="1466.52,-88.4777 1457.13,-93.3871 1467.53,-95.4041 1466.52,-88.4777"/>
</g>
<!-- Node17 -->
<g id="node17" class="node"><title>Node17</title>
<polygon fill="none" stroke="#bfbfbf" points="1904,-0.5 1904,-41.5 2056,-41.5 2056,-0.5 1904,-0.5"/>
<text text-anchor="start" x="1912" y="-29.5" font-family="Helvetica,sans-Serif" font-size="10.00">/home/travis/build</text>
<text text-anchor="start" x="1912" y="-18.5" font-family="Helvetica,sans-Serif" font-size="10.00">/AliceO2Group/Monitoring</text>
<text text-anchor="middle" x="1980" y="-7.5" font-family="Helvetica,sans-Serif" font-size="10.00">/test/testMonitoringFactory.cxx</text>
</g>
<!-- Node3&#45;&gt;Node17 -->
<g id="edge16" class="edge"><title>Node3&#45;&gt;Node17</title>
<path fill="none" stroke="midnightblue" d="M1467.46,-92.782C1503.85,-88.155 1547.03,-82.7298 1586,-78 1723.26,-61.3416 1758.81,-65.8733 1895,-42 1897.84,-41.5027 1900.72,-40.969 1903.63,-40.4071"/>
<polygon fill="midnightblue" stroke="midnightblue" points="1466.86,-89.3299 1457.38,-94.0647 1467.74,-96.2739 1466.86,-89.3299"/>
</g>
<!-- Node18 -->
<g id="node18" class="node"><title>Node18</title>
<polygon fill="none" stroke="#bfbfbf" points="2074.5,-0.5 2074.5,-41.5 2217.5,-41.5 2217.5,-0.5 2074.5,-0.5"/>
<text text-anchor="start" x="2082.5" y="-29.5" font-family="Helvetica,sans-Serif" font-size="10.00">/home/travis/build</text>
<text text-anchor="start" x="2082.5" y="-18.5" font-family="Helvetica,sans-Serif" font-size="10.00">/AliceO2Group/Monitoring</text>
<text text-anchor="middle" x="2146" y="-7.5" font-family="Helvetica,sans-Serif" font-size="10.00">/test/testProcessMonitor.cxx</text>
</g>
<!-- Node3&#45;&gt;Node18 -->
<g id="edge17" class="edge"><title>Node3&#45;&gt;Node18</title>
<path fill="none" stroke="midnightblue" d="M1467.37,-92.0135C1503.75,-87.25 1546.94,-81.9306 1586,-78 1798.42,-56.6241 1854.19,-75.7057 2065,-42 2068,-41.5198 2071.06,-40.9837 2074.14,-40.4043"/>
<polygon fill="midnightblue" stroke="midnightblue" points="1466.76,-88.5642 1457.3,-93.3407 1467.67,-95.5042 1466.76,-88.5642"/>
</g>
<!-- Node19 -->
<g id="node19" class="node"><title>Node19</title>
<polygon fill="none" stroke="#bfbfbf" points="2236,-0.5 2236,-41.5 2364,-41.5 2364,-0.5 2236,-0.5"/>
<text text-anchor="start" x="2244" y="-29.5" font-family="Helvetica,sans-Serif" font-size="10.00">/home/travis/build</text>
<text text-anchor="start" x="2244" y="-18.5" font-family="Helvetica,sans-Serif" font-size="10.00">/AliceO2Group/Monitoring</text>
<text text-anchor="middle" x="2300" y="-7.5" font-family="Helvetica,sans-Serif" font-size="10.00">/test/testThreads.cxx</text>
</g>
<!-- Node3&#45;&gt;Node19 -->
<g id="edge18" class="edge"><title>Node3&#45;&gt;Node19</title>
<path fill="none" stroke="midnightblue" d="M1467.34,-91.6598C1503.71,-86.8335 1546.91,-81.5628 1586,-78 1869.72,-52.1439 1944.75,-87.4105 2226,-42 2229.15,-41.4909 2232.37,-40.9015 2235.6,-40.2513"/>
<polygon fill="midnightblue" stroke="midnightblue" points="1466.72,-88.2118 1457.27,-93.0074 1467.64,-95.1499 1466.72,-88.2118"/>
</g>
<!-- Node22 -->
<g id="node22" class="node"><title>Node22</title>
<g id="a_node22"><a xlink:href="ApMonBackend_8cxx.html" target="_top" xlink:title="/home/travis/build\l/AliceO2Group/Monitoring\l/src/Backends/ApMonBackend.cxx">
<polygon fill="none" stroke="black" points="1962,-84 1962,-125 2132,-125 2132,-84 1962,-84"/>
<text text-anchor="start" x="1970" y="-113" font-family="Helvetica,sans-Serif" font-size="10.00">/home/travis/build</text>
<text text-anchor="start" x="1970" y="-102" font-family="Helvetica,sans-Serif" font-size="10.00">/AliceO2Group/Monitoring</text>
<text text-anchor="middle" x="2047" y="-91" font-family="Helvetica,sans-Serif" font-size="10.00">/src/Backends/ApMonBackend.cxx</text>
</a>
</g>
</g>
<!-- Node21&#45;&gt;Node22 -->
<g id="edge21" class="edge"><title>Node21&#45;&gt;Node22</title>
<path fill="none" stroke="midnightblue" d="M2047,-157.065C2047,-146.382 2047,-134.63 2047,-125.047"/>
<polygon fill="midnightblue" stroke="midnightblue" points="2043.5,-157.271 2047,-167.271 2050.5,-157.271 2043.5,-157.271"/>
</g>
<!-- Node23&#45;&gt;Node13 -->
<g id="edge24" class="edge"><title>Node23&#45;&gt;Node13</title>
<path fill="none" stroke="midnightblue" d="M2189.62,-158.835C2175.02,-134.906 2160.98,-100.892 2180,-78 2207.88,-44.4405 2330.43,-51.5579 2373,-42 2376.06,-41.3125 2379.19,-40.5872 2382.34,-39.8362"/>
<polygon fill="midnightblue" stroke="midnightblue" points="2186.83,-160.954 2195.18,-167.468 2192.71,-157.165 2186.83,-160.954"/>
</g>
<!-- Node24 -->
<g id="node24" class="node"><title>Node24</title>
<g id="a_node24"><a xlink:href="InfluxDB_8cxx.html" target="_top" xlink:title="/home/travis/build\l/AliceO2Group/Monitoring\l/src/Backends/InfluxDB.cxx">
<polygon fill="none" stroke="black" points="2189,-84 2189,-125 2329,-125 2329,-84 2189,-84"/>
<text text-anchor="start" x="2197" y="-113" font-family="Helvetica,sans-Serif" font-size="10.00">/home/travis/build</text>
<text text-anchor="start" x="2197" y="-102" font-family="Helvetica,sans-Serif" font-size="10.00">/AliceO2Group/Monitoring</text>
<text text-anchor="middle" x="2259" y="-91" font-family="Helvetica,sans-Serif" font-size="10.00">/src/Backends/InfluxDB.cxx</text>
</a>
</g>
</g>
<!-- Node23&#45;&gt;Node24 -->
<g id="edge23" class="edge"><title>Node23&#45;&gt;Node24</title>
<path fill="none" stroke="midnightblue" d="M2227.2,-158.394C2233.83,-147.365 2241.25,-135.03 2247.25,-125.047"/>
<polygon fill="midnightblue" stroke="midnightblue" points="2224.01,-156.897 2221.86,-167.271 2230.01,-160.504 2224.01,-156.897"/>
</g>
<!-- Node25&#45;&gt;Node13 -->
<g id="edge26" class="edge"><title>Node25&#45;&gt;Node13</title>
<path fill="none" stroke="midnightblue" d="M2356.46,-157.158C2357.34,-134.022 2361.48,-101.972 2376,-78 2384.94,-63.2437 2399.32,-50.9713 2412.97,-41.7132"/>
<polygon fill="midnightblue" stroke="midnightblue" points="2352.96,-157.345 2356.27,-167.411 2359.96,-157.481 2352.96,-157.345"/>
</g>
<!-- Node26 -->
<g id="node26" class="node"><title>Node26</title>
<polygon fill="none" stroke="#bfbfbf" points="2385,-84 2385,-125 2513,-125 2513,-84 2385,-84"/>
<text text-anchor="start" x="2393" y="-113" font-family="Helvetica,sans-Serif" font-size="10.00">/home/travis/build</text>
<text text-anchor="start" x="2393" y="-102" font-family="Helvetica,sans-Serif" font-size="10.00">/AliceO2Group/Monitoring</text>
<text text-anchor="middle" x="2449" y="-91" font-family="Helvetica,sans-Serif" font-size="10.00">/test/testNoop.cxx</text>
</g>
<!-- Node25&#45;&gt;Node26 -->
<g id="edge27" class="edge"><title>Node25&#45;&gt;Node26</title>
<path fill="none" stroke="midnightblue" d="M2387.07,-160.365C2400.06,-148.854 2414.99,-135.629 2426.93,-125.047"/>
<polygon fill="midnightblue" stroke="midnightblue" points="2384.44,-158.02 2379.27,-167.271 2389.08,-163.26 2384.44,-158.02"/>
</g>
<!-- Node27&#45;&gt;Node13 -->
<g id="edge30" class="edge"><title>Node27&#45;&gt;Node13</title>
<path fill="none" stroke="midnightblue" d="M2541.54,-157.158C2540.66,-134.022 2536.52,-101.972 2522,-78 2513.06,-63.2437 2498.68,-50.9713 2485.03,-41.7132"/>
<polygon fill="midnightblue" stroke="midnightblue" points="2538.04,-157.481 2541.73,-167.411 2545.04,-157.345 2538.04,-157.481"/>
</g>
<!-- Node28 -->
<g id="node28" class="node"><title>Node28</title>
<polygon fill="none" stroke="#bfbfbf" points="2569,-84 2569,-125 2701,-125 2701,-84 2569,-84"/>
<text text-anchor="start" x="2577" y="-113" font-family="Helvetica,sans-Serif" font-size="10.00">/home/travis/build</text>
<text text-anchor="start" x="2577" y="-102" font-family="Helvetica,sans-Serif" font-size="10.00">/AliceO2Group/Monitoring</text>
<text text-anchor="middle" x="2635" y="-91" font-family="Helvetica,sans-Serif" font-size="10.00">/src/Backends/StdOut.cxx</text>
</g>
<!-- Node27&#45;&gt;Node28 -->
<g id="edge29" class="edge"><title>Node27&#45;&gt;Node28</title>
<path fill="none" stroke="midnightblue" d="M2571.35,-160.69C2584.71,-149.103 2600.14,-135.728 2612.45,-125.047"/>
<polygon fill="midnightblue" stroke="midnightblue" points="2569.02,-158.076 2563.75,-167.271 2573.6,-163.365 2569.02,-158.076"/>
</g>
</g>
</svg>
        <g id="navigator" transform="translate(0 0)" fill="#404254">
                <rect fill="#f2f5e9" fill-opacity="0.5" stroke="#606060" stroke-width=".5" x="0" y="0" width="60" height="60"/>
                <use id="zoomplus" xlink:href="#zoomPlus" x="17" y="9" onmousedown="handleZoom(evt,'in')"/>
                <use id="zoomminus" xlink:href="#zoomMin" x="42" y="9" onmousedown="handleZoom(evt,'out')"/>
                <use id="reset" xlink:href="#resetDef" x="30" y="36" onmousedown="handleReset()"/>
                <g id="arrowUp" xlink:href="#dirArrow" transform="translate(30 24)" onmousedown="handlePan(0,-1)">
                  <use xlink:href="#rim" fill="#404040">
                        <set attributeName="fill" to="#808080" begin="arrowUp.mouseover" end="arrowUp.mouseout"/>
                  </use>
                  <path fill="none" stroke="white" stroke-width="1.5" d="M0,-3.0v7 M-2.5,-0.5L0,-3.0L2.5,-0.5"/>
                </g>
                <g id="arrowRight" xlink:href="#dirArrow" transform="rotate(90) translate(36 -43)" onmousedown="handlePan(1,0)">
                  <use xlink:href="#rim" fill="#404040">
                        <set attributeName="fill" to="#808080" begin="arrowRight.mouseover" end="arrowRight.mouseout"/>
                  </use>
                  <path fill="none" stroke="white" stroke-width="1.5" d="M0,-3.0v7 M-2.5,-0.5L0,-3.0L2.5,-0.5"/>
                </g>
                <g id="arrowDown" xlink:href="#dirArrow" transform="rotate(180) translate(-30 -48)" onmousedown="handlePan(0,1)">
                  <use xlink:href="#rim" fill="#404040">
                        <set attributeName="fill" to="#808080" begin="arrowDown.mouseover" end="arrowDown.mouseout"/>
                  </use>
                  <path fill="none" stroke="white" stroke-width="1.5" d="M0,-3.0v7 M-2.5,-0.5L0,-3.0L2.5,-0.5"/>
                </g>
                <g id="arrowLeft" xlink:href="#dirArrow" transform="rotate(270) translate(-36 17)" onmousedown="handlePan(-1,0)">
                  <use xlink:href="#rim" fill="#404040">
                        <set attributeName="fill" to="#808080" begin="arrowLeft.mouseover" end="arrowLeft.mouseout"/>
                  </use>
                  <path fill="none" stroke="white" stroke-width="1.5" d="M0,-3.0v7 M-2.5,-0.5L0,-3.0L2.5,-0.5"/>
                </g>
        </g>
        <svg viewBox="0 0 15 15" width="100%" height="30px" preserveAspectRatio="xMaxYMin meet">
         <g id="arrow_out" transform="scale(0.3 0.3)">
          <a xlink:href="Backend_8h__dep__incl_org.svg" target="_base">
           <rect id="button" ry="5" rx="5" y="6" x="6" height="38" width="38"
                fill="#f2f5e9" fill-opacity="0.5" stroke="#606060" stroke-width="1.0"/>
           <path id="arrow"
             d="M 11.500037,31.436501 C 11.940474,20.09759 22.043105,11.32322 32.158766,21.979434 L 37.068811,17.246167 C 37.068811,17.246167 37.088388,32 37.088388,32 L 22.160133,31.978069 C 22.160133,31.978069 26.997745,27.140456 26.997745,27.140456 C 18.528582,18.264221 13.291696,25.230495 11.500037,31.436501 z"
             style="fill:#404040;"/>
          </a>
         </g>
        </svg>
</svg>
