<?xml version="1.0" encoding="UTF-8" standalone="no"?>
<!DOCTYPE svg PUBLIC "-//W3C//DTD SVG 1.1//EN"
 "http://www.w3.org/Graphics/SVG/1.1/DTD/svg11.dtd">
<!-- Generated by graphviz version 2.38.0 (20140413.2041)
 -->
<!-- Title: o2::monitoring::Backend Pages: 1 -->
<svg width="566pt" height="303pt"
 viewBox="0.00 0.00 566.00 303.00" xmlns="http://www.w3.org/2000/svg" xmlns:xlink="http://www.w3.org/1999/xlink">
<g id="graph0" class="graph" transform="scale(1 1) rotate(0) translate(4 299)">
<title>o2::monitoring::Backend</title>
<!-- Node1 -->
<g id="node1" class="node"><title>Node1</title>
<polygon fill="#bfbfbf" stroke="black" points="218,-171.5 218,-294.5 340,-294.5 340,-171.5 218,-171.5"/>
<text text-anchor="middle" x="279" y="-282.5" font-family="Helvetica,sans-Serif" font-size="10.00">o2::monitoring::Backend</text>
<polyline fill="none" stroke="black" points="218,-275.5 340,-275.5 "/>
<text text-anchor="middle" x="279" y="-263.5" font-family="Helvetica,sans-Serif" font-size="10.00"> </text>
<polyline fill="none" stroke="black" points="218,-256.5 340,-256.5 "/>
<text text-anchor="start" x="226" y="-244.5" font-family="Helvetica,sans-Serif" font-size="10.00">+ Backend()</text>
<text text-anchor="start" x="226" y="-233.5" font-family="Helvetica,sans-Serif" font-size="10.00">+ ~Backend()</text>
<text text-anchor="start" x="226" y="-222.5" font-family="Helvetica,sans-Serif" font-size="10.00">+ setVerbosisty()</text>
<text text-anchor="start" x="226" y="-211.5" font-family="Helvetica,sans-Serif" font-size="10.00">+ getVerbosity()</text>
<text text-anchor="start" x="226" y="-200.5" font-family="Helvetica,sans-Serif" font-size="10.00">+ send()</text>
<text text-anchor="start" x="226" y="-189.5" font-family="Helvetica,sans-Serif" font-size="10.00">+ send()</text>
<text text-anchor="start" x="226" y="-178.5" font-family="Helvetica,sans-Serif" font-size="10.00">+ addGlobalTag()</text>
</g>
<!-- Node2 -->
<g id="node2" class="node"><title>Node2</title>
<g id="a_node2"><a xlink:href="classo2_1_1monitoring_1_1backends_1_1ApMonBackend.html" target="_top" xlink:title="Backend that uses AppMon (MonALISA) ">
<polygon fill="none" stroke="black" points="0,-11.5 0,-123.5 126,-123.5 126,-11.5 0,-11.5"/>
<text text-anchor="start" x="8" y="-111.5" font-family="Helvetica,sans-Serif" font-size="10.00">o2::monitoring::backends</text>
<text text-anchor="middle" x="63" y="-100.5" font-family="Helvetica,sans-Serif" font-size="10.00">::ApMonBackend</text>
<polyline fill="none" stroke="black" points="0,-93.5 126,-93.5 "/>
<text text-anchor="middle" x="63" y="-81.5" font-family="Helvetica,sans-Serif" font-size="10.00"> </text>
<polyline fill="none" stroke="black" points="0,-74.5 126,-74.5 "/>
<text text-anchor="start" x="8" y="-62.5" font-family="Helvetica,sans-Serif" font-size="10.00">+ ApMonBackend()</text>
<text text-anchor="start" x="8" y="-51.5" font-family="Helvetica,sans-Serif" font-size="10.00">+ ~ApMonBackend()</text>
<text text-anchor="start" x="8" y="-40.5" font-family="Helvetica,sans-Serif" font-size="10.00">+ send()</text>
<text text-anchor="start" x="8" y="-29.5" font-family="Helvetica,sans-Serif" font-size="10.00">+ send()</text>
<text text-anchor="start" x="8" y="-18.5" font-family="Helvetica,sans-Serif" font-size="10.00">+ addGlobalTag()</text>
</a>
</g>
</g>
<!-- Node1&#45;&gt;Node2 -->
<g id="edge1" class="edge"><title>Node1&#45;&gt;Node2</title>
<path fill="none" stroke="midnightblue" d="M209.572,-188.331C185.401,-172.325 158.474,-153.568 135,-135 130.463,-131.411 125.86,-127.602 121.291,-123.695"/>
<polygon fill="none" stroke="midnightblue" points="207.718,-191.301 217.996,-193.873 211.565,-185.453 207.718,-191.301"/>
</g>
<!-- Node3 -->
<g id="node3" class="node"><title>Node3</title>
<g id="a_node3"><a xlink:href="classo2_1_1monitoring_1_1backends_1_1InfluxDB.html" target="_top" xlink:title="Backend that sends metrics to InfluxDB time&#45;series databse. ">
<polygon fill="none" stroke="black" points="144,-0.5 144,-134.5 270,-134.5 270,-0.5 144,-0.5"/>
<text text-anchor="start" x="152" y="-122.5" font-family="Helvetica,sans-Serif" font-size="10.00">o2::monitoring::backends</text>
<text text-anchor="middle" x="207" y="-111.5" font-family="Helvetica,sans-Serif" font-size="10.00">::InfluxDB</text>
<polyline fill="none" stroke="black" points="144,-104.5 270,-104.5 "/>
<text text-anchor="middle" x="207" y="-92.5" font-family="Helvetica,sans-Serif" font-size="10.00"> </text>
<polyline fill="none" stroke="black" points="144,-85.5 270,-85.5 "/>
<text text-anchor="start" x="152" y="-73.5" font-family="Helvetica,sans-Serif" font-size="10.00">+ InfluxDB()</text>
<text text-anchor="start" x="152" y="-62.5" font-family="Helvetica,sans-Serif" font-size="10.00">+ ~InfluxDB()</text>
<text text-anchor="start" x="152" y="-51.5" font-family="Helvetica,sans-Serif" font-size="10.00">+ convertTimestamp()</text>
<text text-anchor="start" x="152" y="-40.5" font-family="Helvetica,sans-Serif" font-size="10.00">+ send()</text>
<text text-anchor="start" x="152" y="-29.5" font-family="Helvetica,sans-Serif" font-size="10.00">+ send()</text>
<text text-anchor="start" x="152" y="-18.5" font-family="Helvetica,sans-Serif" font-size="10.00">+ addGlobalTag()</text>
<text text-anchor="start" x="152" y="-7.5" font-family="Helvetica,sans-Serif" font-size="10.00">+ toInfluxLineProtocol()</text>
</a>
</g>
</g>
<!-- Node1&#45;&gt;Node3 -->
<g id="edge2" class="edge"><title>Node1&#45;&gt;Node3</title>
<path fill="none" stroke="midnightblue" d="M248.092,-161.813C244.122,-152.798 240.068,-143.592 236.128,-134.645"/>
<polygon fill="none" stroke="midnightblue" points="244.956,-163.377 252.19,-171.119 251.363,-160.556 244.956,-163.377"/>
</g>
<!-- Node4 -->
<g id="node4" class="node"><title>Node4</title>
<g id="a_node4"><a xlink:href="classo2_1_1monitoring_1_1backends_1_1Noop.html" target="_top" xlink:title="No&#45;op backend. ">
<polygon fill="none" stroke="black" points="288,-11.5 288,-123.5 414,-123.5 414,-11.5 288,-11.5"/>
<text text-anchor="start" x="296" y="-111.5" font-family="Helvetica,sans-Serif" font-size="10.00">o2::monitoring::backends</text>
<text text-anchor="middle" x="351" y="-100.5" font-family="Helvetica,sans-Serif" font-size="10.00">::Noop</text>
<polyline fill="none" stroke="black" points="288,-93.5 414,-93.5 "/>
<text text-anchor="middle" x="351" y="-81.5" font-family="Helvetica,sans-Serif" font-size="10.00"> </text>
<polyline fill="none" stroke="black" points="288,-74.5 414,-74.5 "/>
<text text-anchor="start" x="296" y="-62.5" font-family="Helvetica,sans-Serif" font-size="10.00">+ Noop()</text>
<text text-anchor="start" x="296" y="-51.5" font-family="Helvetica,sans-Serif" font-size="10.00">+ ~Noop()</text>
<text text-anchor="start" x="296" y="-40.5" font-family="Helvetica,sans-Serif" font-size="10.00">+ send()</text>
<text text-anchor="start" x="296" y="-29.5" font-family="Helvetica,sans-Serif" font-size="10.00">+ send()</text>
<text text-anchor="start" x="296" y="-18.5" font-family="Helvetica,sans-Serif" font-size="10.00">+ addGlobalTag()</text>
</a>
</g>
</g>
<!-- Node1&#45;&gt;Node4 -->
<g id="edge3" class="edge"><title>Node1&#45;&gt;Node4</title>
<path fill="none" stroke="midnightblue" d="M309.862,-161.917C315.48,-149.161 321.267,-136.018 326.663,-123.765"/>
<polygon fill="none" stroke="midnightblue" points="306.637,-160.556 305.81,-171.119 313.044,-163.377 306.637,-160.556"/>
</g>
<!-- Node5 -->
<g id="node5" class="node"><title>Node5</title>
<g id="a_node5"><a xlink:href="classo2_1_1monitoring_1_1backends_1_1StdOut.html" target="_top" xlink:title="Prints metrics to standard output via std::cout. ">
<polygon fill="none" stroke="black" points="432,-11.5 432,-123.5 558,-123.5 558,-11.5 432,-11.5"/>
<text text-anchor="start" x="440" y="-111.5" font-family="Helvetica,sans-Serif" font-size="10.00">o2::monitoring::backends</text>
<text text-anchor="middle" x="495" y="-100.5" font-family="Helvetica,sans-Serif" font-size="10.00">::StdOut</text>
<polyline fill="none" stroke="black" points="432,-93.5 558,-93.5 "/>
<text text-anchor="middle" x="495" y="-81.5" font-family="Helvetica,sans-Serif" font-size="10.00"> </text>
<polyline fill="none" stroke="black" points="432,-74.5 558,-74.5 "/>
<text text-anchor="start" x="440" y="-62.5" font-family="Helvetica,sans-Serif" font-size="10.00">+ StdOut()</text>
<text text-anchor="start" x="440" y="-51.5" font-family="Helvetica,sans-Serif" font-size="10.00">+ ~StdOut()</text>
<text text-anchor="start" x="440" y="-40.5" font-family="Helvetica,sans-Serif" font-size="10.00">+ send()</text>
<text text-anchor="start" x="440" y="-29.5" font-family="Helvetica,sans-Serif" font-size="10.00">+ send()</text>
<text text-anchor="start" x="440" y="-18.5" font-family="Helvetica,sans-Serif" font-size="10.00">+ addGlobalTag()</text>
</a>
</g>
</g>
<!-- Node1&#45;&gt;Node5 -->
<g id="edge4" class="edge"><title>Node1&#45;&gt;Node5</title>
<path fill="none" stroke="midnightblue" d="M348.428,-188.331C372.599,-172.325 399.526,-153.568 423,-135 427.537,-131.411 432.14,-127.602 436.709,-123.695"/>
<polygon fill="none" stroke="midnightblue" points="346.435,-185.453 340.004,-193.873 350.282,-191.301 346.435,-185.453"/>
</g>
</g>
</svg>
