<?xml version="1.0" encoding="UTF-8" standalone="no"?>
<!DOCTYPE svg PUBLIC "-//W3C//DTD SVG 1.1//EN"
 "http://www.w3.org/Graphics/SVG/1.1/DTD/svg11.dtd">
<!-- Generated by graphviz version 2.38.0 (20140413.2041)
 -->
<!-- Title: o2::monitoring::DerivedMetrics Pages: 1 -->
<svg width="158pt" height="215pt"
 viewBox="0.00 0.00 158.00 215.00" xmlns="http://www.w3.org/2000/svg" xmlns:xlink="http://www.w3.org/1999/xlink">
<g id="graph0" class="graph" transform="scale(1 1) rotate(0) translate(4 211)">
<title>o2::monitoring::DerivedMetrics</title>
<!-- Node1 -->
<g id="node1" class="node"><title>Node1</title>
<polygon fill="#bfbfbf" stroke="black" points="-1.42109e-14,-0.5 -1.42109e-14,-79.5 150,-79.5 150,-0.5 -1.42109e-14,-0.5"/>
<text text-anchor="middle" x="75" y="-67.5" font-family="Helvetica,sans-Serif" font-size="10.00">o2::monitoring::DerivedMetrics</text>
<polyline fill="none" stroke="black" points="-1.42109e-14,-60.5 150,-60.5 "/>
<text text-anchor="middle" x="75" y="-48.5" font-family="Helvetica,sans-Serif" font-size="10.00"> </text>
<polyline fill="none" stroke="black" points="-1.42109e-14,-41.5 150,-41.5 "/>
<text text-anchor="start" x="8" y="-29.5" font-family="Helvetica,sans-Serif" font-size="10.00">+ DerivedMetrics()</text>
<text text-anchor="start" x="8" y="-18.5" font-family="Helvetica,sans-Serif" font-size="10.00">+ ~DerivedMetrics()</text>
<text text-anchor="start" x="8" y="-7.5" font-family="Helvetica,sans-Serif" font-size="10.00">+ process()</text>
</g>
<!-- Node2 -->
<g id="node2" class="node"><title>Node2</title>
<polygon fill="none" stroke="#bfbfbf" points="18,-127.5 18,-206.5 132,-206.5 132,-127.5 18,-127.5"/>
<text text-anchor="start" x="26" y="-194.5" font-family="Helvetica,sans-Serif" font-size="10.00">unordered_map&lt; std</text>
<text text-anchor="start" x="26" y="-183.5" font-family="Helvetica,sans-Serif" font-size="10.00">::string, o2::monitoring</text>
<text text-anchor="middle" x="75" y="-172.5" font-family="Helvetica,sans-Serif" font-size="10.00">::Metric &gt;</text>
<polyline fill="none" stroke="#bfbfbf" points="18,-165.5 132,-165.5 "/>
<text text-anchor="middle" x="75" y="-153.5" font-family="Helvetica,sans-Serif" font-size="10.00"> </text>
<polyline fill="none" stroke="#bfbfbf" points="18,-146.5 132,-146.5 "/>
<text text-anchor="middle" x="75" y="-134.5" font-family="Helvetica,sans-Serif" font-size="10.00"> </text>
</g>
<!-- Node2&#45;&gt;Node1 -->
<g id="edge1" class="edge"><title>Node2&#45;&gt;Node1</title>
<path fill="none" stroke="#404040" d="M75,-127.476C75,-116.189 75,-103.672 75,-91.7479"/>
<polygon fill="none" stroke="#404040" points="75.0001,-91.6121 71,-85.6121 75,-79.6121 79,-85.612 75.0001,-91.6121"/>
<text text-anchor="middle" x="101" y="-101" font-family="Helvetica,sans-Serif" font-size="10.00"> +mStorage</text>
</g>
</g>
</svg>
