<?xml version="1.0" encoding="UTF-8" standalone="no"?>
<!DOCTYPE svg PUBLIC "-//W3C//DTD SVG 1.1//EN"
 "http://www.w3.org/Graphics/SVG/1.1/DTD/svg11.dtd">
<!-- Generated by graphviz version 2.38.0 (20140413.2041)
 -->
<!-- Title: Ts Pages: 1 -->
<svg width="246pt" height="171pt"
 viewBox="0.00 0.00 245.50 171.00" xmlns="http://www.w3.org/2000/svg" xmlns:xlink="http://www.w3.org/1999/xlink">
<g id="graph0" class="graph" transform="scale(1 1) rotate(0) translate(4 167)">
<title>Ts</title>
<!-- Node1 -->
<g id="node1" class="node"><title>Node1</title>
<polygon fill="#bfbfbf" stroke="black" points="48.5,-105.5 48.5,-162.5 77.5,-162.5 77.5,-105.5 48.5,-105.5"/>
<text text-anchor="middle" x="63" y="-150.5" font-family="Helvetica,sans-Serif" font-size="10.00">Ts</text>
<polyline fill="none" stroke="black" points="48.5,-143.5 77.5,-143.5 "/>
<text text-anchor="middle" x="63" y="-131.5" font-family="Helvetica,sans-Serif" font-size="10.00"> </text>
<polyline fill="none" stroke="black" points="48.5,-124.5 77.5,-124.5 "/>
<text text-anchor="middle" x="63" y="-112.5" font-family="Helvetica,sans-Serif" font-size="10.00"> </text>
</g>
<!-- Node2 -->
<g id="node2" class="node"><title>Node2</title>
<g id="a_node2"><a xlink:href="structo2_1_1monitoring_1_1backends_1_1overloaded.html" target="_top" xlink:title="{o2::monitoring::backends\l::overloaded\&lt; Ts \&gt;\n||}">
<polygon fill="none" stroke="black" points="0,-0.5 0,-68.5 126,-68.5 126,-0.5 0,-0.5"/>
<text text-anchor="start" x="8" y="-56.5" font-family="Helvetica,sans-Serif" font-size="10.00">o2::monitoring::backends</text>
<text text-anchor="middle" x="63" y="-45.5" font-family="Helvetica,sans-Serif" font-size="10.00">::overloaded&lt; Ts &gt;</text>
<polyline fill="none" stroke="black" points="0,-38.5 126,-38.5 "/>
<text text-anchor="middle" x="63" y="-26.5" font-family="Helvetica,sans-Serif" font-size="10.00"> </text>
<polyline fill="none" stroke="black" points="0,-19.5 126,-19.5 "/>
<text text-anchor="middle" x="63" y="-7.5" font-family="Helvetica,sans-Serif" font-size="10.00"> </text>
</a>
</g>
</g>
<!-- Node1&#45;&gt;Node2 -->
<g id="edge1" class="edge"><title>Node1&#45;&gt;Node2</title>
<path fill="none" stroke="midnightblue" d="M49.8159,-95.3488C49.3096,-86.5945 49.4119,-77.336 50.1228,-68.7855"/>
<polygon fill="none" stroke="midnightblue" points="46.3301,-95.665 50.6898,-105.321 53.3034,-95.0538 46.3301,-95.665"/>
</g>
<!-- Node1&#45;&gt;Node2 -->
<g id="edge2" class="edge"><title>Node1&#45;&gt;Node2</title>
<path fill="none" stroke="midnightblue" d="M63,-95.0631C63,-86.3933 63,-77.2431 63,-68.7855"/>
<polygon fill="none" stroke="midnightblue" points="59.5001,-95.3212 63,-105.321 66.5001,-95.3212 59.5001,-95.3212"/>
</g>
<!-- Node1&#45;&gt;Node2 -->
<g id="edge3" class="edge"><title>Node1&#45;&gt;Node2</title>
<path fill="none" stroke="midnightblue" d="M76.1841,-95.3488C76.6904,-86.5945 76.5881,-77.336 75.8772,-68.7855"/>
<polygon fill="none" stroke="midnightblue" points="72.6966,-95.0538 75.3102,-105.321 79.6699,-95.665 72.6966,-95.0538"/>
</g>
<!-- Node3 -->
<g id="node3" class="node"><title>Node3</title>
<g id="a_node3"><a xlink:href="structoverloaded.html" target="_top" xlink:title="{overloaded\&lt; Ts \&gt;\n||}">
<polygon fill="none" stroke="black" points="144.5,-6 144.5,-63 237.5,-63 237.5,-6 144.5,-6"/>
<text text-anchor="middle" x="191" y="-51" font-family="Helvetica,sans-Serif" font-size="10.00">overloaded&lt; Ts &gt;</text>
<polyline fill="none" stroke="black" points="144.5,-44 237.5,-44 "/>
<text text-anchor="middle" x="191" y="-32" font-family="Helvetica,sans-Serif" font-size="10.00"> </text>
<polyline fill="none" stroke="black" points="144.5,-25 237.5,-25 "/>
<text text-anchor="middle" x="191" y="-13" font-family="Helvetica,sans-Serif" font-size="10.00"> </text>
</a>
</g>
</g>
<!-- Node1&#45;&gt;Node3 -->
<g id="edge4" class="edge"><title>Node1&#45;&gt;Node3</title>
<path fill="none" stroke="midnightblue" d="M85.8137,-115.622C104.923,-101.066 132.55,-80.0228 154.695,-63.1544"/>
<polygon fill="none" stroke="midnightblue" points="83.5174,-112.972 77.6832,-121.816 87.7591,-118.54 83.5174,-112.972"/>
</g>
</g>
</svg>
