<?xml version="1.0" encoding="UTF-8" standalone="no"?>
<!DOCTYPE svg PUBLIC "-//W3C//DTD SVG 1.1//EN"
 "http://www.w3.org/Graphics/SVG/1.1/DTD/svg11.dtd">
<!-- Generated by graphviz version 2.38.0 (20140413.2041)
 -->
<!-- Title: o2::monitoring::Metric Pages: 1 -->
<svg width="961pt" height="479pt"
 viewBox="0.00 0.00 961.00 479.00" xmlns="http://www.w3.org/2000/svg" xmlns:xlink="http://www.w3.org/1999/xlink">
<g id="graph0" class="graph" transform="scale(1 1) rotate(0) translate(4 475)">
<title>o2::monitoring::Metric</title>
<!-- Node1 -->
<g id="node1" class="node"><title>Node1</title>
<polygon fill="#bfbfbf" stroke="black" points="417,-0.5 417,-332.5 543,-332.5 543,-0.5 417,-0.5"/>
<text text-anchor="middle" x="480" y="-320.5" font-family="Helvetica,sans-Serif" font-size="10.00">o2::monitoring::Metric</text>
<polyline fill="none" stroke="black" points="417,-313.5 543,-313.5 "/>
<text text-anchor="middle" x="480" y="-301.5" font-family="Helvetica,sans-Serif" font-size="10.00"> </text>
<polyline fill="none" stroke="black" points="417,-294.5 543,-294.5 "/>
<text text-anchor="start" x="425" y="-282.5" font-family="Helvetica,sans-Serif" font-size="10.00">+ Metric()</text>
<text text-anchor="start" x="425" y="-271.5" font-family="Helvetica,sans-Serif" font-size="10.00">+ Metric()</text>
<text text-anchor="start" x="425" y="-260.5" font-family="Helvetica,sans-Serif" font-size="10.00">+ Metric()</text>
<text text-anchor="start" x="425" y="-249.5" font-family="Helvetica,sans-Serif" font-size="10.00">+ Metric()</text>
<text text-anchor="start" x="425" y="-238.5" font-family="Helvetica,sans-Serif" font-size="10.00">+ Metric()</text>
<text text-anchor="start" x="425" y="-227.5" font-family="Helvetica,sans-Serif" font-size="10.00">+ addValue()</text>
<text text-anchor="start" x="425" y="-216.5" font-family="Helvetica,sans-Serif" font-size="10.00">+ addValue()</text>
<text text-anchor="start" x="425" y="-205.5" font-family="Helvetica,sans-Serif" font-size="10.00">+ addValue()</text>
<text text-anchor="start" x="425" y="-194.5" font-family="Helvetica,sans-Serif" font-size="10.00">+ addValue()</text>
<text text-anchor="start" x="425" y="-183.5" font-family="Helvetica,sans-Serif" font-size="10.00">+ addValue()</text>
<text text-anchor="start" x="425" y="-172.5" font-family="Helvetica,sans-Serif" font-size="10.00">+ ~Metric()</text>
<text text-anchor="start" x="425" y="-161.5" font-family="Helvetica,sans-Serif" font-size="10.00">+ getName()</text>
<text text-anchor="start" x="425" y="-150.5" font-family="Helvetica,sans-Serif" font-size="10.00">+ getTimestamp()</text>
<text text-anchor="start" x="425" y="-139.5" font-family="Helvetica,sans-Serif" font-size="10.00">+ getValues()</text>
<text text-anchor="start" x="425" y="-128.5" font-family="Helvetica,sans-Serif" font-size="10.00">+ getFirstValue()</text>
<text text-anchor="start" x="425" y="-117.5" font-family="Helvetica,sans-Serif" font-size="10.00">+ getValuesSize()</text>
<text text-anchor="start" x="425" y="-106.5" font-family="Helvetica,sans-Serif" font-size="10.00">+ getTags()</text>
<text text-anchor="start" x="425" y="-95.5" font-family="Helvetica,sans-Serif" font-size="10.00">+ addTag()</text>
<text text-anchor="start" x="425" y="-84.5" font-family="Helvetica,sans-Serif" font-size="10.00">+ addTag()</text>
<text text-anchor="start" x="425" y="-73.5" font-family="Helvetica,sans-Serif" font-size="10.00">+ getVerbosity()</text>
<text text-anchor="start" x="425" y="-62.5" font-family="Helvetica,sans-Serif" font-size="10.00">+ getFirstValueType()</text>
<text text-anchor="start" x="425" y="-51.5" font-family="Helvetica,sans-Serif" font-size="10.00">+ getCurrentTimestamp()</text>
<text text-anchor="start" x="425" y="-40.5" font-family="Helvetica,sans-Serif" font-size="10.00">+ setDefaultVerbosity()</text>
<text text-anchor="start" x="425" y="-29.5" font-family="Helvetica,sans-Serif" font-size="10.00">+ setVerbosityPolicy()</text>
<text text-anchor="start" x="425" y="-18.5" font-family="Helvetica,sans-Serif" font-size="10.00"># setTags()</text>
<text text-anchor="start" x="425" y="-7.5" font-family="Helvetica,sans-Serif" font-size="10.00"># overwriteVerbosity()</text>
</g>
<!-- Node2 -->
<g id="node2" class="node"><title>Node2</title>
<polygon fill="none" stroke="#bfbfbf" points="0,-391.5 0,-459.5 94,-459.5 94,-391.5 0,-391.5"/>
<text text-anchor="start" x="8" y="-447.5" font-family="Helvetica,sans-Serif" font-size="10.00">vector&lt; std::pair&lt;</text>
<text text-anchor="middle" x="47" y="-436.5" font-family="Helvetica,sans-Serif" font-size="10.00"> int, int &gt; &gt;</text>
<polyline fill="none" stroke="#bfbfbf" points="0,-429.5 94,-429.5 "/>
<text text-anchor="middle" x="47" y="-417.5" font-family="Helvetica,sans-Serif" font-size="10.00"> </text>
<polyline fill="none" stroke="#bfbfbf" points="0,-410.5 94,-410.5 "/>
<text text-anchor="middle" x="47" y="-398.5" font-family="Helvetica,sans-Serif" font-size="10.00"> </text>
</g>
<!-- Node2&#45;&gt;Node1 -->
<g id="edge1" class="edge"><title>Node2&#45;&gt;Node1</title>
<path fill="none" stroke="#404040" d="M87.1102,-391.397C92.3626,-387.429 97.7458,-383.536 103,-380 203.997,-312.03 328.173,-244.972 405.727,-204.901"/>
<polygon fill="none" stroke="#404040" points="406.154,-204.681 409.657,-198.379 416.823,-199.188 413.32,-205.491 406.154,-204.681"/>
<text text-anchor="middle" x="162.5" y="-354" font-family="Helvetica,sans-Serif" font-size="10.00"> #mTags</text>
</g>
<!-- Node3 -->
<g id="node3" class="node"><title>Node3</title>
<polygon fill="none" stroke="#bfbfbf" points="112,-397 112,-454 170,-454 170,-397 112,-397"/>
<text text-anchor="middle" x="141" y="-442" font-family="Helvetica,sans-Serif" font-size="10.00">Verbosity</text>
<polyline fill="none" stroke="#bfbfbf" points="112,-435 170,-435 "/>
<text text-anchor="middle" x="141" y="-423" font-family="Helvetica,sans-Serif" font-size="10.00"> </text>
<polyline fill="none" stroke="#bfbfbf" points="112,-416 170,-416 "/>
<text text-anchor="middle" x="141" y="-404" font-family="Helvetica,sans-Serif" font-size="10.00"> </text>
</g>
<!-- Node3&#45;&gt;Node1 -->
<g id="edge2" class="edge"><title>Node3&#45;&gt;Node1</title>
<path fill="none" stroke="#404040" d="M162.887,-396.686C167.927,-390.921 173.445,-385.066 179,-380 250.748,-314.57 343.242,-252.019 406.651,-211.938"/>
<polygon fill="none" stroke="#404040" points="406.803,-211.843 409.754,-205.263 416.962,-205.456 414.011,-212.036 406.803,-211.843"/>
<text text-anchor="middle" x="239" y="-354" font-family="Helvetica,sans-Serif" font-size="10.00"> #mVerbosity</text>
</g>
<!-- Node4 -->
<g id="node4" class="node"><title>Node4</title>
<polygon fill="none" stroke="#bfbfbf" points="188.5,-391.5 188.5,-459.5 307.5,-459.5 307.5,-391.5 188.5,-391.5"/>
<text text-anchor="start" x="196.5" y="-447.5" font-family="Helvetica,sans-Serif" font-size="10.00">time_point&lt; std::chrono</text>
<text text-anchor="middle" x="248" y="-436.5" font-family="Helvetica,sans-Serif" font-size="10.00">::system_clock &gt;</text>
<polyline fill="none" stroke="#bfbfbf" points="188.5,-429.5 307.5,-429.5 "/>
<text text-anchor="middle" x="248" y="-417.5" font-family="Helvetica,sans-Serif" font-size="10.00"> </text>
<polyline fill="none" stroke="#bfbfbf" points="188.5,-410.5 307.5,-410.5 "/>
<text text-anchor="middle" x="248" y="-398.5" font-family="Helvetica,sans-Serif" font-size="10.00"> </text>
</g>
<!-- Node4&#45;&gt;Node1 -->
<g id="edge3" class="edge"><title>Node4&#45;&gt;Node1</title>
<path fill="none" stroke="#404040" d="M277.855,-391.428C310.748,-354.991 364.811,-295.101 408.754,-246.423"/>
<polygon fill="none" stroke="#404040" points="408.793,-246.38 409.845,-239.246 416.834,-237.472 415.783,-244.606 408.793,-246.38"/>
<text text-anchor="middle" x="344" y="-354" font-family="Helvetica,sans-Serif" font-size="10.00"> #mTimestamp</text>
</g>
<!-- Node5 -->
<g id="node5" class="node"><title>Node5</title>
<polygon fill="none" stroke="#bfbfbf" points="325.5,-380.5 325.5,-470.5 448.5,-470.5 448.5,-380.5 325.5,-380.5"/>
<text text-anchor="start" x="333.5" y="-458.5" font-family="Helvetica,sans-Serif" font-size="10.00">vector&lt; std::pair&lt;</text>
<text text-anchor="start" x="333.5" y="-447.5" font-family="Helvetica,sans-Serif" font-size="10.00"> std::string, std::variant</text>
<text text-anchor="start" x="333.5" y="-436.5" font-family="Helvetica,sans-Serif" font-size="10.00">&lt; int, std::string, double,</text>
<text text-anchor="middle" x="387" y="-425.5" font-family="Helvetica,sans-Serif" font-size="10.00"> uint64_t &gt; &gt; &gt;</text>
<polyline fill="none" stroke="#bfbfbf" points="325.5,-418.5 448.5,-418.5 "/>
<text text-anchor="middle" x="387" y="-406.5" font-family="Helvetica,sans-Serif" font-size="10.00"> </text>
<polyline fill="none" stroke="#bfbfbf" points="325.5,-399.5 448.5,-399.5 "/>
<text text-anchor="middle" x="387" y="-387.5" font-family="Helvetica,sans-Serif" font-size="10.00"> </text>
</g>
<!-- Node5&#45;&gt;Node1 -->
<g id="edge4" class="edge"><title>Node5&#45;&gt;Node1</title>
<path fill="none" stroke="#404040" d="M402.987,-380.32C406.904,-369.498 411.337,-357.246 416.05,-344.222"/>
<polygon fill="none" stroke="#404040" points="416.175,-343.878 414.455,-336.875 420.258,-332.594 421.977,-339.597 416.175,-343.878"/>
<text text-anchor="middle" x="435.5" y="-354" font-family="Helvetica,sans-Serif" font-size="10.00"> #mValues</text>
</g>
<!-- Node6 -->
<g id="node6" class="node"><title>Node6</title>
<polygon fill="none" stroke="#bfbfbf" points="466.5,-397 466.5,-454 551.5,-454 551.5,-397 466.5,-397"/>
<text text-anchor="middle" x="509" y="-442" font-family="Helvetica,sans-Serif" font-size="10.00">static Verbosity</text>
<polyline fill="none" stroke="#bfbfbf" points="466.5,-435 551.5,-435 "/>
<text text-anchor="middle" x="509" y="-423" font-family="Helvetica,sans-Serif" font-size="10.00"> </text>
<polyline fill="none" stroke="#bfbfbf" points="466.5,-416 551.5,-416 "/>
<text text-anchor="middle" x="509" y="-404" font-family="Helvetica,sans-Serif" font-size="10.00"> </text>
</g>
<!-- Node6&#45;&gt;Node1 -->
<g id="edge5" class="edge"><title>Node6&#45;&gt;Node1</title>
<path fill="none" stroke="#404040" d="M493.578,-396.728C488.532,-386.183 483.566,-373.853 481,-362 479.77,-356.317 478.701,-350.519 477.777,-344.646"/>
<polygon fill="none" stroke="#404040" points="477.74,-344.386 472.948,-338.998 476.078,-332.501 480.87,-337.889 477.74,-344.386"/>
<text text-anchor="middle" x="522" y="-354" font-family="Helvetica,sans-Serif" font-size="10.00"> +DefaultVerbosity</text>
</g>
<!-- Node7 -->
<g id="node7" class="node"><title>Node7</title>
<polygon fill="none" stroke="#bfbfbf" points="569.5,-397 569.5,-454 610.5,-454 610.5,-397 569.5,-397"/>
<text text-anchor="middle" x="590" y="-442" font-family="Helvetica,sans-Serif" font-size="10.00">string</text>
<polyline fill="none" stroke="#bfbfbf" points="569.5,-435 610.5,-435 "/>
<text text-anchor="middle" x="590" y="-423" font-family="Helvetica,sans-Serif" font-size="10.00"> </text>
<polyline fill="none" stroke="#bfbfbf" points="569.5,-416 610.5,-416 "/>
<text text-anchor="middle" x="590" y="-404" font-family="Helvetica,sans-Serif" font-size="10.00"> </text>
</g>
<!-- Node7&#45;&gt;Node1 -->
<g id="edge6" class="edge"><title>Node7&#45;&gt;Node1</title>
<path fill="none" stroke="#404040" d="M580.342,-396.744C575.391,-382.907 569.127,-365.972 563,-351 558.21,-339.293 553.116,-327.231 547.9,-315.147"/>
<polygon fill="none" stroke="#404040" points="547.862,-315.06 541.802,-311.15 543.08,-304.053 549.14,-307.963 547.862,-315.06"/>
<text text-anchor="middle" x="588.5" y="-354" font-family="Helvetica,sans-Serif" font-size="10.00"> #mName</text>
</g>
<!-- Node8 -->
<g id="node8" class="node"><title>Node8</title>
<polygon fill="none" stroke="#bfbfbf" points="633.5,-397 633.5,-454 668.5,-454 668.5,-397 633.5,-397"/>
<text text-anchor="middle" x="651" y="-442" font-family="Helvetica,sans-Serif" font-size="10.00">bool</text>
<polyline fill="none" stroke="#bfbfbf" points="633.5,-435 668.5,-435 "/>
<text text-anchor="middle" x="651" y="-423" font-family="Helvetica,sans-Serif" font-size="10.00"> </text>
<polyline fill="none" stroke="#bfbfbf" points="633.5,-416 668.5,-416 "/>
<text text-anchor="middle" x="651" y="-404" font-family="Helvetica,sans-Serif" font-size="10.00"> </text>
</g>
<!-- Node8&#45;&gt;Node1 -->
<g id="edge7" class="edge"><title>Node8&#45;&gt;Node1</title>
<path fill="none" stroke="#404040" d="M638.337,-396.694C631.628,-382.692 622.939,-365.628 614,-351 594.872,-319.7 571.96,-286.928 550.537,-257.882"/>
<polygon fill="none" stroke="#404040" points="550.489,-257.818 543.701,-255.384 543.336,-248.182 550.125,-250.616 550.489,-257.818"/>
<text text-anchor="middle" x="664.5" y="-354" font-family="Helvetica,sans-Serif" font-size="10.00"> +includeTimestamp</text>
</g>
<!-- Node9 -->
<g id="node9" class="node"><title>Node9</title>
<polygon fill="none" stroke="#bfbfbf" points="699,-386 699,-465 827,-465 827,-386 699,-386"/>
<text text-anchor="start" x="707" y="-453" font-family="Helvetica,sans-Serif" font-size="10.00">map&lt; std::underlying</text>
<text text-anchor="start" x="707" y="-442" font-family="Helvetica,sans-Serif" font-size="10.00">_type&lt; Verbosity &gt;::type,</text>
<text text-anchor="middle" x="763" y="-431" font-family="Helvetica,sans-Serif" font-size="10.00"> std::regex &gt;</text>
<polyline fill="none" stroke="#bfbfbf" points="699,-424 827,-424 "/>
<text text-anchor="middle" x="763" y="-412" font-family="Helvetica,sans-Serif" font-size="10.00"> </text>
<polyline fill="none" stroke="#bfbfbf" points="699,-405 827,-405 "/>
<text text-anchor="middle" x="763" y="-393" font-family="Helvetica,sans-Serif" font-size="10.00"> </text>
</g>
<!-- Node9&#45;&gt;Node1 -->
<g id="edge8" class="edge"><title>Node9&#45;&gt;Node1</title>
<path fill="none" stroke="#404040" d="M739.907,-385.819C732.064,-374.067 722.789,-361.497 713,-351 664.969,-299.497 601.754,-250.649 553.289,-216.319"/>
<polygon fill="none" stroke="#404040" points="553,-216.117 545.791,-215.94 543.181,-209.218 550.39,-209.394 553,-216.117"/>
<text text-anchor="middle" x="759.5" y="-354" font-family="Helvetica,sans-Serif" font-size="10.00"> #mRegexPolicy</text>
</g>
<!-- Node10 -->
<g id="node10" class="node"><title>Node10</title>
<polygon fill="none" stroke="#bfbfbf" points="845,-397 845,-454 953,-454 953,-397 845,-397"/>
<text text-anchor="middle" x="899" y="-442" font-family="Helvetica,sans-Serif" font-size="10.00">static constexpr char</text>
<polyline fill="none" stroke="#bfbfbf" points="845,-435 953,-435 "/>
<text text-anchor="middle" x="899" y="-423" font-family="Helvetica,sans-Serif" font-size="10.00"> </text>
<polyline fill="none" stroke="#bfbfbf" points="845,-416 953,-416 "/>
<text text-anchor="middle" x="899" y="-404" font-family="Helvetica,sans-Serif" font-size="10.00"> </text>
</g>
<!-- Node10&#45;&gt;Node1 -->
<g id="edge9" class="edge"><title>Node10&#45;&gt;Node1</title>
<path fill="none" stroke="#404040" d="M863.982,-396.926C845.358,-382.668 821.85,-365.304 800,-351 718.03,-297.337 619.752,-242.281 553.93,-206.66"/>
<polygon fill="none" stroke="#404040" points="553.808,-206.594 546.628,-207.265 543.247,-200.895 550.427,-200.224 553.808,-206.594"/>
<text text-anchor="middle" x="864" y="-354" font-family="Helvetica,sans-Serif" font-size="10.00"> #mDefaultValueName</text>
</g>
</g>
</svg>
