<?xml version="1.0" encoding="UTF-8" standalone="no"?>
<!DOCTYPE svg PUBLIC "-//W3C//DTD SVG 1.1//EN"
 "http://www.w3.org/Graphics/SVG/1.1/DTD/svg11.dtd">
<!-- Generated by graphviz version 2.38.0 (20140413.2041)
 -->
<!-- Title: o2::monitoring::transports::TransportInterface Pages: 1 -->
<svg width="920pt" height="237pt"
 viewBox="0.00 0.00 920.00 237.00" xmlns="http://www.w3.org/2000/svg" xmlns:xlink="http://www.w3.org/1999/xlink">
<g id="graph0" class="graph" transform="scale(1 1) rotate(0) translate(4 233)">
<title>o2::monitoring::transports::TransportInterface</title>
<!-- Node1 -->
<g id="node1" class="node"><title>Node1</title>
<polygon fill="#bfbfbf" stroke="black" points="371,-138.5 371,-228.5 499,-228.5 499,-138.5 371,-138.5"/>
<text text-anchor="start" x="379" y="-216.5" font-family="Helvetica,sans-Serif" font-size="10.00">o2::monitoring::transports</text>
<text text-anchor="middle" x="435" y="-205.5" font-family="Helvetica,sans-Serif" font-size="10.00">::TransportInterface</text>
<polyline fill="none" stroke="black" points="371,-198.5 499,-198.5 "/>
<text text-anchor="middle" x="435" y="-186.5" font-family="Helvetica,sans-Serif" font-size="10.00"> </text>
<polyline fill="none" stroke="black" points="371,-179.5 499,-179.5 "/>
<text text-anchor="start" x="379" y="-167.5" font-family="Helvetica,sans-Serif" font-size="10.00">+ TransportInterface()</text>
<text text-anchor="start" x="379" y="-156.5" font-family="Helvetica,sans-Serif" font-size="10.00">+ ~TransportInterface()</text>
<text text-anchor="start" x="379" y="-145.5" font-family="Helvetica,sans-Serif" font-size="10.00">+ send()</text>
</g>
<!-- Node2 -->
<g id="node2" class="node"><title>Node2</title>
<g id="a_node2"><a xlink:href="classo2_1_1monitoring_1_1transports_1_1HTTP.html" target="_top" xlink:title="HTTP POST transport. ">
<polygon fill="none" stroke="black" points="0,-0.5 0,-101.5 128,-101.5 128,-0.5 0,-0.5"/>
<text text-anchor="start" x="8" y="-89.5" font-family="Helvetica,sans-Serif" font-size="10.00">o2::monitoring::transports</text>
<text text-anchor="middle" x="64" y="-78.5" font-family="Helvetica,sans-Serif" font-size="10.00">::HTTP</text>
<polyline fill="none" stroke="black" points="0,-71.5 128,-71.5 "/>
<text text-anchor="middle" x="64" y="-59.5" font-family="Helvetica,sans-Serif" font-size="10.00"> </text>
<polyline fill="none" stroke="black" points="0,-52.5 128,-52.5 "/>
<text text-anchor="start" x="8" y="-40.5" font-family="Helvetica,sans-Serif" font-size="10.00">+ HTTP()</text>
<text text-anchor="start" x="8" y="-29.5" font-family="Helvetica,sans-Serif" font-size="10.00">+ ~HTTP()</text>
<text text-anchor="start" x="8" y="-18.5" font-family="Helvetica,sans-Serif" font-size="10.00">+ send()</text>
<text text-anchor="start" x="8" y="-7.5" font-family="Helvetica,sans-Serif" font-size="10.00">+ addHeader()</text>
</a>
</g>
</g>
<!-- Node1&#45;&gt;Node2 -->
<g id="edge1" class="edge"><title>Node1&#45;&gt;Node2</title>
<path fill="none" stroke="midnightblue" d="M360.875,-169.702C299.078,-157.355 209.718,-135.543 137,-102 134.071,-100.649 131.131,-99.1828 128.202,-97.63"/>
<polygon fill="none" stroke="midnightblue" points="360.445,-173.185 370.932,-171.677 361.794,-166.316 360.445,-173.185"/>
</g>
<!-- Node3 -->
<g id="node3" class="node"><title>Node3</title>
<g id="a_node3"><a xlink:href="classo2_1_1monitoring_1_1transports_1_1Kafka.html" target="_top" xlink:title="Transport that sends string formatted metrics via Kafka. ">
<polygon fill="none" stroke="black" points="146,-6 146,-96 274,-96 274,-6 146,-6"/>
<text text-anchor="start" x="154" y="-84" font-family="Helvetica,sans-Serif" font-size="10.00">o2::monitoring::transports</text>
<text text-anchor="middle" x="210" y="-73" font-family="Helvetica,sans-Serif" font-size="10.00">::Kafka</text>
<polyline fill="none" stroke="black" points="146,-66 274,-66 "/>
<text text-anchor="middle" x="210" y="-54" font-family="Helvetica,sans-Serif" font-size="10.00"> </text>
<polyline fill="none" stroke="black" points="146,-47 274,-47 "/>
<text text-anchor="start" x="154" y="-35" font-family="Helvetica,sans-Serif" font-size="10.00">+ Kafka()</text>
<text text-anchor="start" x="154" y="-24" font-family="Helvetica,sans-Serif" font-size="10.00">+ ~Kafka()</text>
<text text-anchor="start" x="154" y="-13" font-family="Helvetica,sans-Serif" font-size="10.00">+ send()</text>
</a>
</g>
</g>
<!-- Node1&#45;&gt;Node3 -->
<g id="edge2" class="edge"><title>Node1&#45;&gt;Node3</title>
<path fill="none" stroke="midnightblue" d="M361.708,-145.828C336.425,-132.616 308.149,-117.205 283,-102 279.845,-100.093 276.64,-98.1033 273.422,-96.0643"/>
<polygon fill="none" stroke="midnightblue" points="360.388,-149.087 370.876,-150.592 363.616,-142.875 360.388,-149.087"/>
</g>
<!-- Node4 -->
<g id="node4" class="node"><title>Node4</title>
<g id="a_node4"><a xlink:href="classo2_1_1monitoring_1_1transports_1_1StdOut.html" target="_top" xlink:title="Transport that sends string formatted metrics via StdOut. ">
<polygon fill="none" stroke="black" points="292,-0.5 292,-101.5 420,-101.5 420,-0.5 292,-0.5"/>
<text text-anchor="start" x="300" y="-89.5" font-family="Helvetica,sans-Serif" font-size="10.00">o2::monitoring::transports</text>
<text text-anchor="middle" x="356" y="-78.5" font-family="Helvetica,sans-Serif" font-size="10.00">::StdOut</text>
<polyline fill="none" stroke="black" points="292,-71.5 420,-71.5 "/>
<text text-anchor="middle" x="356" y="-59.5" font-family="Helvetica,sans-Serif" font-size="10.00"> </text>
<polyline fill="none" stroke="black" points="292,-52.5 420,-52.5 "/>
<text text-anchor="start" x="300" y="-40.5" font-family="Helvetica,sans-Serif" font-size="10.00">+ StdOut()</text>
<text text-anchor="start" x="300" y="-29.5" font-family="Helvetica,sans-Serif" font-size="10.00">+ ~StdOut()</text>
<text text-anchor="start" x="300" y="-18.5" font-family="Helvetica,sans-Serif" font-size="10.00">+ send()</text>
<text text-anchor="start" x="300" y="-7.5" font-family="Helvetica,sans-Serif" font-size="10.00">+ operator&lt;&lt;()</text>
</a>
</g>
</g>
<!-- Node1&#45;&gt;Node4 -->
<g id="edge3" class="edge"><title>Node1&#45;&gt;Node4</title>
<path fill="none" stroke="midnightblue" d="M402.956,-129.566C397.347,-120.301 391.53,-110.691 385.979,-101.523"/>
<polygon fill="none" stroke="midnightblue" points="400.081,-131.577 408.254,-138.319 406.07,-127.951 400.081,-131.577"/>
</g>
<!-- Node5 -->
<g id="node5" class="node"><title>Node5</title>
<g id="a_node5"><a xlink:href="classo2_1_1monitoring_1_1transports_1_1TCP.html" target="_top" xlink:title="Transport that sends string formatted metrics via TCP. ">
<polygon fill="none" stroke="black" points="438,-11.5 438,-90.5 592,-90.5 592,-11.5 438,-11.5"/>
<text text-anchor="middle" x="515" y="-78.5" font-family="Helvetica,sans-Serif" font-size="10.00">o2::monitoring::transports::TCP</text>
<polyline fill="none" stroke="black" points="438,-71.5 592,-71.5 "/>
<text text-anchor="middle" x="515" y="-59.5" font-family="Helvetica,sans-Serif" font-size="10.00"> </text>
<polyline fill="none" stroke="black" points="438,-52.5 592,-52.5 "/>
<text text-anchor="start" x="446" y="-40.5" font-family="Helvetica,sans-Serif" font-size="10.00">+ TCP()</text>
<text text-anchor="start" x="446" y="-29.5" font-family="Helvetica,sans-Serif" font-size="10.00">+ ~TCP()</text>
<text text-anchor="start" x="446" y="-18.5" font-family="Helvetica,sans-Serif" font-size="10.00">+ send()</text>
</a>
</g>
</g>
<!-- Node1&#45;&gt;Node5 -->
<g id="edge4" class="edge"><title>Node1&#45;&gt;Node5</title>
<path fill="none" stroke="midnightblue" d="M467.485,-129.509C475.403,-116.592 483.729,-103.011 491.16,-90.8892"/>
<polygon fill="none" stroke="midnightblue" points="464.327,-127.964 462.084,-138.319 470.295,-131.622 464.327,-127.964"/>
</g>
<!-- Node6 -->
<g id="node6" class="node"><title>Node6</title>
<g id="a_node6"><a xlink:href="classo2_1_1monitoring_1_1transports_1_1UDP.html" target="_top" xlink:title="Transport that sends string formatted metrics via UDP. ">
<polygon fill="none" stroke="black" points="610.5,-11.5 610.5,-90.5 765.5,-90.5 765.5,-11.5 610.5,-11.5"/>
<text text-anchor="middle" x="688" y="-78.5" font-family="Helvetica,sans-Serif" font-size="10.00">o2::monitoring::transports::UDP</text>
<polyline fill="none" stroke="black" points="610.5,-71.5 765.5,-71.5 "/>
<text text-anchor="middle" x="688" y="-59.5" font-family="Helvetica,sans-Serif" font-size="10.00"> </text>
<polyline fill="none" stroke="black" points="610.5,-52.5 765.5,-52.5 "/>
<text text-anchor="start" x="618.5" y="-40.5" font-family="Helvetica,sans-Serif" font-size="10.00">+ UDP()</text>
<text text-anchor="start" x="618.5" y="-29.5" font-family="Helvetica,sans-Serif" font-size="10.00">+ ~UDP()</text>
<text text-anchor="start" x="618.5" y="-18.5" font-family="Helvetica,sans-Serif" font-size="10.00">+ send()</text>
</a>
</g>
</g>
<!-- Node1&#45;&gt;Node6 -->
<g id="edge5" class="edge"><title>Node1&#45;&gt;Node6</title>
<path fill="none" stroke="midnightblue" d="M508.628,-148.159C537.641,-134.273 571.11,-117.812 601,-102 607.776,-98.4158 614.792,-94.5866 621.767,-90.7025"/>
<polygon fill="none" stroke="midnightblue" points="506.894,-145.108 499.376,-152.572 509.908,-151.426 506.894,-145.108"/>
</g>
<!-- Node7 -->
<g id="node7" class="node"><title>Node7</title>
<g id="a_node7"><a xlink:href="classo2_1_1monitoring_1_1transports_1_1Unix.html" target="_top" xlink:title="Transport that sends string formatted metrics via Unix datagram socket. ">
<polygon fill="none" stroke="black" points="784,-6 784,-96 912,-96 912,-6 784,-6"/>
<text text-anchor="start" x="792" y="-84" font-family="Helvetica,sans-Serif" font-size="10.00">o2::monitoring::transports</text>
<text text-anchor="middle" x="848" y="-73" font-family="Helvetica,sans-Serif" font-size="10.00">::Unix</text>
<polyline fill="none" stroke="black" points="784,-66 912,-66 "/>
<text text-anchor="middle" x="848" y="-54" font-family="Helvetica,sans-Serif" font-size="10.00"> </text>
<polyline fill="none" stroke="black" points="784,-47 912,-47 "/>
<text text-anchor="start" x="792" y="-35" font-family="Helvetica,sans-Serif" font-size="10.00">+ Unix()</text>
<text text-anchor="start" x="792" y="-24" font-family="Helvetica,sans-Serif" font-size="10.00">+ ~Unix()</text>
<text text-anchor="start" x="792" y="-13" font-family="Helvetica,sans-Serif" font-size="10.00">+ send()</text>
</a>
</g>
</g>
<!-- Node1&#45;&gt;Node7 -->
<g id="edge6" class="edge"><title>Node1&#45;&gt;Node7</title>
<path fill="none" stroke="midnightblue" d="M509.425,-172.937C580.05,-162.02 688.023,-140.478 775,-102 778.933,-100.26 782.88,-98.3022 786.789,-96.1955"/>
<polygon fill="none" stroke="midnightblue" points="508.647,-169.515 499.283,-174.472 509.694,-176.436 508.647,-169.515"/>
</g>
</g>
</svg>
