<?xml version="1.0" encoding="UTF-8" standalone="no"?>
<!DOCTYPE svg PUBLIC "-//W3C//DTD SVG 1.1//EN"
 "http://www.w3.org/Graphics/SVG/1.1/DTD/svg11.dtd">
<!-- Generated by graphviz version 2.38.0 (20140413.2041)
 -->
<!-- Title: o2::monitoring::transports::UDP Pages: 1 -->
<svg width="163pt" height="215pt"
 viewBox="0.00 0.00 163.00 215.00" xmlns="http://www.w3.org/2000/svg" xmlns:xlink="http://www.w3.org/1999/xlink">
<g id="graph0" class="graph" transform="scale(1 1) rotate(0) translate(4 211)">
<title>o2::monitoring::transports::UDP</title>
<!-- Node1 -->
<g id="node1" class="node"><title>Node1</title>
<polygon fill="#bfbfbf" stroke="black" points="0,-0.5 0,-79.5 155,-79.5 155,-0.5 0,-0.5"/>
<text text-anchor="middle" x="77.5" y="-67.5" font-family="Helvetica,sans-Serif" font-size="10.00">o2::monitoring::transports::UDP</text>
<polyline fill="none" stroke="black" points="0,-60.5 155,-60.5 "/>
<text text-anchor="middle" x="77.5" y="-48.5" font-family="Helvetica,sans-Serif" font-size="10.00"> </text>
<polyline fill="none" stroke="black" points="0,-41.5 155,-41.5 "/>
<text text-anchor="start" x="8" y="-29.5" font-family="Helvetica,sans-Serif" font-size="10.00">+ UDP()</text>
<text text-anchor="start" x="8" y="-18.5" font-family="Helvetica,sans-Serif" font-size="10.00">+ ~UDP()</text>
<text text-anchor="start" x="8" y="-7.5" font-family="Helvetica,sans-Serif" font-size="10.00">+ send()</text>
</g>
<!-- Node2 -->
<g id="node2" class="node"><title>Node2</title>
<g id="a_node2"><a xlink:href="classo2_1_1monitoring_1_1transports_1_1TransportInterface.html" target="_top" xlink:title="Transport interface for backends. ">
<polygon fill="none" stroke="black" points="13.5,-116.5 13.5,-206.5 141.5,-206.5 141.5,-116.5 13.5,-116.5"/>
<text text-anchor="start" x="21.5" y="-194.5" font-family="Helvetica,sans-Serif" font-size="10.00">o2::monitoring::transports</text>
<text text-anchor="middle" x="77.5" y="-183.5" font-family="Helvetica,sans-Serif" font-size="10.00">::TransportInterface</text>
<polyline fill="none" stroke="black" points="13.5,-176.5 141.5,-176.5 "/>
<text text-anchor="middle" x="77.5" y="-164.5" font-family="Helvetica,sans-Serif" font-size="10.00"> </text>
<polyline fill="none" stroke="black" points="13.5,-157.5 141.5,-157.5 "/>
<text text-anchor="start" x="21.5" y="-145.5" font-family="Helvetica,sans-Serif" font-size="10.00">+ TransportInterface()</text>
<text text-anchor="start" x="21.5" y="-134.5" font-family="Helvetica,sans-Serif" font-size="10.00">+ ~TransportInterface()</text>
<text text-anchor="start" x="21.5" y="-123.5" font-family="Helvetica,sans-Serif" font-size="10.00">+ send()</text>
</a>
</g>
</g>
<!-- Node2&#45;&gt;Node1 -->
<g id="edge1" class="edge"><title>Node2&#45;&gt;Node1</title>
<path fill="none" stroke="midnightblue" d="M77.5,-106.079C77.5,-97.234 77.5,-88.2325 77.5,-79.8576"/>
<polygon fill="none" stroke="midnightblue" points="74.0001,-106.342 77.5,-116.342 81.0001,-106.342 74.0001,-106.342"/>
</g>
</g>
</svg>
