<?xml version="1.0" encoding="UTF-8" standalone="no"?>
<!DOCTYPE svg PUBLIC "-//W3C//DTD SVG 1.1//EN"
 "http://www.w3.org/Graphics/SVG/1.1/DTD/svg11.dtd">
<!-- Generated by graphviz version 2.38.0 (20140413.2041)
 -->
<!-- Title: o2::monitoring::transports::TCP Pages: 1 -->
<svg width="162pt" height="215pt"
 viewBox="0.00 0.00 162.00 215.00" xmlns="http://www.w3.org/2000/svg" xmlns:xlink="http://www.w3.org/1999/xlink">
<g id="graph0" class="graph" transform="scale(1 1) rotate(0) translate(4 211)">
<title>o2::monitoring::transports::TCP</title>
<!-- Node1 -->
<g id="node1" class="node"><title>Node1</title>
<polygon fill="#bfbfbf" stroke="black" points="0,-0.5 0,-79.5 154,-79.5 154,-0.5 0,-0.5"/>
<text text-anchor="middle" x="77" y="-67.5" font-family="Helvetica,sans-Serif" font-size="10.00">o2::monitoring::transports::TCP</text>
<polyline fill="none" stroke="black" points="0,-60.5 154,-60.5 "/>
<text text-anchor="middle" x="77" y="-48.5" font-family="Helvetica,sans-Serif" font-size="10.00"> </text>
<polyline fill="none" stroke="black" points="0,-41.5 154,-41.5 "/>
<text text-anchor="start" x="8" y="-29.5" font-family="Helvetica,sans-Serif" font-size="10.00">+ TCP()</text>
<text text-anchor="start" x="8" y="-18.5" font-family="Helvetica,sans-Serif" font-size="10.00">+ ~TCP()</text>
<text text-anchor="start" x="8" y="-7.5" font-family="Helvetica,sans-Serif" font-size="10.00">+ send()</text>
</g>
<!-- Node2 -->
<g id="node2" class="node"><title>Node2</title>
<g id="a_node2"><a xlink:href="classo2_1_1monitoring_1_1transports_1_1TransportInterface.html" target="_top" xlink:title="Transport interface for backends. ">
<polygon fill="none" stroke="black" points="13,-116.5 13,-206.5 141,-206.5 141,-116.5 13,-116.5"/>
<text text-anchor="start" x="21" y="-194.5" font-family="Helvetica,sans-Serif" font-size="10.00">o2::monitoring::transports</text>
<text text-anchor="middle" x="77" y="-183.5" font-family="Helvetica,sans-Serif" font-size="10.00">::TransportInterface</text>
<polyline fill="none" stroke="black" points="13,-176.5 141,-176.5 "/>
<text text-anchor="middle" x="77" y="-164.5" font-family="Helvetica,sans-Serif" font-size="10.00"> </text>
<polyline fill="none" stroke="black" points="13,-157.5 141,-157.5 "/>
<text text-anchor="start" x="21" y="-145.5" font-family="Helvetica,sans-Serif" font-size="10.00">+ TransportInterface()</text>
<text text-anchor="start" x="21" y="-134.5" font-family="Helvetica,sans-Serif" font-size="10.00">+ ~TransportInterface()</text>
<text text-anchor="start" x="21" y="-123.5" font-family="Helvetica,sans-Serif" font-size="10.00">+ send()</text>
</a>
</g>
</g>
<!-- Node2&#45;&gt;Node1 -->
<g id="edge1" class="edge"><title>Node2&#45;&gt;Node1</title>
<path fill="none" stroke="midnightblue" d="M77,-106.079C77,-97.234 77,-88.2325 77,-79.8576"/>
<polygon fill="none" stroke="midnightblue" points="73.5001,-106.342 77,-116.342 80.5001,-106.342 73.5001,-106.342"/>
</g>
</g>
</svg>
