<?xml version="1.0" encoding="UTF-8" standalone="no"?>
<!DOCTYPE svg PUBLIC "-//W3C//DTD SVG 1.1//EN"
 "http://www.w3.org/Graphics/SVG/1.1/DTD/svg11.dtd">
<!-- Generated by graphviz version 2.38.0 (20140413.2041)
 -->
<!-- Title: /home/travis/build/AliceO2Group/Monitoring/include/Monitoring/DerivedMetrics.h Pages: 1 -->
<svg width="606pt" height="218pt"
 viewBox="0.00 0.00 606.00 218.00" xmlns="http://www.w3.org/2000/svg" xmlns:xlink="http://www.w3.org/1999/xlink">
<g id="graph0" class="graph" transform="scale(1 1) rotate(0) translate(4 214)">
<title>/home/travis/build/AliceO2Group/Monitoring/include/Monitoring/DerivedMetrics.h</title>
<!-- Node1 -->
<g id="node1" class="node"><title>Node1</title>
<polygon fill="#bfbfbf" stroke="black" points="93.5,-168.5 93.5,-209.5 269.5,-209.5 269.5,-168.5 93.5,-168.5"/>
<text text-anchor="start" x="101.5" y="-197.5" font-family="Helvetica,sans-Serif" font-size="10.00">/home/travis/build</text>
<text text-anchor="start" x="101.5" y="-186.5" font-family="Helvetica,sans-Serif" font-size="10.00">/AliceO2Group/Monitoring</text>
<text text-anchor="middle" x="181.5" y="-175.5" font-family="Helvetica,sans-Serif" font-size="10.00">/include/Monitoring/DerivedMetrics.h</text>
</g>
<!-- Node2 -->
<g id="node2" class="node"><title>Node2</title>
<polygon fill="none" stroke="#bfbfbf" points="0,-112.5 0,-131.5 83,-131.5 83,-112.5 0,-112.5"/>
<text text-anchor="middle" x="41.5" y="-119.5" font-family="Helvetica,sans-Serif" font-size="10.00">unordered_map</text>
</g>
<!-- Node1&#45;&gt;Node2 -->
<g id="edge1" class="edge"><title>Node1&#45;&gt;Node2</title>
<path fill="none" stroke="midnightblue" d="M139.495,-168.498C116.792,-157.957 89.3856,-145.233 69.3352,-135.923"/>
<polygon fill="midnightblue" stroke="midnightblue" points="70.6801,-132.689 60.1361,-131.652 67.7323,-139.038 70.6801,-132.689"/>
</g>
<!-- Node3 -->
<g id="node3" class="node"><title>Node3</title>
<polygon fill="none" stroke="#bfbfbf" points="101.5,-112.5 101.5,-131.5 153.5,-131.5 153.5,-112.5 101.5,-112.5"/>
<text text-anchor="middle" x="127.5" y="-119.5" font-family="Helvetica,sans-Serif" font-size="10.00">memory</text>
</g>
<!-- Node1&#45;&gt;Node3 -->
<g id="edge2" class="edge"><title>Node1&#45;&gt;Node3</title>
<path fill="none" stroke="midnightblue" d="M165.298,-168.498C157.576,-159.203 148.443,-148.21 141.09,-139.358"/>
<polygon fill="midnightblue" stroke="midnightblue" points="143.771,-137.108 134.688,-131.652 138.386,-141.581 143.771,-137.108"/>
</g>
<!-- Node4 -->
<g id="node4" class="node"><title>Node4</title>
<polygon fill="none" stroke="#bfbfbf" points="261,-0.5 261,-19.5 302,-19.5 302,-0.5 261,-0.5"/>
<text text-anchor="middle" x="281.5" y="-7.5" font-family="Helvetica,sans-Serif" font-size="10.00">string</text>
</g>
<!-- Node1&#45;&gt;Node4 -->
<g id="edge3" class="edge"><title>Node1&#45;&gt;Node4</title>
<path fill="none" stroke="midnightblue" d="M179.204,-168.156C177.065,-140.497 177.117,-89.9362 200.5,-56 212.479,-38.6146 233.465,-27.2278 251.073,-20.2584"/>
<polygon fill="midnightblue" stroke="midnightblue" points="252.762,-23.3681 260.957,-16.6535 250.364,-16.7919 252.762,-23.3681"/>
</g>
<!-- Node5 -->
<g id="node5" class="node"><title>Node5</title>
<polygon fill="none" stroke="#bfbfbf" points="209.5,-56.5 209.5,-75.5 253.5,-75.5 253.5,-56.5 209.5,-56.5"/>
<text text-anchor="middle" x="231.5" y="-63.5" font-family="Helvetica,sans-Serif" font-size="10.00">vector</text>
</g>
<!-- Node1&#45;&gt;Node5 -->
<g id="edge4" class="edge"><title>Node1&#45;&gt;Node5</title>
<path fill="none" stroke="midnightblue" d="M189.645,-168.29C199.2,-145.166 214.905,-107.16 224.118,-84.8641"/>
<polygon fill="midnightblue" stroke="midnightblue" points="227.372,-86.1535 227.957,-75.5748 220.903,-83.4802 227.372,-86.1535"/>
</g>
<!-- Node6 -->
<g id="node6" class="node"><title>Node6</title>
<g id="a_node6"><a xlink:href="Metric_8h.html" target="_top" xlink:title="Monitoring/Metric.h">
<polygon fill="none" stroke="black" points="312.5,-112.5 312.5,-131.5 412.5,-131.5 412.5,-112.5 312.5,-112.5"/>
<text text-anchor="middle" x="362.5" y="-119.5" font-family="Helvetica,sans-Serif" font-size="10.00">Monitoring/Metric.h</text>
</a>
</g>
</g>
<!-- Node1&#45;&gt;Node6 -->
<g id="edge5" class="edge"><title>Node1&#45;&gt;Node6</title>
<path fill="none" stroke="midnightblue" d="M235.806,-168.498C266.092,-157.622 302.852,-144.421 328.958,-135.045"/>
<polygon fill="midnightblue" stroke="midnightblue" points="330.178,-138.326 338.406,-131.652 327.812,-131.738 330.178,-138.326"/>
</g>
<!-- Node6&#45;&gt;Node4 -->
<g id="edge6" class="edge"><title>Node6&#45;&gt;Node4</title>
<path fill="none" stroke="midnightblue" d="M345.042,-112.479C331.043,-104.788 311.912,-92.2015 300.5,-76 290.873,-62.3333 286.079,-43.7962 283.719,-30.0149"/>
<polygon fill="midnightblue" stroke="midnightblue" points="287.134,-29.1736 282.256,-19.7686 280.204,-30.1629 287.134,-29.1736"/>
</g>
<!-- Node6&#45;&gt;Node5 -->
<g id="edge11" class="edge"><title>Node6&#45;&gt;Node5</title>
<path fill="none" stroke="midnightblue" d="M341.743,-112.444C320.184,-103.557 286.237,-89.5632 261.706,-79.4514"/>
<polygon fill="midnightblue" stroke="midnightblue" points="262.739,-76.0917 252.16,-75.5164 260.072,-82.5634 262.739,-76.0917"/>
</g>
<!-- Node7 -->
<g id="node7" class="node"><title>Node7</title>
<polygon fill="none" stroke="#bfbfbf" points="309.5,-56.5 309.5,-75.5 355.5,-75.5 355.5,-56.5 309.5,-56.5"/>
<text text-anchor="middle" x="332.5" y="-63.5" font-family="Helvetica,sans-Serif" font-size="10.00">chrono</text>
</g>
<!-- Node6&#45;&gt;Node7 -->
<g id="edge7" class="edge"><title>Node6&#45;&gt;Node7</title>
<path fill="none" stroke="midnightblue" d="M357.546,-112.083C353.396,-104.613 347.347,-93.7244 342.233,-84.5199"/>
<polygon fill="midnightblue" stroke="midnightblue" points="345.278,-82.7929 337.362,-75.7511 339.159,-86.1924 345.278,-82.7929"/>
</g>
<!-- Node8 -->
<g id="node8" class="node"><title>Node8</title>
<polygon fill="none" stroke="#bfbfbf" points="374,-56.5 374,-75.5 409,-75.5 409,-56.5 374,-56.5"/>
<text text-anchor="middle" x="391.5" y="-63.5" font-family="Helvetica,sans-Serif" font-size="10.00">map</text>
</g>
<!-- Node6&#45;&gt;Node8 -->
<g id="edge8" class="edge"><title>Node6&#45;&gt;Node8</title>
<path fill="none" stroke="midnightblue" d="M367.289,-112.083C371.258,-104.691 377.025,-93.9533 381.935,-84.8111"/>
<polygon fill="midnightblue" stroke="midnightblue" points="385.153,-86.217 386.8,-75.7511 378.986,-82.9051 385.153,-86.217"/>
</g>
<!-- Node9 -->
<g id="node9" class="node"><title>Node9</title>
<polygon fill="none" stroke="#bfbfbf" points="427,-56.5 427,-75.5 468,-75.5 468,-56.5 427,-56.5"/>
<text text-anchor="middle" x="447.5" y="-63.5" font-family="Helvetica,sans-Serif" font-size="10.00">regex</text>
</g>
<!-- Node6&#45;&gt;Node9 -->
<g id="edge9" class="edge"><title>Node6&#45;&gt;Node9</title>
<path fill="none" stroke="midnightblue" d="M376.157,-112.324C389.416,-103.9 409.768,-90.9709 425.346,-81.0741"/>
<polygon fill="midnightblue" stroke="midnightblue" points="427.313,-83.9711 433.877,-75.6545 423.56,-78.0626 427.313,-83.9711"/>
</g>
<!-- Node10 -->
<g id="node10" class="node"><title>Node10</title>
<polygon fill="none" stroke="#bfbfbf" points="486.5,-56.5 486.5,-75.5 532.5,-75.5 532.5,-56.5 486.5,-56.5"/>
<text text-anchor="middle" x="509.5" y="-63.5" font-family="Helvetica,sans-Serif" font-size="10.00">variant</text>
</g>
<!-- Node6&#45;&gt;Node10 -->
<g id="edge10" class="edge"><title>Node6&#45;&gt;Node10</title>
<path fill="none" stroke="midnightblue" d="M385.793,-112.444C410.307,-103.438 449.096,-89.1891 476.7,-79.049"/>
<polygon fill="midnightblue" stroke="midnightblue" points="478.137,-82.25 486.316,-75.5164 475.723,-75.6793 478.137,-82.25"/>
</g>
<!-- Node11 -->
<g id="node11" class="node"><title>Node11</title>
<g id="a_node11"><a xlink:href="Tags_8h.html" target="_top" xlink:title="Tags.h">
<polygon fill="none" stroke="black" points="551,-56.5 551,-75.5 598,-75.5 598,-56.5 551,-56.5"/>
<text text-anchor="middle" x="574.5" y="-63.5" font-family="Helvetica,sans-Serif" font-size="10.00">Tags.h</text>
</a>
</g>
</g>
<!-- Node6&#45;&gt;Node11 -->
<g id="edge12" class="edge"><title>Node6&#45;&gt;Node11</title>
<path fill="none" stroke="midnightblue" d="M397.202,-112.494C431.328,-104.08 485.147,-90.6841 541.01,-76.0899"/>
<polygon fill="midnightblue" stroke="midnightblue" points="541.935,-79.4656 550.722,-73.5457 540.162,-72.6941 541.935,-79.4656"/>
</g>
<!-- Node11&#45;&gt;Node4 -->
<g id="edge13" class="edge"><title>Node11&#45;&gt;Node4</title>
<path fill="none" stroke="midnightblue" d="M550.774,-58.2401C547.666,-57.4397 544.514,-56.6703 541.5,-56 459.22,-37.7029 360.902,-22.4609 312.106,-15.3346"/>
<polygon fill="midnightblue" stroke="midnightblue" points="312.589,-11.868 302.19,-13.8989 311.586,-18.7958 312.589,-11.868"/>
</g>
</g>
</svg>
