<?xml version="1.0" encoding="UTF-8" standalone="no"?>
<!DOCTYPE svg PUBLIC "-//W3C//DTD SVG 1.1//EN"
 "http://www.w3.org/Graphics/SVG/1.1/DTD/svg11.dtd">
<!-- Generated by graphviz version 2.38.0 (20140413.2041)
 -->
<!-- Title: /home/travis/build/AliceO2Group/Monitoring/src/DerivedMetrics.cxx Pages: 1 -->
<svg width="867pt" height="274pt"
 viewBox="0.00 0.00 866.82 274.00" xmlns="http://www.w3.org/2000/svg" xmlns:xlink="http://www.w3.org/1999/xlink">
<g id="graph0" class="graph" transform="scale(1 1) rotate(0) translate(4 270)">
<title>/home/travis/build/AliceO2Group/Monitoring/src/DerivedMetrics.cxx</title>
<!-- Node1 -->
<g id="node1" class="node"><title>Node1</title>
<polygon fill="#bfbfbf" stroke="black" points="349.822,-224.5 349.822,-265.5 477.822,-265.5 477.822,-224.5 349.822,-224.5"/>
<text text-anchor="start" x="357.822" y="-253.5" font-family="Helvetica,sans-Serif" font-size="10.00">/home/travis/build</text>
<text text-anchor="start" x="357.822" y="-242.5" font-family="Helvetica,sans-Serif" font-size="10.00">/AliceO2Group/Monitoring</text>
<text text-anchor="middle" x="413.822" y="-231.5" font-family="Helvetica,sans-Serif" font-size="10.00">/src/DerivedMetrics.cxx</text>
</g>
<!-- Node2 -->
<g id="node2" class="node"><title>Node2</title>
<g id="a_node2"><a xlink:href="DerivedMetrics_8h.html" target="_top" xlink:title="Monitoring/DerivedMetrics.h">
<polygon fill="none" stroke="black" points="134.322,-168.5 134.322,-187.5 273.322,-187.5 273.322,-168.5 134.322,-168.5"/>
<text text-anchor="middle" x="203.822" y="-175.5" font-family="Helvetica,sans-Serif" font-size="10.00">Monitoring/DerivedMetrics.h</text>
</a>
</g>
</g>
<!-- Node1&#45;&gt;Node2 -->
<g id="edge1" class="edge"><title>Node1&#45;&gt;Node2</title>
<path fill="none" stroke="midnightblue" d="M350.815,-224.498C315.104,-213.444 271.634,-199.99 241.266,-190.59"/>
<polygon fill="midnightblue" stroke="midnightblue" points="242.088,-187.18 231.5,-187.567 240.018,-193.867 242.088,-187.18"/>
</g>
<!-- Node4 -->
<g id="node4" class="node"><title>Node4</title>
<polygon fill="none" stroke="#bfbfbf" points="18.8219,-112.5 18.8219,-131.5 70.8219,-131.5 70.8219,-112.5 18.8219,-112.5"/>
<text text-anchor="middle" x="44.8219" y="-119.5" font-family="Helvetica,sans-Serif" font-size="10.00">memory</text>
</g>
<!-- Node1&#45;&gt;Node4 -->
<g id="edge21" class="edge"><title>Node1&#45;&gt;Node4</title>
<path fill="none" stroke="midnightblue" d="M349.629,-240.533C289.162,-235.234 197.293,-221.84 124.822,-188 99.3749,-176.118 75.0626,-154.376 60.0572,-139.329"/>
<polygon fill="midnightblue" stroke="midnightblue" points="62.2014,-136.512 52.7303,-131.763 57.1729,-141.382 62.2014,-136.512"/>
</g>
<!-- Node5 -->
<g id="node5" class="node"><title>Node5</title>
<polygon fill="none" stroke="#bfbfbf" points="192.322,-0.5 192.322,-19.5 233.322,-19.5 233.322,-0.5 192.322,-0.5"/>
<text text-anchor="middle" x="212.822" y="-7.5" font-family="Helvetica,sans-Serif" font-size="10.00">string</text>
</g>
<!-- Node1&#45;&gt;Node5 -->
<g id="edge22" class="edge"><title>Node1&#45;&gt;Node5</title>
<path fill="none" stroke="midnightblue" d="M349.776,-240.772C256.519,-235.024 88.9903,-220.429 38.8219,-188 13.9733,-171.938 11.1598,-160.389 2.82193,-132 -20.6607,-52.0459 117.867,-23.3834 181.794,-14.5033"/>
<polygon fill="midnightblue" stroke="midnightblue" points="182.633,-17.9234 192.094,-13.1546 181.725,-10.9826 182.633,-17.9234"/>
</g>
<!-- Node6 -->
<g id="node6" class="node"><title>Node6</title>
<polygon fill="none" stroke="#bfbfbf" points="126.822,-56.5 126.822,-75.5 170.822,-75.5 170.822,-56.5 126.822,-56.5"/>
<text text-anchor="middle" x="148.822" y="-63.5" font-family="Helvetica,sans-Serif" font-size="10.00">vector</text>
</g>
<!-- Node1&#45;&gt;Node6 -->
<g id="edge23" class="edge"><title>Node1&#45;&gt;Node6</title>
<path fill="none" stroke="midnightblue" d="M349.744,-241.169C282.687,-236.344 175.453,-223.293 89.8219,-188 49.6954,-171.462 29.865,-170.496 9.82193,-132 -12.7674,-88.6136 68.5533,-74.026 116.348,-69.2453"/>
<polygon fill="midnightblue" stroke="midnightblue" points="116.914,-72.7084 126.557,-68.3206 116.282,-65.737 116.914,-72.7084"/>
</g>
<!-- Node8 -->
<g id="node8" class="node"><title>Node8</title>
<polygon fill="none" stroke="#bfbfbf" points="351.822,-56.5 351.822,-75.5 397.822,-75.5 397.822,-56.5 351.822,-56.5"/>
<text text-anchor="middle" x="374.822" y="-63.5" font-family="Helvetica,sans-Serif" font-size="10.00">chrono</text>
</g>
<!-- Node1&#45;&gt;Node8 -->
<g id="edge18" class="edge"><title>Node1&#45;&gt;Node8</title>
<path fill="none" stroke="midnightblue" d="M409.499,-224.382C401.909,-189.932 386.289,-119.042 378.886,-85.4424"/>
<polygon fill="midnightblue" stroke="midnightblue" points="382.283,-84.5964 376.713,-75.5838 375.447,-86.1027 382.283,-84.5964"/>
</g>
<!-- Node9 -->
<g id="node9" class="node"><title>Node9</title>
<polygon fill="none" stroke="#bfbfbf" points="416.322,-56.5 416.322,-75.5 451.322,-75.5 451.322,-56.5 416.322,-56.5"/>
<text text-anchor="middle" x="433.822" y="-63.5" font-family="Helvetica,sans-Serif" font-size="10.00">map</text>
</g>
<!-- Node1&#45;&gt;Node9 -->
<g id="edge20" class="edge"><title>Node1&#45;&gt;Node9</title>
<path fill="none" stroke="midnightblue" d="M416.039,-224.382C419.914,-190.082 427.872,-119.658 431.688,-85.8828"/>
<polygon fill="midnightblue" stroke="midnightblue" points="435.207,-85.9136 432.852,-75.5838 428.251,-85.1276 435.207,-85.9136"/>
</g>
<!-- Node13 -->
<g id="node13" class="node"><title>Node13</title>
<g id="a_node13"><a xlink:href="MonitoringException_8h.html" target="_top" xlink:title="Exceptions/MonitoringException.h">
<polygon fill="none" stroke="black" points="499.322,-168.5 499.322,-187.5 664.322,-187.5 664.322,-168.5 499.322,-168.5"/>
<text text-anchor="middle" x="581.822" y="-175.5" font-family="Helvetica,sans-Serif" font-size="10.00">Exceptions/MonitoringException.h</text>
</a>
</g>
</g>
<!-- Node1&#45;&gt;Node13 -->
<g id="edge15" class="edge"><title>Node1&#45;&gt;Node13</title>
<path fill="none" stroke="midnightblue" d="M464.227,-224.498C492.09,-213.718 525.857,-200.653 550.046,-191.294"/>
<polygon fill="midnightblue" stroke="midnightblue" points="551.395,-194.525 559.459,-187.652 548.869,-187.997 551.395,-194.525"/>
</g>
<!-- Node15 -->
<g id="node15" class="node"><title>Node15</title>
<polygon fill="none" stroke="#bfbfbf" points="682.822,-168.5 682.822,-187.5 736.822,-187.5 736.822,-168.5 682.822,-168.5"/>
<text text-anchor="middle" x="709.822" y="-175.5" font-family="Helvetica,sans-Serif" font-size="10.00">iostream</text>
</g>
<!-- Node1&#45;&gt;Node15 -->
<g id="edge19" class="edge"><title>Node1&#45;&gt;Node15</title>
<path fill="none" stroke="midnightblue" d="M478.062,-230.776C528.395,-220.275 600.437,-204.937 672.545,-188.242"/>
<polygon fill="midnightblue" stroke="midnightblue" points="673.77,-191.55 682.718,-185.877 672.185,-184.732 673.77,-191.55"/>
</g>
<!-- Node16 -->
<g id="node16" class="node"><title>Node16</title>
<g id="a_node16"><a xlink:href="VariantVisitorAdd_8h_source.html" target="_top" xlink:title="VariantVisitorAdd.h">
<polygon fill="none" stroke="black" points="461.322,-112.5 461.322,-131.5 562.322,-131.5 562.322,-112.5 461.322,-112.5"/>
<text text-anchor="middle" x="511.822" y="-119.5" font-family="Helvetica,sans-Serif" font-size="10.00">VariantVisitorAdd.h</text>
</a>
</g>
</g>
<!-- Node1&#45;&gt;Node16 -->
<g id="edge24" class="edge"><title>Node1&#45;&gt;Node16</title>
<path fill="none" stroke="midnightblue" d="M429.785,-224.29C448.938,-200.642 480.695,-161.432 498.559,-139.375"/>
<polygon fill="midnightblue" stroke="midnightblue" points="501.303,-141.549 504.877,-131.575 495.863,-137.143 501.303,-141.549"/>
</g>
<!-- Node17 -->
<g id="node17" class="node"><title>Node17</title>
<g id="a_node17"><a xlink:href="VariantVisitorRate_8h_source.html" target="_top" xlink:title="VariantVisitorRate.h">
<polygon fill="none" stroke="black" points="754.822,-168.5 754.822,-187.5 858.822,-187.5 858.822,-168.5 754.822,-168.5"/>
<text text-anchor="middle" x="806.822" y="-175.5" font-family="Helvetica,sans-Serif" font-size="10.00">VariantVisitorRate.h</text>
</a>
</g>
</g>
<!-- Node1&#45;&gt;Node17 -->
<g id="edge26" class="edge"><title>Node1&#45;&gt;Node17</title>
<path fill="none" stroke="midnightblue" d="M477.839,-233.412C551.791,-221.181 672.605,-201.199 745.427,-189.154"/>
<polygon fill="midnightblue" stroke="midnightblue" points="746.08,-192.594 755.375,-187.509 744.938,-185.688 746.08,-192.594"/>
</g>
<!-- Node3 -->
<g id="node3" class="node"><title>Node3</title>
<polygon fill="none" stroke="#bfbfbf" points="127.322,-112.5 127.322,-131.5 210.322,-131.5 210.322,-112.5 127.322,-112.5"/>
<text text-anchor="middle" x="168.822" y="-119.5" font-family="Helvetica,sans-Serif" font-size="10.00">unordered_map</text>
</g>
<!-- Node2&#45;&gt;Node3 -->
<g id="edge2" class="edge"><title>Node2&#45;&gt;Node3</title>
<path fill="none" stroke="midnightblue" d="M198.042,-168.083C193.15,-160.534 185.995,-149.495 179.989,-140.23"/>
<polygon fill="midnightblue" stroke="midnightblue" points="182.87,-138.239 174.494,-131.751 176.996,-142.046 182.87,-138.239"/>
</g>
<!-- Node2&#45;&gt;Node4 -->
<g id="edge3" class="edge"><title>Node2&#45;&gt;Node4</title>
<path fill="none" stroke="midnightblue" d="M178.628,-168.444C151.879,-159.359 109.419,-144.939 79.5167,-134.783"/>
<polygon fill="midnightblue" stroke="midnightblue" points="80.4925,-131.418 69.8981,-131.516 78.2413,-138.046 80.4925,-131.418"/>
</g>
<!-- Node2&#45;&gt;Node5 -->
<g id="edge4" class="edge"><title>Node2&#45;&gt;Node5</title>
<path fill="none" stroke="midnightblue" d="M169.637,-168.493C150.829,-161.877 129.079,-150.596 117.822,-132 100.329,-103.104 99.7593,-84.5426 117.822,-56 131.891,-33.7674 160.243,-22.3042 182.329,-16.5315"/>
<polygon fill="midnightblue" stroke="midnightblue" points="183.334,-19.8908 192.269,-14.1969 181.733,-13.0762 183.334,-19.8908"/>
</g>
<!-- Node2&#45;&gt;Node6 -->
<g id="edge5" class="edge"><title>Node2&#45;&gt;Node6</title>
<path fill="none" stroke="midnightblue" d="M209.389,-168.484C217.08,-155.549 228.922,-130.5 218.822,-112 210.531,-96.813 194.676,-85.9869 180.15,-78.7653"/>
<polygon fill="midnightblue" stroke="midnightblue" points="181.439,-75.5061 170.889,-74.5306 178.528,-81.8722 181.439,-75.5061"/>
</g>
<!-- Node7 -->
<g id="node7" class="node"><title>Node7</title>
<g id="a_node7"><a xlink:href="Metric_8h.html" target="_top" xlink:title="Monitoring/Metric.h">
<polygon fill="none" stroke="black" points="266.822,-112.5 266.822,-131.5 366.822,-131.5 366.822,-112.5 266.822,-112.5"/>
<text text-anchor="middle" x="316.822" y="-119.5" font-family="Helvetica,sans-Serif" font-size="10.00">Monitoring/Metric.h</text>
</a>
</g>
</g>
<!-- Node2&#45;&gt;Node7 -->
<g id="edge6" class="edge"><title>Node2&#45;&gt;Node7</title>
<path fill="none" stroke="midnightblue" d="M221.727,-168.444C240.076,-159.675 268.827,-145.935 289.916,-135.858"/>
<polygon fill="midnightblue" stroke="midnightblue" points="291.487,-138.986 299.001,-131.516 288.469,-132.67 291.487,-138.986"/>
</g>
<!-- Node7&#45;&gt;Node5 -->
<g id="edge7" class="edge"><title>Node7&#45;&gt;Node5</title>
<path fill="none" stroke="midnightblue" d="M317.374,-112.454C317.788,-99.0289 316.712,-72.7996 303.822,-56 288.953,-36.6217 263.514,-25.0366 243.307,-18.486"/>
<polygon fill="midnightblue" stroke="midnightblue" points="244.173,-15.0918 233.589,-15.5836 242.169,-21.799 244.173,-15.0918"/>
</g>
<!-- Node7&#45;&gt;Node6 -->
<g id="edge12" class="edge"><title>Node7&#45;&gt;Node6</title>
<path fill="none" stroke="midnightblue" d="M290.202,-112.444C260.48,-102.89 212.401,-87.436 180.699,-77.2461"/>
<polygon fill="midnightblue" stroke="midnightblue" points="181.617,-73.8649 171.025,-74.1368 179.475,-80.5291 181.617,-73.8649"/>
</g>
<!-- Node7&#45;&gt;Node8 -->
<g id="edge8" class="edge"><title>Node7&#45;&gt;Node8</title>
<path fill="none" stroke="midnightblue" d="M326.141,-112.324C334.715,-104.341 347.634,-92.3128 358.01,-82.6529"/>
<polygon fill="midnightblue" stroke="midnightblue" points="360.4,-85.2098 365.334,-75.8339 355.63,-80.0865 360.4,-85.2098"/>
</g>
<!-- Node7&#45;&gt;Node9 -->
<g id="edge9" class="edge"><title>Node7&#45;&gt;Node9</title>
<path fill="none" stroke="midnightblue" d="M335.361,-112.444C354.669,-103.532 385.103,-89.4856 407.026,-79.3674"/>
<polygon fill="midnightblue" stroke="midnightblue" points="408.523,-82.5314 416.136,-75.1629 405.589,-76.1757 408.523,-82.5314"/>
</g>
<!-- Node10 -->
<g id="node10" class="node"><title>Node10</title>
<polygon fill="none" stroke="#bfbfbf" points="254.322,-56.5 254.322,-75.5 295.322,-75.5 295.322,-56.5 254.322,-56.5"/>
<text text-anchor="middle" x="274.822" y="-63.5" font-family="Helvetica,sans-Serif" font-size="10.00">regex</text>
</g>
<!-- Node7&#45;&gt;Node10 -->
<g id="edge10" class="edge"><title>Node7&#45;&gt;Node10</title>
<path fill="none" stroke="midnightblue" d="M309.886,-112.083C303.893,-104.377 295.07,-93.0333 287.774,-83.6531"/>
<polygon fill="midnightblue" stroke="midnightblue" points="290.531,-81.4958 281.628,-75.7511 285.005,-85.7934 290.531,-81.4958"/>
</g>
<!-- Node11 -->
<g id="node11" class="node"><title>Node11</title>
<polygon fill="none" stroke="#bfbfbf" points="479.822,-56.5 479.822,-75.5 525.822,-75.5 525.822,-56.5 479.822,-56.5"/>
<text text-anchor="middle" x="502.822" y="-63.5" font-family="Helvetica,sans-Serif" font-size="10.00">variant</text>
</g>
<!-- Node7&#45;&gt;Node11 -->
<g id="edge11" class="edge"><title>Node7&#45;&gt;Node11</title>
<path fill="none" stroke="midnightblue" d="M346.294,-112.444C379.951,-102.672 434.872,-86.7275 469.904,-76.5567"/>
<polygon fill="midnightblue" stroke="midnightblue" points="471.03,-79.8745 479.658,-73.7251 469.078,-73.152 471.03,-79.8745"/>
</g>
<!-- Node12 -->
<g id="node12" class="node"><title>Node12</title>
<g id="a_node12"><a xlink:href="Tags_8h.html" target="_top" xlink:title="Tags.h">
<polygon fill="none" stroke="black" points="189.322,-56.5 189.322,-75.5 236.322,-75.5 236.322,-56.5 189.322,-56.5"/>
<text text-anchor="middle" x="212.822" y="-63.5" font-family="Helvetica,sans-Serif" font-size="10.00">Tags.h</text>
</a>
</g>
</g>
<!-- Node7&#45;&gt;Node12 -->
<g id="edge13" class="edge"><title>Node7&#45;&gt;Node12</title>
<path fill="none" stroke="midnightblue" d="M300.113,-112.324C283.51,-103.703 257.82,-90.3643 238.601,-80.3855"/>
<polygon fill="midnightblue" stroke="midnightblue" points="239.978,-77.1565 229.49,-75.6545 236.752,-83.3689 239.978,-77.1565"/>
</g>
<!-- Node12&#45;&gt;Node5 -->
<g id="edge14" class="edge"><title>Node12&#45;&gt;Node5</title>
<path fill="none" stroke="midnightblue" d="M212.822,-56.083C212.822,-49.0059 212.822,-38.8611 212.822,-29.9865"/>
<polygon fill="midnightblue" stroke="midnightblue" points="216.322,-29.751 212.822,-19.7511 209.322,-29.7511 216.322,-29.751"/>
</g>
<!-- Node13&#45;&gt;Node5 -->
<g id="edge17" class="edge"><title>Node13&#45;&gt;Node5</title>
<path fill="none" stroke="midnightblue" d="M603.058,-168.437C627.837,-157.116 663.646,-135.798 648.822,-112 605.354,-42.2176 335.814,-18.7882 243.668,-12.7621"/>
<polygon fill="midnightblue" stroke="midnightblue" points="243.783,-9.26246 233.582,-12.1264 243.342,-16.2486 243.783,-9.26246"/>
</g>
<!-- Node14 -->
<g id="node14" class="node"><title>Node14</title>
<polygon fill="none" stroke="#bfbfbf" points="580.322,-112.5 580.322,-131.5 639.322,-131.5 639.322,-112.5 580.322,-112.5"/>
<text text-anchor="middle" x="609.822" y="-119.5" font-family="Helvetica,sans-Serif" font-size="10.00">exception</text>
</g>
<!-- Node13&#45;&gt;Node14 -->
<g id="edge16" class="edge"><title>Node13&#45;&gt;Node14</title>
<path fill="none" stroke="midnightblue" d="M586.446,-168.083C590.278,-160.691 595.846,-149.953 600.587,-140.811"/>
<polygon fill="midnightblue" stroke="midnightblue" points="603.788,-142.24 605.284,-131.751 597.574,-139.018 603.788,-142.24"/>
</g>
<!-- Node16&#45;&gt;Node11 -->
<g id="edge25" class="edge"><title>Node16&#45;&gt;Node11</title>
<path fill="none" stroke="midnightblue" d="M510.336,-112.083C509.143,-104.927 507.428,-94.6353 505.937,-85.6911"/>
<polygon fill="midnightblue" stroke="midnightblue" points="509.377,-85.0396 504.28,-75.7511 502.472,-86.1904 509.377,-85.0396"/>
</g>
</g>
</svg>
