<?xml version="1.0" encoding="UTF-8" standalone="no"?>
<!DOCTYPE svg PUBLIC "-//W3C//DTD SVG 1.1//EN"
 "http://www.w3.org/Graphics/SVG/1.1/DTD/svg11.dtd">
<!-- Generated by graphviz version 2.38.0 (20140413.2041)
 -->
<!-- Title: /home/travis/build/AliceO2Group/Monitoring/src/Backends Pages: 1 -->
<svg width="182pt" height="223pt"
 viewBox="0.00 0.00 181.50 223.00" xmlns="http://www.w3.org/2000/svg" xmlns:xlink="http://www.w3.org/1999/xlink">
<g id="graph0" class="graph" transform="scale(1 1) rotate(0) translate(4 219)">
<title>/home/travis/build/AliceO2Group/Monitoring/src/Backends</title>
<g id="clust1" class="cluster"><title>clusterdir_68267d1309a1af8e8297ef4c3efbcdba</title>
<g id="a_clust1"><a xlink:href="dir_68267d1309a1af8e8297ef4c3efbcdba.html" target="_top" xlink:title="src">
<polygon fill="#ddddee" stroke="black" points="44,-136 44,-207 120,-207 120,-136 44,-136"/>
<text text-anchor="middle" x="82" y="-195" font-family="Helvetica,sans-Serif" font-size="10.00">src</text>
</a>
</g>
</g>
<!-- dir_0ef2299b76394279b5dd2f461c49e4a1 -->
<g id="node1" class="node"><title>dir_0ef2299b76394279b5dd2f461c49e4a1</title>
<g id="a_node1"><a xlink:href="dir_0ef2299b76394279b5dd2f461c49e4a1.html" target="_top" xlink:title="Backends">
<polygon fill="#eeeeff" stroke="black" points="112,-180 52,-180 52,-144 112,-144 112,-180"/>
<text text-anchor="middle" x="82" y="-159.5" font-family="Helvetica,sans-Serif" font-size="10.00">Backends</text>
</a>
</g>
</g>
<!-- dir_d44c64559bbebec7f509842c48db8b23 -->
<g id="node2" class="node"><title>dir_d44c64559bbebec7f509842c48db8b23</title>
<g id="a_node2"><a xlink:href="dir_d44c64559bbebec7f509842c48db8b23.html" target="_top" xlink:title="include">
<polygon fill="none" stroke="red" points="54,-108 0,-108 0,-72 54,-72 54,-108"/>
<text text-anchor="middle" x="27" y="-87.5" font-family="Helvetica,sans-Serif" font-size="10.00">include</text>
</a>
</g>
</g>
<!-- dir_0ef2299b76394279b5dd2f461c49e4a1&#45;&gt;dir_d44c64559bbebec7f509842c48db8b23 -->
<g id="edge1" class="edge"><title>dir_0ef2299b76394279b5dd2f461c49e4a1&#45;&gt;dir_d44c64559bbebec7f509842c48db8b23</title>
<path fill="none" stroke="black" d="M68.4045,-143.697C61.8773,-135.389 53.932,-125.277 46.7534,-116.141"/>
<polygon fill="black" stroke="black" points="49.3695,-113.805 40.4391,-108.104 43.8653,-118.13 49.3695,-113.805"/>
<g id="a_edge1&#45;headlabel"><a xlink:href="dir_000004_000001.html" target="_top" xlink:title="4">
<text text-anchor="middle" x="53.8229" y="-112.377" font-family="Helvetica,sans-Serif" font-size="10.00">4</text>
</a>
</g>
</g>
<!-- dir_6bd92bd93c0d5d9980919215b46f20a3 -->
<g id="node3" class="node"><title>dir_6bd92bd93c0d5d9980919215b46f20a3</title>
<g id="a_node3"><a xlink:href="dir_6bd92bd93c0d5d9980919215b46f20a3.html" target="_top" xlink:title="Exceptions">
<polygon fill="none" stroke="black" points="144.5,-36 79.5,-36 79.5,-0 144.5,-0 144.5,-36"/>
<text text-anchor="middle" x="112" y="-15.5" font-family="Helvetica,sans-Serif" font-size="10.00">Exceptions</text>
</a>
</g>
</g>
<!-- dir_0ef2299b76394279b5dd2f461c49e4a1&#45;&gt;dir_6bd92bd93c0d5d9980919215b46f20a3 -->
<g id="edge2" class="edge"><title>dir_0ef2299b76394279b5dd2f461c49e4a1&#45;&gt;dir_6bd92bd93c0d5d9980919215b46f20a3</title>
<path fill="none" stroke="black" d="M85.6187,-143.871C90.7542,-119.564 100.207,-74.8187 106.293,-46.0132"/>
<polygon fill="black" stroke="black" points="109.726,-46.6968 108.368,-36.1893 102.877,-45.2498 109.726,-46.6968"/>
<g id="a_edge2&#45;headlabel"><a xlink:href="dir_000004_000006.html" target="_top" xlink:title="2">
<text text-anchor="middle" x="111.761" y="-48.3006" font-family="Helvetica,sans-Serif" font-size="10.00">2</text>
</a>
</g>
</g>
<!-- dir_0deade926bf5eba5a581165f192a0cb7 -->
<g id="node4" class="node"><title>dir_0deade926bf5eba5a581165f192a0cb7</title>
<g id="a_node4"><a xlink:href="dir_0deade926bf5eba5a581165f192a0cb7.html" target="_top" xlink:title="Transports">
<polygon fill="none" stroke="black" points="173.5,-108 110.5,-108 110.5,-72 173.5,-72 173.5,-108"/>
<text text-anchor="middle" x="142" y="-87.5" font-family="Helvetica,sans-Serif" font-size="10.00">Transports</text>
</a>
</g>
</g>
<!-- dir_0ef2299b76394279b5dd2f461c49e4a1&#45;&gt;dir_0deade926bf5eba5a581165f192a0cb7 -->
<g id="edge3" class="edge"><title>dir_0ef2299b76394279b5dd2f461c49e4a1&#45;&gt;dir_0deade926bf5eba5a581165f192a0cb7</title>
<path fill="none" stroke="black" d="M96.8315,-143.697C104.025,-135.305 112.797,-125.07 120.69,-115.861"/>
<polygon fill="black" stroke="black" points="123.489,-117.975 127.339,-108.104 118.174,-113.419 123.489,-117.975"/>
<g id="a_edge3&#45;headlabel"><a xlink:href="dir_000004_000005.html" target="_top" xlink:title="1">
<text text-anchor="middle" x="123.305" y="-120.052" font-family="Helvetica,sans-Serif" font-size="10.00">1</text>
</a>
</g>
</g>
<!-- dir_0deade926bf5eba5a581165f192a0cb7&#45;&gt;dir_6bd92bd93c0d5d9980919215b46f20a3 -->
<g id="edge4" class="edge"><title>dir_0deade926bf5eba5a581165f192a0cb7&#45;&gt;dir_6bd92bd93c0d5d9980919215b46f20a3</title>
<path fill="none" stroke="black" d="M134.584,-71.6966C131.206,-63.8132 127.13,-54.3042 123.377,-45.5464"/>
<polygon fill="black" stroke="black" points="126.487,-43.9171 119.33,-36.1043 120.053,-46.6745 126.487,-43.9171"/>
<g id="a_edge4&#45;headlabel"><a xlink:href="dir_000005_000006.html" target="_top" xlink:title="2">
<text text-anchor="middle" x="130.512" y="-43.6026" font-family="Helvetica,sans-Serif" font-size="10.00">2</text>
</a>
</g>
</g>
</g>
</svg>
