<?xml version="1.0" encoding="UTF-8" standalone="no"?>
<!DOCTYPE svg PUBLIC "-//W3C//DTD SVG 1.1//EN"
 "http://www.w3.org/Graphics/SVG/1.1/DTD/svg11.dtd">
<!-- Generated by graphviz version 2.38.0 (20140413.2041)
 -->
<!-- Title: /home/travis/build/AliceO2Group/Monitoring/src Pages: 1 -->
<svg width="226pt" height="292pt"
 viewBox="0.00 0.00 226.00 292.00" xmlns="http://www.w3.org/2000/svg" xmlns:xlink="http://www.w3.org/1999/xlink">
<g id="graph0" class="graph" transform="scale(1 1) rotate(0) translate(4 288)">
<title>/home/travis/build/AliceO2Group/Monitoring/src</title>
<g id="clust1" class="cluster"><title>clusterdir_68267d1309a1af8e8297ef4c3efbcdba</title>
<g id="a_clust1"><a xlink:href="dir_68267d1309a1af8e8297ef4c3efbcdba.html" target="_top">
<polygon fill="#eeeeff" stroke="black" points="8,-8 8,-276 154,-276 154,-8 8,-8"/>
</a>
</g>
</g>
<!-- dir_68267d1309a1af8e8297ef4c3efbcdba -->
<g id="node1" class="node"><title>dir_68267d1309a1af8e8297ef4c3efbcdba</title>
<text text-anchor="middle" x="119" y="-247.5" font-family="Helvetica,sans-Serif" font-size="10.00">src</text>
</g>
<!-- dir_0ef2299b76394279b5dd2f461c49e4a1 -->
<g id="node2" class="node"><title>dir_0ef2299b76394279b5dd2f461c49e4a1</title>
<g id="a_node2"><a xlink:href="dir_0ef2299b76394279b5dd2f461c49e4a1.html" target="_top" xlink:title="Backends">
<polygon fill="white" stroke="black" points="145,-196 85,-196 85,-160 145,-160 145,-196"/>
<text text-anchor="middle" x="115" y="-175.5" font-family="Helvetica,sans-Serif" font-size="10.00">Backends</text>
</a>
</g>
</g>
<!-- dir_68267d1309a1af8e8297ef4c3efbcdba&#45;&gt;dir_0ef2299b76394279b5dd2f461c49e4a1 -->
<g id="edge4" class="edge"><title>dir_68267d1309a1af8e8297ef4c3efbcdba&#45;&gt;dir_0ef2299b76394279b5dd2f461c49e4a1</title>
<path fill="none" stroke="black" d="M118.011,-231.697C117.57,-223.983 117.041,-214.712 116.549,-206.112"/>
<polygon fill="black" stroke="black" points="120.042,-205.888 115.977,-196.104 113.054,-206.288 120.042,-205.888"/>
<g id="a_edge4&#45;headlabel"><a xlink:href="dir_000003_000004.html" target="_top" xlink:title="2">
<text text-anchor="middle" x="123.082" y="-206.815" font-family="Helvetica,sans-Serif" font-size="10.00">2</text>
</a>
</g>
</g>
<!-- dir_6bd92bd93c0d5d9980919215b46f20a3 -->
<g id="node3" class="node"><title>dir_6bd92bd93c0d5d9980919215b46f20a3</title>
<g id="a_node3"><a xlink:href="dir_6bd92bd93c0d5d9980919215b46f20a3.html" target="_top" xlink:title="Exceptions">
<polygon fill="white" stroke="black" points="120.5,-52 55.5,-52 55.5,-16 120.5,-16 120.5,-52"/>
<text text-anchor="middle" x="88" y="-31.5" font-family="Helvetica,sans-Serif" font-size="10.00">Exceptions</text>
</a>
</g>
</g>
<!-- dir_0ef2299b76394279b5dd2f461c49e4a1&#45;&gt;dir_6bd92bd93c0d5d9980919215b46f20a3 -->
<g id="edge2" class="edge"><title>dir_0ef2299b76394279b5dd2f461c49e4a1&#45;&gt;dir_6bd92bd93c0d5d9980919215b46f20a3</title>
<path fill="none" stroke="black" d="M96.8312,-159.677C88.1151,-150.097 78.5884,-137.43 74,-124 67.0775,-103.738 71.5618,-79.696 77.233,-61.711"/>
<polygon fill="black" stroke="black" points="80.5785,-62.7456 80.5361,-52.1509 73.9623,-60.4596 80.5785,-62.7456"/>
<g id="a_edge2&#45;headlabel"><a xlink:href="dir_000004_000006.html" target="_top" xlink:title="2">
<text text-anchor="middle" x="82.0883" y="-64.5703" font-family="Helvetica,sans-Serif" font-size="10.00">2</text>
</a>
</g>
</g>
<!-- dir_0deade926bf5eba5a581165f192a0cb7 -->
<g id="node4" class="node"><title>dir_0deade926bf5eba5a581165f192a0cb7</title>
<g id="a_node4"><a xlink:href="dir_0deade926bf5eba5a581165f192a0cb7.html" target="_top" xlink:title="Transports">
<polygon fill="white" stroke="black" points="145.5,-124 82.5,-124 82.5,-88 145.5,-88 145.5,-124"/>
<text text-anchor="middle" x="114" y="-103.5" font-family="Helvetica,sans-Serif" font-size="10.00">Transports</text>
</a>
</g>
</g>
<!-- dir_0ef2299b76394279b5dd2f461c49e4a1&#45;&gt;dir_0deade926bf5eba5a581165f192a0cb7 -->
<g id="edge3" class="edge"><title>dir_0ef2299b76394279b5dd2f461c49e4a1&#45;&gt;dir_0deade926bf5eba5a581165f192a0cb7</title>
<path fill="none" stroke="black" d="M114.753,-159.697C114.643,-151.983 114.51,-142.712 114.387,-134.112"/>
<polygon fill="black" stroke="black" points="117.887,-134.053 114.244,-124.104 110.888,-134.153 117.887,-134.053"/>
<g id="a_edge3&#45;headlabel"><a xlink:href="dir_000004_000005.html" target="_top" xlink:title="1">
<text text-anchor="middle" x="120.777" y="-135.107" font-family="Helvetica,sans-Serif" font-size="10.00">1</text>
</a>
</g>
</g>
<!-- dir_d44c64559bbebec7f509842c48db8b23 -->
<g id="node6" class="node"><title>dir_d44c64559bbebec7f509842c48db8b23</title>
<g id="a_node6"><a xlink:href="dir_d44c64559bbebec7f509842c48db8b23.html" target="_top" xlink:title="include">
<polygon fill="none" stroke="red" points="218,-124 164,-124 164,-88 218,-88 218,-124"/>
<text text-anchor="middle" x="191" y="-103.5" font-family="Helvetica,sans-Serif" font-size="10.00">include</text>
</a>
</g>
</g>
<!-- dir_0ef2299b76394279b5dd2f461c49e4a1&#45;&gt;dir_d44c64559bbebec7f509842c48db8b23 -->
<g id="edge1" class="edge"><title>dir_0ef2299b76394279b5dd2f461c49e4a1&#45;&gt;dir_d44c64559bbebec7f509842c48db8b23</title>
<path fill="none" stroke="black" d="M133.787,-159.697C143.174,-151.05 154.684,-140.449 164.913,-131.027"/>
<polygon fill="black" stroke="black" points="167.445,-133.454 172.43,-124.104 162.703,-128.305 167.445,-133.454"/>
<g id="a_edge1&#45;headlabel"><a xlink:href="dir_000004_000001.html" target="_top" xlink:title="4">
<text text-anchor="middle" x="166.725" y="-135.477" font-family="Helvetica,sans-Serif" font-size="10.00">4</text>
</a>
</g>
</g>
<!-- dir_0deade926bf5eba5a581165f192a0cb7&#45;&gt;dir_6bd92bd93c0d5d9980919215b46f20a3 -->
<g id="edge5" class="edge"><title>dir_0deade926bf5eba5a581165f192a0cb7&#45;&gt;dir_6bd92bd93c0d5d9980919215b46f20a3</title>
<path fill="none" stroke="black" d="M107.573,-87.6966C104.645,-79.8132 101.113,-70.3042 97.8601,-61.5464"/>
<polygon fill="black" stroke="black" points="101.116,-60.2599 94.353,-52.1043 94.554,-62.6973 101.116,-60.2599"/>
<g id="a_edge5&#45;headlabel"><a xlink:href="dir_000005_000006.html" target="_top" xlink:title="2">
<text text-anchor="middle" x="105.029" y="-60.141" font-family="Helvetica,sans-Serif" font-size="10.00">2</text>
</a>
</g>
</g>
<!-- dir_4f47874a81d3795c62c16083473126b9 -->
<g id="node5" class="node"><title>dir_4f47874a81d3795c62c16083473126b9</title>
<g id="a_node5"><a xlink:href="dir_4f47874a81d3795c62c16083473126b9.html" target="_top" xlink:title="UriParser">
<polygon fill="white" stroke="black" points="74,-268 16,-268 16,-232 74,-232 74,-268"/>
<text text-anchor="middle" x="45" y="-247.5" font-family="Helvetica,sans-Serif" font-size="10.00">UriParser</text>
</a>
</g>
</g>
</g>
</svg>
