<?xml version="1.0" encoding="UTF-8" standalone="no"?>
<!DOCTYPE svg PUBLIC "-//W3C//DTD SVG 1.1//EN"
 "http://www.w3.org/Graphics/SVG/1.1/DTD/svg11.dtd">
<!-- Generated by graphviz version 2.38.0 (20140413.2041)
 -->
<!-- Title: /home/travis/build/AliceO2Group/Monitoring/src/Transports/HTTP.cxx Pages: 1 -->
<svg width="667pt" height="229pt"
 viewBox="0.00 0.00 666.50 229.00" xmlns="http://www.w3.org/2000/svg" xmlns:xlink="http://www.w3.org/1999/xlink">
<g id="graph0" class="graph" transform="scale(1 1) rotate(0) translate(4 225)">
<title>/home/travis/build/AliceO2Group/Monitoring/src/Transports/HTTP.cxx</title>
<!-- Node1 -->
<g id="node1" class="node"><title>Node1</title>
<polygon fill="#bfbfbf" stroke="black" points="323.5,-179.5 323.5,-220.5 454.5,-220.5 454.5,-179.5 323.5,-179.5"/>
<text text-anchor="start" x="331.5" y="-208.5" font-family="Helvetica,sans-Serif" font-size="10.00">/home/travis/build</text>
<text text-anchor="start" x="331.5" y="-197.5" font-family="Helvetica,sans-Serif" font-size="10.00">/AliceO2Group/Monitoring</text>
<text text-anchor="middle" x="389" y="-186.5" font-family="Helvetica,sans-Serif" font-size="10.00">/src/Transports/HTTP.cxx</text>
</g>
<!-- Node2 -->
<g id="node2" class="node"><title>Node2</title>
<g id="a_node2"><a xlink:href="HTTP_8h.html" target="_top" xlink:title="HTTP.h">
<polygon fill="none" stroke="black" points="135.5,-118 135.5,-137 186.5,-137 186.5,-118 135.5,-118"/>
<text text-anchor="middle" x="161" y="-125" font-family="Helvetica,sans-Serif" font-size="10.00">HTTP.h</text>
</a>
</g>
</g>
<!-- Node1&#45;&gt;Node2 -->
<g id="edge1" class="edge"><title>Node1&#45;&gt;Node2</title>
<path fill="none" stroke="midnightblue" d="M325.792,-179.455C284.05,-166.548 230.889,-150.11 196.41,-139.449"/>
<polygon fill="midnightblue" stroke="midnightblue" points="197.363,-136.08 186.775,-136.47 195.295,-142.768 197.363,-136.08"/>
</g>
<!-- Node6 -->
<g id="node6" class="node"><title>Node6</title>
<g id="a_node6"><a xlink:href="MonLogger_8h.html" target="_top" xlink:title="../MonLogger.h">
<polygon fill="none" stroke="black" points="287,-118 287,-137 369,-137 369,-118 287,-118"/>
<text text-anchor="middle" x="328" y="-125" font-family="Helvetica,sans-Serif" font-size="10.00">../MonLogger.h</text>
</a>
</g>
</g>
<!-- Node1&#45;&gt;Node6 -->
<g id="edge6" class="edge"><title>Node1&#45;&gt;Node6</title>
<path fill="none" stroke="midnightblue" d="M372.008,-179.362C362.644,-168.539 351.151,-155.257 342.259,-144.979"/>
<polygon fill="midnightblue" stroke="midnightblue" points="344.695,-142.445 335.505,-137.173 339.401,-147.026 344.695,-142.445"/>
</g>
<!-- Node10 -->
<g id="node10" class="node"><title>Node10</title>
<g id="a_node10"><a xlink:href="MonitoringException_8h.html" target="_top" xlink:title="../Exceptions/Monitoring\lException.h">
<polygon fill="none" stroke="black" points="389,-112.5 389,-142.5 511,-142.5 511,-112.5 389,-112.5"/>
<text text-anchor="start" x="397" y="-130.5" font-family="Helvetica,sans-Serif" font-size="10.00">../Exceptions/Monitoring</text>
<text text-anchor="middle" x="450" y="-119.5" font-family="Helvetica,sans-Serif" font-size="10.00">Exception.h</text>
</a>
</g>
</g>
<!-- Node1&#45;&gt;Node10 -->
<g id="edge10" class="edge"><title>Node1&#45;&gt;Node10</title>
<path fill="none" stroke="midnightblue" d="M405.992,-179.362C413.735,-170.412 422.935,-159.78 430.915,-150.557"/>
<polygon fill="midnightblue" stroke="midnightblue" points="433.651,-152.744 437.548,-142.892 428.358,-148.164 433.651,-152.744"/>
</g>
<!-- Node12 -->
<g id="node12" class="node"><title>Node12</title>
<polygon fill="none" stroke="#bfbfbf" points="529.5,-118 529.5,-137 658.5,-137 658.5,-118 529.5,-118"/>
<text text-anchor="middle" x="594" y="-125" font-family="Helvetica,sans-Serif" font-size="10.00">boost/algorithm/string.hpp</text>
</g>
<!-- Node1&#45;&gt;Node12 -->
<g id="edge13" class="edge"><title>Node1&#45;&gt;Node12</title>
<path fill="none" stroke="midnightblue" d="M445.832,-179.455C482.399,-166.88 528.714,-150.952 559.741,-140.282"/>
<polygon fill="midnightblue" stroke="midnightblue" points="560.928,-143.575 569.246,-137.013 558.651,-136.955 560.928,-143.575"/>
</g>
<!-- Node3 -->
<g id="node3" class="node"><title>Node3</title>
<g id="a_node3"><a xlink:href="TransportInterface_8h.html" target="_top" xlink:title="TransportInterface.h">
<polygon fill="none" stroke="black" points="0,-56.5 0,-75.5 104,-75.5 104,-56.5 0,-56.5"/>
<text text-anchor="middle" x="52" y="-63.5" font-family="Helvetica,sans-Serif" font-size="10.00">TransportInterface.h</text>
</a>
</g>
</g>
<!-- Node2&#45;&gt;Node3 -->
<g id="edge2" class="edge"><title>Node2&#45;&gt;Node3</title>
<path fill="none" stroke="midnightblue" d="M145.383,-117.975C127.414,-108.166 97.6785,-91.9346 76.5937,-80.425"/>
<polygon fill="midnightblue" stroke="midnightblue" points="78.0425,-77.2284 67.5881,-75.5091 74.6885,-83.3726 78.0425,-77.2284"/>
</g>
<!-- Node4 -->
<g id="node4" class="node"><title>Node4</title>
<polygon fill="none" stroke="#bfbfbf" points="111.5,-0.5 111.5,-19.5 152.5,-19.5 152.5,-0.5 111.5,-0.5"/>
<text text-anchor="middle" x="132" y="-7.5" font-family="Helvetica,sans-Serif" font-size="10.00">string</text>
</g>
<!-- Node2&#45;&gt;Node4 -->
<g id="edge5" class="edge"><title>Node2&#45;&gt;Node4</title>
<path fill="none" stroke="midnightblue" d="M158.82,-117.819C154.139,-99.1732 143.033,-54.943 136.678,-29.6317"/>
<polygon fill="midnightblue" stroke="midnightblue" points="140.035,-28.6286 134.205,-19.782 133.246,-30.3333 140.035,-28.6286"/>
</g>
<!-- Node5 -->
<g id="node5" class="node"><title>Node5</title>
<polygon fill="none" stroke="#bfbfbf" points="160.5,-56.5 160.5,-75.5 219.5,-75.5 219.5,-56.5 160.5,-56.5"/>
<text text-anchor="middle" x="190" y="-63.5" font-family="Helvetica,sans-Serif" font-size="10.00">curl/curl.h</text>
</g>
<!-- Node2&#45;&gt;Node5 -->
<g id="edge4" class="edge"><title>Node2&#45;&gt;Node5</title>
<path fill="none" stroke="midnightblue" d="M165.155,-117.975C169.376,-109.315 176.037,-95.6486 181.4,-84.6453"/>
<polygon fill="midnightblue" stroke="midnightblue" points="184.618,-86.0317 185.853,-75.5091 178.325,-82.9648 184.618,-86.0317"/>
</g>
<!-- Node3&#45;&gt;Node4 -->
<g id="edge3" class="edge"><title>Node3&#45;&gt;Node4</title>
<path fill="none" stroke="midnightblue" d="M64.8534,-56.324C77.2164,-47.979 96.1301,-35.2122 110.737,-25.3524"/>
<polygon fill="midnightblue" stroke="midnightblue" points="112.848,-28.1503 119.179,-19.6545 108.932,-22.3483 112.848,-28.1503"/>
</g>
<!-- Node7 -->
<g id="node7" class="node"><title>Node7</title>
<polygon fill="none" stroke="#bfbfbf" points="238,-56.5 238,-75.5 284,-75.5 284,-56.5 238,-56.5"/>
<text text-anchor="middle" x="261" y="-63.5" font-family="Helvetica,sans-Serif" font-size="10.00">chrono</text>
</g>
<!-- Node6&#45;&gt;Node7 -->
<g id="edge7" class="edge"><title>Node6&#45;&gt;Node7</title>
<path fill="none" stroke="midnightblue" d="M318.401,-117.975C307.952,-108.697 291.032,-93.6706 278.264,-82.331"/>
<polygon fill="midnightblue" stroke="midnightblue" points="280.383,-79.5323 270.582,-75.5091 275.735,-84.7663 280.383,-79.5323"/>
</g>
<!-- Node8 -->
<g id="node8" class="node"><title>Node8</title>
<polygon fill="none" stroke="#bfbfbf" points="302,-56.5 302,-75.5 352,-75.5 352,-56.5 302,-56.5"/>
<text text-anchor="middle" x="327" y="-63.5" font-family="Helvetica,sans-Serif" font-size="10.00">iomanip</text>
</g>
<!-- Node6&#45;&gt;Node8 -->
<g id="edge8" class="edge"><title>Node6&#45;&gt;Node8</title>
<path fill="none" stroke="midnightblue" d="M327.857,-117.975C327.716,-109.58 327.495,-96.4806 327.314,-85.6631"/>
<polygon fill="midnightblue" stroke="midnightblue" points="330.811,-85.4488 327.143,-75.5091 323.812,-85.5665 330.811,-85.4488"/>
</g>
<!-- Node9 -->
<g id="node9" class="node"><title>Node9</title>
<polygon fill="none" stroke="#bfbfbf" points="370,-56.5 370,-75.5 424,-75.5 424,-56.5 370,-56.5"/>
<text text-anchor="middle" x="397" y="-63.5" font-family="Helvetica,sans-Serif" font-size="10.00">iostream</text>
</g>
<!-- Node6&#45;&gt;Node9 -->
<g id="edge9" class="edge"><title>Node6&#45;&gt;Node9</title>
<path fill="none" stroke="midnightblue" d="M337.886,-117.975C348.646,-108.697 366.071,-93.6706 379.221,-82.331"/>
<polygon fill="midnightblue" stroke="midnightblue" points="381.845,-84.6902 387.132,-75.5091 377.273,-79.389 381.845,-84.6902"/>
</g>
<!-- Node10&#45;&gt;Node4 -->
<g id="edge12" class="edge"><title>Node10&#45;&gt;Node4</title>
<path fill="none" stroke="midnightblue" d="M450.885,-112.299C451.047,-96.1811 448.602,-70.2826 433,-56 393.971,-20.271 231.772,-12.904 163.02,-11.3896"/>
<polygon fill="midnightblue" stroke="midnightblue" points="162.886,-7.8865 152.821,-11.1934 162.751,-14.8852 162.886,-7.8865"/>
</g>
<!-- Node11 -->
<g id="node11" class="node"><title>Node11</title>
<polygon fill="none" stroke="#bfbfbf" points="480.5,-56.5 480.5,-75.5 539.5,-75.5 539.5,-56.5 480.5,-56.5"/>
<text text-anchor="middle" x="510" y="-63.5" font-family="Helvetica,sans-Serif" font-size="10.00">exception</text>
</g>
<!-- Node10&#45;&gt;Node11 -->
<g id="edge11" class="edge"><title>Node10&#45;&gt;Node11</title>
<path fill="none" stroke="midnightblue" d="M464.219,-112.399C473.208,-103.486 484.838,-91.9523 494.127,-82.7408"/>
<polygon fill="midnightblue" stroke="midnightblue" points="496.633,-85.1844 501.269,-75.6578 491.704,-80.214 496.633,-85.1844"/>
</g>
</g>
</svg>
