<?xml version="1.0" encoding="UTF-8" standalone="no"?>
<!DOCTYPE svg PUBLIC "-//W3C//DTD SVG 1.1//EN"
 "http://www.w3.org/Graphics/SVG/1.1/DTD/svg11.dtd">
<!-- Generated by graphviz version 2.38.0 (20140413.2041)
 -->
<!-- Title: /home/travis/build/AliceO2Group/Monitoring/src/Backends/InfluxDB.h Pages: 1 -->
<!--zoomable 274 -->
<svg id="main" version="1.1" xmlns="http://www.w3.org/2000/svg" xmlns:xlink="http://www.w3.org/1999/xlink" xml:space="preserve" onload="init(evt)">
<style type="text/css"><![CDATA[
.edge:hover path { stroke: red; }
.edge:hover polygon { stroke: red; fill: red; }
]]></style>
<script type="text/javascript"><![CDATA[
var edges = document.getElementsByTagName('g');
if (edges && edges.length) {
  for (var i=0;i<edges.length;i++) {
    if (edges[i].id.substr(0,4)=='edge') {
      edges[i].setAttribute('class','edge');
    }
  }
}
]]></script>
        <defs>
                <circle id="rim" cx="0" cy="0" r="7"/>
                <circle id="rim2" cx="0" cy="0" r="3.5"/>
                <g id="zoomPlus">
                        <use xlink:href="#rim" fill="#404040">
                                <set attributeName="fill" to="#808080" begin="zoomplus.mouseover" end="zoomplus.mouseout"/>
                        </use>
                        <path d="M-4,0h8M0,-4v8" fill="none" stroke="white" stroke-width="1.5" pointer-events="none"/>
                </g>
                <g id="zoomMin">
                        <use xlink:href="#rim" fill="#404040">
                                <set attributeName="fill" to="#808080" begin="zoomminus.mouseover" end="zoomminus.mouseout"/>
                        </use>
                        <path d="M-4,0h8" fill="none" stroke="white" stroke-width="1.5" pointer-events="none"/>
                </g>
                <g id="dirArrow">
                        <path fill="none" stroke="white" stroke-width="1.5" d="M0,-3.0v7 M-2.5,-0.5L0,-3.0L2.5,-0.5"/>
                </g>
               <g id="resetDef">
                       <use xlink:href="#rim2" fill="#404040">
                               <set attributeName="fill" to="#808080" begin="reset.mouseover" end="reset.mouseout"/>
                       </use>
               </g>
        </defs>

<script type="text/javascript">
var viewWidth = 676;
var viewHeight = 274;
var sectionId = 'dynsection-0';
</script>
<script xlink:href="svgpan.js"/>
<svg id="graph" class="graph">
<g id="viewport">
<title>/home/travis/build/AliceO2Group/Monitoring/src/Backends/InfluxDB.h</title>
<!-- Node1 -->
<g id="node1" class="node"><title>Node1</title>
<polygon fill="#bfbfbf" stroke="black" points="267.718,-224.5 267.718,-265.5 396.718,-265.5 396.718,-224.5 267.718,-224.5"/>
<text text-anchor="start" x="275.718" y="-253.5" font-family="Helvetica,sans-Serif" font-size="10.00">/home/travis/build</text>
<text text-anchor="start" x="275.718" y="-242.5" font-family="Helvetica,sans-Serif" font-size="10.00">/AliceO2Group/Monitoring</text>
<text text-anchor="middle" x="332.218" y="-231.5" font-family="Helvetica,sans-Serif" font-size="10.00">/src/Backends/InfluxDB.h</text>
</g>
<!-- Node2 -->
<g id="node2" class="node"><title>Node2</title>
<g id="a_node2"><a xlink:href="Backend_8h.html" target="_top" xlink:title="Monitoring/Backend.h">
<polygon fill="none" stroke="black" points="176.718,-168.5 176.718,-187.5 287.718,-187.5 287.718,-168.5 176.718,-168.5"/>
<text text-anchor="middle" x="232.218" y="-175.5" font-family="Helvetica,sans-Serif" font-size="10.00">Monitoring/Backend.h</text>
</a>
</g>
</g>
<!-- Node1&#45;&gt;Node2 -->
<g id="edge1" class="edge"><title>Node1&#45;&gt;Node2</title>
<path fill="none" stroke="midnightblue" d="M302.215,-224.498C286.735,-214.436 268.195,-202.385 254.085,-193.214"/>
<polygon fill="midnightblue" stroke="midnightblue" points="255.821,-190.168 245.529,-187.652 252.006,-196.037 255.821,-190.168"/>
</g>
<!-- Node3 -->
<g id="node3" class="node"><title>Node3</title>
<polygon fill="none" stroke="#bfbfbf" points="368.218,-56.5 368.218,-75.5 414.218,-75.5 414.218,-56.5 368.218,-56.5"/>
<text text-anchor="middle" x="391.218" y="-63.5" font-family="Helvetica,sans-Serif" font-size="10.00">chrono</text>
</g>
<!-- Node1&#45;&gt;Node3 -->
<g id="edge19" class="edge"><title>Node1&#45;&gt;Node3</title>
<path fill="none" stroke="midnightblue" d="M336.361,-224.434C339.816,-208.965 345.141,-186.904 351.218,-168 360.758,-138.322 374.655,-104.862 383.305,-84.8767"/>
<polygon fill="midnightblue" stroke="midnightblue" points="386.602,-86.0716 387.404,-75.5071 380.189,-83.2656 386.602,-86.0716"/>
</g>
<!-- Node4 -->
<g id="node4" class="node"><title>Node4</title>
<polygon fill="none" stroke="#bfbfbf" points="253.718,-0.5 253.718,-19.5 294.718,-19.5 294.718,-0.5 253.718,-0.5"/>
<text text-anchor="middle" x="274.218" y="-7.5" font-family="Helvetica,sans-Serif" font-size="10.00">string</text>
</g>
<!-- Node1&#45;&gt;Node4 -->
<g id="edge20" class="edge"><title>Node1&#45;&gt;Node4</title>
<path fill="none" stroke="midnightblue" d="M267.572,-237.77C197.351,-227.586 86.4956,-200.988 21.218,-132 3.24979,-113.01 7.26681,-101.828 3.21795,-76 1.8413,-67.2184 -2.52963,-62.7807 3.21795,-56 33.6817,-20.0606 178.535,-12.7918 243.071,-11.3459"/>
<polygon fill="midnightblue" stroke="midnightblue" points="243.496,-14.8386 253.427,-11.149 243.362,-7.83983 243.496,-14.8386"/>
</g>
<!-- Node11 -->
<g id="node11" class="node"><title>Node11</title>
<g id="a_node11"><a xlink:href="TransportInterface_8h.html" target="_top" xlink:title="../Transports/TransportInterface.h">
<polygon fill="none" stroke="black" points="360.718,-168.5 360.718,-187.5 523.718,-187.5 523.718,-168.5 360.718,-168.5"/>
<text text-anchor="middle" x="442.218" y="-175.5" font-family="Helvetica,sans-Serif" font-size="10.00">../Transports/TransportInterface.h</text>
</a>
</g>
</g>
<!-- Node1&#45;&gt;Node11 -->
<g id="edge13" class="edge"><title>Node1&#45;&gt;Node11</title>
<path fill="none" stroke="midnightblue" d="M365.222,-224.498C382.411,-214.34 403.032,-202.155 418.606,-192.952"/>
<polygon fill="midnightblue" stroke="midnightblue" points="420.747,-195.753 427.575,-187.652 417.185,-189.727 420.747,-195.753"/>
</g>
<!-- Node12 -->
<g id="node12" class="node"><title>Node12</title>
<g id="a_node12"><a xlink:href="MonLogger_8h.html" target="_top" xlink:title="../MonLogger.h">
<polygon fill="none" stroke="black" points="542.218,-168.5 542.218,-187.5 624.218,-187.5 624.218,-168.5 542.218,-168.5"/>
<text text-anchor="middle" x="583.218" y="-175.5" font-family="Helvetica,sans-Serif" font-size="10.00">../MonLogger.h</text>
</a>
</g>
</g>
<!-- Node1&#45;&gt;Node12 -->
<g id="edge15" class="edge"><title>Node1&#45;&gt;Node12</title>
<path fill="none" stroke="midnightblue" d="M396.857,-227.261C442.021,-215.565 501.06,-200.276 540.465,-190.071"/>
<polygon fill="midnightblue" stroke="midnightblue" points="541.484,-193.423 550.287,-187.528 539.729,-186.647 541.484,-193.423"/>
</g>
<!-- Node2&#45;&gt;Node3 -->
<g id="edge2" class="edge"><title>Node2&#45;&gt;Node3</title>
<path fill="none" stroke="midnightblue" d="M242.837,-168.456C258.843,-155.697 290.256,-131.122 318.218,-112 334.348,-100.97 353.127,-89.421 367.598,-80.7852"/>
<polygon fill="midnightblue" stroke="midnightblue" points="369.593,-83.6716 376.416,-75.5655 366.027,-77.648 369.593,-83.6716"/>
</g>
<!-- Node2&#45;&gt;Node4 -->
<g id="edge3" class="edge"><title>Node2&#45;&gt;Node4</title>
<path fill="none" stroke="midnightblue" d="M180.742,-168.472C101.739,-153.245 -35.1594,-117.114 16.218,-56 44.9232,-21.8547 181.197,-13.6156 243.277,-11.6297"/>
<polygon fill="midnightblue" stroke="midnightblue" points="243.721,-15.1186 253.618,-11.3353 243.522,-8.12139 243.721,-15.1186"/>
</g>
<!-- Node5 -->
<g id="node5" class="node"><title>Node5</title>
<g id="a_node5"><a xlink:href="Metric_8h.html" target="_top" xlink:title="Monitoring/Metric.h">
<polygon fill="none" stroke="black" points="166.218,-112.5 166.218,-131.5 266.218,-131.5 266.218,-112.5 166.218,-112.5"/>
<text text-anchor="middle" x="216.218" y="-119.5" font-family="Helvetica,sans-Serif" font-size="10.00">Monitoring/Metric.h</text>
</a>
</g>
</g>
<!-- Node2&#45;&gt;Node5 -->
<g id="edge4" class="edge"><title>Node2&#45;&gt;Node5</title>
<path fill="none" stroke="midnightblue" d="M229.576,-168.083C227.432,-160.849 224.339,-150.409 221.669,-141.397"/>
<polygon fill="midnightblue" stroke="midnightblue" points="225.008,-140.345 218.811,-131.751 218.296,-142.333 225.008,-140.345"/>
</g>
<!-- Node5&#45;&gt;Node3 -->
<g id="edge6" class="edge"><title>Node5&#45;&gt;Node3</title>
<path fill="none" stroke="midnightblue" d="M243.947,-112.444C275.041,-102.849 325.424,-87.3021 358.441,-77.1141"/>
<polygon fill="midnightblue" stroke="midnightblue" points="359.566,-80.4298 368.089,-74.1368 357.502,-73.741 359.566,-80.4298"/>
</g>
<!-- Node5&#45;&gt;Node4 -->
<g id="edge5" class="edge"><title>Node5&#45;&gt;Node4</title>
<path fill="none" stroke="midnightblue" d="M225.887,-112.247C234.704,-103.772 247.497,-90.1592 255.218,-76 263.133,-61.4847 268.086,-43.3027 270.942,-29.8624"/>
<polygon fill="midnightblue" stroke="midnightblue" points="274.412,-30.354 272.867,-19.8723 267.538,-29.0293 274.412,-30.354"/>
</g>
<!-- Node6 -->
<g id="node6" class="node"><title>Node6</title>
<polygon fill="none" stroke="#bfbfbf" points="25.718,-56.5 25.718,-75.5 60.718,-75.5 60.718,-56.5 25.718,-56.5"/>
<text text-anchor="middle" x="43.218" y="-63.5" font-family="Helvetica,sans-Serif" font-size="10.00">map</text>
</g>
<!-- Node5&#45;&gt;Node6 -->
<g id="edge7" class="edge"><title>Node5&#45;&gt;Node6</title>
<path fill="none" stroke="midnightblue" d="M187.113,-112.429C159.36,-104.181 116.168,-91.1552 70.5724,-76.3676"/>
<polygon fill="midnightblue" stroke="midnightblue" points="71.4034,-72.9572 60.811,-73.1864 69.2343,-79.6127 71.4034,-72.9572"/>
</g>
<!-- Node7 -->
<g id="node7" class="node"><title>Node7</title>
<polygon fill="none" stroke="#bfbfbf" points="78.718,-56.5 78.718,-75.5 119.718,-75.5 119.718,-56.5 78.718,-56.5"/>
<text text-anchor="middle" x="99.218" y="-63.5" font-family="Helvetica,sans-Serif" font-size="10.00">regex</text>
</g>
<!-- Node5&#45;&gt;Node7 -->
<g id="edge8" class="edge"><title>Node5&#45;&gt;Node7</title>
<path fill="none" stroke="midnightblue" d="M197.679,-112.444C178.595,-103.636 148.643,-89.8116 126.782,-79.722"/>
<polygon fill="midnightblue" stroke="midnightblue" points="128.217,-76.5292 117.67,-75.5164 125.283,-82.8849 128.217,-76.5292"/>
</g>
<!-- Node8 -->
<g id="node8" class="node"><title>Node8</title>
<polygon fill="none" stroke="#bfbfbf" points="138.218,-56.5 138.218,-75.5 184.218,-75.5 184.218,-56.5 138.218,-56.5"/>
<text text-anchor="middle" x="161.218" y="-63.5" font-family="Helvetica,sans-Serif" font-size="10.00">variant</text>
</g>
<!-- Node5&#45;&gt;Node8 -->
<g id="edge9" class="edge"><title>Node5&#45;&gt;Node8</title>
<path fill="none" stroke="midnightblue" d="M207.136,-112.083C199.047,-104.141 187.023,-92.3354 177.308,-82.7973"/>
<polygon fill="midnightblue" stroke="midnightblue" points="179.719,-80.2595 170.131,-75.7511 174.815,-85.2545 179.719,-80.2595"/>
</g>
<!-- Node9 -->
<g id="node9" class="node"><title>Node9</title>
<polygon fill="none" stroke="#bfbfbf" points="202.218,-56.5 202.218,-75.5 246.218,-75.5 246.218,-56.5 202.218,-56.5"/>
<text text-anchor="middle" x="224.218" y="-63.5" font-family="Helvetica,sans-Serif" font-size="10.00">vector</text>
</g>
<!-- Node5&#45;&gt;Node9 -->
<g id="edge10" class="edge"><title>Node5&#45;&gt;Node9</title>
<path fill="none" stroke="midnightblue" d="M217.539,-112.083C218.599,-104.927 220.124,-94.6353 221.449,-85.6911"/>
<polygon fill="midnightblue" stroke="midnightblue" points="224.918,-86.1561 222.921,-75.7511 217.994,-85.1302 224.918,-86.1561"/>
</g>
<!-- Node10 -->
<g id="node10" class="node"><title>Node10</title>
<g id="a_node10"><a xlink:href="Tags_8h.html" target="_top" xlink:title="Tags.h">
<polygon fill="none" stroke="black" points="302.718,-56.5 302.718,-75.5 349.718,-75.5 349.718,-56.5 302.718,-56.5"/>
<text text-anchor="middle" x="326.218" y="-63.5" font-family="Helvetica,sans-Serif" font-size="10.00">Tags.h</text>
</a>
</g>
</g>
<!-- Node5&#45;&gt;Node10 -->
<g id="edge11" class="edge"><title>Node5&#45;&gt;Node10</title>
<path fill="none" stroke="midnightblue" d="M233.891,-112.324C251.612,-103.625 279.121,-90.1202 299.506,-80.113"/>
<polygon fill="midnightblue" stroke="midnightblue" points="301.154,-83.2031 308.588,-75.6545 298.069,-76.9195 301.154,-83.2031"/>
</g>
<!-- Node10&#45;&gt;Node4 -->
<g id="edge12" class="edge"><title>Node10&#45;&gt;Node4</title>
<path fill="none" stroke="midnightblue" d="M317.631,-56.083C310.059,-48.2195 298.84,-36.5688 289.704,-27.0813"/>
<polygon fill="midnightblue" stroke="midnightblue" points="292.102,-24.5266 282.645,-19.7511 287.06,-29.3821 292.102,-24.5266"/>
</g>
<!-- Node11&#45;&gt;Node4 -->
<g id="edge14" class="edge"><title>Node11&#45;&gt;Node4</title>
<path fill="none" stroke="midnightblue" d="M443.665,-168.42C446.81,-146.688 451.851,-88.8695 423.218,-56 393.669,-22.0786 339.538,-13.2455 305.294,-11.2158"/>
<polygon fill="midnightblue" stroke="midnightblue" points="305.071,-7.70315 294.931,-10.7727 304.772,-14.6968 305.071,-7.70315"/>
</g>
<!-- Node12&#45;&gt;Node3 -->
<g id="edge16" class="edge"><title>Node12&#45;&gt;Node3</title>
<path fill="none" stroke="midnightblue" d="M568.152,-168.368C534.924,-149.332 455.128,-103.615 415.044,-80.6505"/>
<polygon fill="midnightblue" stroke="midnightblue" points="416.631,-77.5257 406.214,-75.5914 413.151,-83.5995 416.631,-77.5257"/>
</g>
<!-- Node13 -->
<g id="node13" class="node"><title>Node13</title>
<polygon fill="none" stroke="#bfbfbf" points="546.218,-112.5 546.218,-131.5 596.218,-131.5 596.218,-112.5 546.218,-112.5"/>
<text text-anchor="middle" x="571.218" y="-119.5" font-family="Helvetica,sans-Serif" font-size="10.00">iomanip</text>
</g>
<!-- Node12&#45;&gt;Node13 -->
<g id="edge17" class="edge"><title>Node12&#45;&gt;Node13</title>
<path fill="none" stroke="midnightblue" d="M581.236,-168.083C579.646,-160.927 577.359,-150.635 575.372,-141.691"/>
<polygon fill="midnightblue" stroke="midnightblue" points="578.749,-140.754 573.163,-131.751 571.915,-142.272 578.749,-140.754"/>
</g>
<!-- Node14 -->
<g id="node14" class="node"><title>Node14</title>
<polygon fill="none" stroke="#bfbfbf" points="614.218,-112.5 614.218,-131.5 668.218,-131.5 668.218,-112.5 614.218,-112.5"/>
<text text-anchor="middle" x="641.218" y="-119.5" font-family="Helvetica,sans-Serif" font-size="10.00">iostream</text>
</g>
<!-- Node12&#45;&gt;Node14 -->
<g id="edge18" class="edge"><title>Node12&#45;&gt;Node14</title>
<path fill="none" stroke="midnightblue" d="M592.537,-168.324C601.111,-160.341 614.03,-148.313 624.406,-138.653"/>
<polygon fill="midnightblue" stroke="midnightblue" points="626.796,-141.21 631.73,-131.834 622.026,-136.086 626.796,-141.21"/>
</g>
</g>
</svg>
        <g id="navigator" transform="translate(0 0)" fill="#404254">
                <rect fill="#f2f5e9" fill-opacity="0.5" stroke="#606060" stroke-width=".5" x="0" y="0" width="60" height="60"/>
                <use id="zoomplus" xlink:href="#zoomPlus" x="17" y="9" onmousedown="handleZoom(evt,'in')"/>
                <use id="zoomminus" xlink:href="#zoomMin" x="42" y="9" onmousedown="handleZoom(evt,'out')"/>
                <use id="reset" xlink:href="#resetDef" x="30" y="36" onmousedown="handleReset()"/>
                <g id="arrowUp" xlink:href="#dirArrow" transform="translate(30 24)" onmousedown="handlePan(0,-1)">
                  <use xlink:href="#rim" fill="#404040">
                        <set attributeName="fill" to="#808080" begin="arrowUp.mouseover" end="arrowUp.mouseout"/>
                  </use>
                  <path fill="none" stroke="white" stroke-width="1.5" d="M0,-3.0v7 M-2.5,-0.5L0,-3.0L2.5,-0.5"/>
                </g>
                <g id="arrowRight" xlink:href="#dirArrow" transform="rotate(90) translate(36 -43)" onmousedown="handlePan(1,0)">
                  <use xlink:href="#rim" fill="#404040">
                        <set attributeName="fill" to="#808080" begin="arrowRight.mouseover" end="arrowRight.mouseout"/>
                  </use>
                  <path fill="none" stroke="white" stroke-width="1.5" d="M0,-3.0v7 M-2.5,-0.5L0,-3.0L2.5,-0.5"/>
                </g>
                <g id="arrowDown" xlink:href="#dirArrow" transform="rotate(180) translate(-30 -48)" onmousedown="handlePan(0,1)">
                  <use xlink:href="#rim" fill="#404040">
                        <set attributeName="fill" to="#808080" begin="arrowDown.mouseover" end="arrowDown.mouseout"/>
                  </use>
                  <path fill="none" stroke="white" stroke-width="1.5" d="M0,-3.0v7 M-2.5,-0.5L0,-3.0L2.5,-0.5"/>
                </g>
                <g id="arrowLeft" xlink:href="#dirArrow" transform="rotate(270) translate(-36 17)" onmousedown="handlePan(-1,0)">
                  <use xlink:href="#rim" fill="#404040">
                        <set attributeName="fill" to="#808080" begin="arrowLeft.mouseover" end="arrowLeft.mouseout"/>
                  </use>
                  <path fill="none" stroke="white" stroke-width="1.5" d="M0,-3.0v7 M-2.5,-0.5L0,-3.0L2.5,-0.5"/>
                </g>
        </g>
        <svg viewBox="0 0 15 15" width="100%" height="30px" preserveAspectRatio="xMaxYMin meet">
         <g id="arrow_out" transform="scale(0.3 0.3)">
          <a xlink:href="InfluxDB_8h__incl_org.svg" target="_base">
           <rect id="button" ry="5" rx="5" y="6" x="6" height="38" width="38"
                fill="#f2f5e9" fill-opacity="0.5" stroke="#606060" stroke-width="1.0"/>
           <path id="arrow"
             d="M 11.500037,31.436501 C 11.940474,20.09759 22.043105,11.32322 32.158766,21.979434 L 37.068811,17.246167 C 37.068811,17.246167 37.088388,32 37.088388,32 L 22.160133,31.978069 C 22.160133,31.978069 26.997745,27.140456 26.997745,27.140456 C 18.528582,18.264221 13.291696,25.230495 11.500037,31.436501 z"
             style="fill:#404040;"/>
          </a>
         </g>
        </svg>
</svg>
