<?xml version="1.0" encoding="UTF-8" standalone="no"?>
<!DOCTYPE svg PUBLIC "-//W3C//DTD SVG 1.1//EN"
 "http://www.w3.org/Graphics/SVG/1.1/DTD/svg11.dtd">
<!-- Generated by graphviz version 2.38.0 (20140413.2041)
 -->
<!-- Title: /home/travis/build/AliceO2Group/Monitoring/src/Backends/InfluxDB.cxx Pages: 1 -->
<!--zoomable 341 -->
<svg id="main" version="1.1" xmlns="http://www.w3.org/2000/svg" xmlns:xlink="http://www.w3.org/1999/xlink" xml:space="preserve" onload="init(evt)">
<style type="text/css"><![CDATA[
.edge:hover path { stroke: red; }
.edge:hover polygon { stroke: red; fill: red; }
]]></style>
<script type="text/javascript"><![CDATA[
var edges = document.getElementsByTagName('g');
if (edges && edges.length) {
  for (var i=0;i<edges.length;i++) {
    if (edges[i].id.substr(0,4)=='edge') {
      edges[i].setAttribute('class','edge');
    }
  }
}
]]></script>
        <defs>
                <circle id="rim" cx="0" cy="0" r="7"/>
                <circle id="rim2" cx="0" cy="0" r="3.5"/>
                <g id="zoomPlus">
                        <use xlink:href="#rim" fill="#404040">
                                <set attributeName="fill" to="#808080" begin="zoomplus.mouseover" end="zoomplus.mouseout"/>
                        </use>
                        <path d="M-4,0h8M0,-4v8" fill="none" stroke="white" stroke-width="1.5" pointer-events="none"/>
                </g>
                <g id="zoomMin">
                        <use xlink:href="#rim" fill="#404040">
                                <set attributeName="fill" to="#808080" begin="zoomminus.mouseover" end="zoomminus.mouseout"/>
                        </use>
                        <path d="M-4,0h8" fill="none" stroke="white" stroke-width="1.5" pointer-events="none"/>
                </g>
                <g id="dirArrow">
                        <path fill="none" stroke="white" stroke-width="1.5" d="M0,-3.0v7 M-2.5,-0.5L0,-3.0L2.5,-0.5"/>
                </g>
               <g id="resetDef">
                       <use xlink:href="#rim2" fill="#404040">
                               <set attributeName="fill" to="#808080" begin="reset.mouseover" end="reset.mouseout"/>
                       </use>
               </g>
        </defs>

<script type="text/javascript">
var viewWidth = 1000;
var viewHeight = 341;
var sectionId = 'dynsection-0';
</script>
<script xlink:href="svgpan.js"/>
<svg id="graph" class="graph">
<g id="viewport">
<title>/home/travis/build/AliceO2Group/Monitoring/src/Backends/InfluxDB.cxx</title>
<!-- Node1 -->
<g id="node1" class="node"><title>Node1</title>
<polygon fill="#bfbfbf" stroke="black" points="593,-291.5 593,-332.5 733,-332.5 733,-291.5 593,-291.5"/>
<text text-anchor="start" x="601" y="-320.5" font-family="Helvetica,sans-Serif" font-size="10.00">/home/travis/build</text>
<text text-anchor="start" x="601" y="-309.5" font-family="Helvetica,sans-Serif" font-size="10.00">/AliceO2Group/Monitoring</text>
<text text-anchor="middle" x="663" y="-298.5" font-family="Helvetica,sans-Serif" font-size="10.00">/src/Backends/InfluxDB.cxx</text>
</g>
<!-- Node2 -->
<g id="node2" class="node"><title>Node2</title>
<g id="a_node2"><a xlink:href="InfluxDB_8h.html" target="_top" xlink:title="InfluxDB.h">
<polygon fill="none" stroke="black" points="494.5,-230 494.5,-249 557.5,-249 557.5,-230 494.5,-230"/>
<text text-anchor="middle" x="526" y="-237" font-family="Helvetica,sans-Serif" font-size="10.00">InfluxDB.h</text>
</a>
</g>
</g>
<!-- Node1&#45;&gt;Node2 -->
<g id="edge1" class="edge"><title>Node1&#45;&gt;Node2</title>
<path fill="none" stroke="midnightblue" d="M624.838,-291.362C601.599,-279.403 572.522,-264.44 551.938,-253.848"/>
<polygon fill="midnightblue" stroke="midnightblue" points="553.348,-250.637 542.855,-249.173 550.145,-256.861 553.348,-250.637"/>
</g>
<!-- Node5 -->
<g id="node5" class="node"><title>Node5</title>
<polygon fill="none" stroke="#bfbfbf" points="239.5,-0.5 239.5,-19.5 280.5,-19.5 280.5,-0.5 239.5,-0.5"/>
<text text-anchor="middle" x="260" y="-7.5" font-family="Helvetica,sans-Serif" font-size="10.00">string</text>
</g>
<!-- Node1&#45;&gt;Node5 -->
<g id="edge23" class="edge"><title>Node1&#45;&gt;Node5</title>
<path fill="none" stroke="midnightblue" d="M592.752,-308.175C440.787,-301.557 91.493,-283.428 46,-255 12.5166,-234.077 0,-218.483 0,-179 0,-179 0,-179 0,-121 0,-22.6027 159.899,-10.8855 228.906,-10.4103"/>
<polygon fill="midnightblue" stroke="midnightblue" points="229.16,-13.9105 239.163,-10.4191 229.166,-6.91046 229.16,-13.9105"/>
</g>
<!-- Node9 -->
<g id="node9" class="node"><title>Node9</title>
<polygon fill="none" stroke="#bfbfbf" points="715,-56.5 715,-75.5 761,-75.5 761,-56.5 715,-56.5"/>
<text text-anchor="middle" x="738" y="-63.5" font-family="Helvetica,sans-Serif" font-size="10.00">variant</text>
</g>
<!-- Node1&#45;&gt;Node9 -->
<g id="edge24" class="edge"><title>Node1&#45;&gt;Node9</title>
<path fill="none" stroke="midnightblue" d="M675.17,-291.284C694.129,-259.284 729.899,-193.42 743,-132 746.287,-116.59 744.52,-98.7171 742.224,-85.6177"/>
<polygon fill="midnightblue" stroke="midnightblue" points="745.595,-84.6259 740.184,-75.5168 738.733,-86.0118 745.595,-84.6259"/>
</g>
<!-- Node16 -->
<g id="node16" class="node"><title>Node16</title>
<polygon fill="none" stroke="#bfbfbf" points="812,-230 812,-249 864,-249 864,-230 812,-230"/>
<text text-anchor="middle" x="838" y="-237" font-family="Helvetica,sans-Serif" font-size="10.00">sstream</text>
</g>
<!-- Node1&#45;&gt;Node16 -->
<g id="edge22" class="edge"><title>Node1&#45;&gt;Node16</title>
<path fill="none" stroke="midnightblue" d="M711.747,-291.362C742.238,-279.078 780.596,-263.626 806.984,-252.995"/>
<polygon fill="midnightblue" stroke="midnightblue" points="808.503,-256.157 816.47,-249.173 805.887,-249.664 808.503,-256.157"/>
</g>
<!-- Node17 -->
<g id="node17" class="node"><title>Node17</title>
<polygon fill="none" stroke="#bfbfbf" points="882,-224.5 882,-254.5 992,-254.5 992,-224.5 882,-224.5"/>
<text text-anchor="start" x="890" y="-242.5" font-family="Helvetica,sans-Serif" font-size="10.00">boost/algorithm/string</text>
<text text-anchor="middle" x="937" y="-231.5" font-family="Helvetica,sans-Serif" font-size="10.00">/replace.hpp</text>
</g>
<!-- Node1&#45;&gt;Node17 -->
<g id="edge25" class="edge"><title>Node1&#45;&gt;Node17</title>
<path fill="none" stroke="midnightblue" d="M733.206,-292.936C776.216,-281.87 830.854,-267.811 872.727,-257.037"/>
<polygon fill="midnightblue" stroke="midnightblue" points="873.727,-260.394 882.539,-254.513 871.983,-253.615 873.727,-260.394"/>
</g>
<!-- Node18 -->
<g id="node18" class="node"><title>Node18</title>
<g id="a_node18"><a xlink:href="MonitoringException_8h.html" target="_top" xlink:title="../Exceptions/Monitoring\lException.h">
<polygon fill="none" stroke="black" points="55,-224.5 55,-254.5 177,-254.5 177,-224.5 55,-224.5"/>
<text text-anchor="start" x="63" y="-242.5" font-family="Helvetica,sans-Serif" font-size="10.00">../Exceptions/Monitoring</text>
<text text-anchor="middle" x="116" y="-231.5" font-family="Helvetica,sans-Serif" font-size="10.00">Exception.h</text>
</a>
</g>
</g>
<!-- Node1&#45;&gt;Node18 -->
<g id="edge26" class="edge"><title>Node1&#45;&gt;Node18</title>
<path fill="none" stroke="midnightblue" d="M592.888,-301.964C488.406,-288.497 292.883,-263.297 187.564,-249.723"/>
<polygon fill="midnightblue" stroke="midnightblue" points="187.715,-246.214 177.349,-248.407 186.82,-253.157 187.715,-246.214"/>
</g>
<!-- Node3 -->
<g id="node3" class="node"><title>Node3</title>
<g id="a_node3"><a xlink:href="Backend_8h.html" target="_top" xlink:title="Monitoring/Backend.h">
<polygon fill="none" stroke="black" points="412.5,-168.5 412.5,-187.5 523.5,-187.5 523.5,-168.5 412.5,-168.5"/>
<text text-anchor="middle" x="468" y="-175.5" font-family="Helvetica,sans-Serif" font-size="10.00">Monitoring/Backend.h</text>
</a>
</g>
</g>
<!-- Node2&#45;&gt;Node3 -->
<g id="edge2" class="edge"><title>Node2&#45;&gt;Node3</title>
<path fill="none" stroke="midnightblue" d="M517.69,-229.975C508.818,-220.873 494.554,-206.241 483.58,-194.983"/>
<polygon fill="midnightblue" stroke="midnightblue" points="485.781,-192.227 476.295,-187.509 480.769,-197.113 485.781,-192.227"/>
</g>
<!-- Node4 -->
<g id="node4" class="node"><title>Node4</title>
<polygon fill="none" stroke="#bfbfbf" points="605,-56.5 605,-75.5 651,-75.5 651,-56.5 605,-56.5"/>
<text text-anchor="middle" x="628" y="-63.5" font-family="Helvetica,sans-Serif" font-size="10.00">chrono</text>
</g>
<!-- Node2&#45;&gt;Node4 -->
<g id="edge20" class="edge"><title>Node2&#45;&gt;Node4</title>
<path fill="none" stroke="midnightblue" d="M529.198,-229.753C537.171,-208.525 559.294,-153.014 587,-112 594.084,-101.514 603.51,-90.9927 611.538,-82.7633"/>
<polygon fill="midnightblue" stroke="midnightblue" points="614.065,-85.1861 618.685,-75.6513 609.128,-80.2244 614.065,-85.1861"/>
</g>
<!-- Node2&#45;&gt;Node5 -->
<g id="edge21" class="edge"><title>Node2&#45;&gt;Node5</title>
<path fill="none" stroke="midnightblue" d="M494.493,-233.826C415.42,-221.388 212.109,-184.783 173,-132 144.579,-93.6424 202.322,-47.7203 236.787,-25.0638"/>
<polygon fill="midnightblue" stroke="midnightblue" points="238.847,-27.9013 245.391,-19.5693 235.079,-22.0017 238.847,-27.9013"/>
</g>
<!-- Node12 -->
<g id="node12" class="node"><title>Node12</title>
<g id="a_node12"><a xlink:href="TransportInterface_8h.html" target="_top" xlink:title="../Transports/TransportInterface.h">
<polygon fill="none" stroke="black" points="182.5,-112.5 182.5,-131.5 345.5,-131.5 345.5,-112.5 182.5,-112.5"/>
<text text-anchor="middle" x="264" y="-119.5" font-family="Helvetica,sans-Serif" font-size="10.00">../Transports/TransportInterface.h</text>
</a>
</g>
</g>
<!-- Node2&#45;&gt;Node12 -->
<g id="edge14" class="edge"><title>Node2&#45;&gt;Node12</title>
<path fill="none" stroke="midnightblue" d="M504.093,-229.873C479.39,-220.06 438.09,-203.397 403,-188 363.72,-170.764 318.864,-149.496 290.984,-136.086"/>
<polygon fill="midnightblue" stroke="midnightblue" points="292.396,-132.881 281.868,-131.69 289.355,-139.186 292.396,-132.881"/>
</g>
<!-- Node13 -->
<g id="node13" class="node"><title>Node13</title>
<g id="a_node13"><a xlink:href="MonLogger_8h.html" target="_top" xlink:title="../MonLogger.h">
<polygon fill="none" stroke="black" points="623,-168.5 623,-187.5 705,-187.5 705,-168.5 623,-168.5"/>
<text text-anchor="middle" x="664" y="-175.5" font-family="Helvetica,sans-Serif" font-size="10.00">../MonLogger.h</text>
</a>
</g>
</g>
<!-- Node2&#45;&gt;Node13 -->
<g id="edge16" class="edge"><title>Node2&#45;&gt;Node13</title>
<path fill="none" stroke="midnightblue" d="M545.772,-229.975C569.136,-219.901 608.214,-203.053 635.003,-191.502"/>
<polygon fill="midnightblue" stroke="midnightblue" points="636.468,-194.682 644.265,-187.509 633.696,-188.254 636.468,-194.682"/>
</g>
<!-- Node3&#45;&gt;Node4 -->
<g id="edge3" class="edge"><title>Node3&#45;&gt;Node4</title>
<path fill="none" stroke="midnightblue" d="M478.604,-168.434C494.592,-155.648 525.981,-131.037 554,-112 570.324,-100.909 589.361,-89.3623 604.038,-80.7422"/>
<polygon fill="midnightblue" stroke="midnightblue" points="606.101,-83.5912 612.981,-75.5344 602.578,-77.5421 606.101,-83.5912"/>
</g>
<!-- Node3&#45;&gt;Node5 -->
<g id="edge4" class="edge"><title>Node3&#45;&gt;Node5</title>
<path fill="none" stroke="midnightblue" d="M452.133,-168.312C423.668,-152.297 362.817,-116.071 319,-76 302.394,-60.8134 285.316,-41.5215 273.835,-27.9122"/>
<polygon fill="midnightblue" stroke="midnightblue" points="276.247,-25.3382 267.16,-19.8899 270.866,-29.8155 276.247,-25.3382"/>
</g>
<!-- Node6 -->
<g id="node6" class="node"><title>Node6</title>
<g id="a_node6"><a xlink:href="Metric_8h.html" target="_top" xlink:title="Monitoring/Metric.h">
<polygon fill="none" stroke="black" points="402,-112.5 402,-131.5 502,-131.5 502,-112.5 402,-112.5"/>
<text text-anchor="middle" x="452" y="-119.5" font-family="Helvetica,sans-Serif" font-size="10.00">Monitoring/Metric.h</text>
</a>
</g>
</g>
<!-- Node3&#45;&gt;Node6 -->
<g id="edge5" class="edge"><title>Node3&#45;&gt;Node6</title>
<path fill="none" stroke="midnightblue" d="M465.358,-168.083C463.214,-160.849 460.121,-150.409 457.451,-141.397"/>
<polygon fill="midnightblue" stroke="midnightblue" points="460.79,-140.345 454.593,-131.751 454.078,-142.333 460.79,-140.345"/>
</g>
<!-- Node6&#45;&gt;Node4 -->
<g id="edge7" class="edge"><title>Node6&#45;&gt;Node4</title>
<path fill="none" stroke="midnightblue" d="M479.888,-112.444C511.159,-102.849 561.83,-87.3021 595.036,-77.1141"/>
<polygon fill="midnightblue" stroke="midnightblue" points="596.206,-80.4162 604.739,-74.1368 594.152,-73.7241 596.206,-80.4162"/>
</g>
<!-- Node6&#45;&gt;Node5 -->
<g id="edge6" class="edge"><title>Node6&#45;&gt;Node5</title>
<path fill="none" stroke="midnightblue" d="M431.066,-112.481C411.077,-104.071 380.334,-90.4113 355,-76 327.708,-60.4748 298.132,-39.5225 279.356,-25.6528"/>
<polygon fill="midnightblue" stroke="midnightblue" points="281.409,-22.8175 271.3,-19.6457 277.225,-28.4292 281.409,-22.8175"/>
</g>
<!-- Node7 -->
<g id="node7" class="node"><title>Node7</title>
<polygon fill="none" stroke="#bfbfbf" points="492.5,-56.5 492.5,-75.5 527.5,-75.5 527.5,-56.5 492.5,-56.5"/>
<text text-anchor="middle" x="510" y="-63.5" font-family="Helvetica,sans-Serif" font-size="10.00">map</text>
</g>
<!-- Node6&#45;&gt;Node7 -->
<g id="edge8" class="edge"><title>Node6&#45;&gt;Node7</title>
<path fill="none" stroke="midnightblue" d="M461.319,-112.324C469.893,-104.341 482.812,-92.3128 493.188,-82.6529"/>
<polygon fill="midnightblue" stroke="midnightblue" points="495.578,-85.2098 500.512,-75.8339 490.808,-80.0865 495.578,-85.2098"/>
</g>
<!-- Node8 -->
<g id="node8" class="node"><title>Node8</title>
<polygon fill="none" stroke="#bfbfbf" points="545.5,-56.5 545.5,-75.5 586.5,-75.5 586.5,-56.5 545.5,-56.5"/>
<text text-anchor="middle" x="566" y="-63.5" font-family="Helvetica,sans-Serif" font-size="10.00">regex</text>
</g>
<!-- Node6&#45;&gt;Node8 -->
<g id="edge9" class="edge"><title>Node6&#45;&gt;Node8</title>
<path fill="none" stroke="midnightblue" d="M470.064,-112.444C488.575,-103.675 517.581,-89.9355 538.855,-79.8579"/>
<polygon fill="midnightblue" stroke="midnightblue" points="540.482,-82.9604 548.021,-75.5164 537.485,-76.6343 540.482,-82.9604"/>
</g>
<!-- Node6&#45;&gt;Node9 -->
<g id="edge10" class="edge"><title>Node6&#45;&gt;Node9</title>
<path fill="none" stroke="midnightblue" d="M497.318,-112.444C555.081,-101.537 653.578,-82.9397 704.82,-73.2647"/>
<polygon fill="midnightblue" stroke="midnightblue" points="705.532,-76.6922 714.709,-71.3976 704.233,-69.8138 705.532,-76.6922"/>
</g>
<!-- Node10 -->
<g id="node10" class="node"><title>Node10</title>
<polygon fill="none" stroke="#bfbfbf" points="430,-56.5 430,-75.5 474,-75.5 474,-56.5 430,-56.5"/>
<text text-anchor="middle" x="452" y="-63.5" font-family="Helvetica,sans-Serif" font-size="10.00">vector</text>
</g>
<!-- Node6&#45;&gt;Node10 -->
<g id="edge11" class="edge"><title>Node6&#45;&gt;Node10</title>
<path fill="none" stroke="midnightblue" d="M452,-112.083C452,-105.006 452,-94.8611 452,-85.9865"/>
<polygon fill="midnightblue" stroke="midnightblue" points="455.5,-85.751 452,-75.7511 448.5,-85.7511 455.5,-85.751"/>
</g>
<!-- Node11 -->
<g id="node11" class="node"><title>Node11</title>
<g id="a_node11"><a xlink:href="Tags_8h.html" target="_top" xlink:title="Tags.h">
<polygon fill="none" stroke="black" points="364.5,-56.5 364.5,-75.5 411.5,-75.5 411.5,-56.5 364.5,-56.5"/>
<text text-anchor="middle" x="388" y="-63.5" font-family="Helvetica,sans-Serif" font-size="10.00">Tags.h</text>
</a>
</g>
</g>
<!-- Node6&#45;&gt;Node11 -->
<g id="edge12" class="edge"><title>Node6&#45;&gt;Node11</title>
<path fill="none" stroke="midnightblue" d="M441.717,-112.324C432.164,-104.263 417.72,-92.0765 406.216,-82.3695"/>
<polygon fill="midnightblue" stroke="midnightblue" points="408.37,-79.6076 398.47,-75.8339 403.856,-84.9577 408.37,-79.6076"/>
</g>
<!-- Node11&#45;&gt;Node5 -->
<g id="edge13" class="edge"><title>Node11&#45;&gt;Node5</title>
<path fill="none" stroke="midnightblue" d="M367.718,-56.4435C346.653,-47.5566 313.483,-33.5632 289.514,-23.4514"/>
<polygon fill="midnightblue" stroke="midnightblue" points="290.761,-20.1787 280.187,-19.5164 288.04,-26.6283 290.761,-20.1787"/>
</g>
<!-- Node12&#45;&gt;Node5 -->
<g id="edge15" class="edge"><title>Node12&#45;&gt;Node5</title>
<path fill="none" stroke="midnightblue" d="M263.686,-112.368C263.041,-94.617 261.552,-53.6664 260.676,-29.5974"/>
<polygon fill="midnightblue" stroke="midnightblue" points="264.174,-29.4576 260.312,-19.5914 257.178,-29.712 264.174,-29.4576"/>
</g>
<!-- Node13&#45;&gt;Node4 -->
<g id="edge17" class="edge"><title>Node13&#45;&gt;Node4</title>
<path fill="none" stroke="midnightblue" d="M683.807,-168.342C707.379,-156.757 741.804,-134.991 727,-112 712.552,-89.5624 683.877,-78.1835 661.09,-72.4917"/>
<polygon fill="midnightblue" stroke="midnightblue" points="661.63,-69.0261 651.107,-70.2575 660.101,-75.8571 661.63,-69.0261"/>
</g>
<!-- Node14 -->
<g id="node14" class="node"><title>Node14</title>
<polygon fill="none" stroke="#bfbfbf" points="596,-112.5 596,-131.5 646,-131.5 646,-112.5 596,-112.5"/>
<text text-anchor="middle" x="621" y="-119.5" font-family="Helvetica,sans-Serif" font-size="10.00">iomanip</text>
</g>
<!-- Node13&#45;&gt;Node14 -->
<g id="edge18" class="edge"><title>Node13&#45;&gt;Node14</title>
<path fill="none" stroke="midnightblue" d="M656.899,-168.083C650.763,-160.377 641.73,-149.033 634.261,-139.653"/>
<polygon fill="midnightblue" stroke="midnightblue" points="636.936,-137.394 627.968,-131.751 631.46,-141.754 636.936,-137.394"/>
</g>
<!-- Node15 -->
<g id="node15" class="node"><title>Node15</title>
<polygon fill="none" stroke="#bfbfbf" points="664,-112.5 664,-131.5 718,-131.5 718,-112.5 664,-112.5"/>
<text text-anchor="middle" x="691" y="-119.5" font-family="Helvetica,sans-Serif" font-size="10.00">iostream</text>
</g>
<!-- Node13&#45;&gt;Node15 -->
<g id="edge19" class="edge"><title>Node13&#45;&gt;Node15</title>
<path fill="none" stroke="midnightblue" d="M668.459,-168.083C672.154,-160.691 677.523,-149.953 682.094,-140.811"/>
<polygon fill="midnightblue" stroke="midnightblue" points="685.283,-142.261 686.624,-131.751 679.022,-139.13 685.283,-142.261"/>
</g>
<!-- Node18&#45;&gt;Node5 -->
<g id="edge28" class="edge"><title>Node18&#45;&gt;Node5</title>
<path fill="none" stroke="midnightblue" d="M113.393,-224.311C108.116,-190.951 99.8433,-106.542 140,-56 161.601,-28.8127 201.461,-18.0496 229.291,-13.7894"/>
<polygon fill="midnightblue" stroke="midnightblue" points="229.855,-17.2453 239.305,-12.4544 228.93,-10.3067 229.855,-17.2453"/>
</g>
<!-- Node19 -->
<g id="node19" class="node"><title>Node19</title>
<polygon fill="none" stroke="#bfbfbf" points="28.5,-168.5 28.5,-187.5 87.5,-187.5 87.5,-168.5 28.5,-168.5"/>
<text text-anchor="middle" x="58" y="-175.5" font-family="Helvetica,sans-Serif" font-size="10.00">exception</text>
</g>
<!-- Node18&#45;&gt;Node19 -->
<g id="edge27" class="edge"><title>Node18&#45;&gt;Node19</title>
<path fill="none" stroke="midnightblue" d="M102.255,-224.399C93.6529,-215.575 82.5479,-204.183 73.614,-195.018"/>
<polygon fill="midnightblue" stroke="midnightblue" points="75.926,-192.375 66.4395,-187.658 70.9135,-197.262 75.926,-192.375"/>
</g>
</g>
</svg>
        <g id="navigator" transform="translate(0 0)" fill="#404254">
                <rect fill="#f2f5e9" fill-opacity="0.5" stroke="#606060" stroke-width=".5" x="0" y="0" width="60" height="60"/>
                <use id="zoomplus" xlink:href="#zoomPlus" x="17" y="9" onmousedown="handleZoom(evt,'in')"/>
                <use id="zoomminus" xlink:href="#zoomMin" x="42" y="9" onmousedown="handleZoom(evt,'out')"/>
                <use id="reset" xlink:href="#resetDef" x="30" y="36" onmousedown="handleReset()"/>
                <g id="arrowUp" xlink:href="#dirArrow" transform="translate(30 24)" onmousedown="handlePan(0,-1)">
                  <use xlink:href="#rim" fill="#404040">
                        <set attributeName="fill" to="#808080" begin="arrowUp.mouseover" end="arrowUp.mouseout"/>
                  </use>
                  <path fill="none" stroke="white" stroke-width="1.5" d="M0,-3.0v7 M-2.5,-0.5L0,-3.0L2.5,-0.5"/>
                </g>
                <g id="arrowRight" xlink:href="#dirArrow" transform="rotate(90) translate(36 -43)" onmousedown="handlePan(1,0)">
                  <use xlink:href="#rim" fill="#404040">
                        <set attributeName="fill" to="#808080" begin="arrowRight.mouseover" end="arrowRight.mouseout"/>
                  </use>
                  <path fill="none" stroke="white" stroke-width="1.5" d="M0,-3.0v7 M-2.5,-0.5L0,-3.0L2.5,-0.5"/>
                </g>
                <g id="arrowDown" xlink:href="#dirArrow" transform="rotate(180) translate(-30 -48)" onmousedown="handlePan(0,1)">
                  <use xlink:href="#rim" fill="#404040">
                        <set attributeName="fill" to="#808080" begin="arrowDown.mouseover" end="arrowDown.mouseout"/>
                  </use>
                  <path fill="none" stroke="white" stroke-width="1.5" d="M0,-3.0v7 M-2.5,-0.5L0,-3.0L2.5,-0.5"/>
                </g>
                <g id="arrowLeft" xlink:href="#dirArrow" transform="rotate(270) translate(-36 17)" onmousedown="handlePan(-1,0)">
                  <use xlink:href="#rim" fill="#404040">
                        <set attributeName="fill" to="#808080" begin="arrowLeft.mouseover" end="arrowLeft.mouseout"/>
                  </use>
                  <path fill="none" stroke="white" stroke-width="1.5" d="M0,-3.0v7 M-2.5,-0.5L0,-3.0L2.5,-0.5"/>
                </g>
        </g>
        <svg viewBox="0 0 15 15" width="100%" height="30px" preserveAspectRatio="xMaxYMin meet">
         <g id="arrow_out" transform="scale(0.3 0.3)">
          <a xlink:href="InfluxDB_8cxx__incl_org.svg" target="_base">
           <rect id="button" ry="5" rx="5" y="6" x="6" height="38" width="38"
                fill="#f2f5e9" fill-opacity="0.5" stroke="#606060" stroke-width="1.0"/>
           <path id="arrow"
             d="M 11.500037,31.436501 C 11.940474,20.09759 22.043105,11.32322 32.158766,21.979434 L 37.068811,17.246167 C 37.068811,17.246167 37.088388,32 37.088388,32 L 22.160133,31.978069 C 22.160133,31.978069 26.997745,27.140456 26.997745,27.140456 C 18.528582,18.264221 13.291696,25.230495 11.500037,31.436501 z"
             style="fill:#404040;"/>
          </a>
         </g>
        </svg>
</svg>
