<?xml version="1.0" encoding="UTF-8" standalone="no"?>
<!DOCTYPE svg PUBLIC "-//W3C//DTD SVG 1.1//EN"
 "http://www.w3.org/Graphics/SVG/1.1/DTD/svg11.dtd">
<!-- Generated by graphviz version 2.38.0 (20140413.2041)
 -->
<!-- Title: Graphical Class Hierarchy Pages: 1 -->
<svg width="292pt" height="186pt"
 viewBox="0.00 0.00 292.00 186.00" xmlns="http://www.w3.org/2000/svg" xmlns:xlink="http://www.w3.org/1999/xlink">
<g id="graph0" class="graph" transform="scale(1 1) rotate(0) translate(4 182)">
<title>Graphical Class Hierarchy</title>
<!-- Node1 -->
<g id="node1" class="node"><title>Node1</title>
<g id="a_node1"><a xlink:href="classo2_1_1monitoring_1_1Backend.html" target="_top" xlink:title="Backend pure virtual interface. ">
<polygon fill="none" stroke="black" points="0,-79 0,-98 122,-98 122,-79 0,-79"/>
<text text-anchor="middle" x="61" y="-86" font-family="Helvetica,sans-Serif" font-size="10.00">o2::monitoring::Backend</text>
</a>
</g>
</g>
<!-- Node2 -->
<g id="node2" class="node"><title>Node2</title>
<g id="a_node2"><a xlink:href="classo2_1_1monitoring_1_1backends_1_1ApMonBackend.html" target="_top" xlink:title="Backend that uses AppMon (MonALISA) ">
<polygon fill="none" stroke="black" points="158,-147.5 158,-177.5 284,-177.5 284,-147.5 158,-147.5"/>
<text text-anchor="start" x="166" y="-165.5" font-family="Helvetica,sans-Serif" font-size="10.00">o2::monitoring::backends</text>
<text text-anchor="middle" x="221" y="-154.5" font-family="Helvetica,sans-Serif" font-size="10.00">::ApMonBackend</text>
</a>
</g>
</g>
<!-- Node1&#45;&gt;Node2 -->
<g id="edge1" class="edge"><title>Node1&#45;&gt;Node2</title>
<path fill="none" stroke="midnightblue" d="M88.0355,-103.06C107.13,-113.492 133.832,-127.569 158,-138.5 164.731,-141.544 171.971,-144.566 179.045,-147.387"/>
<polygon fill="midnightblue" stroke="midnightblue" points="89.5062,-99.8747 79.0579,-98.1184 86.1304,-106.007 89.5062,-99.8747"/>
</g>
<!-- Node3 -->
<g id="node3" class="node"><title>Node3</title>
<g id="a_node3"><a xlink:href="classo2_1_1monitoring_1_1backends_1_1InfluxDB.html" target="_top" xlink:title="Backend that sends metrics to InfluxDB time&#45;series databse. ">
<polygon fill="none" stroke="black" points="158,-98.5 158,-128.5 284,-128.5 284,-98.5 158,-98.5"/>
<text text-anchor="start" x="166" y="-116.5" font-family="Helvetica,sans-Serif" font-size="10.00">o2::monitoring::backends</text>
<text text-anchor="middle" x="221" y="-105.5" font-family="Helvetica,sans-Serif" font-size="10.00">::InfluxDB</text>
</a>
</g>
</g>
<!-- Node1&#45;&gt;Node3 -->
<g id="edge2" class="edge"><title>Node1&#45;&gt;Node3</title>
<path fill="none" stroke="midnightblue" d="M132.158,-99.6009C140.73,-100.957 149.443,-102.336 157.886,-103.672"/>
<polygon fill="midnightblue" stroke="midnightblue" points="132.608,-96.1287 122.184,-98.0227 131.514,-103.043 132.608,-96.1287"/>
</g>
<!-- Node4 -->
<g id="node4" class="node"><title>Node4</title>
<g id="a_node4"><a xlink:href="classo2_1_1monitoring_1_1backends_1_1Noop.html" target="_top" xlink:title="No&#45;op backend. ">
<polygon fill="none" stroke="black" points="158,-49.5 158,-79.5 284,-79.5 284,-49.5 158,-49.5"/>
<text text-anchor="start" x="166" y="-67.5" font-family="Helvetica,sans-Serif" font-size="10.00">o2::monitoring::backends</text>
<text text-anchor="middle" x="221" y="-56.5" font-family="Helvetica,sans-Serif" font-size="10.00">::Noop</text>
</a>
</g>
</g>
<!-- Node1&#45;&gt;Node4 -->
<g id="edge3" class="edge"><title>Node1&#45;&gt;Node4</title>
<path fill="none" stroke="midnightblue" d="M132.158,-77.8432C140.73,-76.541 149.443,-75.2176 157.886,-73.9351"/>
<polygon fill="midnightblue" stroke="midnightblue" points="131.545,-74.396 122.184,-79.3582 132.596,-81.3166 131.545,-74.396"/>
</g>
<!-- Node5 -->
<g id="node5" class="node"><title>Node5</title>
<g id="a_node5"><a xlink:href="classo2_1_1monitoring_1_1backends_1_1StdOut.html" target="_top" xlink:title="Prints metrics to standard output via std::cout. ">
<polygon fill="none" stroke="black" points="158,-0.5 158,-30.5 284,-30.5 284,-0.5 158,-0.5"/>
<text text-anchor="start" x="166" y="-18.5" font-family="Helvetica,sans-Serif" font-size="10.00">o2::monitoring::backends</text>
<text text-anchor="middle" x="221" y="-7.5" font-family="Helvetica,sans-Serif" font-size="10.00">::StdOut</text>
</a>
</g>
</g>
<!-- Node1&#45;&gt;Node5 -->
<g id="edge4" class="edge"><title>Node1&#45;&gt;Node5</title>
<path fill="none" stroke="midnightblue" d="M89.2016,-74.1673C108.27,-64.301 134.457,-51.1117 158,-40.5 165.407,-37.1616 173.398,-33.7797 181.101,-30.6276"/>
<polygon fill="midnightblue" stroke="midnightblue" points="87.4484,-71.134 80.1933,-78.855 90.6798,-77.3435 87.4484,-71.134"/>
</g>
</g>
</svg>
