<?xml version="1.0" encoding="UTF-8" standalone="no"?>
<!DOCTYPE svg PUBLIC "-//W3C//DTD SVG 1.1//EN"
 "http://www.w3.org/Graphics/SVG/1.1/DTD/svg11.dtd">
<!-- Generated by graphviz version 2.38.0 (20140413.2041)
 -->
<!-- Title: Graphical Class Hierarchy Pages: 1 -->
<svg width="327pt" height="263pt"
 viewBox="0.00 0.00 327.00 263.00" xmlns="http://www.w3.org/2000/svg" xmlns:xlink="http://www.w3.org/1999/xlink">
<g id="graph0" class="graph" transform="scale(1 1) rotate(0) translate(4 259)">
<title>Graphical Class Hierarchy</title>
<!-- Node1 -->
<g id="node1" class="node"><title>Node1</title>
<g id="a_node1"><a xlink:href="classo2_1_1monitoring_1_1transports_1_1TransportInterface.html" target="_top" xlink:title="Transport interface for backends. ">
<polygon fill="none" stroke="black" points="0,-104.5 0,-134.5 128,-134.5 128,-104.5 0,-104.5"/>
<text text-anchor="start" x="8" y="-122.5" font-family="Helvetica,sans-Serif" font-size="10.00">o2::monitoring::transports</text>
<text text-anchor="middle" x="64" y="-111.5" font-family="Helvetica,sans-Serif" font-size="10.00">::TransportInterface</text>
</a>
</g>
</g>
<!-- Node2 -->
<g id="node2" class="node"><title>Node2</title>
<g id="a_node2"><a xlink:href="classo2_1_1monitoring_1_1transports_1_1HTTP.html" target="_top" xlink:title="HTTP POST transport. ">
<polygon fill="none" stroke="black" points="177.5,-224.5 177.5,-254.5 305.5,-254.5 305.5,-224.5 177.5,-224.5"/>
<text text-anchor="start" x="185.5" y="-242.5" font-family="Helvetica,sans-Serif" font-size="10.00">o2::monitoring::transports</text>
<text text-anchor="middle" x="241.5" y="-231.5" font-family="Helvetica,sans-Serif" font-size="10.00">::HTTP</text>
</a>
</g>
</g>
<!-- Node1&#45;&gt;Node2 -->
<g id="edge1" class="edge"><title>Node1&#45;&gt;Node2</title>
<path fill="none" stroke="midnightblue" d="M83.1838,-142.494C101.466,-164.182 131.531,-196.169 164,-215.5 169.741,-218.918 176.018,-221.898 182.43,-224.484"/>
<polygon fill="midnightblue" stroke="midnightblue" points="85.8405,-140.214 76.7733,-134.734 80.4438,-144.673 85.8405,-140.214"/>
</g>
<!-- Node3 -->
<g id="node3" class="node"><title>Node3</title>
<g id="a_node3"><a xlink:href="classo2_1_1monitoring_1_1transports_1_1Kafka.html" target="_top" xlink:title="Transport that sends string formatted metrics via Kafka. ">
<polygon fill="none" stroke="black" points="177.5,-175.5 177.5,-205.5 305.5,-205.5 305.5,-175.5 177.5,-175.5"/>
<text text-anchor="start" x="185.5" y="-193.5" font-family="Helvetica,sans-Serif" font-size="10.00">o2::monitoring::transports</text>
<text text-anchor="middle" x="241.5" y="-182.5" font-family="Helvetica,sans-Serif" font-size="10.00">::Kafka</text>
</a>
</g>
</g>
<!-- Node1&#45;&gt;Node3 -->
<g id="edge2" class="edge"><title>Node1&#45;&gt;Node3</title>
<path fill="none" stroke="midnightblue" d="M103.093,-139.111C121.271,-148.073 143.486,-158.458 164,-166.5 172.035,-169.65 180.665,-172.682 189.13,-175.468"/>
<polygon fill="midnightblue" stroke="midnightblue" points="104.497,-135.9 93.9856,-134.574 101.376,-142.166 104.497,-135.9"/>
</g>
<!-- Node4 -->
<g id="node4" class="node"><title>Node4</title>
<g id="a_node4"><a xlink:href="classo2_1_1monitoring_1_1transports_1_1StdOut.html" target="_top" xlink:title="Transport that sends string formatted metrics via StdOut. ">
<polygon fill="none" stroke="black" points="177.5,-126.5 177.5,-156.5 305.5,-156.5 305.5,-126.5 177.5,-126.5"/>
<text text-anchor="start" x="185.5" y="-144.5" font-family="Helvetica,sans-Serif" font-size="10.00">o2::monitoring::transports</text>
<text text-anchor="middle" x="241.5" y="-133.5" font-family="Helvetica,sans-Serif" font-size="10.00">::StdOut</text>
</a>
</g>
</g>
<!-- Node1&#45;&gt;Node4 -->
<g id="edge3" class="edge"><title>Node1&#45;&gt;Node4</title>
<path fill="none" stroke="midnightblue" d="M138.558,-128.721C151.414,-130.332 164.686,-131.996 177.233,-133.569"/>
<polygon fill="midnightblue" stroke="midnightblue" points="138.717,-125.214 128.36,-127.443 137.847,-132.159 138.717,-125.214"/>
</g>
<!-- Node5 -->
<g id="node5" class="node"><title>Node5</title>
<g id="a_node5"><a xlink:href="classo2_1_1monitoring_1_1transports_1_1TCP.html" target="_top" xlink:title="Transport that sends string formatted metrics via TCP. ">
<polygon fill="none" stroke="black" points="164.5,-88 164.5,-107 318.5,-107 318.5,-88 164.5,-88"/>
<text text-anchor="middle" x="241.5" y="-95" font-family="Helvetica,sans-Serif" font-size="10.00">o2::monitoring::transports::TCP</text>
</a>
</g>
</g>
<!-- Node1&#45;&gt;Node5 -->
<g id="edge4" class="edge"><title>Node1&#45;&gt;Node5</title>
<path fill="none" stroke="midnightblue" d="M138.431,-110.295C147.103,-109.208 155.967,-108.097 164.671,-107.006"/>
<polygon fill="midnightblue" stroke="midnightblue" points="137.847,-106.841 128.36,-111.557 138.717,-113.786 137.847,-106.841"/>
</g>
<!-- Node6 -->
<g id="node6" class="node"><title>Node6</title>
<g id="a_node6"><a xlink:href="classo2_1_1monitoring_1_1transports_1_1UDP.html" target="_top" xlink:title="Transport that sends string formatted metrics via UDP. ">
<polygon fill="none" stroke="black" points="164,-50 164,-69 319,-69 319,-50 164,-50"/>
<text text-anchor="middle" x="241.5" y="-57" font-family="Helvetica,sans-Serif" font-size="10.00">o2::monitoring::transports::UDP</text>
</a>
</g>
</g>
<!-- Node1&#45;&gt;Node6 -->
<g id="edge5" class="edge"><title>Node1&#45;&gt;Node6</title>
<path fill="none" stroke="midnightblue" d="M107.281,-100.359C124.636,-92.9322 145.065,-84.7336 164,-78.5 174.659,-74.991 186.338,-71.7805 197.291,-69.0374"/>
<polygon fill="midnightblue" stroke="midnightblue" points="105.769,-97.1996 97.9852,-104.388 108.552,-103.622 105.769,-97.1996"/>
</g>
<!-- Node7 -->
<g id="node7" class="node"><title>Node7</title>
<g id="a_node7"><a xlink:href="classo2_1_1monitoring_1_1transports_1_1Unix.html" target="_top" xlink:title="Transport that sends string formatted metrics via Unix datagram socket. ">
<polygon fill="none" stroke="black" points="177.5,-0.5 177.5,-30.5 305.5,-30.5 305.5,-0.5 177.5,-0.5"/>
<text text-anchor="start" x="185.5" y="-18.5" font-family="Helvetica,sans-Serif" font-size="10.00">o2::monitoring::transports</text>
<text text-anchor="middle" x="241.5" y="-7.5" font-family="Helvetica,sans-Serif" font-size="10.00">::Unix</text>
</a>
</g>
</g>
<!-- Node1&#45;&gt;Node7 -->
<g id="edge6" class="edge"><title>Node1&#45;&gt;Node7</title>
<path fill="none" stroke="midnightblue" d="M87.7479,-97.3876C106.793,-79.8997 135.382,-55.9372 164,-40.5 170.887,-36.7853 178.421,-33.4994 185.99,-30.6326"/>
<polygon fill="midnightblue" stroke="midnightblue" points="85.1151,-95.0575 80.198,-104.442 89.8942,-100.172 85.1151,-95.0575"/>
</g>
</g>
</svg>
