<?xml version="1.0" encoding="UTF-8" standalone="no"?>
<!DOCTYPE svg PUBLIC "-//W3C//DTD SVG 1.1//EN"
 "http://www.w3.org/Graphics/SVG/1.1/DTD/svg11.dtd">
<!-- Generated by graphviz version 2.38.0 (20140413.2041)
 -->
<!-- Title: Graphical Class Hierarchy Pages: 1 -->
<svg width="199pt" height="78pt"
 viewBox="0.00 0.00 199.00 77.50" xmlns="http://www.w3.org/2000/svg" xmlns:xlink="http://www.w3.org/1999/xlink">
<g id="graph0" class="graph" transform="scale(1 1) rotate(0) translate(4 73.5)">
<title>Graphical Class Hierarchy</title>
<!-- Node1 -->
<g id="node1" class="node"><title>Node1</title>
<g id="a_node1"><a xlink:href="classo2_1_1monitoring_1_1backends_1_1Ts.html" target="_top" xlink:title="Ts">
<polygon fill="none" stroke="black" points="0,-22.5 0,-41.5 29,-41.5 29,-22.5 0,-22.5"/>
<text text-anchor="middle" x="14.5" y="-29.5" font-family="Helvetica,sans-Serif" font-size="10.00">Ts</text>
</a>
</g>
</g>
<!-- Node2 -->
<g id="node2" class="node"><title>Node2</title>
<g id="a_node2"><a xlink:href="structo2_1_1monitoring_1_1backends_1_1overloaded.html" target="_top" xlink:title="o2::monitoring::backends\l::overloaded\&lt; Ts \&gt;">
<polygon fill="none" stroke="black" points="65,-39 65,-69 191,-69 191,-39 65,-39"/>
<text text-anchor="start" x="73" y="-57" font-family="Helvetica,sans-Serif" font-size="10.00">o2::monitoring::backends</text>
<text text-anchor="middle" x="128" y="-46" font-family="Helvetica,sans-Serif" font-size="10.00">::overloaded&lt; Ts &gt;</text>
</a>
</g>
</g>
<!-- Node1&#45;&gt;Node2 -->
<g id="edge1" class="edge"><title>Node1&#45;&gt;Node2</title>
<path fill="none" stroke="midnightblue" d="M39.0887,-36.6543C46.7586,-38.1676 55.6627,-39.9245 64.8011,-41.7276"/>
<polygon fill="midnightblue" stroke="midnightblue" points="39.6605,-33.1997 29.1721,-34.6976 38.3054,-40.0673 39.6605,-33.1997"/>
</g>
<!-- Node3 -->
<g id="node3" class="node"><title>Node3</title>
<g id="a_node3"><a xlink:href="structoverloaded.html" target="_top" xlink:title="overloaded\&lt; Ts \&gt;">
<polygon fill="none" stroke="black" points="81.5,-0.5 81.5,-19.5 174.5,-19.5 174.5,-0.5 81.5,-0.5"/>
<text text-anchor="middle" x="128" y="-7.5" font-family="Helvetica,sans-Serif" font-size="10.00">overloaded&lt; Ts &gt;</text>
</a>
</g>
</g>
<!-- Node1&#45;&gt;Node3 -->
<g id="edge2" class="edge"><title>Node1&#45;&gt;Node3</title>
<path fill="none" stroke="midnightblue" d="M39.0505,-27.3533C51.3396,-24.9285 66.8051,-21.877 81.327,-19.0117"/>
<polygon fill="midnightblue" stroke="midnightblue" points="38.3054,-23.9327 29.1721,-29.3024 39.6605,-30.8003 38.3054,-23.9327"/>
</g>
</g>
</svg>
