<?xml version="1.0" encoding="UTF-8" standalone="no"?>
<!DOCTYPE svg PUBLIC "-//W3C//DTD SVG 1.1//EN"
 "http://www.w3.org/Graphics/SVG/1.1/DTD/svg11.dtd">
<!-- Generated by graphviz version 2.38.0 (20140413.2041)
 -->
<!-- Title: /home/travis/build/AliceO2Group/Monitoring/src/Transports/Kafka.cxx Pages: 1 -->
<svg width="851pt" height="218pt"
 viewBox="0.00 0.00 851.23 218.00" xmlns="http://www.w3.org/2000/svg" xmlns:xlink="http://www.w3.org/1999/xlink">
<g id="graph0" class="graph" transform="scale(1 1) rotate(0) translate(4 214)">
<title>/home/travis/build/AliceO2Group/Monitoring/src/Transports/Kafka.cxx</title>
<!-- Node1 -->
<g id="node1" class="node"><title>Node1</title>
<polygon fill="#bfbfbf" stroke="black" points="312.229,-168.5 312.229,-209.5 442.229,-209.5 442.229,-168.5 312.229,-168.5"/>
<text text-anchor="start" x="320.229" y="-197.5" font-family="Helvetica,sans-Serif" font-size="10.00">/home/travis/build</text>
<text text-anchor="start" x="320.229" y="-186.5" font-family="Helvetica,sans-Serif" font-size="10.00">/AliceO2Group/Monitoring</text>
<text text-anchor="middle" x="377.229" y="-175.5" font-family="Helvetica,sans-Serif" font-size="10.00">/src/Transports/Kafka.cxx</text>
</g>
<!-- Node2 -->
<g id="node2" class="node"><title>Node2</title>
<g id="a_node2"><a xlink:href="Kafka_8h.html" target="_top" xlink:title="Kafka.h">
<polygon fill="none" stroke="black" points="352.229,-112.5 352.229,-131.5 402.229,-131.5 402.229,-112.5 352.229,-112.5"/>
<text text-anchor="middle" x="377.229" y="-119.5" font-family="Helvetica,sans-Serif" font-size="10.00">Kafka.h</text>
</a>
</g>
</g>
<!-- Node1&#45;&gt;Node2 -->
<g id="edge1" class="edge"><title>Node1&#45;&gt;Node2</title>
<path fill="none" stroke="midnightblue" d="M377.229,-168.498C377.229,-160.065 377.229,-150.235 377.229,-141.874"/>
<polygon fill="midnightblue" stroke="midnightblue" points="380.729,-141.652 377.229,-131.652 373.729,-141.653 380.729,-141.652"/>
</g>
<!-- Node4 -->
<g id="node4" class="node"><title>Node4</title>
<polygon fill="none" stroke="#bfbfbf" points="286.729,-0.5 286.729,-19.5 327.729,-19.5 327.729,-0.5 286.729,-0.5"/>
<text text-anchor="middle" x="307.229" y="-7.5" font-family="Helvetica,sans-Serif" font-size="10.00">string</text>
</g>
<!-- Node1&#45;&gt;Node4 -->
<g id="edge10" class="edge"><title>Node1&#45;&gt;Node4</title>
<path fill="none" stroke="midnightblue" d="M312.147,-177.914C215.413,-161.444 41.1022,-125.571 4.22899,-76 -1.07618,-68.8679 -1.5764,-62.7313 4.22899,-56 39.1763,-15.4792 206.408,-10.857 276.36,-10.7338"/>
<polygon fill="midnightblue" stroke="midnightblue" points="276.711,-14.2342 286.716,-10.7479 276.721,-7.23422 276.711,-14.2342"/>
</g>
<!-- Node10 -->
<g id="node10" class="node"><title>Node10</title>
<g id="a_node10"><a xlink:href="MonLogger_8h.html" target="_top" xlink:title="../MonLogger.h">
<polygon fill="none" stroke="black" points="672.229,-112.5 672.229,-131.5 754.229,-131.5 754.229,-112.5 672.229,-112.5"/>
<text text-anchor="middle" x="713.229" y="-119.5" font-family="Helvetica,sans-Serif" font-size="10.00">../MonLogger.h</text>
</a>
</g>
</g>
<!-- Node1&#45;&gt;Node10 -->
<g id="edge11" class="edge"><title>Node1&#45;&gt;Node10</title>
<path fill="none" stroke="midnightblue" d="M442.412,-175.39C506.503,-162.992 603.033,-144.318 661.872,-132.935"/>
<polygon fill="midnightblue" stroke="midnightblue" points="662.894,-136.302 672.047,-130.967 661.564,-129.43 662.894,-136.302"/>
</g>
<!-- Node3 -->
<g id="node3" class="node"><title>Node3</title>
<g id="a_node3"><a xlink:href="TransportInterface_8h.html" target="_top" xlink:title="TransportInterface.h">
<polygon fill="none" stroke="black" points="535.229,-56.5 535.229,-75.5 639.229,-75.5 639.229,-56.5 535.229,-56.5"/>
<text text-anchor="middle" x="587.229" y="-63.5" font-family="Helvetica,sans-Serif" font-size="10.00">TransportInterface.h</text>
</a>
</g>
</g>
<!-- Node2&#45;&gt;Node3 -->
<g id="edge2" class="edge"><title>Node2&#45;&gt;Node3</title>
<path fill="none" stroke="midnightblue" d="M402.56,-114.486C437.604,-105.475 501.372,-89.0775 544.023,-78.1102"/>
<polygon fill="midnightblue" stroke="midnightblue" points="545.035,-81.4639 553.848,-75.5837 543.291,-74.6845 545.035,-81.4639"/>
</g>
<!-- Node2&#45;&gt;Node4 -->
<g id="edge8" class="edge"><title>Node2&#45;&gt;Node4</title>
<path fill="none" stroke="midnightblue" d="M363.583,-112.254C352.03,-104.172 335.855,-91.1484 326.229,-76 317.263,-61.891 312.395,-43.4029 309.84,-29.7527"/>
<polygon fill="midnightblue" stroke="midnightblue" points="313.253,-28.9373 308.197,-19.6267 306.343,-30.0581 313.253,-28.9373"/>
</g>
<!-- Node5 -->
<g id="node5" class="node"><title>Node5</title>
<polygon fill="none" stroke="#bfbfbf" points="335.229,-56.5 335.229,-75.5 419.229,-75.5 419.229,-56.5 335.229,-56.5"/>
<text text-anchor="middle" x="377.229" y="-63.5" font-family="Helvetica,sans-Serif" font-size="10.00">boost/array.hpp</text>
</g>
<!-- Node2&#45;&gt;Node5 -->
<g id="edge4" class="edge"><title>Node2&#45;&gt;Node5</title>
<path fill="none" stroke="midnightblue" d="M377.229,-112.083C377.229,-105.006 377.229,-94.8611 377.229,-85.9865"/>
<polygon fill="midnightblue" stroke="midnightblue" points="380.729,-85.751 377.229,-75.7511 373.729,-85.7511 380.729,-85.751"/>
</g>
<!-- Node6 -->
<g id="node6" class="node"><title>Node6</title>
<polygon fill="none" stroke="#bfbfbf" points="437.229,-56.5 437.229,-75.5 517.229,-75.5 517.229,-56.5 437.229,-56.5"/>
<text text-anchor="middle" x="477.229" y="-63.5" font-family="Helvetica,sans-Serif" font-size="10.00">boost/asio.hpp</text>
</g>
<!-- Node2&#45;&gt;Node6 -->
<g id="edge5" class="edge"><title>Node2&#45;&gt;Node6</title>
<path fill="none" stroke="midnightblue" d="M393.296,-112.324C409.187,-103.743 433.736,-90.486 452.187,-80.5224"/>
<polygon fill="midnightblue" stroke="midnightblue" points="454.066,-83.4857 461.202,-75.6545 450.74,-77.3264 454.066,-83.4857"/>
</g>
<!-- Node7 -->
<g id="node7" class="node"><title>Node7</title>
<polygon fill="none" stroke="#bfbfbf" points="13.729,-56.5 13.729,-75.5 142.729,-75.5 142.729,-56.5 13.729,-56.5"/>
<text text-anchor="middle" x="78.229" y="-63.5" font-family="Helvetica,sans-Serif" font-size="10.00">boost/algorithm/string.hpp</text>
</g>
<!-- Node2&#45;&gt;Node7 -->
<g id="edge6" class="edge"><title>Node2&#45;&gt;Node7</title>
<path fill="none" stroke="midnightblue" d="M351.994,-116.443C304.485,-107.862 200.681,-89.1151 135.425,-77.3298"/>
<polygon fill="midnightblue" stroke="midnightblue" points="135.76,-73.8337 125.298,-75.5007 134.516,-80.7223 135.76,-73.8337"/>
</g>
<!-- Node8 -->
<g id="node8" class="node"><title>Node8</title>
<polygon fill="none" stroke="#bfbfbf" points="657.229,-56.5 657.229,-75.5 703.229,-75.5 703.229,-56.5 657.229,-56.5"/>
<text text-anchor="middle" x="680.229" y="-63.5" font-family="Helvetica,sans-Serif" font-size="10.00">chrono</text>
</g>
<!-- Node2&#45;&gt;Node8 -->
<g id="edge7" class="edge"><title>Node2&#45;&gt;Node8</title>
<path fill="none" stroke="midnightblue" d="M402.439,-117.755C448.945,-111.568 551.509,-96.9892 647.067,-76.0628"/>
<polygon fill="midnightblue" stroke="midnightblue" points="647.881,-79.4675 656.885,-73.8844 646.365,-72.6337 647.881,-79.4675"/>
</g>
<!-- Node9 -->
<g id="node9" class="node"><title>Node9</title>
<polygon fill="none" stroke="#bfbfbf" points="161.229,-56.5 161.229,-75.5 279.229,-75.5 279.229,-56.5 161.229,-56.5"/>
<text text-anchor="middle" x="220.229" y="-63.5" font-family="Helvetica,sans-Serif" font-size="10.00">librdkafka/rdkafkacpp.h</text>
</g>
<!-- Node2&#45;&gt;Node9 -->
<g id="edge9" class="edge"><title>Node2&#45;&gt;Node9</title>
<path fill="none" stroke="midnightblue" d="M352.352,-112.444C325.94,-103.359 284.014,-88.9388 254.487,-78.7831"/>
<polygon fill="midnightblue" stroke="midnightblue" points="255.584,-75.4593 244.99,-75.5164 253.308,-82.0787 255.584,-75.4593"/>
</g>
<!-- Node3&#45;&gt;Node4 -->
<g id="edge3" class="edge"><title>Node3&#45;&gt;Node4</title>
<path fill="none" stroke="midnightblue" d="M542.862,-56.4435C485.684,-45.4164 387.74,-26.5272 338.064,-16.9468"/>
<polygon fill="midnightblue" stroke="midnightblue" points="338.426,-13.4522 327.944,-14.9951 337.1,-20.3255 338.426,-13.4522"/>
</g>
<!-- Node10&#45;&gt;Node8 -->
<g id="edge12" class="edge"><title>Node10&#45;&gt;Node8</title>
<path fill="none" stroke="midnightblue" d="M707.78,-112.083C703.215,-104.613 696.561,-93.7244 690.936,-84.5199"/>
<polygon fill="midnightblue" stroke="midnightblue" points="693.778,-82.4588 685.577,-75.7511 687.805,-86.109 693.778,-82.4588"/>
</g>
<!-- Node11 -->
<g id="node11" class="node"><title>Node11</title>
<polygon fill="none" stroke="#bfbfbf" points="721.229,-56.5 721.229,-75.5 771.229,-75.5 771.229,-56.5 721.229,-56.5"/>
<text text-anchor="middle" x="746.229" y="-63.5" font-family="Helvetica,sans-Serif" font-size="10.00">iomanip</text>
</g>
<!-- Node10&#45;&gt;Node11 -->
<g id="edge13" class="edge"><title>Node10&#45;&gt;Node11</title>
<path fill="none" stroke="midnightblue" d="M718.678,-112.083C723.243,-104.613 729.897,-93.7244 735.522,-84.5199"/>
<polygon fill="midnightblue" stroke="midnightblue" points="738.653,-86.109 740.881,-75.7511 732.68,-82.4588 738.653,-86.109"/>
</g>
<!-- Node12 -->
<g id="node12" class="node"><title>Node12</title>
<polygon fill="none" stroke="#bfbfbf" points="789.229,-56.5 789.229,-75.5 843.229,-75.5 843.229,-56.5 789.229,-56.5"/>
<text text-anchor="middle" x="816.229" y="-63.5" font-family="Helvetica,sans-Serif" font-size="10.00">iostream</text>
</g>
<!-- Node10&#45;&gt;Node12 -->
<g id="edge14" class="edge"><title>Node10&#45;&gt;Node12</title>
<path fill="none" stroke="midnightblue" d="M729.778,-112.324C746.221,-103.703 771.664,-90.3643 790.697,-80.3855"/>
<polygon fill="midnightblue" stroke="midnightblue" points="792.49,-83.3977 799.721,-75.6545 789.24,-77.198 792.49,-83.3977"/>
</g>
</g>
</svg>
