<?xml version="1.0" encoding="UTF-8" standalone="no"?>
<!DOCTYPE svg PUBLIC "-//W3C//DTD SVG 1.1//EN"
 "http://www.w3.org/Graphics/SVG/1.1/DTD/svg11.dtd">
<!-- Generated by graphviz version 2.38.0 (20140413.2041)
 -->
<!-- Title: /home/travis/build/AliceO2Group/Monitoring/include/Monitoring/Metric.h Pages: 1 -->
<svg width="2522pt" height="373pt"
 viewBox="0.00 0.00 2522.00 373.00" xmlns="http://www.w3.org/2000/svg" xmlns:xlink="http://www.w3.org/1999/xlink">
<g id="graph0" class="graph" transform="scale(1 1) rotate(0) translate(4 369)">
<title>/home/travis/build/AliceO2Group/Monitoring/include/Monitoring/Metric.h</title>
<!-- Node1 -->
<g id="node1" class="node"><title>Node1</title>
<polygon fill="#bfbfbf" stroke="black" points="1529,-323.5 1529,-364.5 1666,-364.5 1666,-323.5 1529,-323.5"/>
<text text-anchor="start" x="1537" y="-352.5" font-family="Helvetica,sans-Serif" font-size="10.00">/home/travis/build</text>
<text text-anchor="start" x="1537" y="-341.5" font-family="Helvetica,sans-Serif" font-size="10.00">/AliceO2Group/Monitoring</text>
<text text-anchor="middle" x="1597.5" y="-330.5" font-family="Helvetica,sans-Serif" font-size="10.00">/include/Monitoring/Metric.h</text>
</g>
<!-- Node2 -->
<g id="node2" class="node"><title>Node2</title>
<g id="a_node2"><a xlink:href="Backend_8h.html" target="_top" xlink:title="/home/travis/build\l/AliceO2Group/Monitoring\l/include/Monitoring/Backend.h">
<polygon fill="none" stroke="black" points="556.5,-245.5 556.5,-286.5 704.5,-286.5 704.5,-245.5 556.5,-245.5"/>
<text text-anchor="start" x="564.5" y="-274.5" font-family="Helvetica,sans-Serif" font-size="10.00">/home/travis/build</text>
<text text-anchor="start" x="564.5" y="-263.5" font-family="Helvetica,sans-Serif" font-size="10.00">/AliceO2Group/Monitoring</text>
<text text-anchor="middle" x="630.5" y="-252.5" font-family="Helvetica,sans-Serif" font-size="10.00">/include/Monitoring/Backend.h</text>
</a>
</g>
</g>
<!-- Node1&#45;&gt;Node2 -->
<g id="edge1" class="edge"><title>Node1&#45;&gt;Node2</title>
<path fill="none" stroke="midnightblue" d="M1518.63,-336.801C1335.37,-322.398 882.884,-286.836 704.501,-272.816"/>
<polygon fill="midnightblue" stroke="midnightblue" points="1518.49,-340.301 1528.73,-337.595 1519.04,-333.322 1518.49,-340.301"/>
</g>
<!-- Node30 -->
<g id="node30" class="node"><title>Node30</title>
<g id="a_node30"><a xlink:href="DerivedMetrics_8h.html" target="_top" xlink:title="/home/travis/build\l/AliceO2Group/Monitoring\l/include/Monitoring/DerivedMetrics.h">
<polygon fill="none" stroke="black" points="1509.5,-245.5 1509.5,-286.5 1685.5,-286.5 1685.5,-245.5 1509.5,-245.5"/>
<text text-anchor="start" x="1517.5" y="-274.5" font-family="Helvetica,sans-Serif" font-size="10.00">/home/travis/build</text>
<text text-anchor="start" x="1517.5" y="-263.5" font-family="Helvetica,sans-Serif" font-size="10.00">/AliceO2Group/Monitoring</text>
<text text-anchor="middle" x="1597.5" y="-252.5" font-family="Helvetica,sans-Serif" font-size="10.00">/include/Monitoring/DerivedMetrics.h</text>
</a>
</g>
</g>
<!-- Node1&#45;&gt;Node30 -->
<g id="edge32" class="edge"><title>Node1&#45;&gt;Node30</title>
<path fill="none" stroke="midnightblue" d="M1597.5,-313.297C1597.5,-304.301 1597.5,-294.653 1597.5,-286.506"/>
<polygon fill="midnightblue" stroke="midnightblue" points="1594,-313.428 1597.5,-323.428 1601,-313.428 1594,-313.428"/>
</g>
<!-- Node33 -->
<g id="node33" class="node"><title>Node33</title>
<g id="a_node33"><a xlink:href="ProcessMonitor_8h.html" target="_top" xlink:title="/home/travis/build\l/AliceO2Group/Monitoring\l/include/Monitoring/ProcessMonitor.h">
<polygon fill="none" stroke="black" points="1313.5,-245.5 1313.5,-286.5 1491.5,-286.5 1491.5,-245.5 1313.5,-245.5"/>
<text text-anchor="start" x="1321.5" y="-274.5" font-family="Helvetica,sans-Serif" font-size="10.00">/home/travis/build</text>
<text text-anchor="start" x="1321.5" y="-263.5" font-family="Helvetica,sans-Serif" font-size="10.00">/AliceO2Group/Monitoring</text>
<text text-anchor="middle" x="1402.5" y="-252.5" font-family="Helvetica,sans-Serif" font-size="10.00">/include/Monitoring/ProcessMonitor.h</text>
</a>
</g>
</g>
<!-- Node1&#45;&gt;Node33 -->
<g id="edge36" class="edge"><title>Node1&#45;&gt;Node33</title>
<path fill="none" stroke="midnightblue" d="M1537.84,-319.748C1510.54,-309.11 1478.56,-296.646 1452.55,-286.506"/>
<polygon fill="midnightblue" stroke="midnightblue" points="1536.69,-323.058 1547.28,-323.428 1539.24,-316.536 1536.69,-323.058"/>
</g>
<!-- Node35 -->
<g id="node35" class="node"><title>Node35</title>
<g id="a_node35"><a xlink:href="Metric_8cxx.html" target="_top" xlink:title="/home/travis/build\l/AliceO2Group/Monitoring\l/src/Metric.cxx">
<polygon fill="none" stroke="black" points="1703.5,-245.5 1703.5,-286.5 1831.5,-286.5 1831.5,-245.5 1703.5,-245.5"/>
<text text-anchor="start" x="1711.5" y="-274.5" font-family="Helvetica,sans-Serif" font-size="10.00">/home/travis/build</text>
<text text-anchor="start" x="1711.5" y="-263.5" font-family="Helvetica,sans-Serif" font-size="10.00">/AliceO2Group/Monitoring</text>
<text text-anchor="middle" x="1767.5" y="-252.5" font-family="Helvetica,sans-Serif" font-size="10.00">/src/Metric.cxx</text>
</a>
</g>
</g>
<!-- Node1&#45;&gt;Node35 -->
<g id="edge40" class="edge"><title>Node1&#45;&gt;Node35</title>
<path fill="none" stroke="midnightblue" d="M1650.45,-319.329C1674.04,-308.783 1701.48,-296.513 1723.87,-286.506"/>
<polygon fill="midnightblue" stroke="midnightblue" points="1648.98,-316.152 1641.28,-323.428 1651.84,-322.542 1648.98,-316.152"/>
</g>
<!-- Node36 -->
<g id="node36" class="node"><title>Node36</title>
<polygon fill="none" stroke="#bfbfbf" points="1849.5,-245.5 1849.5,-286.5 1977.5,-286.5 1977.5,-245.5 1849.5,-245.5"/>
<text text-anchor="start" x="1857.5" y="-274.5" font-family="Helvetica,sans-Serif" font-size="10.00">/home/travis/build</text>
<text text-anchor="start" x="1857.5" y="-263.5" font-family="Helvetica,sans-Serif" font-size="10.00">/AliceO2Group/Monitoring</text>
<text text-anchor="middle" x="1913.5" y="-252.5" font-family="Helvetica,sans-Serif" font-size="10.00">/test/testMetric.cxx</text>
</g>
<!-- Node1&#45;&gt;Node36 -->
<g id="edge41" class="edge"><title>Node1&#45;&gt;Node36</title>
<path fill="none" stroke="midnightblue" d="M1675.98,-325.77C1723.67,-315.087 1785.73,-300.808 1840.5,-287 1843.43,-286.261 1846.42,-285.494 1849.44,-284.709"/>
<polygon fill="midnightblue" stroke="midnightblue" points="1675.02,-322.397 1666.02,-327.994 1676.55,-329.229 1675.02,-322.397"/>
</g>
<!-- Node3 -->
<g id="node3" class="node"><title>Node3</title>
<g id="a_node3"><a xlink:href="Monitoring_8h.html" target="_top" xlink:title="/home/travis/build\l/AliceO2Group/Monitoring\l/include/Monitoring/Monitoring.h">
<polygon fill="none" stroke="black" points="1219,-167.5 1219,-208.5 1374,-208.5 1374,-167.5 1219,-167.5"/>
<text text-anchor="start" x="1227" y="-196.5" font-family="Helvetica,sans-Serif" font-size="10.00">/home/travis/build</text>
<text text-anchor="start" x="1227" y="-185.5" font-family="Helvetica,sans-Serif" font-size="10.00">/AliceO2Group/Monitoring</text>
<text text-anchor="middle" x="1296.5" y="-174.5" font-family="Helvetica,sans-Serif" font-size="10.00">/include/Monitoring/Monitoring.h</text>
</a>
</g>
</g>
<!-- Node2&#45;&gt;Node3 -->
<g id="edge2" class="edge"><title>Node2&#45;&gt;Node3</title>
<path fill="none" stroke="midnightblue" d="M714.951,-255.363C845.125,-240.508 1092.9,-212.233 1218.84,-197.862"/>
<polygon fill="midnightblue" stroke="midnightblue" points="714.178,-251.928 704.639,-256.54 714.971,-258.883 714.178,-251.928"/>
</g>
<!-- Node22 -->
<g id="node22" class="node"><title>Node22</title>
<g id="a_node22"><a xlink:href="ApMonBackend_8h.html" target="_top" xlink:title="/home/travis/build\l/AliceO2Group/Monitoring\l/src/Backends/ApMonBackend.h">
<polygon fill="none" stroke="black" points="633.5,-167.5 633.5,-208.5 793.5,-208.5 793.5,-167.5 633.5,-167.5"/>
<text text-anchor="start" x="641.5" y="-196.5" font-family="Helvetica,sans-Serif" font-size="10.00">/home/travis/build</text>
<text text-anchor="start" x="641.5" y="-185.5" font-family="Helvetica,sans-Serif" font-size="10.00">/AliceO2Group/Monitoring</text>
<text text-anchor="middle" x="713.5" y="-174.5" font-family="Helvetica,sans-Serif" font-size="10.00">/src/Backends/ApMonBackend.h</text>
</a>
</g>
</g>
<!-- Node2&#45;&gt;Node22 -->
<g id="edge21" class="edge"><title>Node2&#45;&gt;Node22</title>
<path fill="none" stroke="midnightblue" d="M659.45,-238.492C670.22,-228.629 682.236,-217.627 692.198,-208.506"/>
<polygon fill="midnightblue" stroke="midnightblue" points="656.886,-236.094 651.875,-245.428 661.613,-241.256 656.886,-236.094"/>
</g>
<!-- Node24 -->
<g id="node24" class="node"><title>Node24</title>
<g id="a_node24"><a xlink:href="InfluxDB_8h.html" target="_top" xlink:title="/home/travis/build\l/AliceO2Group/Monitoring\l/src/Backends/InfluxDB.h">
<polygon fill="none" stroke="black" points="337,-167.5 337,-208.5 466,-208.5 466,-167.5 337,-167.5"/>
<text text-anchor="start" x="345" y="-196.5" font-family="Helvetica,sans-Serif" font-size="10.00">/home/travis/build</text>
<text text-anchor="start" x="345" y="-185.5" font-family="Helvetica,sans-Serif" font-size="10.00">/AliceO2Group/Monitoring</text>
<text text-anchor="middle" x="401.5" y="-174.5" font-family="Helvetica,sans-Serif" font-size="10.00">/src/Backends/InfluxDB.h</text>
</a>
</g>
</g>
<!-- Node2&#45;&gt;Node24 -->
<g id="edge23" class="edge"><title>Node2&#45;&gt;Node24</title>
<path fill="none" stroke="midnightblue" d="M561.695,-242.165C529.368,-231.437 491.228,-218.779 460.273,-208.506"/>
<polygon fill="midnightblue" stroke="midnightblue" points="560.933,-245.6 571.527,-245.428 563.138,-238.956 560.933,-245.6"/>
</g>
<!-- Node26 -->
<g id="node26" class="node"><title>Node26</title>
<g id="a_node26"><a xlink:href="Noop_8h.html" target="_top" xlink:title="/home/travis/build\l/AliceO2Group/Monitoring\l/src/Backends/Noop.h">
<polygon fill="none" stroke="black" points="94.5,-167.5 94.5,-208.5 222.5,-208.5 222.5,-167.5 94.5,-167.5"/>
<text text-anchor="start" x="102.5" y="-196.5" font-family="Helvetica,sans-Serif" font-size="10.00">/home/travis/build</text>
<text text-anchor="start" x="102.5" y="-185.5" font-family="Helvetica,sans-Serif" font-size="10.00">/AliceO2Group/Monitoring</text>
<text text-anchor="middle" x="158.5" y="-174.5" font-family="Helvetica,sans-Serif" font-size="10.00">/src/Backends/Noop.h</text>
</a>
</g>
</g>
<!-- Node2&#45;&gt;Node26 -->
<g id="edge26" class="edge"><title>Node2&#45;&gt;Node26</title>
<path fill="none" stroke="midnightblue" d="M546.575,-251.487C453.826,-236.552 306.491,-212.829 222.571,-199.317"/>
<polygon fill="midnightblue" stroke="midnightblue" points="546.061,-254.949 556.491,-253.083 547.174,-248.038 546.061,-254.949"/>
</g>
<!-- Node28 -->
<g id="node28" class="node"><title>Node28</title>
<g id="a_node28"><a xlink:href="Backends_2StdOut_8h_source.html" target="_top" xlink:title="/home/travis/build\l/AliceO2Group/Monitoring\l/src/Backends/StdOut.h">
<polygon fill="none" stroke="black" points="484.5,-167.5 484.5,-208.5 612.5,-208.5 612.5,-167.5 484.5,-167.5"/>
<text text-anchor="start" x="492.5" y="-196.5" font-family="Helvetica,sans-Serif" font-size="10.00">/home/travis/build</text>
<text text-anchor="start" x="492.5" y="-185.5" font-family="Helvetica,sans-Serif" font-size="10.00">/AliceO2Group/Monitoring</text>
<text text-anchor="middle" x="548.5" y="-174.5" font-family="Helvetica,sans-Serif" font-size="10.00">/src/Backends/StdOut.h</text>
</a>
</g>
</g>
<!-- Node2&#45;&gt;Node28 -->
<g id="edge29" class="edge"><title>Node2&#45;&gt;Node28</title>
<path fill="none" stroke="midnightblue" d="M601.899,-238.492C591.258,-228.629 579.387,-217.627 569.545,-208.506"/>
<polygon fill="midnightblue" stroke="midnightblue" points="599.669,-241.197 609.383,-245.428 604.428,-236.063 599.669,-241.197"/>
</g>
<!-- Node4 -->
<g id="node4" class="node"><title>Node4</title>
<g id="a_node4"><a xlink:href="MonitoringFactory_8h.html" target="_top" xlink:title="/home/travis/build\l/AliceO2Group/Monitoring\l/include/Monitoring/Monitoring\lFactory.h">
<polygon fill="none" stroke="black" points="1082.5,-78.5 1082.5,-130.5 1228.5,-130.5 1228.5,-78.5 1082.5,-78.5"/>
<text text-anchor="start" x="1090.5" y="-118.5" font-family="Helvetica,sans-Serif" font-size="10.00">/home/travis/build</text>
<text text-anchor="start" x="1090.5" y="-107.5" font-family="Helvetica,sans-Serif" font-size="10.00">/AliceO2Group/Monitoring</text>
<text text-anchor="start" x="1090.5" y="-96.5" font-family="Helvetica,sans-Serif" font-size="10.00">/include/Monitoring/Monitoring</text>
<text text-anchor="middle" x="1155.5" y="-85.5" font-family="Helvetica,sans-Serif" font-size="10.00">Factory.h</text>
</a>
</g>
</g>
<!-- Node3&#45;&gt;Node4 -->
<g id="edge3" class="edge"><title>Node3&#45;&gt;Node4</title>
<path fill="none" stroke="midnightblue" d="M1253.9,-162.375C1236.49,-152.312 1216.37,-140.685 1198.88,-130.576"/>
<polygon fill="midnightblue" stroke="midnightblue" points="1252.32,-165.505 1262.73,-167.479 1255.82,-159.444 1252.32,-165.505"/>
</g>
<!-- Node21 -->
<g id="node21" class="node"><title>Node21</title>
<g id="a_node21"><a xlink:href="Monitoring_8cxx.html" target="_top" xlink:title="/home/travis/build\l/AliceO2Group/Monitoring\l/src/Monitoring.cxx">
<polygon fill="none" stroke="black" points="1246.5,-84 1246.5,-125 1374.5,-125 1374.5,-84 1246.5,-84"/>
<text text-anchor="start" x="1254.5" y="-113" font-family="Helvetica,sans-Serif" font-size="10.00">/home/travis/build</text>
<text text-anchor="start" x="1254.5" y="-102" font-family="Helvetica,sans-Serif" font-size="10.00">/AliceO2Group/Monitoring</text>
<text text-anchor="middle" x="1310.5" y="-91" font-family="Helvetica,sans-Serif" font-size="10.00">/src/Monitoring.cxx</text>
</a>
</g>
</g>
<!-- Node3&#45;&gt;Node21 -->
<g id="edge20" class="edge"><title>Node3&#45;&gt;Node21</title>
<path fill="none" stroke="midnightblue" d="M1301.58,-157.398C1303.44,-146.627 1305.48,-134.73 1307.14,-125.047"/>
<polygon fill="midnightblue" stroke="midnightblue" points="1298.13,-156.823 1299.89,-167.271 1305.03,-158.008 1298.13,-156.823"/>
</g>
<!-- Node5 -->
<g id="node5" class="node"><title>Node5</title>
<g id="a_node5"><a xlink:href="1-Basic_8cxx.html" target="_top" xlink:title="/home/travis/build\l/AliceO2Group/Monitoring\l/examples/1&#45;Basic.cxx">
<polygon fill="none" stroke="black" points="1395.5,-0.5 1395.5,-41.5 1523.5,-41.5 1523.5,-0.5 1395.5,-0.5"/>
<text text-anchor="start" x="1403.5" y="-29.5" font-family="Helvetica,sans-Serif" font-size="10.00">/home/travis/build</text>
<text text-anchor="start" x="1403.5" y="-18.5" font-family="Helvetica,sans-Serif" font-size="10.00">/AliceO2Group/Monitoring</text>
<text text-anchor="middle" x="1459.5" y="-7.5" font-family="Helvetica,sans-Serif" font-size="10.00">/examples/1&#45;Basic.cxx</text>
</a>
</g>
</g>
<!-- Node4&#45;&gt;Node5 -->
<g id="edge4" class="edge"><title>Node4&#45;&gt;Node5</title>
<path fill="none" stroke="midnightblue" d="M1238.44,-77.8064C1304.83,-59.7644 1323.49,-58.239 1386.5,-42 1389.43,-41.2457 1392.42,-40.4655 1395.44,-39.6702"/>
<polygon fill="midnightblue" stroke="midnightblue" points="1237.47,-74.4447 1228.75,-80.465 1239.32,-81.1954 1237.47,-74.4447"/>
</g>
<!-- Node6 -->
<g id="node6" class="node"><title>Node6</title>
<g id="a_node6"><a xlink:href="10-Buffering_8cxx.html" target="_top" xlink:title="/home/travis/build\l/AliceO2Group/Monitoring\l/examples/10&#45;Buffering.cxx">
<polygon fill="none" stroke="black" points="1541.5,-0.5 1541.5,-41.5 1677.5,-41.5 1677.5,-0.5 1541.5,-0.5"/>
<text text-anchor="start" x="1549.5" y="-29.5" font-family="Helvetica,sans-Serif" font-size="10.00">/home/travis/build</text>
<text text-anchor="start" x="1549.5" y="-18.5" font-family="Helvetica,sans-Serif" font-size="10.00">/AliceO2Group/Monitoring</text>
<text text-anchor="middle" x="1609.5" y="-7.5" font-family="Helvetica,sans-Serif" font-size="10.00">/examples/10&#45;Buffering.cxx</text>
</a>
</g>
</g>
<!-- Node4&#45;&gt;Node6 -->
<g id="edge5" class="edge"><title>Node4&#45;&gt;Node6</title>
<path fill="none" stroke="midnightblue" d="M1238.57,-77.9397C1368.46,-51.052 1405.91,-66.0551 1532.5,-42 1535.35,-41.4586 1538.25,-40.8714 1541.17,-40.2496"/>
<polygon fill="midnightblue" stroke="midnightblue" points="1237.7,-74.5457 1228.64,-80.0382 1239.15,-81.3944 1237.7,-74.5457"/>
</g>
<!-- Node7 -->
<g id="node7" class="node"><title>Node7</title>
<g id="a_node7"><a xlink:href="2-TaggedMetrics_8cxx.html" target="_top" xlink:title="/home/travis/build\l/AliceO2Group/Monitoring\l/examples/2&#45;TaggedMetrics.cxx">
<polygon fill="none" stroke="black" points="1695.5,-0.5 1695.5,-41.5 1851.5,-41.5 1851.5,-0.5 1695.5,-0.5"/>
<text text-anchor="start" x="1703.5" y="-29.5" font-family="Helvetica,sans-Serif" font-size="10.00">/home/travis/build</text>
<text text-anchor="start" x="1703.5" y="-18.5" font-family="Helvetica,sans-Serif" font-size="10.00">/AliceO2Group/Monitoring</text>
<text text-anchor="middle" x="1773.5" y="-7.5" font-family="Helvetica,sans-Serif" font-size="10.00">/examples/2&#45;TaggedMetrics.cxx</text>
</a>
</g>
</g>
<!-- Node4&#45;&gt;Node7 -->
<g id="edge6" class="edge"><title>Node4&#45;&gt;Node7</title>
<path fill="none" stroke="midnightblue" d="M1238.72,-77.9589C1435.92,-41.1041 1491.93,-72.0008 1686.5,-42 1689.41,-41.5513 1692.37,-41.059 1695.35,-40.5321"/>
<polygon fill="midnightblue" stroke="midnightblue" points="1237.78,-74.5749 1228.61,-79.8839 1239.09,-81.4514 1237.78,-74.5749"/>
</g>
<!-- Node8 -->
<g id="node8" class="node"><title>Node8</title>
<polygon fill="none" stroke="#bfbfbf" points="1870,-0.5 1870,-41.5 2003,-41.5 2003,-0.5 1870,-0.5"/>
<text text-anchor="start" x="1878" y="-29.5" font-family="Helvetica,sans-Serif" font-size="10.00">/home/travis/build</text>
<text text-anchor="start" x="1878" y="-18.5" font-family="Helvetica,sans-Serif" font-size="10.00">/AliceO2Group/Monitoring</text>
<text text-anchor="middle" x="1936.5" y="-7.5" font-family="Helvetica,sans-Serif" font-size="10.00">/examples/3&#45;Verbosity.cxx</text>
</g>
<!-- Node4&#45;&gt;Node8 -->
<g id="edge7" class="edge"><title>Node4&#45;&gt;Node8</title>
<path fill="none" stroke="midnightblue" d="M1238.83,-77.9683C1512.28,-29.8309 1589.93,-84.9773 1860.5,-42 1863.6,-41.5077 1866.75,-40.9425 1869.93,-40.3213"/>
<polygon fill="midnightblue" stroke="midnightblue" points="1237.82,-74.5921 1228.6,-79.8007 1239.06,-81.4824 1237.82,-74.5921"/>
</g>
<!-- Node9 -->
<g id="node9" class="node"><title>Node9</title>
<g id="a_node9"><a xlink:href="4-RateDerivedMetric_8cxx.html" target="_top" xlink:title="/home/travis/build\l/AliceO2Group/Monitoring\l/examples/4&#45;RateDerivedMetric.cxx">
<polygon fill="none" stroke="black" points="2021,-0.5 2021,-41.5 2194,-41.5 2194,-0.5 2021,-0.5"/>
<text text-anchor="start" x="2029" y="-29.5" font-family="Helvetica,sans-Serif" font-size="10.00">/home/travis/build</text>
<text text-anchor="start" x="2029" y="-18.5" font-family="Helvetica,sans-Serif" font-size="10.00">/AliceO2Group/Monitoring</text>
<text text-anchor="middle" x="2107.5" y="-7.5" font-family="Helvetica,sans-Serif" font-size="10.00">/examples/4&#45;RateDerivedMetric.cxx</text>
</a>
</g>
</g>
<!-- Node4&#45;&gt;Node9 -->
<g id="edge8" class="edge"><title>Node4&#45;&gt;Node9</title>
<path fill="none" stroke="midnightblue" d="M1238.48,-78.0382C1578.91,-19.5913 1673.72,-85.2437 2012.5,-42 2015.26,-41.6479 2018.06,-41.2581 2020.88,-40.8369"/>
<polygon fill="midnightblue" stroke="midnightblue" points="1237.84,-74.5959 1228.59,-79.7584 1239.04,-81.4923 1237.84,-74.5959"/>
</g>
<!-- Node10 -->
<g id="node10" class="node"><title>Node10</title>
<g id="a_node10"><a xlink:href="5-Benchmark_8cxx.html" target="_top" xlink:title="/home/travis/build\l/AliceO2Group/Monitoring\l/examples/5&#45;Benchmark.cxx">
<polygon fill="none" stroke="black" points="2212,-0.5 2212,-41.5 2353,-41.5 2353,-0.5 2212,-0.5"/>
<text text-anchor="start" x="2220" y="-29.5" font-family="Helvetica,sans-Serif" font-size="10.00">/home/travis/build</text>
<text text-anchor="start" x="2220" y="-18.5" font-family="Helvetica,sans-Serif" font-size="10.00">/AliceO2Group/Monitoring</text>
<text text-anchor="middle" x="2282.5" y="-7.5" font-family="Helvetica,sans-Serif" font-size="10.00">/examples/5&#45;Benchmark.cxx</text>
</a>
</g>
</g>
<!-- Node4&#45;&gt;Node10 -->
<g id="edge9" class="edge"><title>Node4&#45;&gt;Node10</title>
<path fill="none" stroke="midnightblue" d="M1238.66,-78.0175C1662.83,-7.09304 1781.55,-102.582 2203.5,-42 2206.16,-41.618 2208.86,-41.1825 2211.58,-40.7036"/>
<polygon fill="midnightblue" stroke="midnightblue" points="1237.86,-74.6034 1228.58,-79.724 1239.03,-81.5051 1237.86,-74.6034"/>
</g>
<!-- Node11 -->
<g id="node11" class="node"><title>Node11</title>
<g id="a_node11"><a xlink:href="6-Increment_8cxx.html" target="_top" xlink:title="/home/travis/build\l/AliceO2Group/Monitoring\l/examples/6&#45;Increment.cxx">
<polygon fill="none" stroke="black" points="151,-0.5 151,-41.5 286,-41.5 286,-0.5 151,-0.5"/>
<text text-anchor="start" x="159" y="-29.5" font-family="Helvetica,sans-Serif" font-size="10.00">/home/travis/build</text>
<text text-anchor="start" x="159" y="-18.5" font-family="Helvetica,sans-Serif" font-size="10.00">/AliceO2Group/Monitoring</text>
<text text-anchor="middle" x="218.5" y="-7.5" font-family="Helvetica,sans-Serif" font-size="10.00">/examples/6&#45;Increment.cxx</text>
</a>
</g>
</g>
<!-- Node4&#45;&gt;Node11 -->
<g id="edge10" class="edge"><title>Node4&#45;&gt;Node11</title>
<path fill="none" stroke="midnightblue" d="M1072.17,-97.2703C1002.09,-92.0522 899.257,-84.4447 809.5,-78 580.642,-61.5678 520.885,-79.3605 294.5,-42 291.808,-41.5557 289.072,-41.0587 286.317,-40.5201"/>
<polygon fill="midnightblue" stroke="midnightblue" points="1072.04,-100.77 1082.27,-98.0224 1072.56,-93.7891 1072.04,-100.77"/>
</g>
<!-- Node12 -->
<g id="node12" class="node"><title>Node12</title>
<polygon fill="none" stroke="#bfbfbf" points="304,-0.5 304,-41.5 477,-41.5 477,-0.5 304,-0.5"/>
<text text-anchor="start" x="312" y="-29.5" font-family="Helvetica,sans-Serif" font-size="10.00">/home/travis/build</text>
<text text-anchor="start" x="312" y="-18.5" font-family="Helvetica,sans-Serif" font-size="10.00">/AliceO2Group/Monitoring</text>
<text text-anchor="middle" x="390.5" y="-7.5" font-family="Helvetica,sans-Serif" font-size="10.00">/examples/7&#45;InternalBenchamrk.cxx</text>
</g>
<!-- Node4&#45;&gt;Node12 -->
<g id="edge11" class="edge"><title>Node4&#45;&gt;Node12</title>
<path fill="none" stroke="midnightblue" d="M1071.94,-97.0139C918.47,-84.9025 597.287,-58.5776 486.5,-42 483.385,-41.5339 480.219,-41.0307 477.026,-40.4983"/>
<polygon fill="midnightblue" stroke="midnightblue" points="1072,-100.53 1082.25,-97.8259 1072.55,-93.5513 1072,-100.53"/>
</g>
<!-- Node13 -->
<g id="node13" class="node"><title>Node13</title>
<g id="a_node13"><a xlink:href="8-DbFiller_8cxx.html" target="_top" xlink:title="/home/travis/build\l/AliceO2Group/Monitoring\l/examples/8&#45;DbFiller.cxx">
<polygon fill="none" stroke="black" points="495.5,-0.5 495.5,-41.5 623.5,-41.5 623.5,-0.5 495.5,-0.5"/>
<text text-anchor="start" x="503.5" y="-29.5" font-family="Helvetica,sans-Serif" font-size="10.00">/home/travis/build</text>
<text text-anchor="start" x="503.5" y="-18.5" font-family="Helvetica,sans-Serif" font-size="10.00">/AliceO2Group/Monitoring</text>
<text text-anchor="middle" x="559.5" y="-7.5" font-family="Helvetica,sans-Serif" font-size="10.00">/examples/8&#45;DbFiller.cxx</text>
</a>
</g>
</g>
<!-- Node4&#45;&gt;Node13 -->
<g id="edge12" class="edge"><title>Node4&#45;&gt;Node13</title>
<path fill="none" stroke="midnightblue" d="M1072.11,-97.5834C968.387,-89.3346 786.221,-71.9196 632.5,-42 629.662,-41.4477 626.773,-40.8426 623.863,-40.1979"/>
<polygon fill="midnightblue" stroke="midnightblue" points="1071.96,-101.083 1082.2,-98.3771 1072.51,-94.1041 1071.96,-101.083"/>
</g>
<!-- Node14 -->
<g id="node14" class="node"><title>Node14</title>
<g id="a_node14"><a xlink:href="MonitoringFactory_8cxx.html" target="_top" xlink:title="/home/travis/build\l/AliceO2Group/Monitoring\l/src/MonitoringFactory.cxx">
<polygon fill="none" stroke="black" points="0,-0.5 0,-41.5 133,-41.5 133,-0.5 0,-0.5"/>
<text text-anchor="start" x="8" y="-29.5" font-family="Helvetica,sans-Serif" font-size="10.00">/home/travis/build</text>
<text text-anchor="start" x="8" y="-18.5" font-family="Helvetica,sans-Serif" font-size="10.00">/AliceO2Group/Monitoring</text>
<text text-anchor="middle" x="66.5" y="-7.5" font-family="Helvetica,sans-Serif" font-size="10.00">/src/MonitoringFactory.cxx</text>
</a>
</g>
</g>
<!-- Node4&#45;&gt;Node14 -->
<g id="edge13" class="edge"><title>Node4&#45;&gt;Node14</title>
<path fill="none" stroke="midnightblue" d="M1072.2,-96.8978C1002.13,-91.4559 899.306,-83.7287 809.5,-78 512.783,-59.0726 435.153,-88.5526 141.5,-42 138.705,-41.5569 135.864,-41.0519 133.003,-40.4982"/>
<polygon fill="midnightblue" stroke="midnightblue" points="1072.05,-100.397 1082.29,-97.6837 1072.59,-93.418 1072.05,-100.397"/>
</g>
<!-- Node15 -->
<g id="node15" class="node"><title>Node15</title>
<polygon fill="none" stroke="#bfbfbf" points="641.5,-0.5 641.5,-41.5 769.5,-41.5 769.5,-0.5 641.5,-0.5"/>
<text text-anchor="start" x="649.5" y="-29.5" font-family="Helvetica,sans-Serif" font-size="10.00">/home/travis/build</text>
<text text-anchor="start" x="649.5" y="-18.5" font-family="Helvetica,sans-Serif" font-size="10.00">/AliceO2Group/Monitoring</text>
<text text-anchor="middle" x="705.5" y="-7.5" font-family="Helvetica,sans-Serif" font-size="10.00">/test/testApMon.cxx</text>
</g>
<!-- Node4&#45;&gt;Node15 -->
<g id="edge14" class="edge"><title>Node4&#45;&gt;Node15</title>
<path fill="none" stroke="midnightblue" d="M1072.36,-92.5134C995.652,-81.7683 878.804,-63.8575 778.5,-42 775.675,-41.3845 772.797,-40.727 769.895,-40.0394"/>
<polygon fill="midnightblue" stroke="midnightblue" points="1072.06,-96.0049 1082.44,-93.9171 1073.02,-89.0718 1072.06,-96.0049"/>
</g>
<!-- Node16 -->
<g id="node16" class="node"><title>Node16</title>
<polygon fill="none" stroke="#bfbfbf" points="787.5,-0.5 787.5,-41.5 915.5,-41.5 915.5,-0.5 787.5,-0.5"/>
<text text-anchor="start" x="795.5" y="-29.5" font-family="Helvetica,sans-Serif" font-size="10.00">/home/travis/build</text>
<text text-anchor="start" x="795.5" y="-18.5" font-family="Helvetica,sans-Serif" font-size="10.00">/AliceO2Group/Monitoring</text>
<text text-anchor="middle" x="851.5" y="-7.5" font-family="Helvetica,sans-Serif" font-size="10.00">/test/testInfluxDb.cxx</text>
</g>
<!-- Node4&#45;&gt;Node16 -->
<g id="edge15" class="edge"><title>Node4&#45;&gt;Node16</title>
<path fill="none" stroke="midnightblue" d="M1072.59,-81.5805C1028.57,-69.905 973.575,-55.255 924.5,-42 921.582,-41.2119 918.599,-40.404 915.587,-39.5862"/>
<polygon fill="midnightblue" stroke="midnightblue" points="1071.82,-84.9968 1082.38,-84.1767 1073.61,-78.2306 1071.82,-84.9968"/>
</g>
<!-- Node17 -->
<g id="node17" class="node"><title>Node17</title>
<polygon fill="none" stroke="#bfbfbf" points="933.5,-0.5 933.5,-41.5 1061.5,-41.5 1061.5,-0.5 933.5,-0.5"/>
<text text-anchor="start" x="941.5" y="-29.5" font-family="Helvetica,sans-Serif" font-size="10.00">/home/travis/build</text>
<text text-anchor="start" x="941.5" y="-18.5" font-family="Helvetica,sans-Serif" font-size="10.00">/AliceO2Group/Monitoring</text>
<text text-anchor="middle" x="997.5" y="-7.5" font-family="Helvetica,sans-Serif" font-size="10.00">/test/testMonitoring.cxx</text>
</g>
<!-- Node4&#45;&gt;Node17 -->
<g id="edge16" class="edge"><title>Node4&#45;&gt;Node17</title>
<path fill="none" stroke="midnightblue" d="M1097.75,-73.7135C1077.01,-63.0118 1054.15,-51.2203 1035.5,-41.6027"/>
<polygon fill="midnightblue" stroke="midnightblue" points="1096.31,-76.9085 1106.81,-78.3823 1099.52,-70.6874 1096.31,-76.9085"/>
</g>
<!-- Node18 -->
<g id="node18" class="node"><title>Node18</title>
<polygon fill="none" stroke="#bfbfbf" points="1079.5,-0.5 1079.5,-41.5 1231.5,-41.5 1231.5,-0.5 1079.5,-0.5"/>
<text text-anchor="start" x="1087.5" y="-29.5" font-family="Helvetica,sans-Serif" font-size="10.00">/home/travis/build</text>
<text text-anchor="start" x="1087.5" y="-18.5" font-family="Helvetica,sans-Serif" font-size="10.00">/AliceO2Group/Monitoring</text>
<text text-anchor="middle" x="1155.5" y="-7.5" font-family="Helvetica,sans-Serif" font-size="10.00">/test/testMonitoringFactory.cxx</text>
</g>
<!-- Node4&#45;&gt;Node18 -->
<g id="edge17" class="edge"><title>Node4&#45;&gt;Node18</title>
<path fill="none" stroke="midnightblue" d="M1155.5,-68.1474C1155.5,-59.0546 1155.5,-49.5968 1155.5,-41.6282"/>
<polygon fill="midnightblue" stroke="midnightblue" points="1152,-68.1596 1155.5,-78.1596 1159,-68.1597 1152,-68.1596"/>
</g>
<!-- Node19 -->
<g id="node19" class="node"><title>Node19</title>
<polygon fill="none" stroke="#bfbfbf" points="2371,-0.5 2371,-41.5 2514,-41.5 2514,-0.5 2371,-0.5"/>
<text text-anchor="start" x="2379" y="-29.5" font-family="Helvetica,sans-Serif" font-size="10.00">/home/travis/build</text>
<text text-anchor="start" x="2379" y="-18.5" font-family="Helvetica,sans-Serif" font-size="10.00">/AliceO2Group/Monitoring</text>
<text text-anchor="middle" x="2442.5" y="-7.5" font-family="Helvetica,sans-Serif" font-size="10.00">/test/testProcessMonitor.cxx</text>
</g>
<!-- Node4&#45;&gt;Node19 -->
<g id="edge18" class="edge"><title>Node4&#45;&gt;Node19</title>
<path fill="none" stroke="midnightblue" d="M1238.46,-78.0548C1732.63,3.50547 1870.3,-110.601 2362.5,-42 2365.19,-41.6245 2367.93,-41.1946 2370.68,-40.7204"/>
<polygon fill="midnightblue" stroke="midnightblue" points="1237.87,-74.6059 1228.58,-79.7043 1239.02,-81.5104 1237.87,-74.6059"/>
</g>
<!-- Node20 -->
<g id="node20" class="node"><title>Node20</title>
<polygon fill="none" stroke="#bfbfbf" points="1249.5,-0.5 1249.5,-41.5 1377.5,-41.5 1377.5,-0.5 1249.5,-0.5"/>
<text text-anchor="start" x="1257.5" y="-29.5" font-family="Helvetica,sans-Serif" font-size="10.00">/home/travis/build</text>
<text text-anchor="start" x="1257.5" y="-18.5" font-family="Helvetica,sans-Serif" font-size="10.00">/AliceO2Group/Monitoring</text>
<text text-anchor="middle" x="1313.5" y="-7.5" font-family="Helvetica,sans-Serif" font-size="10.00">/test/testThreads.cxx</text>
</g>
<!-- Node4&#45;&gt;Node20 -->
<g id="edge19" class="edge"><title>Node4&#45;&gt;Node20</title>
<path fill="none" stroke="midnightblue" d="M1213.25,-73.7135C1233.99,-63.0118 1256.85,-51.2203 1275.5,-41.6027"/>
<polygon fill="midnightblue" stroke="midnightblue" points="1211.48,-70.6874 1204.19,-78.3823 1214.69,-76.9085 1211.48,-70.6874"/>
</g>
<!-- Node23 -->
<g id="node23" class="node"><title>Node23</title>
<g id="a_node23"><a xlink:href="ApMonBackend_8cxx.html" target="_top" xlink:title="/home/travis/build\l/AliceO2Group/Monitoring\l/src/Backends/ApMonBackend.cxx">
<polygon fill="none" stroke="black" points="630.5,-84 630.5,-125 800.5,-125 800.5,-84 630.5,-84"/>
<text text-anchor="start" x="638.5" y="-113" font-family="Helvetica,sans-Serif" font-size="10.00">/home/travis/build</text>
<text text-anchor="start" x="638.5" y="-102" font-family="Helvetica,sans-Serif" font-size="10.00">/AliceO2Group/Monitoring</text>
<text text-anchor="middle" x="715.5" y="-91" font-family="Helvetica,sans-Serif" font-size="10.00">/src/Backends/ApMonBackend.cxx</text>
</a>
</g>
</g>
<!-- Node22&#45;&gt;Node23 -->
<g id="edge22" class="edge"><title>Node22&#45;&gt;Node23</title>
<path fill="none" stroke="midnightblue" d="M714.235,-157.065C714.497,-146.382 714.785,-134.63 715.02,-125.047"/>
<polygon fill="midnightblue" stroke="midnightblue" points="710.731,-157.188 713.984,-167.271 717.729,-157.36 710.731,-157.188"/>
</g>
<!-- Node24&#45;&gt;Node14 -->
<g id="edge25" class="edge"><title>Node24&#45;&gt;Node14</title>
<path fill="none" stroke="midnightblue" d="M407.247,-156.892C410.049,-132.353 409.319,-98.5146 389.5,-78 350.807,-37.9487 196.052,-53.1934 141.5,-42 138.728,-41.4312 135.906,-40.8211 133.061,-40.1804"/>
<polygon fill="midnightblue" stroke="midnightblue" points="403.738,-156.713 405.821,-167.101 410.67,-157.682 403.738,-156.713"/>
</g>
<!-- Node25 -->
<g id="node25" class="node"><title>Node25</title>
<g id="a_node25"><a xlink:href="InfluxDB_8cxx.html" target="_top" xlink:title="/home/travis/build\l/AliceO2Group/Monitoring\l/src/Backends/InfluxDB.cxx">
<polygon fill="none" stroke="black" points="240.5,-84 240.5,-125 380.5,-125 380.5,-84 240.5,-84"/>
<text text-anchor="start" x="248.5" y="-113" font-family="Helvetica,sans-Serif" font-size="10.00">/home/travis/build</text>
<text text-anchor="start" x="248.5" y="-102" font-family="Helvetica,sans-Serif" font-size="10.00">/AliceO2Group/Monitoring</text>
<text text-anchor="middle" x="310.5" y="-91" font-family="Helvetica,sans-Serif" font-size="10.00">/src/Backends/InfluxDB.cxx</text>
</a>
</g>
</g>
<!-- Node24&#45;&gt;Node25 -->
<g id="edge24" class="edge"><title>Node24&#45;&gt;Node25</title>
<path fill="none" stroke="midnightblue" d="M371.76,-160.365C358.907,-148.854 344.14,-135.629 332.326,-125.047"/>
<polygon fill="midnightblue" stroke="midnightblue" points="369.687,-163.207 379.471,-167.271 374.357,-157.992 369.687,-163.207"/>
</g>
<!-- Node26&#45;&gt;Node14 -->
<g id="edge27" class="edge"><title>Node26&#45;&gt;Node14</title>
<path fill="none" stroke="midnightblue" d="M114.117,-161.276C103.204,-152.941 92.6208,-142.759 85.5,-131 68.6844,-103.232 65.7903,-64.6232 65.7653,-41.5887"/>
<polygon fill="midnightblue" stroke="midnightblue" points="112.313,-164.29 122.475,-167.287 116.4,-158.607 112.313,-164.29"/>
</g>
<!-- Node27 -->
<g id="node27" class="node"><title>Node27</title>
<polygon fill="none" stroke="#bfbfbf" points="94.5,-84 94.5,-125 222.5,-125 222.5,-84 94.5,-84"/>
<text text-anchor="start" x="102.5" y="-113" font-family="Helvetica,sans-Serif" font-size="10.00">/home/travis/build</text>
<text text-anchor="start" x="102.5" y="-102" font-family="Helvetica,sans-Serif" font-size="10.00">/AliceO2Group/Monitoring</text>
<text text-anchor="middle" x="158.5" y="-91" font-family="Helvetica,sans-Serif" font-size="10.00">/test/testNoop.cxx</text>
</g>
<!-- Node26&#45;&gt;Node27 -->
<g id="edge28" class="edge"><title>Node26&#45;&gt;Node27</title>
<path fill="none" stroke="midnightblue" d="M158.5,-157.065C158.5,-146.382 158.5,-134.63 158.5,-125.047"/>
<polygon fill="midnightblue" stroke="midnightblue" points="155,-157.271 158.5,-167.271 162,-157.271 155,-157.271"/>
</g>
<!-- Node28&#45;&gt;Node14 -->
<g id="edge31" class="edge"><title>Node28&#45;&gt;Node14</title>
<path fill="none" stroke="midnightblue" d="M511.545,-161.396C498.64,-152.123 484.21,-141.375 471.5,-131 444.449,-108.919 445.153,-92.7466 413.5,-78 302.964,-26.5029 261.106,-65.7595 141.5,-42 138.724,-41.4486 135.899,-40.8531 133.052,-40.2244"/>
<polygon fill="midnightblue" stroke="midnightblue" points="509.596,-164.305 519.771,-167.257 513.658,-158.604 509.596,-164.305"/>
</g>
<!-- Node29 -->
<g id="node29" class="node"><title>Node29</title>
<polygon fill="none" stroke="#bfbfbf" points="480.5,-84 480.5,-125 612.5,-125 612.5,-84 480.5,-84"/>
<text text-anchor="start" x="488.5" y="-113" font-family="Helvetica,sans-Serif" font-size="10.00">/home/travis/build</text>
<text text-anchor="start" x="488.5" y="-102" font-family="Helvetica,sans-Serif" font-size="10.00">/AliceO2Group/Monitoring</text>
<text text-anchor="middle" x="546.5" y="-91" font-family="Helvetica,sans-Serif" font-size="10.00">/src/Backends/StdOut.cxx</text>
</g>
<!-- Node28&#45;&gt;Node29 -->
<g id="edge30" class="edge"><title>Node28&#45;&gt;Node29</title>
<path fill="none" stroke="midnightblue" d="M547.765,-157.065C547.503,-146.382 547.215,-134.63 546.98,-125.047"/>
<polygon fill="midnightblue" stroke="midnightblue" points="544.271,-157.36 548.016,-167.271 551.269,-157.188 544.271,-157.36"/>
</g>
<!-- Node30&#45;&gt;Node3 -->
<g id="edge33" class="edge"><title>Node30&#45;&gt;Node3</title>
<path fill="none" stroke="midnightblue" d="M1510.07,-242.925C1466.95,-232.038 1415.4,-219.022 1373.75,-208.506"/>
<polygon fill="midnightblue" stroke="midnightblue" points="1509.43,-246.373 1519.99,-245.428 1511.15,-239.586 1509.43,-246.373"/>
</g>
<!-- Node31 -->
<g id="node31" class="node"><title>Node31</title>
<g id="a_node31"><a xlink:href="DerivedMetrics_8cxx.html" target="_top" xlink:title="/home/travis/build\l/AliceO2Group/Monitoring\l/src/DerivedMetrics.cxx">
<polygon fill="none" stroke="black" points="1722.5,-167.5 1722.5,-208.5 1850.5,-208.5 1850.5,-167.5 1722.5,-167.5"/>
<text text-anchor="start" x="1730.5" y="-196.5" font-family="Helvetica,sans-Serif" font-size="10.00">/home/travis/build</text>
<text text-anchor="start" x="1730.5" y="-185.5" font-family="Helvetica,sans-Serif" font-size="10.00">/AliceO2Group/Monitoring</text>
<text text-anchor="middle" x="1786.5" y="-174.5" font-family="Helvetica,sans-Serif" font-size="10.00">/src/DerivedMetrics.cxx</text>
</a>
</g>
</g>
<!-- Node30&#45;&gt;Node31 -->
<g id="edge34" class="edge"><title>Node30&#45;&gt;Node31</title>
<path fill="none" stroke="midnightblue" d="M1655.67,-241.609C1682.05,-231.001 1712.89,-218.602 1737.99,-208.506"/>
<polygon fill="midnightblue" stroke="midnightblue" points="1654.14,-238.45 1646.17,-245.428 1656.76,-244.945 1654.14,-238.45"/>
</g>
<!-- Node32 -->
<g id="node32" class="node"><title>Node32</title>
<polygon fill="none" stroke="#bfbfbf" points="1576.5,-167.5 1576.5,-208.5 1704.5,-208.5 1704.5,-167.5 1576.5,-167.5"/>
<text text-anchor="start" x="1584.5" y="-196.5" font-family="Helvetica,sans-Serif" font-size="10.00">/home/travis/build</text>
<text text-anchor="start" x="1584.5" y="-185.5" font-family="Helvetica,sans-Serif" font-size="10.00">/AliceO2Group/Monitoring</text>
<text text-anchor="middle" x="1640.5" y="-174.5" font-family="Helvetica,sans-Serif" font-size="10.00">/test/testDerived.cxx</text>
</g>
<!-- Node30&#45;&gt;Node32 -->
<g id="edge35" class="edge"><title>Node30&#45;&gt;Node32</title>
<path fill="none" stroke="midnightblue" d="M1613.64,-236.466C1618.92,-227.143 1624.65,-217.007 1629.46,-208.506"/>
<polygon fill="midnightblue" stroke="midnightblue" points="1610.45,-235.001 1608.57,-245.428 1616.54,-238.448 1610.45,-235.001"/>
</g>
<!-- Node33&#45;&gt;Node3 -->
<g id="edge37" class="edge"><title>Node33&#45;&gt;Node3</title>
<path fill="none" stroke="midnightblue" d="M1366.73,-239.35C1352.67,-229.272 1336.8,-217.893 1323.71,-208.506"/>
<polygon fill="midnightblue" stroke="midnightblue" points="1365.04,-242.446 1375.2,-245.428 1369.11,-236.757 1365.04,-242.446"/>
</g>
<!-- Node33&#45;&gt;Node19 -->
<g id="edge39" class="edge"><title>Node33&#45;&gt;Node19</title>
<path fill="none" stroke="midnightblue" d="M1399.8,-235.139C1399.58,-213.133 1403.29,-184.159 1421.5,-167 1575.03,-22.3354 2155.29,-81.5331 2362.5,-42 2365.17,-41.4902 2367.89,-40.946 2370.63,-40.3751"/>
<polygon fill="midnightblue" stroke="midnightblue" points="1396.31,-235.437 1400.18,-245.299 1403.3,-235.175 1396.31,-235.437"/>
</g>
<!-- Node34 -->
<g id="node34" class="node"><title>Node34</title>
<g id="a_node34"><a xlink:href="ProcessMonitor_8cxx.html" target="_top" xlink:title="/home/travis/build\l/AliceO2Group/Monitoring\l/src/ProcessMonitor.cxx">
<polygon fill="none" stroke="black" points="1430.5,-167.5 1430.5,-208.5 1558.5,-208.5 1558.5,-167.5 1430.5,-167.5"/>
<text text-anchor="start" x="1438.5" y="-196.5" font-family="Helvetica,sans-Serif" font-size="10.00">/home/travis/build</text>
<text text-anchor="start" x="1438.5" y="-185.5" font-family="Helvetica,sans-Serif" font-size="10.00">/AliceO2Group/Monitoring</text>
<text text-anchor="middle" x="1494.5" y="-174.5" font-family="Helvetica,sans-Serif" font-size="10.00">/src/ProcessMonitor.cxx</text>
</a>
</g>
</g>
<!-- Node33&#45;&gt;Node34 -->
<g id="edge38" class="edge"><title>Node33&#45;&gt;Node34</title>
<path fill="none" stroke="midnightblue" d="M1434.24,-238.779C1446.27,-228.843 1459.74,-217.716 1470.89,-208.506"/>
<polygon fill="midnightblue" stroke="midnightblue" points="1431.67,-236.361 1426.19,-245.428 1436.13,-241.758 1431.67,-236.361"/>
</g>
</g>
</svg>
