<?xml version="1.0" encoding="UTF-8" standalone="no"?>
<!DOCTYPE svg PUBLIC "-//W3C//DTD SVG 1.1//EN"
 "http://www.w3.org/Graphics/SVG/1.1/DTD/svg11.dtd">
<!-- Generated by graphviz version 2.38.0 (20140413.2041)
 -->
<!-- Title: /home/travis/build/AliceO2Group/Monitoring/src/Metric.cxx Pages: 1 -->
<svg width="397pt" height="218pt"
 viewBox="0.00 0.00 396.50 218.00" xmlns="http://www.w3.org/2000/svg" xmlns:xlink="http://www.w3.org/1999/xlink">
<g id="graph0" class="graph" transform="scale(1 1) rotate(0) translate(4 214)">
<title>/home/travis/build/AliceO2Group/Monitoring/src/Metric.cxx</title>
<!-- Node1 -->
<g id="node1" class="node"><title>Node1</title>
<polygon fill="#bfbfbf" stroke="black" points="131,-168.5 131,-209.5 259,-209.5 259,-168.5 131,-168.5"/>
<text text-anchor="start" x="139" y="-197.5" font-family="Helvetica,sans-Serif" font-size="10.00">/home/travis/build</text>
<text text-anchor="start" x="139" y="-186.5" font-family="Helvetica,sans-Serif" font-size="10.00">/AliceO2Group/Monitoring</text>
<text text-anchor="middle" x="195" y="-175.5" font-family="Helvetica,sans-Serif" font-size="10.00">/src/Metric.cxx</text>
</g>
<!-- Node2 -->
<g id="node2" class="node"><title>Node2</title>
<g id="a_node2"><a xlink:href="Metric_8h.html" target="_top" xlink:title="Monitoring/Metric.h">
<polygon fill="none" stroke="black" points="98,-112.5 98,-131.5 198,-131.5 198,-112.5 98,-112.5"/>
<text text-anchor="middle" x="148" y="-119.5" font-family="Helvetica,sans-Serif" font-size="10.00">Monitoring/Metric.h</text>
</a>
</g>
</g>
<!-- Node1&#45;&gt;Node2 -->
<g id="edge1" class="edge"><title>Node1&#45;&gt;Node2</title>
<path fill="none" stroke="midnightblue" d="M180.898,-168.498C174.316,-159.395 166.556,-148.662 160.226,-139.908"/>
<polygon fill="midnightblue" stroke="midnightblue" points="162.952,-137.705 154.256,-131.652 157.28,-141.807 162.952,-137.705"/>
</g>
<!-- Node4 -->
<g id="node4" class="node"><title>Node4</title>
<polygon fill="none" stroke="#bfbfbf" points="0,-56.5 0,-75.5 46,-75.5 46,-56.5 0,-56.5"/>
<text text-anchor="middle" x="23" y="-63.5" font-family="Helvetica,sans-Serif" font-size="10.00">chrono</text>
</g>
<!-- Node1&#45;&gt;Node4 -->
<g id="edge11" class="edge"><title>Node1&#45;&gt;Node4</title>
<path fill="none" stroke="midnightblue" d="M151.271,-168.488C131.462,-158.764 108.229,-146.076 89,-132 69.4414,-117.683 50.0359,-97.6934 37.3826,-83.6737"/>
<polygon fill="midnightblue" stroke="midnightblue" points="39.6827,-80.9913 30.4357,-75.8199 34.4395,-85.6291 39.6827,-80.9913"/>
</g>
<!-- Node10 -->
<g id="node10" class="node"><title>Node10</title>
<polygon fill="none" stroke="#bfbfbf" points="216,-112.5 216,-131.5 270,-131.5 270,-112.5 216,-112.5"/>
<text text-anchor="middle" x="243" y="-119.5" font-family="Helvetica,sans-Serif" font-size="10.00">iostream</text>
</g>
<!-- Node1&#45;&gt;Node10 -->
<g id="edge10" class="edge"><title>Node1&#45;&gt;Node10</title>
<path fill="none" stroke="midnightblue" d="M209.402,-168.498C216.124,-159.395 224.049,-148.662 230.514,-139.908"/>
<polygon fill="midnightblue" stroke="midnightblue" points="233.486,-141.776 236.61,-131.652 227.854,-137.618 233.486,-141.776"/>
</g>
<!-- Node11 -->
<g id="node11" class="node"><title>Node11</title>
<polygon fill="none" stroke="#bfbfbf" points="288,-112.5 288,-131.5 340,-131.5 340,-112.5 288,-112.5"/>
<text text-anchor="middle" x="314" y="-119.5" font-family="Helvetica,sans-Serif" font-size="10.00">memory</text>
</g>
<!-- Node1&#45;&gt;Node11 -->
<g id="edge12" class="edge"><title>Node1&#45;&gt;Node11</title>
<path fill="none" stroke="midnightblue" d="M230.704,-168.498C249.475,-158.245 272.03,-145.925 288.932,-136.693"/>
<polygon fill="midnightblue" stroke="midnightblue" points="291.061,-139.518 298.159,-131.652 287.705,-133.375 291.061,-139.518"/>
</g>
<!-- Node3 -->
<g id="node3" class="node"><title>Node3</title>
<polygon fill="none" stroke="#bfbfbf" points="198.5,-0.5 198.5,-19.5 239.5,-19.5 239.5,-0.5 198.5,-0.5"/>
<text text-anchor="middle" x="219" y="-7.5" font-family="Helvetica,sans-Serif" font-size="10.00">string</text>
</g>
<!-- Node2&#45;&gt;Node3 -->
<g id="edge2" class="edge"><title>Node2&#45;&gt;Node3</title>
<path fill="none" stroke="midnightblue" d="M131.214,-112.361C109.99,-100.273 77.9277,-77.3876 93,-56 114.332,-25.7304 157.959,-15.7097 187.84,-12.4571"/>
<polygon fill="midnightblue" stroke="midnightblue" points="188.51,-15.9115 198.16,-11.54 187.89,-8.93897 188.51,-15.9115"/>
</g>
<!-- Node2&#45;&gt;Node4 -->
<g id="edge3" class="edge"><title>Node2&#45;&gt;Node4</title>
<path fill="none" stroke="midnightblue" d="M128.193,-112.444C107.713,-103.596 75.5173,-89.6875 52.1353,-79.5865"/>
<polygon fill="midnightblue" stroke="midnightblue" points="53.282,-76.2692 42.714,-75.5164 50.5059,-82.6953 53.282,-76.2692"/>
</g>
<!-- Node5 -->
<g id="node5" class="node"><title>Node5</title>
<polygon fill="none" stroke="#bfbfbf" points="102.5,-56.5 102.5,-75.5 137.5,-75.5 137.5,-56.5 102.5,-56.5"/>
<text text-anchor="middle" x="120" y="-63.5" font-family="Helvetica,sans-Serif" font-size="10.00">map</text>
</g>
<!-- Node2&#45;&gt;Node5 -->
<g id="edge4" class="edge"><title>Node2&#45;&gt;Node5</title>
<path fill="none" stroke="midnightblue" d="M143.376,-112.083C139.544,-104.691 133.976,-93.9533 129.235,-84.8111"/>
<polygon fill="midnightblue" stroke="midnightblue" points="132.248,-83.0175 124.538,-75.7511 126.034,-86.2398 132.248,-83.0175"/>
</g>
<!-- Node6 -->
<g id="node6" class="node"><title>Node6</title>
<polygon fill="none" stroke="#bfbfbf" points="155.5,-56.5 155.5,-75.5 196.5,-75.5 196.5,-56.5 155.5,-56.5"/>
<text text-anchor="middle" x="176" y="-63.5" font-family="Helvetica,sans-Serif" font-size="10.00">regex</text>
</g>
<!-- Node2&#45;&gt;Node6 -->
<g id="edge5" class="edge"><title>Node2&#45;&gt;Node6</title>
<path fill="none" stroke="midnightblue" d="M152.624,-112.083C156.456,-104.691 162.024,-93.9533 166.765,-84.8111"/>
<polygon fill="midnightblue" stroke="midnightblue" points="169.966,-86.2398 171.462,-75.7511 163.752,-83.0175 169.966,-86.2398"/>
</g>
<!-- Node7 -->
<g id="node7" class="node"><title>Node7</title>
<polygon fill="none" stroke="#bfbfbf" points="215,-56.5 215,-75.5 261,-75.5 261,-56.5 215,-56.5"/>
<text text-anchor="middle" x="238" y="-63.5" font-family="Helvetica,sans-Serif" font-size="10.00">variant</text>
</g>
<!-- Node2&#45;&gt;Node7 -->
<g id="edge6" class="edge"><title>Node2&#45;&gt;Node7</title>
<path fill="none" stroke="midnightblue" d="M162.46,-112.324C176.5,-103.9 198.048,-90.9709 214.543,-81.0741"/>
<polygon fill="midnightblue" stroke="midnightblue" points="216.802,-83.8007 223.576,-75.6545 213.2,-77.7983 216.802,-83.8007"/>
</g>
<!-- Node8 -->
<g id="node8" class="node"><title>Node8</title>
<polygon fill="none" stroke="#bfbfbf" points="279,-56.5 279,-75.5 323,-75.5 323,-56.5 279,-56.5"/>
<text text-anchor="middle" x="301" y="-63.5" font-family="Helvetica,sans-Serif" font-size="10.00">vector</text>
</g>
<!-- Node2&#45;&gt;Node8 -->
<g id="edge7" class="edge"><title>Node2&#45;&gt;Node8</title>
<path fill="none" stroke="midnightblue" d="M172.243,-112.444C198.474,-103.186 240.405,-88.3866 269.248,-78.2066"/>
<polygon fill="midnightblue" stroke="midnightblue" points="270.592,-81.4438 278.857,-74.8151 268.262,-74.8429 270.592,-81.4438"/>
</g>
<!-- Node9 -->
<g id="node9" class="node"><title>Node9</title>
<g id="a_node9"><a xlink:href="Tags_8h.html" target="_top" xlink:title="Tags.h">
<polygon fill="none" stroke="black" points="341.5,-56.5 341.5,-75.5 388.5,-75.5 388.5,-56.5 341.5,-56.5"/>
<text text-anchor="middle" x="365" y="-63.5" font-family="Helvetica,sans-Serif" font-size="10.00">Tags.h</text>
</a>
</g>
</g>
<!-- Node2&#45;&gt;Node9 -->
<g id="edge8" class="edge"><title>Node2&#45;&gt;Node9</title>
<path fill="none" stroke="midnightblue" d="M184.033,-112.485C219.148,-104.121 274.292,-90.8121 331.315,-76.126"/>
<polygon fill="midnightblue" stroke="midnightblue" points="332.421,-79.4553 341.227,-73.564 330.669,-72.678 332.421,-79.4553"/>
</g>
<!-- Node9&#45;&gt;Node3 -->
<g id="edge9" class="edge"><title>Node9&#45;&gt;Node3</title>
<path fill="none" stroke="midnightblue" d="M341.866,-56.4435C316.802,-47.1732 276.714,-32.3464 249.187,-22.1652"/>
<polygon fill="midnightblue" stroke="midnightblue" points="250.258,-18.8297 239.665,-18.6433 247.83,-25.395 250.258,-18.8297"/>
</g>
</g>
</svg>
