<?xml version="1.0" encoding="UTF-8" standalone="no"?>
<!DOCTYPE svg PUBLIC "-//W3C//DTD SVG 1.1//EN"
 "http://www.w3.org/Graphics/SVG/1.1/DTD/svg11.dtd">
<!-- Generated by graphviz version 2.38.0 (20140413.2041)
 -->
<!-- Title: /home/travis/build/AliceO2Group/Monitoring/include/Monitoring/Metric.h Pages: 1 -->
<svg width="374pt" height="162pt"
 viewBox="0.00 0.00 374.49 162.00" xmlns="http://www.w3.org/2000/svg" xmlns:xlink="http://www.w3.org/1999/xlink">
<g id="graph0" class="graph" transform="scale(1 1) rotate(0) translate(4 158)">
<title>/home/travis/build/AliceO2Group/Monitoring/include/Monitoring/Metric.h</title>
<!-- Node1 -->
<g id="node1" class="node"><title>Node1</title>
<polygon fill="#bfbfbf" stroke="black" points="85.4938,-112.5 85.4938,-153.5 222.494,-153.5 222.494,-112.5 85.4938,-112.5"/>
<text text-anchor="start" x="93.4938" y="-141.5" font-family="Helvetica,sans-Serif" font-size="10.00">/home/travis/build</text>
<text text-anchor="start" x="93.4938" y="-130.5" font-family="Helvetica,sans-Serif" font-size="10.00">/AliceO2Group/Monitoring</text>
<text text-anchor="middle" x="153.994" y="-119.5" font-family="Helvetica,sans-Serif" font-size="10.00">/include/Monitoring/Metric.h</text>
</g>
<!-- Node2 -->
<g id="node2" class="node"><title>Node2</title>
<polygon fill="none" stroke="#bfbfbf" points="144.494,-0.5 144.494,-19.5 185.494,-19.5 185.494,-0.5 144.494,-0.5"/>
<text text-anchor="middle" x="164.994" y="-7.5" font-family="Helvetica,sans-Serif" font-size="10.00">string</text>
</g>
<!-- Node1&#45;&gt;Node2 -->
<g id="edge1" class="edge"><title>Node1&#45;&gt;Node2</title>
<path fill="none" stroke="midnightblue" d="M85.4015,-121.282C35.5939,-110.44 -18.8856,-90.2792 6.99379,-56 22.2888,-35.7405 92.7044,-21.8983 134.191,-15.3442"/>
<polygon fill="midnightblue" stroke="midnightblue" points="134.955,-18.7682 144.313,-13.7989 133.899,-11.8484 134.955,-18.7682"/>
</g>
<!-- Node3 -->
<g id="node3" class="node"><title>Node3</title>
<polygon fill="none" stroke="#bfbfbf" points="15.9938,-56.5 15.9938,-75.5 61.9938,-75.5 61.9938,-56.5 15.9938,-56.5"/>
<text text-anchor="middle" x="38.9938" y="-63.5" font-family="Helvetica,sans-Serif" font-size="10.00">chrono</text>
</g>
<!-- Node1&#45;&gt;Node3 -->
<g id="edge2" class="edge"><title>Node1&#45;&gt;Node3</title>
<path fill="none" stroke="midnightblue" d="M119.49,-112.498C101.35,-102.245 79.5535,-89.925 63.2193,-80.6927"/>
<polygon fill="midnightblue" stroke="midnightblue" points="64.7299,-77.5261 54.302,-75.6525 61.2855,-83.6201 64.7299,-77.5261"/>
</g>
<!-- Node4 -->
<g id="node4" class="node"><title>Node4</title>
<polygon fill="none" stroke="#bfbfbf" points="80.4938,-56.5 80.4938,-75.5 115.494,-75.5 115.494,-56.5 80.4938,-56.5"/>
<text text-anchor="middle" x="97.9938" y="-63.5" font-family="Helvetica,sans-Serif" font-size="10.00">map</text>
</g>
<!-- Node1&#45;&gt;Node4 -->
<g id="edge3" class="edge"><title>Node1&#45;&gt;Node4</title>
<path fill="none" stroke="midnightblue" d="M137.192,-112.498C129.184,-103.203 119.713,-92.2097 112.087,-83.3579"/>
<polygon fill="midnightblue" stroke="midnightblue" points="114.627,-80.9441 105.448,-75.6525 109.324,-85.5131 114.627,-80.9441"/>
</g>
<!-- Node5 -->
<g id="node5" class="node"><title>Node5</title>
<polygon fill="none" stroke="#bfbfbf" points="133.494,-56.5 133.494,-75.5 174.494,-75.5 174.494,-56.5 133.494,-56.5"/>
<text text-anchor="middle" x="153.994" y="-63.5" font-family="Helvetica,sans-Serif" font-size="10.00">regex</text>
</g>
<!-- Node1&#45;&gt;Node5 -->
<g id="edge4" class="edge"><title>Node1&#45;&gt;Node5</title>
<path fill="none" stroke="midnightblue" d="M153.994,-112.498C153.994,-104.065 153.994,-94.2351 153.994,-85.874"/>
<polygon fill="midnightblue" stroke="midnightblue" points="157.494,-85.6525 153.994,-75.6525 150.494,-85.6525 157.494,-85.6525"/>
</g>
<!-- Node6 -->
<g id="node6" class="node"><title>Node6</title>
<polygon fill="none" stroke="#bfbfbf" points="192.994,-56.5 192.994,-75.5 238.994,-75.5 238.994,-56.5 192.994,-56.5"/>
<text text-anchor="middle" x="215.994" y="-63.5" font-family="Helvetica,sans-Serif" font-size="10.00">variant</text>
</g>
<!-- Node1&#45;&gt;Node6 -->
<g id="edge5" class="edge"><title>Node1&#45;&gt;Node6</title>
<path fill="none" stroke="midnightblue" d="M172.596,-112.498C181.553,-103.107 192.164,-91.9829 200.651,-83.0848"/>
<polygon fill="midnightblue" stroke="midnightblue" points="203.371,-85.3043 207.741,-75.6525 198.306,-80.4729 203.371,-85.3043"/>
</g>
<!-- Node7 -->
<g id="node7" class="node"><title>Node7</title>
<polygon fill="none" stroke="#bfbfbf" points="256.994,-56.5 256.994,-75.5 300.994,-75.5 300.994,-56.5 256.994,-56.5"/>
<text text-anchor="middle" x="278.994" y="-63.5" font-family="Helvetica,sans-Serif" font-size="10.00">vector</text>
</g>
<!-- Node1&#45;&gt;Node7 -->
<g id="edge6" class="edge"><title>Node1&#45;&gt;Node7</title>
<path fill="none" stroke="midnightblue" d="M191.498,-112.498C211.4,-102.149 235.35,-89.6946 253.158,-80.4346"/>
<polygon fill="midnightblue" stroke="midnightblue" points="255.097,-83.3713 262.354,-75.6525 251.867,-77.1608 255.097,-83.3713"/>
</g>
<!-- Node8 -->
<g id="node8" class="node"><title>Node8</title>
<g id="a_node8"><a xlink:href="Tags_8h.html" target="_top" xlink:title="Tags.h">
<polygon fill="none" stroke="black" points="319.494,-56.5 319.494,-75.5 366.494,-75.5 366.494,-56.5 319.494,-56.5"/>
<text text-anchor="middle" x="342.994" y="-63.5" font-family="Helvetica,sans-Serif" font-size="10.00">Tags.h</text>
</a>
</g>
</g>
<!-- Node1&#45;&gt;Node8 -->
<g id="edge7" class="edge"><title>Node1&#45;&gt;Node8</title>
<path fill="none" stroke="midnightblue" d="M210.7,-112.498C243.045,-101.374 282.461,-87.818 309.815,-78.4108"/>
<polygon fill="midnightblue" stroke="midnightblue" points="310.993,-81.7069 319.311,-75.1449 308.716,-75.0875 310.993,-81.7069"/>
</g>
<!-- Node8&#45;&gt;Node2 -->
<g id="edge8" class="edge"><title>Node8&#45;&gt;Node2</title>
<path fill="none" stroke="midnightblue" d="M319.357,-57.8292C287.424,-48.1417 230.471,-30.8638 195.389,-20.2209"/>
<polygon fill="midnightblue" stroke="midnightblue" points="196.269,-16.8306 185.684,-17.2768 194.237,-23.5292 196.269,-16.8306"/>
</g>
</g>
</svg>
