<?xml version="1.0" encoding="UTF-8" standalone="no"?>
<!DOCTYPE svg PUBLIC "-//W3C//DTD SVG 1.1//EN"
 "http://www.w3.org/Graphics/SVG/1.1/DTD/svg11.dtd">
<!-- Generated by graphviz version 2.38.0 (20140413.2041)
 -->
<!-- Title: /home/travis/build/AliceO2Group/Monitoring/src/MonitoringFactory.cxx Pages: 1 -->
<!--zoomable 386 -->
<svg id="main" version="1.1" xmlns="http://www.w3.org/2000/svg" xmlns:xlink="http://www.w3.org/1999/xlink" xml:space="preserve" onload="init(evt)">
<style type="text/css"><![CDATA[
.edge:hover path { stroke: red; }
.edge:hover polygon { stroke: red; fill: red; }
]]></style>
<script type="text/javascript"><![CDATA[
var edges = document.getElementsByTagName('g');
if (edges && edges.length) {
  for (var i=0;i<edges.length;i++) {
    if (edges[i].id.substr(0,4)=='edge') {
      edges[i].setAttribute('class','edge');
    }
  }
}
]]></script>
        <defs>
                <circle id="rim" cx="0" cy="0" r="7"/>
                <circle id="rim2" cx="0" cy="0" r="3.5"/>
                <g id="zoomPlus">
                        <use xlink:href="#rim" fill="#404040">
                                <set attributeName="fill" to="#808080" begin="zoomplus.mouseover" end="zoomplus.mouseout"/>
                        </use>
                        <path d="M-4,0h8M0,-4v8" fill="none" stroke="white" stroke-width="1.5" pointer-events="none"/>
                </g>
                <g id="zoomMin">
                        <use xlink:href="#rim" fill="#404040">
                                <set attributeName="fill" to="#808080" begin="zoomminus.mouseover" end="zoomminus.mouseout"/>
                        </use>
                        <path d="M-4,0h8" fill="none" stroke="white" stroke-width="1.5" pointer-events="none"/>
                </g>
                <g id="dirArrow">
                        <path fill="none" stroke="white" stroke-width="1.5" d="M0,-3.0v7 M-2.5,-0.5L0,-3.0L2.5,-0.5"/>
                </g>
               <g id="resetDef">
                       <use xlink:href="#rim2" fill="#404040">
                               <set attributeName="fill" to="#808080" begin="reset.mouseover" end="reset.mouseout"/>
                       </use>
               </g>
        </defs>

<script type="text/javascript">
var viewWidth = 1884;
var viewHeight = 386;
var sectionId = 'dynsection-0';
</script>
<script xlink:href="svgpan.js"/>
<svg id="graph" class="graph">
<g id="viewport">
<title>/home/travis/build/AliceO2Group/Monitoring/src/MonitoringFactory.cxx</title>
<!-- Node1 -->
<g id="node1" class="node"><title>Node1</title>
<polygon fill="#bfbfbf" stroke="black" points="626.423,-336.5 626.423,-377.5 759.423,-377.5 759.423,-336.5 626.423,-336.5"/>
<text text-anchor="start" x="634.423" y="-365.5" font-family="Helvetica,sans-Serif" font-size="10.00">/home/travis/build</text>
<text text-anchor="start" x="634.423" y="-354.5" font-family="Helvetica,sans-Serif" font-size="10.00">/AliceO2Group/Monitoring</text>
<text text-anchor="middle" x="692.923" y="-343.5" font-family="Helvetica,sans-Serif" font-size="10.00">/src/MonitoringFactory.cxx</text>
</g>
<!-- Node2 -->
<g id="node2" class="node"><title>Node2</title>
<g id="a_node2"><a xlink:href="MonitoringFactory_8h.html" target="_top" xlink:title="Monitoring/MonitoringFactory.h">
<polygon fill="none" stroke="black" points="816.423,-280.5 816.423,-299.5 967.423,-299.5 967.423,-280.5 816.423,-280.5"/>
<text text-anchor="middle" x="891.923" y="-287.5" font-family="Helvetica,sans-Serif" font-size="10.00">Monitoring/MonitoringFactory.h</text>
</a>
</g>
</g>
<!-- Node1&#45;&gt;Node2 -->
<g id="edge1" class="edge"><title>Node1&#45;&gt;Node2</title>
<path fill="none" stroke="midnightblue" d="M752.629,-336.498C786.323,-325.493 827.304,-312.106 856.064,-302.713"/>
<polygon fill="midnightblue" stroke="midnightblue" points="857.275,-305.999 865.694,-299.567 855.102,-299.345 857.275,-305.999"/>
</g>
<!-- Node21 -->
<g id="node21" class="node"><title>Node21</title>
<polygon fill="none" stroke="#bfbfbf" points="216.423,-56.5 216.423,-75.5 345.423,-75.5 345.423,-56.5 216.423,-56.5"/>
<text text-anchor="middle" x="280.923" y="-63.5" font-family="Helvetica,sans-Serif" font-size="10.00">boost/algorithm/string.hpp</text>
</g>
<!-- Node1&#45;&gt;Node21 -->
<g id="edge41" class="edge"><title>Node1&#45;&gt;Node21</title>
<path fill="none" stroke="midnightblue" d="M626.401,-353.71C490.546,-347.219 193.923,-322.973 193.923,-235 193.923,-235 193.923,-235 193.923,-177 193.923,-146.902 195.062,-136.226 212.923,-112 222.888,-98.4832 238.219,-87.8308 251.803,-80.2905"/>
<polygon fill="midnightblue" stroke="midnightblue" points="253.597,-83.3022 260.841,-75.5706 250.356,-77.0974 253.597,-83.3022"/>
</g>
<!-- Node24 -->
<g id="node24" class="node"><title>Node24</title>
<polygon fill="none" stroke="#bfbfbf" points="985.423,-280.5 985.423,-299.5 1044.42,-299.5 1044.42,-280.5 985.423,-280.5"/>
<text text-anchor="middle" x="1014.92" y="-287.5" font-family="Helvetica,sans-Serif" font-size="10.00">functional</text>
</g>
<!-- Node1&#45;&gt;Node24 -->
<g id="edge39" class="edge"><title>Node1&#45;&gt;Node24</title>
<path fill="none" stroke="midnightblue" d="M759.659,-343.408C814.728,-332.877 895.169,-317.172 974.908,-300.165"/>
<polygon fill="midnightblue" stroke="midnightblue" points="976.088,-303.492 985.134,-297.976 974.623,-296.647 976.088,-303.492"/>
</g>
<!-- Node25 -->
<g id="node25" class="node"><title>Node25</title>
<polygon fill="none" stroke="#bfbfbf" points="1062.42,-280.5 1062.42,-299.5 1121.42,-299.5 1121.42,-280.5 1062.42,-280.5"/>
<text text-anchor="middle" x="1091.92" y="-287.5" font-family="Helvetica,sans-Serif" font-size="10.00">stdexcept</text>
</g>
<!-- Node1&#45;&gt;Node25 -->
<g id="edge40" class="edge"><title>Node1&#45;&gt;Node25</title>
<path fill="none" stroke="midnightblue" d="M759.524,-347.114C829.777,-337.407 943.899,-320.698 1052.05,-300.048"/>
<polygon fill="midnightblue" stroke="midnightblue" points="1053,-303.429 1062.16,-298.102 1051.68,-296.555 1053,-303.429"/>
</g>
<!-- Node26 -->
<g id="node26" class="node"><title>Node26</title>
<g id="a_node26"><a xlink:href="MonLogger_8h.html" target="_top" xlink:title="MonLogger.h">
<polygon fill="none" stroke="black" points="526.423,-168.5 526.423,-187.5 599.423,-187.5 599.423,-168.5 526.423,-168.5"/>
<text text-anchor="middle" x="562.923" y="-175.5" font-family="Helvetica,sans-Serif" font-size="10.00">MonLogger.h</text>
</a>
</g>
</g>
<!-- Node1&#45;&gt;Node26 -->
<g id="edge42" class="edge"><title>Node1&#45;&gt;Node26</title>
<path fill="none" stroke="midnightblue" d="M678.514,-336.382C652.772,-301.333 599.327,-228.565 575.206,-195.724"/>
<polygon fill="midnightblue" stroke="midnightblue" points="577.968,-193.572 569.227,-187.584 572.326,-197.715 577.968,-193.572"/>
</g>
<!-- Node28 -->
<g id="node28" class="node"><title>Node28</title>
<g id="a_node28"><a xlink:href="UriParser_8h_source.html" target="_top" xlink:title="UriParser/UriParser.h">
<polygon fill="none" stroke="black" points="377.923,-168.5 377.923,-187.5 487.923,-187.5 487.923,-168.5 377.923,-168.5"/>
<text text-anchor="middle" x="432.923" y="-175.5" font-family="Helvetica,sans-Serif" font-size="10.00">UriParser/UriParser.h</text>
</a>
</g>
</g>
<!-- Node1&#45;&gt;Node28 -->
<g id="edge46" class="edge"><title>Node1&#45;&gt;Node28</title>
<path fill="none" stroke="midnightblue" d="M664.105,-336.382C611.301,-300.435 500.213,-224.809 453.895,-193.277"/>
<polygon fill="midnightblue" stroke="midnightblue" points="455.768,-190.318 445.532,-187.584 451.828,-196.104 455.768,-190.318"/>
</g>
<!-- Node30 -->
<g id="node30" class="node"><title>Node30</title>
<g id="a_node30"><a xlink:href="Backends_2StdOut_8h_source.html" target="_top" xlink:title="Backends/StdOut.h">
<polygon fill="none" stroke="black" points="867.923,-224.5 867.923,-243.5 969.923,-243.5 969.923,-224.5 867.923,-224.5"/>
<text text-anchor="middle" x="918.923" y="-231.5" font-family="Helvetica,sans-Serif" font-size="10.00">Backends/StdOut.h</text>
</a>
</g>
</g>
<!-- Node1&#45;&gt;Node30 -->
<g id="edge50" class="edge"><title>Node1&#45;&gt;Node30</title>
<path fill="none" stroke="midnightblue" d="M709.326,-336.2C724.473,-319.092 748.426,-294.845 773.923,-280 801.513,-263.936 835.456,-253 863.563,-245.934"/>
<polygon fill="midnightblue" stroke="midnightblue" points="864.732,-249.253 873.631,-243.504 863.089,-242.448 864.732,-249.253"/>
</g>
<!-- Node32 -->
<g id="node32" class="node"><title>Node32</title>
<g id="a_node32"><a xlink:href="Noop_8h.html" target="_top" xlink:title="Backends/Noop.h">
<polygon fill="none" stroke="black" points="998.423,-224.5 998.423,-243.5 1093.42,-243.5 1093.42,-224.5 998.423,-224.5"/>
<text text-anchor="middle" x="1045.92" y="-231.5" font-family="Helvetica,sans-Serif" font-size="10.00">Backends/Noop.h</text>
</a>
</g>
</g>
<!-- Node1&#45;&gt;Node32 -->
<g id="edge54" class="edge"><title>Node1&#45;&gt;Node32</title>
<path fill="none" stroke="midnightblue" d="M721.068,-336.379C751.741,-315.135 797.699,-283.76 806.923,-280 839.032,-266.912 928.322,-252.094 988.201,-243.154"/>
<polygon fill="midnightblue" stroke="midnightblue" points="988.901,-246.589 998.281,-241.663 987.877,-239.664 988.901,-246.589"/>
</g>
<!-- Node33 -->
<g id="node33" class="node"><title>Node33</title>
<g id="a_node33"><a xlink:href="InfluxDB_8h.html" target="_top" xlink:title="Backends/InfluxDB.h">
<polygon fill="none" stroke="black" points="709.923,-224.5 709.923,-243.5 819.923,-243.5 819.923,-224.5 709.923,-224.5"/>
<text text-anchor="middle" x="764.923" y="-231.5" font-family="Helvetica,sans-Serif" font-size="10.00">Backends/InfluxDB.h</text>
</a>
</g>
</g>
<!-- Node1&#45;&gt;Node33 -->
<g id="edge56" class="edge"><title>Node1&#45;&gt;Node33</title>
<path fill="none" stroke="midnightblue" d="M703.576,-336.455C712.097,-320.998 724.473,-298.942 735.923,-280 741.582,-270.638 748.167,-260.372 753.631,-252.012"/>
<polygon fill="midnightblue" stroke="midnightblue" points="756.638,-253.811 759.214,-243.534 750.791,-249.961 756.638,-253.811"/>
</g>
<!-- Node35 -->
<g id="node35" class="node"><title>Node35</title>
<g id="a_node35"><a xlink:href="UDP_8h.html" target="_top" xlink:title="Transports/UDP.h">
<polygon fill="none" stroke="black" points="69.9227,-112.5 69.9227,-131.5 165.923,-131.5 165.923,-112.5 69.9227,-112.5"/>
<text text-anchor="middle" x="117.923" y="-119.5" font-family="Helvetica,sans-Serif" font-size="10.00">Transports/UDP.h</text>
</a>
</g>
</g>
<!-- Node1&#45;&gt;Node35 -->
<g id="edge63" class="edge"><title>Node1&#45;&gt;Node35</title>
<path fill="none" stroke="midnightblue" d="M626.255,-352.659C495.307,-345.532 214.209,-327.236 179.923,-300 130.462,-260.71 120.36,-179.318 118.368,-142.201"/>
<polygon fill="midnightblue" stroke="midnightblue" points="121.85,-141.673 117.966,-131.815 114.855,-141.943 121.85,-141.673"/>
</g>
<!-- Node38 -->
<g id="node38" class="node"><title>Node38</title>
<g id="a_node38"><a xlink:href="Unix_8h.html" target="_top" xlink:title="Transports/Unix.h">
<polygon fill="none" stroke="black" points="222.423,-112.5 222.423,-131.5 317.423,-131.5 317.423,-112.5 222.423,-112.5"/>
<text text-anchor="middle" x="269.923" y="-119.5" font-family="Helvetica,sans-Serif" font-size="10.00">Transports/Unix.h</text>
</a>
</g>
</g>
<!-- Node1&#45;&gt;Node38 -->
<g id="edge70" class="edge"><title>Node1&#45;&gt;Node38</title>
<path fill="none" stroke="midnightblue" d="M651.747,-336.432C589.45,-306.431 468,-246.389 368.923,-188 341.119,-171.615 310.193,-150.887 290.426,-137.301"/>
<polygon fill="midnightblue" stroke="midnightblue" points="292.396,-134.408 282.18,-131.603 288.417,-140.167 292.396,-134.408"/>
</g>
<!-- Node39 -->
<g id="node39" class="node"><title>Node39</title>
<g id="a_node39"><a xlink:href="Transports_2StdOut_8h_source.html" target="_top" xlink:title="Transports/StdOut.h">
<polygon fill="none" stroke="black" points="656.423,-112.5 656.423,-131.5 761.423,-131.5 761.423,-112.5 656.423,-112.5"/>
<text text-anchor="middle" x="708.923" y="-119.5" font-family="Helvetica,sans-Serif" font-size="10.00">Transports/StdOut.h</text>
</a>
</g>
</g>
<!-- Node1&#45;&gt;Node39 -->
<g id="edge77" class="edge"><title>Node1&#45;&gt;Node39</title>
<path fill="none" stroke="midnightblue" d="M694.002,-336.313C695.442,-310.51 698.137,-263.851 700.923,-224 702.931,-195.264 705.644,-161.96 707.338,-141.693"/>
<polygon fill="midnightblue" stroke="midnightblue" points="710.833,-141.901 708.184,-131.643 703.857,-141.314 710.833,-141.901"/>
</g>
<!-- Node3 -->
<g id="node3" class="node"><title>Node3</title>
<g id="a_node3"><a xlink:href="Monitoring_8h.html" target="_top" xlink:title="Monitoring/Monitoring.h">
<polygon fill="none" stroke="black" points="1398.92,-224.5 1398.92,-243.5 1516.92,-243.5 1516.92,-224.5 1398.92,-224.5"/>
<text text-anchor="middle" x="1457.92" y="-231.5" font-family="Helvetica,sans-Serif" font-size="10.00">Monitoring/Monitoring.h</text>
</a>
</g>
</g>
<!-- Node2&#45;&gt;Node3 -->
<g id="edge2" class="edge"><title>Node2&#45;&gt;Node3</title>
<path fill="none" stroke="midnightblue" d="M967.474,-280.856C970.326,-280.564 973.15,-280.278 975.923,-280 1122.82,-265.274 1295.07,-249.569 1388.71,-241.162"/>
<polygon fill="midnightblue" stroke="midnightblue" points="1389.26,-244.628 1398.91,-240.248 1388.64,-237.656 1389.26,-244.628"/>
</g>
<!-- Node4 -->
<g id="node4" class="node"><title>Node4</title>
<polygon fill="none" stroke="#bfbfbf" points="1377.92,-112.5 1377.92,-131.5 1423.92,-131.5 1423.92,-112.5 1377.92,-112.5"/>
<text text-anchor="middle" x="1400.92" y="-119.5" font-family="Helvetica,sans-Serif" font-size="10.00">atomic</text>
</g>
<!-- Node3&#45;&gt;Node4 -->
<g id="edge3" class="edge"><title>Node3&#45;&gt;Node4</title>
<path fill="none" stroke="midnightblue" d="M1450.3,-224.193C1443.04,-215.464 1432.17,-201.483 1424.92,-188 1416.91,-173.1 1410.46,-154.956 1406.27,-141.628"/>
<polygon fill="midnightblue" stroke="midnightblue" points="1409.53,-140.312 1403.3,-131.742 1402.83,-142.326 1409.53,-140.312"/>
</g>
<!-- Node5 -->
<g id="node5" class="node"><title>Node5</title>
<polygon fill="none" stroke="#bfbfbf" points="794.923,-56.5 794.923,-75.5 840.923,-75.5 840.923,-56.5 794.923,-56.5"/>
<text text-anchor="middle" x="817.923" y="-63.5" font-family="Helvetica,sans-Serif" font-size="10.00">chrono</text>
</g>
<!-- Node3&#45;&gt;Node5 -->
<g id="edge4" class="edge"><title>Node3&#45;&gt;Node5</title>
<path fill="none" stroke="midnightblue" d="M1398.72,-228.951C1337.63,-223.651 1240.08,-212.043 1158.92,-188 1138.33,-181.899 1134.89,-175.912 1114.92,-168 1020.3,-130.514 905.568,-93.9376 850.5,-76.917"/>
<polygon fill="midnightblue" stroke="midnightblue" points="851.518,-73.5682 840.931,-73.9706 849.458,-80.2583 851.518,-73.5682"/>
</g>
<!-- Node6 -->
<g id="node6" class="node"><title>Node6</title>
<polygon fill="none" stroke="#bfbfbf" points="1375.42,-56.5 1375.42,-75.5 1410.42,-75.5 1410.42,-56.5 1375.42,-56.5"/>
<text text-anchor="middle" x="1392.92" y="-63.5" font-family="Helvetica,sans-Serif" font-size="10.00">map</text>
</g>
<!-- Node3&#45;&gt;Node6 -->
<g id="edge5" class="edge"><title>Node3&#45;&gt;Node6</title>
<path fill="none" stroke="midnightblue" d="M1457.65,-224.289C1456.69,-203.674 1452.36,-150.726 1432.92,-112 1427.44,-101.07 1418.61,-90.7311 1410.64,-82.7261"/>
<polygon fill="midnightblue" stroke="midnightblue" points="1412.77,-79.9224 1403.12,-75.5637 1407.95,-84.9931 1412.77,-79.9224"/>
</g>
<!-- Node7 -->
<g id="node7" class="node"><title>Node7</title>
<polygon fill="none" stroke="#bfbfbf" points="1622.92,-112.5 1622.92,-131.5 1674.92,-131.5 1674.92,-112.5 1622.92,-112.5"/>
<text text-anchor="middle" x="1648.92" y="-119.5" font-family="Helvetica,sans-Serif" font-size="10.00">memory</text>
</g>
<!-- Node3&#45;&gt;Node7 -->
<g id="edge6" class="edge"><title>Node3&#45;&gt;Node7</title>
<path fill="none" stroke="midnightblue" d="M1517.2,-227.353C1568.21,-221.124 1636.16,-209.072 1652.92,-188 1663.24,-175.027 1660.43,-155.591 1656.14,-141.352"/>
<polygon fill="midnightblue" stroke="midnightblue" points="1659.36,-139.961 1652.77,-131.669 1652.75,-142.264 1659.36,-139.961"/>
</g>
<!-- Node8 -->
<g id="node8" class="node"><title>Node8</title>
<polygon fill="none" stroke="#bfbfbf" points="959.423,-0.5 959.423,-19.5 1000.42,-19.5 1000.42,-0.5 959.423,-0.5"/>
<text text-anchor="middle" x="979.923" y="-7.5" font-family="Helvetica,sans-Serif" font-size="10.00">string</text>
</g>
<!-- Node3&#45;&gt;Node8 -->
<g id="edge7" class="edge"><title>Node3&#45;&gt;Node8</title>
<path fill="none" stroke="midnightblue" d="M1398.86,-228.907C1343.95,-223.737 1260.56,-212.37 1191.92,-188 1180.01,-183.771 1102.85,-139.82 1092.92,-132 1071.34,-115.003 1019,-55.9374 993.855,-27.0956"/>
<polygon fill="midnightblue" stroke="midnightblue" points="996.462,-24.7595 987.261,-19.5075 991.178,-29.3513 996.462,-24.7595"/>
</g>
<!-- Node9 -->
<g id="node9" class="node"><title>Node9</title>
<polygon fill="none" stroke="#bfbfbf" points="1700.92,-168.5 1700.92,-187.5 1744.92,-187.5 1744.92,-168.5 1700.92,-168.5"/>
<text text-anchor="middle" x="1722.92" y="-175.5" font-family="Helvetica,sans-Serif" font-size="10.00">thread</text>
</g>
<!-- Node3&#45;&gt;Node9 -->
<g id="edge8" class="edge"><title>Node3&#45;&gt;Node9</title>
<path fill="none" stroke="midnightblue" d="M1505,-224.475C1551.4,-215.902 1624.24,-201.984 1686.92,-188 1688.2,-187.716 1689.49,-187.42 1690.8,-187.117"/>
<polygon fill="midnightblue" stroke="midnightblue" points="1691.97,-190.436 1700.88,-184.699 1690.34,-183.629 1691.97,-190.436"/>
</g>
<!-- Node10 -->
<g id="node10" class="node"><title>Node10</title>
<polygon fill="none" stroke="#bfbfbf" points="1762.92,-168.5 1762.92,-187.5 1800.92,-187.5 1800.92,-168.5 1762.92,-168.5"/>
<text text-anchor="middle" x="1781.92" y="-175.5" font-family="Helvetica,sans-Serif" font-size="10.00">tuple</text>
</g>
<!-- Node3&#45;&gt;Node10 -->
<g id="edge9" class="edge"><title>Node3&#45;&gt;Node10</title>
<path fill="none" stroke="midnightblue" d="M1517.14,-226.825C1575.11,-220.145 1665.98,-207.985 1752.99,-187.899"/>
<polygon fill="midnightblue" stroke="midnightblue" points="1753.82,-191.299 1762.76,-185.607 1752.22,-184.485 1753.82,-191.299"/>
</g>
<!-- Node11 -->
<g id="node11" class="node"><title>Node11</title>
<polygon fill="none" stroke="#bfbfbf" points="1771.42,-112.5 1771.42,-131.5 1854.42,-131.5 1854.42,-112.5 1771.42,-112.5"/>
<text text-anchor="middle" x="1812.92" y="-119.5" font-family="Helvetica,sans-Serif" font-size="10.00">unordered_map</text>
</g>
<!-- Node3&#45;&gt;Node11 -->
<g id="edge10" class="edge"><title>Node3&#45;&gt;Node11</title>
<path fill="none" stroke="midnightblue" d="M1517.27,-230.837C1625.9,-226.263 1847.75,-213.839 1870.92,-188 1886.81,-170.287 1861.27,-149.797 1839.21,-136.632"/>
<polygon fill="midnightblue" stroke="midnightblue" points="1840.84,-133.53 1830.41,-131.634 1837.38,-139.617 1840.84,-133.53"/>
</g>
<!-- Node12 -->
<g id="node12" class="node"><title>Node12</title>
<polygon fill="none" stroke="#bfbfbf" points="1441.92,-56.5 1441.92,-75.5 1485.92,-75.5 1485.92,-56.5 1441.92,-56.5"/>
<text text-anchor="middle" x="1463.92" y="-63.5" font-family="Helvetica,sans-Serif" font-size="10.00">vector</text>
</g>
<!-- Node3&#45;&gt;Node12 -->
<g id="edge11" class="edge"><title>Node3&#45;&gt;Node12</title>
<path fill="none" stroke="midnightblue" d="M1459.04,-224.206C1461.45,-204.269 1466.86,-154.095 1465.92,-112 1465.73,-103.391 1465.33,-93.8632 1464.94,-85.799"/>
<polygon fill="midnightblue" stroke="midnightblue" points="1468.43,-85.4294 1464.42,-75.623 1461.44,-85.79 1468.43,-85.4294"/>
</g>
<!-- Node13 -->
<g id="node13" class="node"><title>Node13</title>
<polygon fill="none" stroke="#bfbfbf" points="1819.42,-168.5 1819.42,-187.5 1862.42,-187.5 1862.42,-168.5 1819.42,-168.5"/>
<text text-anchor="middle" x="1840.92" y="-175.5" font-family="Helvetica,sans-Serif" font-size="10.00">deque</text>
</g>
<!-- Node3&#45;&gt;Node13 -->
<g id="edge12" class="edge"><title>Node3&#45;&gt;Node13</title>
<path fill="none" stroke="midnightblue" d="M1516.93,-228.279C1585.17,-222.191 1700.95,-209.926 1809.54,-187.761"/>
<polygon fill="midnightblue" stroke="midnightblue" points="1810.27,-191.185 1819.35,-185.727 1808.85,-184.33 1810.27,-191.185"/>
</g>
<!-- Node14 -->
<g id="node14" class="node"><title>Node14</title>
<g id="a_node14"><a xlink:href="Backend_8h.html" target="_top" xlink:title="Monitoring/Backend.h">
<polygon fill="none" stroke="black" points="995.423,-168.5 995.423,-187.5 1106.42,-187.5 1106.42,-168.5 995.423,-168.5"/>
<text text-anchor="middle" x="1050.92" y="-175.5" font-family="Helvetica,sans-Serif" font-size="10.00">Monitoring/Backend.h</text>
</a>
</g>
</g>
<!-- Node3&#45;&gt;Node14 -->
<g id="edge13" class="edge"><title>Node3&#45;&gt;Node14</title>
<path fill="none" stroke="midnightblue" d="M1398.74,-225.148C1323.73,-215.196 1194.83,-198.093 1116.77,-187.737"/>
<polygon fill="midnightblue" stroke="midnightblue" points="1116.95,-184.23 1106.58,-186.384 1116.03,-191.169 1116.95,-184.23"/>
</g>
<!-- Node19 -->
<g id="node19" class="node"><title>Node19</title>
<g id="a_node19"><a xlink:href="DerivedMetrics_8h.html" target="_top" xlink:title="Monitoring/DerivedMetrics.h">
<polygon fill="none" stroke="black" points="1505.42,-168.5 1505.42,-187.5 1644.42,-187.5 1644.42,-168.5 1505.42,-168.5"/>
<text text-anchor="middle" x="1574.92" y="-175.5" font-family="Helvetica,sans-Serif" font-size="10.00">Monitoring/DerivedMetrics.h</text>
</a>
</g>
</g>
<!-- Node3&#45;&gt;Node19 -->
<g id="edge25" class="edge"><title>Node3&#45;&gt;Node19</title>
<path fill="none" stroke="midnightblue" d="M1476.46,-224.444C1495.55,-215.636 1525.5,-201.812 1547.36,-191.722"/>
<polygon fill="midnightblue" stroke="midnightblue" points="1548.86,-194.885 1556.47,-187.516 1545.92,-188.529 1548.86,-194.885"/>
</g>
<!-- Node20 -->
<g id="node20" class="node"><title>Node20</title>
<g id="a_node20"><a xlink:href="ProcessMonitor_8h.html" target="_top" xlink:title="Monitoring/ProcessMonitor.h">
<polygon fill="none" stroke="black" points="1201.42,-168.5 1201.42,-187.5 1342.42,-187.5 1342.42,-168.5 1201.42,-168.5"/>
<text text-anchor="middle" x="1271.92" y="-175.5" font-family="Helvetica,sans-Serif" font-size="10.00">Monitoring/ProcessMonitor.h</text>
</a>
</g>
</g>
<!-- Node3&#45;&gt;Node20 -->
<g id="edge31" class="edge"><title>Node3&#45;&gt;Node20</title>
<path fill="none" stroke="midnightblue" d="M1428.45,-224.444C1396.75,-215.241 1346.19,-200.562 1311.15,-190.388"/>
<polygon fill="midnightblue" stroke="midnightblue" points="1311.84,-186.943 1301.26,-187.516 1309.88,-193.666 1311.84,-186.943"/>
</g>
<!-- Node14&#45;&gt;Node5 -->
<g id="edge14" class="edge"><title>Node14&#45;&gt;Node5</title>
<path fill="none" stroke="midnightblue" d="M997.443,-168.487C964.919,-161.783 923.352,-150.413 889.923,-132 866.987,-119.368 845.352,-98.1024 831.898,-83.3507"/>
<polygon fill="midnightblue" stroke="midnightblue" points="834.225,-80.6982 824.974,-75.5324 828.984,-85.3392 834.225,-80.6982"/>
</g>
<!-- Node14&#45;&gt;Node8 -->
<g id="edge15" class="edge"><title>Node14&#45;&gt;Node8</title>
<path fill="none" stroke="midnightblue" d="M1047.11,-168.075C1035.88,-141.832 1002.82,-64.5453 987.671,-29.1165"/>
<polygon fill="midnightblue" stroke="midnightblue" points="990.738,-27.386 983.587,-19.5681 984.302,-30.1388 990.738,-27.386"/>
</g>
<!-- Node15 -->
<g id="node15" class="node"><title>Node15</title>
<g id="a_node15"><a xlink:href="Metric_8h.html" target="_top" xlink:title="Monitoring/Metric.h">
<polygon fill="none" stroke="black" points="1221.92,-112.5 1221.92,-131.5 1321.92,-131.5 1321.92,-112.5 1221.92,-112.5"/>
<text text-anchor="middle" x="1271.92" y="-119.5" font-family="Helvetica,sans-Serif" font-size="10.00">Monitoring/Metric.h</text>
</a>
</g>
</g>
<!-- Node14&#45;&gt;Node15 -->
<g id="edge16" class="edge"><title>Node14&#45;&gt;Node15</title>
<path fill="none" stroke="midnightblue" d="M1085.94,-168.444C1124.17,-159.102 1185.49,-144.119 1227.18,-133.933"/>
<polygon fill="midnightblue" stroke="midnightblue" points="1228.18,-137.29 1237.07,-131.516 1226.52,-130.49 1228.18,-137.29"/>
</g>
<!-- Node15&#45;&gt;Node5 -->
<g id="edge18" class="edge"><title>Node15&#45;&gt;Node5</title>
<path fill="none" stroke="midnightblue" d="M1221.85,-113.355C1218.49,-112.883 1215.16,-112.428 1211.92,-112 1078.46,-94.374 919.01,-77.4201 851.139,-70.395"/>
<polygon fill="midnightblue" stroke="midnightblue" points="851.357,-66.899 841.05,-69.3542 850.638,-73.8621 851.357,-66.899"/>
</g>
<!-- Node15&#45;&gt;Node6 -->
<g id="edge19" class="edge"><title>Node15&#45;&gt;Node6</title>
<path fill="none" stroke="midnightblue" d="M1291.1,-112.444C1311.3,-103.428 1343.27,-89.1583 1366,-79.0161"/>
<polygon fill="midnightblue" stroke="midnightblue" points="1367.71,-82.0867 1375.41,-74.8151 1364.85,-75.6944 1367.71,-82.0867"/>
</g>
<!-- Node15&#45;&gt;Node8 -->
<g id="edge17" class="edge"><title>Node15&#45;&gt;Node8</title>
<path fill="none" stroke="midnightblue" d="M1251.05,-112.424C1220,-99.7306 1159.71,-75.3557 1107.92,-56 1074.81,-43.6224 1036.53,-30.2917 1010.52,-21.3794"/>
<polygon fill="midnightblue" stroke="midnightblue" points="1011.45,-17.9975 1000.85,-18.0764 1009.19,-24.6216 1011.45,-17.9975"/>
</g>
<!-- Node15&#45;&gt;Node12 -->
<g id="edge22" class="edge"><title>Node15&#45;&gt;Node12</title>
<path fill="none" stroke="midnightblue" d="M1302.35,-112.444C1337.67,-102.51 1395.67,-86.1958 1431.73,-76.0544"/>
<polygon fill="midnightblue" stroke="midnightblue" points="1433.04,-79.3205 1441.72,-73.2437 1431.15,-72.582 1433.04,-79.3205"/>
</g>
<!-- Node16 -->
<g id="node16" class="node"><title>Node16</title>
<polygon fill="none" stroke="#bfbfbf" points="1238.42,-56.5 1238.42,-75.5 1279.42,-75.5 1279.42,-56.5 1238.42,-56.5"/>
<text text-anchor="middle" x="1258.92" y="-63.5" font-family="Helvetica,sans-Serif" font-size="10.00">regex</text>
</g>
<!-- Node15&#45;&gt;Node16 -->
<g id="edge20" class="edge"><title>Node15&#45;&gt;Node16</title>
<path fill="none" stroke="midnightblue" d="M1269.78,-112.083C1268.05,-104.927 1265.58,-94.6353 1263.42,-85.6911"/>
<polygon fill="midnightblue" stroke="midnightblue" points="1266.77,-84.6541 1261.03,-75.7511 1259.97,-86.2925 1266.77,-84.6541"/>
</g>
<!-- Node17 -->
<g id="node17" class="node"><title>Node17</title>
<polygon fill="none" stroke="#bfbfbf" points="1297.92,-56.5 1297.92,-75.5 1343.92,-75.5 1343.92,-56.5 1297.92,-56.5"/>
<text text-anchor="middle" x="1320.92" y="-63.5" font-family="Helvetica,sans-Serif" font-size="10.00">variant</text>
</g>
<!-- Node15&#45;&gt;Node17 -->
<g id="edge21" class="edge"><title>Node15&#45;&gt;Node17</title>
<path fill="none" stroke="midnightblue" d="M1280.01,-112.083C1287.08,-104.298 1297.51,-92.8015 1306.07,-83.3665"/>
<polygon fill="midnightblue" stroke="midnightblue" points="1308.85,-85.5087 1312.98,-75.7511 1303.67,-80.8047 1308.85,-85.5087"/>
</g>
<!-- Node18 -->
<g id="node18" class="node"><title>Node18</title>
<g id="a_node18"><a xlink:href="Tags_8h.html" target="_top" xlink:title="Tags.h">
<polygon fill="none" stroke="black" points="1170.42,-56.5 1170.42,-75.5 1217.42,-75.5 1217.42,-56.5 1170.42,-56.5"/>
<text text-anchor="middle" x="1193.92" y="-63.5" font-family="Helvetica,sans-Serif" font-size="10.00">Tags.h</text>
</a>
</g>
</g>
<!-- Node15&#45;&gt;Node18 -->
<g id="edge23" class="edge"><title>Node15&#45;&gt;Node18</title>
<path fill="none" stroke="midnightblue" d="M1259.39,-112.324C1247.34,-103.979 1228.9,-91.2122 1214.65,-81.3524"/>
<polygon fill="midnightblue" stroke="midnightblue" points="1216.64,-78.469 1206.42,-75.6545 1212.65,-84.2243 1216.64,-78.469"/>
</g>
<!-- Node18&#45;&gt;Node8 -->
<g id="edge24" class="edge"><title>Node18&#45;&gt;Node8</title>
<path fill="none" stroke="midnightblue" d="M1170.2,-59.0147C1131.2,-49.1718 1053.54,-29.5775 1010.48,-18.7098"/>
<polygon fill="midnightblue" stroke="midnightblue" points="1011.12,-15.263 1000.57,-16.2099 1009.41,-22.0503 1011.12,-15.263"/>
</g>
<!-- Node19&#45;&gt;Node7 -->
<g id="edge27" class="edge"><title>Node19&#45;&gt;Node7</title>
<path fill="none" stroke="midnightblue" d="M1586.81,-168.324C1598.07,-160.107 1615.21,-147.602 1628.63,-137.807"/>
<polygon fill="midnightblue" stroke="midnightblue" points="1630.8,-140.556 1636.82,-131.834 1626.68,-134.901 1630.8,-140.556"/>
</g>
<!-- Node19&#45;&gt;Node8 -->
<g id="edge28" class="edge"><title>Node19&#45;&gt;Node8</title>
<path fill="none" stroke="midnightblue" d="M1572.21,-168.269C1564.5,-145.112 1540.04,-82.1195 1494.92,-56 1453.01,-31.732 1115.62,-16.395 1010.84,-12.1821"/>
<polygon fill="midnightblue" stroke="midnightblue" points="1010.75,-8.6757 1000.62,-11.7767 1010.47,-15.6702 1010.75,-8.6757"/>
</g>
<!-- Node19&#45;&gt;Node11 -->
<g id="edge26" class="edge"><title>Node19&#45;&gt;Node11</title>
<path fill="none" stroke="midnightblue" d="M1612.63,-168.444C1654.07,-159.043 1720.68,-143.929 1765.59,-133.739"/>
<polygon fill="midnightblue" stroke="midnightblue" points="1766.41,-137.142 1775.39,-131.516 1764.86,-130.316 1766.41,-137.142"/>
</g>
<!-- Node19&#45;&gt;Node12 -->
<g id="edge29" class="edge"><title>Node19&#45;&gt;Node12</title>
<path fill="none" stroke="midnightblue" d="M1566.21,-168.368C1547.57,-149.894 1503.57,-106.293 1479.81,-82.7436"/>
<polygon fill="midnightblue" stroke="midnightblue" points="1482.16,-80.1444 1472.59,-75.5914 1477.23,-85.1165 1482.16,-80.1444"/>
</g>
<!-- Node19&#45;&gt;Node15 -->
<g id="edge30" class="edge"><title>Node19&#45;&gt;Node15</title>
<path fill="none" stroke="midnightblue" d="M1526.91,-168.444C1473.39,-158.905 1386.86,-143.483 1329.68,-133.293"/>
<polygon fill="midnightblue" stroke="midnightblue" points="1330.17,-129.825 1319.71,-131.516 1328.94,-136.717 1330.17,-129.825"/>
</g>
<!-- Node20&#45;&gt;Node4 -->
<g id="edge32" class="edge"><title>Node20&#45;&gt;Node4</title>
<path fill="none" stroke="midnightblue" d="M1292.36,-168.444C1313.59,-159.557 1347.02,-145.563 1371.18,-135.451"/>
<polygon fill="midnightblue" stroke="midnightblue" points="1372.7,-138.606 1380.58,-131.516 1370,-132.149 1372.7,-138.606"/>
</g>
<!-- Node20&#45;&gt;Node8 -->
<g id="edge35" class="edge"><title>Node20&#45;&gt;Node8</title>
<path fill="none" stroke="midnightblue" d="M1201.18,-169.06C1171.48,-162.844 1138.08,-151.76 1112.92,-132 1082.4,-108.026 1098.06,-82.7305 1069.92,-56 1052.96,-39.8854 1029.11,-28.3154 1010.23,-20.9455"/>
<polygon fill="midnightblue" stroke="midnightblue" points="1011.19,-17.5687 1000.59,-17.3768 1008.76,-24.1328 1011.19,-17.5687"/>
</g>
<!-- Node20&#45;&gt;Node12 -->
<g id="edge36" class="edge"><title>Node20&#45;&gt;Node12</title>
<path fill="none" stroke="midnightblue" d="M1283.51,-168.412C1301.35,-155.384 1336.84,-130.216 1368.92,-112 1390.14,-99.9534 1415.11,-88.216 1434.12,-79.7504"/>
<polygon fill="midnightblue" stroke="midnightblue" points="1435.72,-82.8683 1443.47,-75.6375 1432.91,-76.461 1435.72,-82.8683"/>
</g>
<!-- Node20&#45;&gt;Node15 -->
<g id="edge38" class="edge"><title>Node20&#45;&gt;Node15</title>
<path fill="none" stroke="midnightblue" d="M1271.92,-168.083C1271.92,-161.006 1271.92,-150.861 1271.92,-141.986"/>
<polygon fill="midnightblue" stroke="midnightblue" points="1275.42,-141.751 1271.92,-131.751 1268.42,-141.751 1275.42,-141.751"/>
</g>
<!-- Node20&#45;&gt;Node21 -->
<g id="edge33" class="edge"><title>Node20&#45;&gt;Node21</title>
<path fill="none" stroke="midnightblue" d="M1201.28,-172.655C1049.24,-163.197 700.38,-140.879 646.923,-132 612.467,-126.277 605.115,-119.132 570.923,-112 498.196,-96.8304 414.233,-84.3423 355.428,-76.4025"/>
<polygon fill="midnightblue" stroke="midnightblue" points="355.859,-72.9289 345.482,-75.0705 354.929,-79.8669 355.859,-72.9289"/>
</g>
<!-- Node22 -->
<g id="node22" class="node"><title>Node22</title>
<polygon fill="none" stroke="#bfbfbf" points="439.923,-112.5 439.923,-131.5 493.923,-131.5 493.923,-112.5 439.923,-112.5"/>
<text text-anchor="middle" x="466.923" y="-119.5" font-family="Helvetica,sans-Serif" font-size="10.00">iostream</text>
</g>
<!-- Node20&#45;&gt;Node22 -->
<g id="edge34" class="edge"><title>Node20&#45;&gt;Node22</title>
<path fill="none" stroke="midnightblue" d="M1201.18,-172.947C1025.49,-162.87 578.554,-137.168 504.066,-131.289"/>
<polygon fill="midnightblue" stroke="midnightblue" points="504.225,-127.788 493.94,-130.329 503.565,-134.757 504.225,-127.788"/>
</g>
<!-- Node23 -->
<g id="node23" class="node"><title>Node23</title>
<polygon fill="none" stroke="#bfbfbf" points="1122.42,-112.5 1122.42,-131.5 1203.42,-131.5 1203.42,-112.5 1122.42,-112.5"/>
<text text-anchor="middle" x="1162.92" y="-119.5" font-family="Helvetica,sans-Serif" font-size="10.00">sys/resource.h</text>
</g>
<!-- Node20&#45;&gt;Node23 -->
<g id="edge37" class="edge"><title>Node20&#45;&gt;Node23</title>
<path fill="none" stroke="midnightblue" d="M1254.41,-168.324C1236.85,-159.625 1209.59,-146.12 1189.39,-136.113"/>
<polygon fill="midnightblue" stroke="midnightblue" points="1190.91,-132.958 1180.39,-131.655 1187.8,-139.23 1190.91,-132.958"/>
</g>
<!-- Node26&#45;&gt;Node5 -->
<g id="edge43" class="edge"><title>Node26&#45;&gt;Node5</title>
<path fill="none" stroke="midnightblue" d="M599.539,-176.677C643.375,-174.667 717.435,-165.969 769.923,-132 787.721,-120.482 801.233,-99.9105 809.317,-84.9891"/>
<polygon fill="midnightblue" stroke="midnightblue" points="812.607,-86.2407 814.032,-75.7421 806.371,-83.0607 812.607,-86.2407"/>
</g>
<!-- Node26&#45;&gt;Node22 -->
<g id="edge45" class="edge"><title>Node26&#45;&gt;Node22</title>
<path fill="none" stroke="midnightblue" d="M547.499,-168.324C532.383,-159.822 509.107,-146.729 491.452,-136.797"/>
<polygon fill="midnightblue" stroke="midnightblue" points="492.74,-133.507 482.308,-131.655 489.308,-139.608 492.74,-133.507"/>
</g>
<!-- Node27 -->
<g id="node27" class="node"><title>Node27</title>
<polygon fill="none" stroke="#bfbfbf" points="511.923,-112.5 511.923,-131.5 561.923,-131.5 561.923,-112.5 511.923,-112.5"/>
<text text-anchor="middle" x="536.923" y="-119.5" font-family="Helvetica,sans-Serif" font-size="10.00">iomanip</text>
</g>
<!-- Node26&#45;&gt;Node27 -->
<g id="edge44" class="edge"><title>Node26&#45;&gt;Node27</title>
<path fill="none" stroke="midnightblue" d="M558.629,-168.083C555.07,-160.691 549.9,-149.953 545.498,-140.811"/>
<polygon fill="midnightblue" stroke="midnightblue" points="548.628,-139.243 541.136,-131.751 542.321,-142.279 548.628,-139.243"/>
</g>
<!-- Node28&#45;&gt;Node8 -->
<g id="edge48" class="edge"><title>Node28&#45;&gt;Node8</title>
<path fill="none" stroke="midnightblue" d="M429.859,-168.258C425.802,-155.027 420.316,-129.599 430.923,-112 458.425,-66.3654 485.922,-71.4213 536.923,-56 614.527,-32.5345 862.358,-17.3121 949.37,-12.5778"/>
<polygon fill="midnightblue" stroke="midnightblue" points="949.596,-16.0708 959.394,-12.0403 949.221,-9.08087 949.596,-16.0708"/>
</g>
<!-- Node28&#45;&gt;Node22 -->
<g id="edge47" class="edge"><title>Node28&#45;&gt;Node22</title>
<path fill="none" stroke="midnightblue" d="M438.537,-168.083C443.29,-160.534 450.241,-149.495 456.074,-140.23"/>
<polygon fill="midnightblue" stroke="midnightblue" points="459.046,-142.078 461.413,-131.751 453.123,-138.349 459.046,-142.078"/>
</g>
<!-- Node29 -->
<g id="node29" class="node"><title>Node29</title>
<polygon fill="none" stroke="#bfbfbf" points="335.923,-112.5 335.923,-131.5 383.923,-131.5 383.923,-112.5 335.923,-112.5"/>
<text text-anchor="middle" x="359.923" y="-119.5" font-family="Helvetica,sans-Serif" font-size="10.00">stdlib.h</text>
</g>
<!-- Node28&#45;&gt;Node29 -->
<g id="edge49" class="edge"><title>Node28&#45;&gt;Node29</title>
<path fill="none" stroke="midnightblue" d="M421.194,-168.324C410.085,-160.107 393.181,-147.602 379.939,-137.807"/>
<polygon fill="midnightblue" stroke="midnightblue" points="381.986,-134.967 371.865,-131.834 377.823,-140.595 381.986,-134.967"/>
</g>
<!-- Node30&#45;&gt;Node8 -->
<g id="edge52" class="edge"><title>Node30&#45;&gt;Node8</title>
<path fill="none" stroke="midnightblue" d="M926.05,-224.271C932.751,-215.601 942.535,-201.661 947.923,-188 969.547,-133.17 976.68,-62.9746 978.935,-29.8768"/>
<polygon fill="midnightblue" stroke="midnightblue" points="982.434,-29.9961 979.545,-19.8028 975.447,-29.5729 982.434,-29.9961"/>
</g>
<!-- Node30&#45;&gt;Node14 -->
<g id="edge51" class="edge"><title>Node30&#45;&gt;Node14</title>
<path fill="none" stroke="midnightblue" d="M939.838,-224.444C961.659,-215.517 996.072,-201.439 1020.81,-191.317"/>
<polygon fill="midnightblue" stroke="midnightblue" points="1022.17,-194.542 1030.1,-187.516 1019.52,-188.063 1022.17,-194.542"/>
</g>
<!-- Node31 -->
<g id="node31" class="node"><title>Node31</title>
<polygon fill="none" stroke="#bfbfbf" points="886.923,-168.5 886.923,-187.5 938.923,-187.5 938.923,-168.5 886.923,-168.5"/>
<text text-anchor="middle" x="912.923" y="-175.5" font-family="Helvetica,sans-Serif" font-size="10.00">sstream</text>
</g>
<!-- Node30&#45;&gt;Node31 -->
<g id="edge53" class="edge"><title>Node30&#45;&gt;Node31</title>
<path fill="none" stroke="midnightblue" d="M917.932,-224.083C917.137,-216.927 915.993,-206.635 914.999,-197.691"/>
<polygon fill="midnightblue" stroke="midnightblue" points="918.478,-197.303 913.895,-187.751 911.521,-198.076 918.478,-197.303"/>
</g>
<!-- Node32&#45;&gt;Node14 -->
<g id="edge55" class="edge"><title>Node32&#45;&gt;Node14</title>
<path fill="none" stroke="midnightblue" d="M1046.75,-224.083C1047.4,-217.006 1048.34,-206.861 1049.16,-197.986"/>
<polygon fill="midnightblue" stroke="midnightblue" points="1052.68,-198.031 1050.11,-187.751 1045.71,-197.386 1052.68,-198.031"/>
</g>
<!-- Node33&#45;&gt;Node5 -->
<g id="edge61" class="edge"><title>Node33&#45;&gt;Node5</title>
<path fill="none" stroke="midnightblue" d="M767.772,-224.075C776.151,-197.832 800.827,-120.545 812.139,-85.1165"/>
<polygon fill="midnightblue" stroke="midnightblue" points="815.48,-86.1589 815.187,-75.5681 808.811,-84.0298 815.48,-86.1589"/>
</g>
<!-- Node33&#45;&gt;Node8 -->
<g id="edge62" class="edge"><title>Node33&#45;&gt;Node8</title>
<path fill="none" stroke="midnightblue" d="M773.351,-224.297C805.656,-190.94 921.889,-70.9234 964.297,-27.1349"/>
<polygon fill="midnightblue" stroke="midnightblue" points="966.876,-29.5021 971.319,-19.8837 961.848,-24.6323 966.876,-29.5021"/>
</g>
<!-- Node33&#45;&gt;Node14 -->
<g id="edge57" class="edge"><title>Node33&#45;&gt;Node14</title>
<path fill="none" stroke="midnightblue" d="M810.24,-224.444C860.551,-214.944 941.761,-199.611 995.736,-189.42"/>
<polygon fill="midnightblue" stroke="midnightblue" points="996.64,-192.811 1005.82,-187.516 995.341,-185.933 996.64,-192.811"/>
</g>
<!-- Node33&#45;&gt;Node26 -->
<g id="edge60" class="edge"><title>Node33&#45;&gt;Node26</title>
<path fill="none" stroke="midnightblue" d="M732.915,-224.444C698.194,-215.162 642.635,-200.309 604.546,-190.127"/>
<polygon fill="midnightblue" stroke="midnightblue" points="605.345,-186.718 594.78,-187.516 603.537,-193.48 605.345,-186.718"/>
</g>
<!-- Node34 -->
<g id="node34" class="node"><title>Node34</title>
<g id="a_node34"><a xlink:href="TransportInterface_8h.html" target="_top" xlink:title="../Transports/TransportInterface.h">
<polygon fill="none" stroke="black" points="546.423,-56.5 546.423,-75.5 709.423,-75.5 709.423,-56.5 546.423,-56.5"/>
<text text-anchor="middle" x="627.923" y="-63.5" font-family="Helvetica,sans-Serif" font-size="10.00">../Transports/TransportInterface.h</text>
</a>
</g>
</g>
<!-- Node33&#45;&gt;Node34 -->
<g id="edge58" class="edge"><title>Node33&#45;&gt;Node34</title>
<path fill="none" stroke="midnightblue" d="M750.192,-224.42C725.176,-209.091 674.434,-174.581 646.923,-132 637.851,-117.959 632.995,-99.4632 630.47,-85.7929"/>
<polygon fill="midnightblue" stroke="midnightblue" points="633.884,-84.9745 628.857,-75.6485 626.971,-86.0742 633.884,-84.9745"/>
</g>
<!-- Node34&#45;&gt;Node8 -->
<g id="edge59" class="edge"><title>Node34&#45;&gt;Node8</title>
<path fill="none" stroke="midnightblue" d="M683.698,-56.4435C758.705,-44.9369 889.515,-24.8694 948.952,-15.7512"/>
<polygon fill="midnightblue" stroke="midnightblue" points="949.837,-19.1565 959.19,-14.1805 948.775,-12.2374 949.837,-19.1565"/>
</g>
<!-- Node35&#45;&gt;Node5 -->
<g id="edge68" class="edge"><title>Node35&#45;&gt;Node5</title>
<path fill="none" stroke="midnightblue" d="M166.232,-116.204C181.192,-114.778 197.733,-113.261 212.923,-112 437.166,-93.3877 493.637,-94.0857 717.923,-76 740.206,-74.2032 765.26,-71.9479 784.716,-70.1444"/>
<polygon fill="midnightblue" stroke="midnightblue" points="785.265,-73.6086 794.896,-69.1948 784.614,-66.6388 785.265,-73.6086"/>
</g>
<!-- Node35&#45;&gt;Node8 -->
<g id="edge69" class="edge"><title>Node35&#45;&gt;Node8</title>
<path fill="none" stroke="midnightblue" d="M76.9191,-112.489C35.5948,-102.183 -18.6777,-82.8117 6.9227,-56 40.2066,-21.1412 786.071,-12.6796 948.767,-11.246"/>
<polygon fill="midnightblue" stroke="midnightblue" points="949.073,-14.7437 959.043,-11.1581 949.013,-7.74391 949.073,-14.7437"/>
</g>
<!-- Node35&#45;&gt;Node21 -->
<g id="edge67" class="edge"><title>Node35&#45;&gt;Node21</title>
<path fill="none" stroke="midnightblue" d="M143.751,-112.444C171.172,-103.359 214.7,-88.9388 245.355,-78.7831"/>
<polygon fill="midnightblue" stroke="midnightblue" points="246.824,-81.9837 255.216,-75.5164 244.622,-75.3389 246.824,-81.9837"/>
</g>
<!-- Node35&#45;&gt;Node34 -->
<g id="edge64" class="edge"><title>Node35&#45;&gt;Node34</title>
<path fill="none" stroke="midnightblue" d="M166.362,-115.871C251.39,-106.868 428.739,-88.0901 537.154,-76.6108"/>
<polygon fill="midnightblue" stroke="midnightblue" points="537.849,-80.0569 547.425,-75.5233 537.112,-73.0958 537.849,-80.0569"/>
</g>
<!-- Node36 -->
<g id="node36" class="node"><title>Node36</title>
<polygon fill="none" stroke="#bfbfbf" points="113.923,-56.5 113.923,-75.5 197.923,-75.5 197.923,-56.5 113.923,-56.5"/>
<text text-anchor="middle" x="155.923" y="-63.5" font-family="Helvetica,sans-Serif" font-size="10.00">boost/array.hpp</text>
</g>
<!-- Node35&#45;&gt;Node36 -->
<g id="edge65" class="edge"><title>Node35&#45;&gt;Node36</title>
<path fill="none" stroke="midnightblue" d="M124.198,-112.083C129.565,-104.455 137.44,-93.2645 144.001,-83.9408"/>
<polygon fill="midnightblue" stroke="midnightblue" points="146.872,-85.9434 149.765,-75.7511 141.147,-81.9149 146.872,-85.9434"/>
</g>
<!-- Node37 -->
<g id="node37" class="node"><title>Node37</title>
<polygon fill="none" stroke="#bfbfbf" points="15.9227,-56.5 15.9227,-75.5 95.9227,-75.5 95.9227,-56.5 15.9227,-56.5"/>
<text text-anchor="middle" x="55.9227" y="-63.5" font-family="Helvetica,sans-Serif" font-size="10.00">boost/asio.hpp</text>
</g>
<!-- Node35&#45;&gt;Node37 -->
<g id="edge66" class="edge"><title>Node35&#45;&gt;Node37</title>
<path fill="none" stroke="midnightblue" d="M107.961,-112.324C98.7961,-104.341 84.9855,-92.3128 73.8945,-82.6529"/>
<polygon fill="midnightblue" stroke="midnightblue" points="75.9049,-79.7624 66.0653,-75.8339 71.3074,-85.041 75.9049,-79.7624"/>
</g>
<!-- Node38&#45;&gt;Node5 -->
<g id="edge75" class="edge"><title>Node38&#45;&gt;Node5</title>
<path fill="none" stroke="midnightblue" d="M317.476,-113.254C320.67,-112.807 323.841,-112.384 326.923,-112 338.329,-110.578 676.414,-79.8483 784.819,-70.0047"/>
<polygon fill="midnightblue" stroke="midnightblue" points="785.222,-73.4827 794.864,-69.0927 784.589,-66.5114 785.222,-73.4827"/>
</g>
<!-- Node38&#45;&gt;Node8 -->
<g id="edge76" class="edge"><title>Node38&#45;&gt;Node8</title>
<path fill="none" stroke="midnightblue" d="M286.269,-112.246C318.08,-95.2781 386.224,-59.282 397.923,-56 503.119,-26.4868 843.984,-14.766 948.901,-11.8028"/>
<polygon fill="midnightblue" stroke="midnightblue" points="949.233,-15.295 959.132,-11.5207 949.04,-8.2977 949.233,-15.295"/>
</g>
<!-- Node38&#45;&gt;Node21 -->
<g id="edge74" class="edge"><title>Node38&#45;&gt;Node21</title>
<path fill="none" stroke="midnightblue" d="M271.739,-112.083C273.197,-104.927 275.293,-94.6353 277.115,-85.6911"/>
<polygon fill="midnightblue" stroke="midnightblue" points="280.574,-86.2485 279.14,-75.7511 273.714,-84.8512 280.574,-86.2485"/>
</g>
<!-- Node38&#45;&gt;Node34 -->
<g id="edge71" class="edge"><title>Node38&#45;&gt;Node34</title>
<path fill="none" stroke="midnightblue" d="M317.504,-113.457C320.691,-112.961 323.853,-112.472 326.923,-112 406.941,-99.7015 499,-86.0047 560.022,-76.9891"/>
<polygon fill="midnightblue" stroke="midnightblue" points="560.535,-80.4512 569.917,-75.5279 559.513,-73.5263 560.535,-80.4512"/>
</g>
<!-- Node38&#45;&gt;Node36 -->
<g id="edge72" class="edge"><title>Node38&#45;&gt;Node36</title>
<path fill="none" stroke="midnightblue" d="M251.859,-112.444C233.348,-103.675 204.342,-89.9355 183.067,-79.8579"/>
<polygon fill="midnightblue" stroke="midnightblue" points="184.438,-76.6343 173.902,-75.5164 181.441,-82.9604 184.438,-76.6343"/>
</g>
<!-- Node38&#45;&gt;Node37 -->
<g id="edge73" class="edge"><title>Node38&#45;&gt;Node37</title>
<path fill="none" stroke="midnightblue" d="M236.014,-112.444C199.073,-103.122 139.869,-88.1828 99.5043,-77.9972"/>
<polygon fill="midnightblue" stroke="midnightblue" points="100.225,-74.5695 89.673,-75.5164 98.5127,-81.3568 100.225,-74.5695"/>
</g>
<!-- Node39&#45;&gt;Node5 -->
<g id="edge79" class="edge"><title>Node39&#45;&gt;Node5</title>
<path fill="none" stroke="midnightblue" d="M726.435,-112.324C743.995,-103.625 771.254,-90.1202 791.454,-80.113"/>
<polygon fill="midnightblue" stroke="midnightblue" points="793.047,-83.23 800.453,-75.6545 789.939,-76.9575 793.047,-83.23"/>
</g>
<!-- Node39&#45;&gt;Node8 -->
<g id="edge80" class="edge"><title>Node39&#45;&gt;Node8</title>
<path fill="none" stroke="midnightblue" d="M716.52,-112.348C729.365,-98.2849 756.831,-70.5771 785.923,-56 839.58,-29.1135 909.667,-17.9988 949.233,-13.629"/>
<polygon fill="midnightblue" stroke="midnightblue" points="949.721,-17.0973 959.309,-12.5902 949.003,-10.1342 949.721,-17.0973"/>
</g>
<!-- Node39&#45;&gt;Node34 -->
<g id="edge78" class="edge"><title>Node39&#45;&gt;Node34</title>
<path fill="none" stroke="midnightblue" d="M695.909,-112.324C683.391,-103.979 664.241,-91.2122 649.451,-81.3524"/>
<polygon fill="midnightblue" stroke="midnightblue" points="651.166,-78.2894 640.904,-75.6545 647.284,-84.1137 651.166,-78.2894"/>
</g>
</g>
</svg>
        <g id="navigator" transform="translate(0 0)" fill="#404254">
                <rect fill="#f2f5e9" fill-opacity="0.5" stroke="#606060" stroke-width=".5" x="0" y="0" width="60" height="60"/>
                <use id="zoomplus" xlink:href="#zoomPlus" x="17" y="9" onmousedown="handleZoom(evt,'in')"/>
                <use id="zoomminus" xlink:href="#zoomMin" x="42" y="9" onmousedown="handleZoom(evt,'out')"/>
                <use id="reset" xlink:href="#resetDef" x="30" y="36" onmousedown="handleReset()"/>
                <g id="arrowUp" xlink:href="#dirArrow" transform="translate(30 24)" onmousedown="handlePan(0,-1)">
                  <use xlink:href="#rim" fill="#404040">
                        <set attributeName="fill" to="#808080" begin="arrowUp.mouseover" end="arrowUp.mouseout"/>
                  </use>
                  <path fill="none" stroke="white" stroke-width="1.5" d="M0,-3.0v7 M-2.5,-0.5L0,-3.0L2.5,-0.5"/>
                </g>
                <g id="arrowRight" xlink:href="#dirArrow" transform="rotate(90) translate(36 -43)" onmousedown="handlePan(1,0)">
                  <use xlink:href="#rim" fill="#404040">
                        <set attributeName="fill" to="#808080" begin="arrowRight.mouseover" end="arrowRight.mouseout"/>
                  </use>
                  <path fill="none" stroke="white" stroke-width="1.5" d="M0,-3.0v7 M-2.5,-0.5L0,-3.0L2.5,-0.5"/>
                </g>
                <g id="arrowDown" xlink:href="#dirArrow" transform="rotate(180) translate(-30 -48)" onmousedown="handlePan(0,1)">
                  <use xlink:href="#rim" fill="#404040">
                        <set attributeName="fill" to="#808080" begin="arrowDown.mouseover" end="arrowDown.mouseout"/>
                  </use>
                  <path fill="none" stroke="white" stroke-width="1.5" d="M0,-3.0v7 M-2.5,-0.5L0,-3.0L2.5,-0.5"/>
                </g>
                <g id="arrowLeft" xlink:href="#dirArrow" transform="rotate(270) translate(-36 17)" onmousedown="handlePan(-1,0)">
                  <use xlink:href="#rim" fill="#404040">
                        <set attributeName="fill" to="#808080" begin="arrowLeft.mouseover" end="arrowLeft.mouseout"/>
                  </use>
                  <path fill="none" stroke="white" stroke-width="1.5" d="M0,-3.0v7 M-2.5,-0.5L0,-3.0L2.5,-0.5"/>
                </g>
        </g>
        <svg viewBox="0 0 15 15" width="100%" height="30px" preserveAspectRatio="xMaxYMin meet">
         <g id="arrow_out" transform="scale(0.3 0.3)">
          <a xlink:href="MonitoringFactory_8cxx__incl_org.svg" target="_base">
           <rect id="button" ry="5" rx="5" y="6" x="6" height="38" width="38"
                fill="#f2f5e9" fill-opacity="0.5" stroke="#606060" stroke-width="1.0"/>
           <path id="arrow"
             d="M 11.500037,31.436501 C 11.940474,20.09759 22.043105,11.32322 32.158766,21.979434 L 37.068811,17.246167 C 37.068811,17.246167 37.088388,32 37.088388,32 L 22.160133,31.978069 C 22.160133,31.978069 26.997745,27.140456 26.997745,27.140456 C 18.528582,18.264221 13.291696,25.230495 11.500037,31.436501 z"
             style="fill:#404040;"/>
          </a>
         </g>
        </svg>
</svg>
