<?xml version="1.0" encoding="UTF-8" standalone="no"?>
<!DOCTYPE svg PUBLIC "-//W3C//DTD SVG 1.1//EN"
 "http://www.w3.org/Graphics/SVG/1.1/DTD/svg11.dtd">
<!-- Generated by graphviz version 2.38.0 (20140413.2041)
 -->
<!-- Title: /home/travis/build/AliceO2Group/Monitoring/src/Exceptions/MonitoringException.h Pages: 1 -->
<svg width="193pt" height="106pt"
 viewBox="0.00 0.00 193.00 106.00" xmlns="http://www.w3.org/2000/svg" xmlns:xlink="http://www.w3.org/1999/xlink">
<g id="graph0" class="graph" transform="scale(1 1) rotate(0) translate(4 102)">
<title>/home/travis/build/AliceO2Group/Monitoring/src/Exceptions/MonitoringException.h</title>
<!-- Node1 -->
<g id="node1" class="node"><title>Node1</title>
<polygon fill="#bfbfbf" stroke="black" points="-1.42109e-14,-56.5 -1.42109e-14,-97.5 185,-97.5 185,-56.5 -1.42109e-14,-56.5"/>
<text text-anchor="start" x="8" y="-85.5" font-family="Helvetica,sans-Serif" font-size="10.00">/home/travis/build</text>
<text text-anchor="start" x="8" y="-74.5" font-family="Helvetica,sans-Serif" font-size="10.00">/AliceO2Group/Monitoring</text>
<text text-anchor="middle" x="92.5" y="-63.5" font-family="Helvetica,sans-Serif" font-size="10.00">/src/Exceptions/MonitoringException.h</text>
</g>
<!-- Node2 -->
<g id="node2" class="node"><title>Node2</title>
<polygon fill="none" stroke="#bfbfbf" points="29,-0.5 29,-19.5 88,-19.5 88,-0.5 29,-0.5"/>
<text text-anchor="middle" x="58.5" y="-7.5" font-family="Helvetica,sans-Serif" font-size="10.00">exception</text>
</g>
<!-- Node1&#45;&gt;Node2 -->
<g id="edge1" class="edge"><title>Node1&#45;&gt;Node2</title>
<path fill="none" stroke="midnightblue" d="M82.2989,-56.4979C77.6875,-47.682 72.2771,-37.3385 67.7811,-28.7432"/>
<polygon fill="midnightblue" stroke="midnightblue" points="70.7623,-26.8912 63.0259,-19.6525 64.5596,-30.1357 70.7623,-26.8912"/>
</g>
<!-- Node3 -->
<g id="node3" class="node"><title>Node3</title>
<polygon fill="none" stroke="#bfbfbf" points="106,-0.5 106,-19.5 147,-19.5 147,-0.5 106,-0.5"/>
<text text-anchor="middle" x="126.5" y="-7.5" font-family="Helvetica,sans-Serif" font-size="10.00">string</text>
</g>
<!-- Node1&#45;&gt;Node3 -->
<g id="edge2" class="edge"><title>Node1&#45;&gt;Node3</title>
<path fill="none" stroke="midnightblue" d="M102.701,-56.4979C107.312,-47.682 112.723,-37.3385 117.219,-28.7432"/>
<polygon fill="midnightblue" stroke="midnightblue" points="120.44,-30.1357 121.974,-19.6525 114.238,-26.8912 120.44,-30.1357"/>
</g>
</g>
</svg>
