<?xml version="1.0" encoding="UTF-8" standalone="no"?>
<!DOCTYPE svg PUBLIC "-//W3C//DTD SVG 1.1//EN"
 "http://www.w3.org/Graphics/SVG/1.1/DTD/svg11.dtd">
<!-- Generated by graphviz version 2.38.0 (20140413.2041)
 -->
<!-- Title: /home/travis/build/AliceO2Group/Monitoring/include/Monitoring/MonitoringFactory.h Pages: 1 -->
<svg width="2524pt" height="139pt"
 viewBox="0.00 0.00 2524.00 139.00" xmlns="http://www.w3.org/2000/svg" xmlns:xlink="http://www.w3.org/1999/xlink">
<g id="graph0" class="graph" transform="scale(1 1) rotate(0) translate(4 135)">
<title>/home/travis/build/AliceO2Group/Monitoring/include/Monitoring/MonitoringFactory.h</title>
<!-- Node1 -->
<g id="node1" class="node"><title>Node1</title>
<polygon fill="#bfbfbf" stroke="black" points="1226,-78.5 1226,-130.5 1372,-130.5 1372,-78.5 1226,-78.5"/>
<text text-anchor="start" x="1234" y="-118.5" font-family="Helvetica,sans-Serif" font-size="10.00">/home/travis/build</text>
<text text-anchor="start" x="1234" y="-107.5" font-family="Helvetica,sans-Serif" font-size="10.00">/AliceO2Group/Monitoring</text>
<text text-anchor="start" x="1234" y="-96.5" font-family="Helvetica,sans-Serif" font-size="10.00">/include/Monitoring/Monitoring</text>
<text text-anchor="middle" x="1299" y="-85.5" font-family="Helvetica,sans-Serif" font-size="10.00">Factory.h</text>
</g>
<!-- Node2 -->
<g id="node2" class="node"><title>Node2</title>
<g id="a_node2"><a xlink:href="1-Basic_8cxx.html" target="_top" xlink:title="/home/travis/build\l/AliceO2Group/Monitoring\l/examples/1&#45;Basic.cxx">
<polygon fill="none" stroke="black" points="0,-0.5 0,-41.5 128,-41.5 128,-0.5 0,-0.5"/>
<text text-anchor="start" x="8" y="-29.5" font-family="Helvetica,sans-Serif" font-size="10.00">/home/travis/build</text>
<text text-anchor="start" x="8" y="-18.5" font-family="Helvetica,sans-Serif" font-size="10.00">/AliceO2Group/Monitoring</text>
<text text-anchor="middle" x="64" y="-7.5" font-family="Helvetica,sans-Serif" font-size="10.00">/examples/1&#45;Basic.cxx</text>
</a>
</g>
</g>
<!-- Node1&#45;&gt;Node2 -->
<g id="edge1" class="edge"><title>Node1&#45;&gt;Node2</title>
<path fill="none" stroke="midnightblue" d="M1215.45,-101.406C985.223,-95.2659 344.954,-75.5902 137,-42 134.146,-41.539 131.243,-41.0095 128.322,-40.4268"/>
<polygon fill="midnightblue" stroke="midnightblue" points="1215.69,-104.914 1225.77,-101.68 1215.87,-97.9161 1215.69,-104.914"/>
</g>
<!-- Node3 -->
<g id="node3" class="node"><title>Node3</title>
<g id="a_node3"><a xlink:href="10-Buffering_8cxx.html" target="_top" xlink:title="/home/travis/build\l/AliceO2Group/Monitoring\l/examples/10&#45;Buffering.cxx">
<polygon fill="none" stroke="black" points="146,-0.5 146,-41.5 282,-41.5 282,-0.5 146,-0.5"/>
<text text-anchor="start" x="154" y="-29.5" font-family="Helvetica,sans-Serif" font-size="10.00">/home/travis/build</text>
<text text-anchor="start" x="154" y="-18.5" font-family="Helvetica,sans-Serif" font-size="10.00">/AliceO2Group/Monitoring</text>
<text text-anchor="middle" x="214" y="-7.5" font-family="Helvetica,sans-Serif" font-size="10.00">/examples/10&#45;Buffering.cxx</text>
</a>
</g>
</g>
<!-- Node1&#45;&gt;Node3 -->
<g id="edge2" class="edge"><title>Node1&#45;&gt;Node3</title>
<path fill="none" stroke="midnightblue" d="M1215.67,-103.835C1042.38,-103.346 630.97,-96.003 291,-42 288.135,-41.545 285.223,-41.03 282.289,-40.468"/>
<polygon fill="midnightblue" stroke="midnightblue" points="1215.73,-107.335 1225.74,-103.857 1215.75,-100.335 1215.73,-107.335"/>
</g>
<!-- Node4 -->
<g id="node4" class="node"><title>Node4</title>
<g id="a_node4"><a xlink:href="2-TaggedMetrics_8cxx.html" target="_top" xlink:title="/home/travis/build\l/AliceO2Group/Monitoring\l/examples/2&#45;TaggedMetrics.cxx">
<polygon fill="none" stroke="black" points="300,-0.5 300,-41.5 456,-41.5 456,-0.5 300,-0.5"/>
<text text-anchor="start" x="308" y="-29.5" font-family="Helvetica,sans-Serif" font-size="10.00">/home/travis/build</text>
<text text-anchor="start" x="308" y="-18.5" font-family="Helvetica,sans-Serif" font-size="10.00">/AliceO2Group/Monitoring</text>
<text text-anchor="middle" x="378" y="-7.5" font-family="Helvetica,sans-Serif" font-size="10.00">/examples/2&#45;TaggedMetrics.cxx</text>
</a>
</g>
</g>
<!-- Node1&#45;&gt;Node4 -->
<g id="edge3" class="edge"><title>Node1&#45;&gt;Node4</title>
<path fill="none" stroke="midnightblue" d="M1215.69,-101.553C1065.08,-97.1031 737.776,-83.1656 465,-42 462.088,-41.5606 459.13,-41.0762 456.147,-40.556"/>
<polygon fill="midnightblue" stroke="midnightblue" points="1215.7,-105.055 1225.79,-101.845 1215.9,-98.0576 1215.7,-105.055"/>
</g>
<!-- Node5 -->
<g id="node5" class="node"><title>Node5</title>
<polygon fill="none" stroke="#bfbfbf" points="474.5,-0.5 474.5,-41.5 607.5,-41.5 607.5,-0.5 474.5,-0.5"/>
<text text-anchor="start" x="482.5" y="-29.5" font-family="Helvetica,sans-Serif" font-size="10.00">/home/travis/build</text>
<text text-anchor="start" x="482.5" y="-18.5" font-family="Helvetica,sans-Serif" font-size="10.00">/AliceO2Group/Monitoring</text>
<text text-anchor="middle" x="541" y="-7.5" font-family="Helvetica,sans-Serif" font-size="10.00">/examples/3&#45;Verbosity.cxx</text>
</g>
<!-- Node1&#45;&gt;Node5 -->
<g id="edge4" class="edge"><title>Node1&#45;&gt;Node5</title>
<path fill="none" stroke="midnightblue" d="M1215.71,-100.584C1086.46,-95.032 830.16,-79.9099 616,-42 613.213,-41.5067 610.379,-40.9598 607.524,-40.3713"/>
<polygon fill="midnightblue" stroke="midnightblue" points="1215.79,-104.091 1225.93,-101.015 1216.09,-97.097 1215.79,-104.091"/>
</g>
<!-- Node6 -->
<g id="node6" class="node"><title>Node6</title>
<g id="a_node6"><a xlink:href="4-RateDerivedMetric_8cxx.html" target="_top" xlink:title="/home/travis/build\l/AliceO2Group/Monitoring\l/examples/4&#45;RateDerivedMetric.cxx">
<polygon fill="none" stroke="black" points="625.5,-0.5 625.5,-41.5 798.5,-41.5 798.5,-0.5 625.5,-0.5"/>
<text text-anchor="start" x="633.5" y="-29.5" font-family="Helvetica,sans-Serif" font-size="10.00">/home/travis/build</text>
<text text-anchor="start" x="633.5" y="-18.5" font-family="Helvetica,sans-Serif" font-size="10.00">/AliceO2Group/Monitoring</text>
<text text-anchor="middle" x="712" y="-7.5" font-family="Helvetica,sans-Serif" font-size="10.00">/examples/4&#45;RateDerivedMetric.cxx</text>
</a>
</g>
</g>
<!-- Node1&#45;&gt;Node6 -->
<g id="edge5" class="edge"><title>Node1&#45;&gt;Node6</title>
<path fill="none" stroke="midnightblue" d="M1215.64,-95.2159C1117.53,-84.9738 949.88,-65.9275 807,-42 804.257,-41.5407 801.473,-41.0575 798.665,-40.5554"/>
<polygon fill="midnightblue" stroke="midnightblue" points="1215.48,-98.7183 1225.79,-96.2701 1216.2,-91.7557 1215.48,-98.7183"/>
</g>
<!-- Node7 -->
<g id="node7" class="node"><title>Node7</title>
<g id="a_node7"><a xlink:href="5-Benchmark_8cxx.html" target="_top" xlink:title="/home/travis/build\l/AliceO2Group/Monitoring\l/examples/5&#45;Benchmark.cxx">
<polygon fill="none" stroke="black" points="816.5,-0.5 816.5,-41.5 957.5,-41.5 957.5,-0.5 816.5,-0.5"/>
<text text-anchor="start" x="824.5" y="-29.5" font-family="Helvetica,sans-Serif" font-size="10.00">/home/travis/build</text>
<text text-anchor="start" x="824.5" y="-18.5" font-family="Helvetica,sans-Serif" font-size="10.00">/AliceO2Group/Monitoring</text>
<text text-anchor="middle" x="887" y="-7.5" font-family="Helvetica,sans-Serif" font-size="10.00">/examples/5&#45;Benchmark.cxx</text>
</a>
</g>
</g>
<!-- Node1&#45;&gt;Node7 -->
<g id="edge6" class="edge"><title>Node1&#45;&gt;Node7</title>
<path fill="none" stroke="midnightblue" d="M1215.81,-89.6894C1148.26,-78.1031 1050.67,-60.5166 966,-42 963.236,-41.3955 960.421,-40.7634 957.581,-40.1117"/>
<polygon fill="midnightblue" stroke="midnightblue" points="1215.52,-93.1909 1225.97,-91.4257 1216.7,-86.291 1215.52,-93.1909"/>
</g>
<!-- Node8 -->
<g id="node8" class="node"><title>Node8</title>
<g id="a_node8"><a xlink:href="6-Increment_8cxx.html" target="_top" xlink:title="/home/travis/build\l/AliceO2Group/Monitoring\l/examples/6&#45;Increment.cxx">
<polygon fill="none" stroke="black" points="975.5,-0.5 975.5,-41.5 1110.5,-41.5 1110.5,-0.5 975.5,-0.5"/>
<text text-anchor="start" x="983.5" y="-29.5" font-family="Helvetica,sans-Serif" font-size="10.00">/home/travis/build</text>
<text text-anchor="start" x="983.5" y="-18.5" font-family="Helvetica,sans-Serif" font-size="10.00">/AliceO2Group/Monitoring</text>
<text text-anchor="middle" x="1043" y="-7.5" font-family="Helvetica,sans-Serif" font-size="10.00">/examples/6&#45;Increment.cxx</text>
</a>
</g>
</g>
<!-- Node1&#45;&gt;Node8 -->
<g id="edge7" class="edge"><title>Node1&#45;&gt;Node8</title>
<path fill="none" stroke="midnightblue" d="M1216.37,-77.1948C1179.98,-65.6099 1137.97,-52.236 1104.42,-41.5545"/>
<polygon fill="midnightblue" stroke="midnightblue" points="1215.39,-80.5559 1225.98,-80.2544 1217.52,-73.8857 1215.39,-80.5559"/>
</g>
<!-- Node9 -->
<g id="node9" class="node"><title>Node9</title>
<polygon fill="none" stroke="#bfbfbf" points="1128.5,-0.5 1128.5,-41.5 1301.5,-41.5 1301.5,-0.5 1128.5,-0.5"/>
<text text-anchor="start" x="1136.5" y="-29.5" font-family="Helvetica,sans-Serif" font-size="10.00">/home/travis/build</text>
<text text-anchor="start" x="1136.5" y="-18.5" font-family="Helvetica,sans-Serif" font-size="10.00">/AliceO2Group/Monitoring</text>
<text text-anchor="middle" x="1215" y="-7.5" font-family="Helvetica,sans-Serif" font-size="10.00">/examples/7&#45;InternalBenchamrk.cxx</text>
</g>
<!-- Node1&#45;&gt;Node9 -->
<g id="edge8" class="edge"><title>Node1&#45;&gt;Node9</title>
<path fill="none" stroke="midnightblue" d="M1265.57,-71.0656C1255.31,-61.1057 1244.33,-50.4536 1235.23,-41.6282"/>
<polygon fill="midnightblue" stroke="midnightblue" points="1263.27,-73.7081 1272.88,-78.1596 1268.14,-68.6842 1263.27,-73.7081"/>
</g>
<!-- Node10 -->
<g id="node10" class="node"><title>Node10</title>
<g id="a_node10"><a xlink:href="8-DbFiller_8cxx.html" target="_top" xlink:title="/home/travis/build\l/AliceO2Group/Monitoring\l/examples/8&#45;DbFiller.cxx">
<polygon fill="none" stroke="black" points="1320,-0.5 1320,-41.5 1448,-41.5 1448,-0.5 1320,-0.5"/>
<text text-anchor="start" x="1328" y="-29.5" font-family="Helvetica,sans-Serif" font-size="10.00">/home/travis/build</text>
<text text-anchor="start" x="1328" y="-18.5" font-family="Helvetica,sans-Serif" font-size="10.00">/AliceO2Group/Monitoring</text>
<text text-anchor="middle" x="1384" y="-7.5" font-family="Helvetica,sans-Serif" font-size="10.00">/examples/8&#45;DbFiller.cxx</text>
</a>
</g>
</g>
<!-- Node1&#45;&gt;Node10 -->
<g id="edge9" class="edge"><title>Node1&#45;&gt;Node10</title>
<path fill="none" stroke="midnightblue" d="M1332.83,-71.0656C1343.21,-61.1057 1354.32,-50.4536 1363.53,-41.6282"/>
<polygon fill="midnightblue" stroke="midnightblue" points="1330.22,-68.7124 1325.43,-78.1596 1335.07,-73.7651 1330.22,-68.7124"/>
</g>
<!-- Node11 -->
<g id="node11" class="node"><title>Node11</title>
<g id="a_node11"><a xlink:href="MonitoringFactory_8cxx.html" target="_top" xlink:title="/home/travis/build\l/AliceO2Group/Monitoring\l/src/MonitoringFactory.cxx">
<polygon fill="none" stroke="black" points="1466.5,-0.5 1466.5,-41.5 1599.5,-41.5 1599.5,-0.5 1466.5,-0.5"/>
<text text-anchor="start" x="1474.5" y="-29.5" font-family="Helvetica,sans-Serif" font-size="10.00">/home/travis/build</text>
<text text-anchor="start" x="1474.5" y="-18.5" font-family="Helvetica,sans-Serif" font-size="10.00">/AliceO2Group/Monitoring</text>
<text text-anchor="middle" x="1533" y="-7.5" font-family="Helvetica,sans-Serif" font-size="10.00">/src/MonitoringFactory.cxx</text>
</a>
</g>
</g>
<!-- Node1&#45;&gt;Node11 -->
<g id="edge10" class="edge"><title>Node1&#45;&gt;Node11</title>
<path fill="none" stroke="midnightblue" d="M1380.54,-75.0992C1412.38,-64.0096 1448.09,-51.5725 1476.94,-41.5241"/>
<polygon fill="midnightblue" stroke="midnightblue" points="1379.09,-71.899 1370.8,-78.4934 1381.39,-78.5095 1379.09,-71.899"/>
</g>
<!-- Node12 -->
<g id="node12" class="node"><title>Node12</title>
<polygon fill="none" stroke="#bfbfbf" points="1618,-0.5 1618,-41.5 1746,-41.5 1746,-0.5 1618,-0.5"/>
<text text-anchor="start" x="1626" y="-29.5" font-family="Helvetica,sans-Serif" font-size="10.00">/home/travis/build</text>
<text text-anchor="start" x="1626" y="-18.5" font-family="Helvetica,sans-Serif" font-size="10.00">/AliceO2Group/Monitoring</text>
<text text-anchor="middle" x="1682" y="-7.5" font-family="Helvetica,sans-Serif" font-size="10.00">/test/testApMon.cxx</text>
</g>
<!-- Node1&#45;&gt;Node12 -->
<g id="edge11" class="edge"><title>Node1&#45;&gt;Node12</title>
<path fill="none" stroke="midnightblue" d="M1382.5,-88.6103C1445.1,-77.043 1532.74,-59.9867 1609,-42 1611.94,-41.3062 1614.94,-40.5756 1617.97,-39.8205"/>
<polygon fill="midnightblue" stroke="midnightblue" points="1381.49,-85.238 1372.29,-90.4903 1382.76,-92.1224 1381.49,-85.238"/>
</g>
<!-- Node13 -->
<g id="node13" class="node"><title>Node13</title>
<polygon fill="none" stroke="#bfbfbf" points="1764,-0.5 1764,-41.5 1892,-41.5 1892,-0.5 1764,-0.5"/>
<text text-anchor="start" x="1772" y="-29.5" font-family="Helvetica,sans-Serif" font-size="10.00">/home/travis/build</text>
<text text-anchor="start" x="1772" y="-18.5" font-family="Helvetica,sans-Serif" font-size="10.00">/AliceO2Group/Monitoring</text>
<text text-anchor="middle" x="1828" y="-7.5" font-family="Helvetica,sans-Serif" font-size="10.00">/test/testInfluxDb.cxx</text>
</g>
<!-- Node1&#45;&gt;Node13 -->
<g id="edge12" class="edge"><title>Node1&#45;&gt;Node13</title>
<path fill="none" stroke="midnightblue" d="M1382.23,-95.6434C1474.07,-86.1937 1625.98,-68.2526 1755,-42 1757.83,-41.4236 1760.72,-40.7985 1763.63,-40.1374"/>
<polygon fill="midnightblue" stroke="midnightblue" points="1381.75,-92.1739 1372.16,-96.6704 1382.46,-99.1378 1381.75,-92.1739"/>
</g>
<!-- Node14 -->
<g id="node14" class="node"><title>Node14</title>
<polygon fill="none" stroke="#bfbfbf" points="1910,-0.5 1910,-41.5 2038,-41.5 2038,-0.5 1910,-0.5"/>
<text text-anchor="start" x="1918" y="-29.5" font-family="Helvetica,sans-Serif" font-size="10.00">/home/travis/build</text>
<text text-anchor="start" x="1918" y="-18.5" font-family="Helvetica,sans-Serif" font-size="10.00">/AliceO2Group/Monitoring</text>
<text text-anchor="middle" x="1974" y="-7.5" font-family="Helvetica,sans-Serif" font-size="10.00">/test/testMonitoring.cxx</text>
</g>
<!-- Node1&#45;&gt;Node14 -->
<g id="edge13" class="edge"><title>Node1&#45;&gt;Node14</title>
<path fill="none" stroke="midnightblue" d="M1382.6,-99.3421C1499.43,-92.5395 1717.8,-76.2101 1901,-42 1903.84,-41.4693 1906.73,-40.8822 1909.65,-40.2521"/>
<polygon fill="midnightblue" stroke="midnightblue" points="1382.08,-95.8657 1372.3,-99.9322 1382.48,-102.854 1382.08,-95.8657"/>
</g>
<!-- Node15 -->
<g id="node15" class="node"><title>Node15</title>
<polygon fill="none" stroke="#bfbfbf" points="2056,-0.5 2056,-41.5 2208,-41.5 2208,-0.5 2056,-0.5"/>
<text text-anchor="start" x="2064" y="-29.5" font-family="Helvetica,sans-Serif" font-size="10.00">/home/travis/build</text>
<text text-anchor="start" x="2064" y="-18.5" font-family="Helvetica,sans-Serif" font-size="10.00">/AliceO2Group/Monitoring</text>
<text text-anchor="middle" x="2132" y="-7.5" font-family="Helvetica,sans-Serif" font-size="10.00">/test/testMonitoringFactory.cxx</text>
</g>
<!-- Node1&#45;&gt;Node15 -->
<g id="edge14" class="edge"><title>Node1&#45;&gt;Node15</title>
<path fill="none" stroke="midnightblue" d="M1382.29,-100.705C1520.93,-95.1467 1807.49,-79.8081 2047,-42 2049.85,-41.5509 2052.74,-41.0583 2055.65,-40.5311"/>
<polygon fill="midnightblue" stroke="midnightblue" points="1382.02,-97.2125 1372.16,-101.104 1382.29,-104.207 1382.02,-97.2125"/>
</g>
<!-- Node16 -->
<g id="node16" class="node"><title>Node16</title>
<polygon fill="none" stroke="#bfbfbf" points="2226.5,-0.5 2226.5,-41.5 2369.5,-41.5 2369.5,-0.5 2226.5,-0.5"/>
<text text-anchor="start" x="2234.5" y="-29.5" font-family="Helvetica,sans-Serif" font-size="10.00">/home/travis/build</text>
<text text-anchor="start" x="2234.5" y="-18.5" font-family="Helvetica,sans-Serif" font-size="10.00">/AliceO2Group/Monitoring</text>
<text text-anchor="middle" x="2298" y="-7.5" font-family="Helvetica,sans-Serif" font-size="10.00">/test/testProcessMonitor.cxx</text>
</g>
<!-- Node1&#45;&gt;Node16 -->
<g id="edge15" class="edge"><title>Node1&#45;&gt;Node16</title>
<path fill="none" stroke="midnightblue" d="M1382.43,-102.788C1544.33,-100.331 1911.98,-89.4983 2217,-42 2220.01,-41.532 2223.06,-41.0061 2226.14,-40.4351"/>
<polygon fill="midnightblue" stroke="midnightblue" points="1382.02,-99.2932 1372.07,-102.938 1382.12,-106.292 1382.02,-99.2932"/>
</g>
<!-- Node17 -->
<g id="node17" class="node"><title>Node17</title>
<polygon fill="none" stroke="#bfbfbf" points="2388,-0.5 2388,-41.5 2516,-41.5 2516,-0.5 2388,-0.5"/>
<text text-anchor="start" x="2396" y="-29.5" font-family="Helvetica,sans-Serif" font-size="10.00">/home/travis/build</text>
<text text-anchor="start" x="2396" y="-18.5" font-family="Helvetica,sans-Serif" font-size="10.00">/AliceO2Group/Monitoring</text>
<text text-anchor="middle" x="2452" y="-7.5" font-family="Helvetica,sans-Serif" font-size="10.00">/test/testThreads.cxx</text>
</g>
<!-- Node1&#45;&gt;Node17 -->
<g id="edge16" class="edge"><title>Node1&#45;&gt;Node17</title>
<path fill="none" stroke="midnightblue" d="M1382.36,-101.024C1601.03,-94.166 2187.43,-73.337 2379,-42 2381.85,-41.5333 2384.75,-40.9991 2387.68,-40.4125"/>
<polygon fill="midnightblue" stroke="midnightblue" points="1382.12,-97.53 1372.23,-101.34 1382.33,-104.527 1382.12,-97.53"/>
</g>
</g>
</svg>
