<?xml version="1.0" encoding="UTF-8" standalone="no"?>
<!DOCTYPE svg PUBLIC "-//W3C//DTD SVG 1.1//EN"
 "http://www.w3.org/Graphics/SVG/1.1/DTD/svg11.dtd">
<!-- Generated by graphviz version 2.38.0 (20140413.2041)
 -->
<!-- Title: /home/travis/build/AliceO2Group/Monitoring/include/Monitoring/Monitoring.h Pages: 1 -->
<svg width="1103pt" height="274pt"
 viewBox="0.00 0.00 1102.98 274.00" xmlns="http://www.w3.org/2000/svg" xmlns:xlink="http://www.w3.org/1999/xlink">
<g id="graph0" class="graph" transform="scale(1 1) rotate(0) translate(4 270)">
<title>/home/travis/build/AliceO2Group/Monitoring/include/Monitoring/Monitoring.h</title>
<!-- Node1 -->
<g id="node1" class="node"><title>Node1</title>
<polygon fill="#bfbfbf" stroke="black" points="152.484,-224.5 152.484,-265.5 307.484,-265.5 307.484,-224.5 152.484,-224.5"/>
<text text-anchor="start" x="160.484" y="-253.5" font-family="Helvetica,sans-Serif" font-size="10.00">/home/travis/build</text>
<text text-anchor="start" x="160.484" y="-242.5" font-family="Helvetica,sans-Serif" font-size="10.00">/AliceO2Group/Monitoring</text>
<text text-anchor="middle" x="229.984" y="-231.5" font-family="Helvetica,sans-Serif" font-size="10.00">/include/Monitoring/Monitoring.h</text>
</g>
<!-- Node2 -->
<g id="node2" class="node"><title>Node2</title>
<polygon fill="none" stroke="#bfbfbf" points="1048.98,-112.5 1048.98,-131.5 1094.98,-131.5 1094.98,-112.5 1048.98,-112.5"/>
<text text-anchor="middle" x="1071.98" y="-119.5" font-family="Helvetica,sans-Serif" font-size="10.00">atomic</text>
</g>
<!-- Node1&#45;&gt;Node2 -->
<g id="edge1" class="edge"><title>Node1&#45;&gt;Node2</title>
<path fill="none" stroke="midnightblue" d="M307.851,-241.288C424.097,-236.237 649.528,-222.565 837.984,-188 911.046,-174.599 994.37,-148.859 1039.23,-134.109"/>
<polygon fill="midnightblue" stroke="midnightblue" points="1040.34,-137.43 1048.73,-130.962 1038.13,-130.786 1040.34,-137.43"/>
</g>
<!-- Node3 -->
<g id="node3" class="node"><title>Node3</title>
<polygon fill="none" stroke="#bfbfbf" points="272.984,-56.5 272.984,-75.5 318.984,-75.5 318.984,-56.5 272.984,-56.5"/>
<text text-anchor="middle" x="295.984" y="-63.5" font-family="Helvetica,sans-Serif" font-size="10.00">chrono</text>
</g>
<!-- Node1&#45;&gt;Node3 -->
<g id="edge2" class="edge"><title>Node1&#45;&gt;Node3</title>
<path fill="none" stroke="midnightblue" d="M169.729,-224.447C107.464,-201.111 24.5045,-159.262 63.9839,-112 92.7943,-77.51 219.153,-85.9217 262.984,-76 263.085,-75.9771 263.187,-75.954 263.288,-75.9309"/>
<polygon fill="midnightblue" stroke="midnightblue" points="264.093,-79.3373 272.969,-73.5521 262.423,-72.5395 264.093,-79.3373"/>
</g>
<!-- Node4 -->
<g id="node4" class="node"><title>Node4</title>
<polygon fill="none" stroke="#bfbfbf" points="219.484,-56.5 219.484,-75.5 254.484,-75.5 254.484,-56.5 219.484,-56.5"/>
<text text-anchor="middle" x="236.984" y="-63.5" font-family="Helvetica,sans-Serif" font-size="10.00">map</text>
</g>
<!-- Node1&#45;&gt;Node4 -->
<g id="edge3" class="edge"><title>Node1&#45;&gt;Node4</title>
<path fill="none" stroke="midnightblue" d="M152.45,-232.01C103.212,-222.632 46.0175,-207.848 30.9839,-188 10.5893,-161.074 9.80077,-138.31 30.9839,-112 53.0599,-84.581 158.229,-72.9621 209.184,-68.8783"/>
<polygon fill="midnightblue" stroke="midnightblue" points="209.479,-72.366 219.185,-68.1182 208.948,-65.3862 209.479,-72.366"/>
</g>
<!-- Node5 -->
<g id="node5" class="node"><title>Node5</title>
<polygon fill="none" stroke="#bfbfbf" points="72.9839,-112.5 72.9839,-131.5 124.984,-131.5 124.984,-112.5 72.9839,-112.5"/>
<text text-anchor="middle" x="98.9839" y="-119.5" font-family="Helvetica,sans-Serif" font-size="10.00">memory</text>
</g>
<!-- Node1&#45;&gt;Node5 -->
<g id="edge4" class="edge"><title>Node1&#45;&gt;Node5</title>
<path fill="none" stroke="midnightblue" d="M184.858,-224.259C167.456,-215.064 148.331,-202.846 133.984,-188 120.924,-174.487 111.343,-155.13 105.54,-141.057"/>
<polygon fill="midnightblue" stroke="midnightblue" points="108.717,-139.57 101.843,-131.509 102.19,-142.098 108.717,-139.57"/>
</g>
<!-- Node6 -->
<g id="node6" class="node"><title>Node6</title>
<polygon fill="none" stroke="#bfbfbf" points="490.484,-0.5 490.484,-19.5 531.484,-19.5 531.484,-0.5 490.484,-0.5"/>
<text text-anchor="middle" x="510.984" y="-7.5" font-family="Helvetica,sans-Serif" font-size="10.00">string</text>
</g>
<!-- Node1&#45;&gt;Node6 -->
<g id="edge5" class="edge"><title>Node1&#45;&gt;Node6</title>
<path fill="none" stroke="midnightblue" d="M152.474,-233.657C98.4224,-224.685 33.0458,-209.698 15.9839,-188 -4.89682,-161.446 -5.20733,-139.082 14.9839,-112 71.2444,-36.5381 380.66,-16.6457 480.158,-12.1626"/>
<polygon fill="midnightblue" stroke="midnightblue" points="480.597,-15.647 490.438,-11.7212 480.297,-8.65346 480.597,-15.647"/>
</g>
<!-- Node7 -->
<g id="node7" class="node"><title>Node7</title>
<polygon fill="none" stroke="#bfbfbf" points="148.984,-168.5 148.984,-187.5 192.984,-187.5 192.984,-168.5 148.984,-168.5"/>
<text text-anchor="middle" x="170.984" y="-175.5" font-family="Helvetica,sans-Serif" font-size="10.00">thread</text>
</g>
<!-- Node1&#45;&gt;Node7 -->
<g id="edge6" class="edge"><title>Node1&#45;&gt;Node7</title>
<path fill="none" stroke="midnightblue" d="M212.282,-224.498C203.758,-215.107 193.661,-203.983 185.584,-195.085"/>
<polygon fill="midnightblue" stroke="midnightblue" points="188.15,-192.705 178.838,-187.652 182.967,-197.409 188.15,-192.705"/>
</g>
<!-- Node8 -->
<g id="node8" class="node"><title>Node8</title>
<polygon fill="none" stroke="#bfbfbf" points="210.984,-168.5 210.984,-187.5 248.984,-187.5 248.984,-168.5 210.984,-168.5"/>
<text text-anchor="middle" x="229.984" y="-175.5" font-family="Helvetica,sans-Serif" font-size="10.00">tuple</text>
</g>
<!-- Node1&#45;&gt;Node8 -->
<g id="edge7" class="edge"><title>Node1&#45;&gt;Node8</title>
<path fill="none" stroke="midnightblue" d="M229.984,-224.498C229.984,-216.065 229.984,-206.235 229.984,-197.874"/>
<polygon fill="midnightblue" stroke="midnightblue" points="233.484,-197.652 229.984,-187.652 226.484,-197.653 233.484,-197.652"/>
</g>
<!-- Node9 -->
<g id="node9" class="node"><title>Node9</title>
<polygon fill="none" stroke="#bfbfbf" points="143.484,-112.5 143.484,-131.5 226.484,-131.5 226.484,-112.5 143.484,-112.5"/>
<text text-anchor="middle" x="184.984" y="-119.5" font-family="Helvetica,sans-Serif" font-size="10.00">unordered_map</text>
</g>
<!-- Node1&#45;&gt;Node9 -->
<g id="edge8" class="edge"><title>Node1&#45;&gt;Node9</title>
<path fill="none" stroke="midnightblue" d="M179.462,-224.352C163.984,-215.667 148.742,-203.765 139.984,-188 129.937,-169.916 147.32,-150.594 163.316,-137.761"/>
<polygon fill="midnightblue" stroke="midnightblue" points="165.512,-140.489 171.402,-131.682 161.306,-134.894 165.512,-140.489"/>
</g>
<!-- Node10 -->
<g id="node10" class="node"><title>Node10</title>
<polygon fill="none" stroke="#bfbfbf" points="602.984,-56.5 602.984,-75.5 646.984,-75.5 646.984,-56.5 602.984,-56.5"/>
<text text-anchor="middle" x="624.984" y="-63.5" font-family="Helvetica,sans-Serif" font-size="10.00">vector</text>
</g>
<!-- Node1&#45;&gt;Node10 -->
<g id="edge9" class="edge"><title>Node1&#45;&gt;Node10</title>
<path fill="none" stroke="midnightblue" d="M307.78,-242.825C405.144,-239.643 564.116,-228.236 604.984,-188 632.332,-161.074 631.084,-112.079 627.95,-85.4406"/>
<polygon fill="midnightblue" stroke="midnightblue" points="631.415,-84.9447 626.57,-75.5227 624.482,-85.9097 631.415,-84.9447"/>
</g>
<!-- Node11 -->
<g id="node11" class="node"><title>Node11</title>
<polygon fill="none" stroke="#bfbfbf" points="553.484,-168.5 553.484,-187.5 596.484,-187.5 596.484,-168.5 553.484,-168.5"/>
<text text-anchor="middle" x="574.984" y="-175.5" font-family="Helvetica,sans-Serif" font-size="10.00">deque</text>
</g>
<!-- Node1&#45;&gt;Node11 -->
<g id="edge10" class="edge"><title>Node1&#45;&gt;Node11</title>
<path fill="none" stroke="midnightblue" d="M307.553,-232.515C369.02,-222.874 457.208,-207.843 543.423,-187.915"/>
<polygon fill="midnightblue" stroke="midnightblue" points="544.439,-191.272 553.381,-185.589 542.847,-184.455 544.439,-191.272"/>
</g>
<!-- Node12 -->
<g id="node12" class="node"><title>Node12</title>
<g id="a_node12"><a xlink:href="Backend_8h.html" target="_top" xlink:title="Monitoring/Backend.h">
<polygon fill="none" stroke="black" points="424.484,-168.5 424.484,-187.5 535.484,-187.5 535.484,-168.5 424.484,-168.5"/>
<text text-anchor="middle" x="479.984" y="-175.5" font-family="Helvetica,sans-Serif" font-size="10.00">Monitoring/Backend.h</text>
</a>
</g>
</g>
<!-- Node1&#45;&gt;Node12 -->
<g id="edge11" class="edge"><title>Node1&#45;&gt;Node12</title>
<path fill="none" stroke="midnightblue" d="M304.992,-224.498C348.244,-213.252 401.058,-199.521 437.279,-190.103"/>
<polygon fill="midnightblue" stroke="midnightblue" points="438.236,-193.471 447.034,-187.567 436.475,-186.696 438.236,-193.471"/>
</g>
<!-- Node17 -->
<g id="node17" class="node"><title>Node17</title>
<g id="a_node17"><a xlink:href="DerivedMetrics_8h.html" target="_top" xlink:title="Monitoring/DerivedMetrics.h">
<polygon fill="none" stroke="black" points="267.484,-168.5 267.484,-187.5 406.484,-187.5 406.484,-168.5 267.484,-168.5"/>
<text text-anchor="middle" x="336.984" y="-175.5" font-family="Helvetica,sans-Serif" font-size="10.00">Monitoring/DerivedMetrics.h</text>
</a>
</g>
</g>
<!-- Node1&#45;&gt;Node17 -->
<g id="edge23" class="edge"><title>Node1&#45;&gt;Node17</title>
<path fill="none" stroke="midnightblue" d="M262.087,-224.498C278.808,-214.34 298.867,-202.155 314.016,-192.952"/>
<polygon fill="midnightblue" stroke="midnightblue" points="316.011,-195.836 322.741,-187.652 312.377,-189.853 316.011,-195.836"/>
</g>
<!-- Node18 -->
<g id="node18" class="node"><title>Node18</title>
<g id="a_node18"><a xlink:href="ProcessMonitor_8h.html" target="_top" xlink:title="Monitoring/ProcessMonitor.h">
<polygon fill="none" stroke="black" points="688.484,-168.5 688.484,-187.5 829.484,-187.5 829.484,-168.5 688.484,-168.5"/>
<text text-anchor="middle" x="758.984" y="-175.5" font-family="Helvetica,sans-Serif" font-size="10.00">Monitoring/ProcessMonitor.h</text>
</a>
</g>
</g>
<!-- Node1&#45;&gt;Node18 -->
<g id="edge29" class="edge"><title>Node1&#45;&gt;Node18</title>
<path fill="none" stroke="midnightblue" d="M307.755,-234.444C407.434,-222.196 579.326,-201.075 679.72,-188.739"/>
<polygon fill="midnightblue" stroke="midnightblue" points="680.306,-192.194 689.805,-187.5 679.452,-185.246 680.306,-192.194"/>
</g>
<!-- Node12&#45;&gt;Node3 -->
<g id="edge12" class="edge"><title>Node12&#45;&gt;Node3</title>
<path fill="none" stroke="midnightblue" d="M459.268,-168.363C439.848,-159.971 410.251,-146.414 385.984,-132 360.066,-116.605 332.223,-95.7587 314.482,-81.8687"/>
<polygon fill="midnightblue" stroke="midnightblue" points="316.651,-79.122 306.637,-75.6631 312.308,-84.6121 316.651,-79.122"/>
</g>
<!-- Node12&#45;&gt;Node6 -->
<g id="edge13" class="edge"><title>Node12&#45;&gt;Node6</title>
<path fill="none" stroke="midnightblue" d="M486.491,-168.424C498.701,-151.727 524.657,-113.225 533.984,-76 538.11,-59.5299 530.603,-41.3561 523.087,-28.4229"/>
<polygon fill="midnightblue" stroke="midnightblue" points="525.845,-26.2363 517.53,-19.6694 519.935,-29.9878 525.845,-26.2363"/>
</g>
<!-- Node13 -->
<g id="node13" class="node"><title>Node13</title>
<g id="a_node13"><a xlink:href="Metric_8h.html" target="_top" xlink:title="Monitoring/Metric.h">
<polygon fill="none" stroke="black" points="394.984,-112.5 394.984,-131.5 494.984,-131.5 494.984,-112.5 394.984,-112.5"/>
<text text-anchor="middle" x="444.984" y="-119.5" font-family="Helvetica,sans-Serif" font-size="10.00">Monitoring/Metric.h</text>
</a>
</g>
</g>
<!-- Node12&#45;&gt;Node13 -->
<g id="edge14" class="edge"><title>Node12&#45;&gt;Node13</title>
<path fill="none" stroke="midnightblue" d="M474.204,-168.083C469.311,-160.534 462.156,-149.495 456.151,-140.23"/>
<polygon fill="midnightblue" stroke="midnightblue" points="459.032,-138.239 450.656,-131.751 453.158,-142.046 459.032,-138.239"/>
</g>
<!-- Node13&#45;&gt;Node3 -->
<g id="edge16" class="edge"><title>Node13&#45;&gt;Node3</title>
<path fill="none" stroke="midnightblue" d="M421.374,-112.444C396.38,-103.385 356.746,-89.0213 328.738,-78.8705"/>
<polygon fill="midnightblue" stroke="midnightblue" points="329.587,-75.4558 318.993,-75.339 327.202,-82.0369 329.587,-75.4558"/>
</g>
<!-- Node13&#45;&gt;Node4 -->
<g id="edge17" class="edge"><title>Node13&#45;&gt;Node4</title>
<path fill="none" stroke="midnightblue" d="M406.967,-112.459C372.266,-104.461 319.375,-91.768 264.536,-75.9817"/>
<polygon fill="midnightblue" stroke="midnightblue" points="265.22,-72.5358 254.641,-73.1051 263.266,-79.2575 265.22,-72.5358"/>
</g>
<!-- Node13&#45;&gt;Node6 -->
<g id="edge15" class="edge"><title>Node13&#45;&gt;Node6</title>
<path fill="none" stroke="midnightblue" d="M470.488,-112.472C486.971,-105.478 507.123,-93.792 516.984,-76 524.873,-61.7654 522.023,-43.0463 518,-29.3536"/>
<polygon fill="midnightblue" stroke="midnightblue" points="521.229,-27.9788 514.704,-19.6316 514.6,-30.2259 521.229,-27.9788"/>
</g>
<!-- Node13&#45;&gt;Node10 -->
<g id="edge20" class="edge"><title>Node13&#45;&gt;Node10</title>
<path fill="none" stroke="midnightblue" d="M473.505,-112.444C506.027,-102.687 559.063,-86.7764 592.972,-76.6036"/>
<polygon fill="midnightblue" stroke="midnightblue" points="594.265,-79.8698 602.838,-73.6439 592.254,-73.165 594.265,-79.8698"/>
</g>
<!-- Node14 -->
<g id="node14" class="node"><title>Node14</title>
<polygon fill="none" stroke="#bfbfbf" points="337.484,-56.5 337.484,-75.5 378.484,-75.5 378.484,-56.5 337.484,-56.5"/>
<text text-anchor="middle" x="357.984" y="-63.5" font-family="Helvetica,sans-Serif" font-size="10.00">regex</text>
</g>
<!-- Node13&#45;&gt;Node14 -->
<g id="edge18" class="edge"><title>Node13&#45;&gt;Node14</title>
<path fill="none" stroke="midnightblue" d="M431.006,-112.324C417.434,-103.9 396.604,-90.9709 380.659,-81.0741"/>
<polygon fill="midnightblue" stroke="midnightblue" points="382.269,-77.9544 371.927,-75.6545 378.578,-83.9019 382.269,-77.9544"/>
</g>
<!-- Node15 -->
<g id="node15" class="node"><title>Node15</title>
<polygon fill="none" stroke="#bfbfbf" points="396.984,-56.5 396.984,-75.5 442.984,-75.5 442.984,-56.5 396.984,-56.5"/>
<text text-anchor="middle" x="419.984" y="-63.5" font-family="Helvetica,sans-Serif" font-size="10.00">variant</text>
</g>
<!-- Node13&#45;&gt;Node15 -->
<g id="edge19" class="edge"><title>Node13&#45;&gt;Node15</title>
<path fill="none" stroke="midnightblue" d="M440.856,-112.083C437.47,-104.77 432.568,-94.1814 428.365,-85.1034"/>
<polygon fill="midnightblue" stroke="midnightblue" points="431.413,-83.3553 424.035,-75.7511 425.06,-86.2962 431.413,-83.3553"/>
</g>
<!-- Node16 -->
<g id="node16" class="node"><title>Node16</title>
<g id="a_node16"><a xlink:href="Tags_8h.html" target="_top" xlink:title="Tags.h">
<polygon fill="none" stroke="black" points="461.484,-56.5 461.484,-75.5 508.484,-75.5 508.484,-56.5 461.484,-56.5"/>
<text text-anchor="middle" x="484.984" y="-63.5" font-family="Helvetica,sans-Serif" font-size="10.00">Tags.h</text>
</a>
</g>
</g>
<!-- Node13&#45;&gt;Node16 -->
<g id="edge21" class="edge"><title>Node13&#45;&gt;Node16</title>
<path fill="none" stroke="midnightblue" d="M451.589,-112.083C457.239,-104.455 465.529,-93.2645 472.435,-83.9408"/>
<polygon fill="midnightblue" stroke="midnightblue" points="475.362,-85.87 478.502,-75.7511 469.737,-81.7034 475.362,-85.87"/>
</g>
<!-- Node16&#45;&gt;Node6 -->
<g id="edge22" class="edge"><title>Node16&#45;&gt;Node6</title>
<path fill="none" stroke="midnightblue" d="M489.277,-56.083C492.836,-48.6913 498.006,-37.9533 502.408,-28.8111"/>
<polygon fill="midnightblue" stroke="midnightblue" points="505.586,-30.2795 506.77,-19.7511 499.279,-27.2427 505.586,-30.2795"/>
</g>
<!-- Node17&#45;&gt;Node5 -->
<g id="edge25" class="edge"><title>Node17&#45;&gt;Node5</title>
<path fill="none" stroke="midnightblue" d="M296.451,-168.433C257.493,-160.107 196.72,-146.874 135.209,-132.237"/>
<polygon fill="midnightblue" stroke="midnightblue" points="135.873,-128.797 125.334,-129.877 134.246,-135.606 135.873,-128.797"/>
</g>
<!-- Node17&#45;&gt;Node6 -->
<g id="edge26" class="edge"><title>Node17&#45;&gt;Node6</title>
<path fill="none" stroke="midnightblue" d="M317.357,-168.373C287.656,-154.092 232.383,-122.433 209.984,-76 206.122,-67.994 204.182,-62.7341 209.984,-56 244.604,-15.8191 410.039,-10.9845 479.823,-10.7689"/>
<polygon fill="midnightblue" stroke="midnightblue" points="480.167,-14.2688 490.167,-10.7693 480.167,-7.26882 480.167,-14.2688"/>
</g>
<!-- Node17&#45;&gt;Node9 -->
<g id="edge24" class="edge"><title>Node17&#45;&gt;Node9</title>
<path fill="none" stroke="midnightblue" d="M312.899,-168.444C287.439,-159.399 247.09,-145.064 218.525,-134.916"/>
<polygon fill="midnightblue" stroke="midnightblue" points="219.551,-131.566 208.956,-131.516 217.207,-138.162 219.551,-131.566"/>
</g>
<!-- Node17&#45;&gt;Node10 -->
<g id="edge27" class="edge"><title>Node17&#45;&gt;Node10</title>
<path fill="none" stroke="midnightblue" d="M379.02,-168.49C413.319,-160.882 462.682,-148.405 503.984,-132 539.983,-117.701 579.015,-95.3782 602.736,-80.9708"/>
<polygon fill="midnightblue" stroke="midnightblue" points="604.643,-83.9069 611.331,-75.6891 600.978,-77.943 604.643,-83.9069"/>
</g>
<!-- Node17&#45;&gt;Node13 -->
<g id="edge28" class="edge"><title>Node17&#45;&gt;Node13</title>
<path fill="none" stroke="midnightblue" d="M354.336,-168.324C371.656,-159.664 398.499,-146.242 418.486,-136.249"/>
<polygon fill="midnightblue" stroke="midnightblue" points="420.296,-139.257 427.675,-131.655 417.165,-132.996 420.296,-139.257"/>
</g>
<!-- Node18&#45;&gt;Node2 -->
<g id="edge30" class="edge"><title>Node18&#45;&gt;Node2</title>
<path fill="none" stroke="midnightblue" d="M824.699,-168.463C881.678,-160.579 966.196,-147.728 1038.98,-132 1039.09,-131.978 1039.19,-131.956 1039.29,-131.934"/>
<polygon fill="midnightblue" stroke="midnightblue" points="1040.07,-135.345 1048.98,-129.61 1038.44,-128.538 1040.07,-135.345"/>
</g>
<!-- Node18&#45;&gt;Node6 -->
<g id="edge33" class="edge"><title>Node18&#45;&gt;Node6</title>
<path fill="none" stroke="midnightblue" d="M751.471,-168.405C743.59,-159.372 730.862,-144.734 719.984,-132 691.3,-98.425 692.778,-80.4182 655.984,-56 620.818,-32.6625 572.917,-20.9142 541.968,-15.3877"/>
<polygon fill="midnightblue" stroke="midnightblue" points="542.218,-11.8808 531.777,-13.6835 541.063,-18.785 542.218,-11.8808"/>
</g>
<!-- Node18&#45;&gt;Node10 -->
<g id="edge34" class="edge"><title>Node18&#45;&gt;Node10</title>
<path fill="none" stroke="midnightblue" d="M742.768,-168.415C727.646,-160.06 704.809,-146.527 686.984,-132 668.764,-117.151 650.507,-97.2561 638.572,-83.4039"/>
<polygon fill="midnightblue" stroke="midnightblue" points="641.148,-81.0295 632.015,-75.6589 635.806,-85.5526 641.148,-81.0295"/>
</g>
<!-- Node18&#45;&gt;Node13 -->
<g id="edge36" class="edge"><title>Node18&#45;&gt;Node13</title>
<path fill="none" stroke="midnightblue" d="M709.23,-168.444C653.649,-158.885 563.719,-143.419 504.468,-133.23"/>
<polygon fill="midnightblue" stroke="midnightblue" points="504.954,-129.762 494.505,-131.516 503.767,-136.661 504.954,-129.762"/>
</g>
<!-- Node19 -->
<g id="node19" class="node"><title>Node19</title>
<polygon fill="none" stroke="#bfbfbf" points="729.484,-112.5 729.484,-131.5 858.484,-131.5 858.484,-112.5 729.484,-112.5"/>
<text text-anchor="middle" x="793.984" y="-119.5" font-family="Helvetica,sans-Serif" font-size="10.00">boost/algorithm/string.hpp</text>
</g>
<!-- Node18&#45;&gt;Node19 -->
<g id="edge31" class="edge"><title>Node18&#45;&gt;Node19</title>
<path fill="none" stroke="midnightblue" d="M764.763,-168.083C769.656,-160.534 776.811,-149.495 782.816,-140.23"/>
<polygon fill="midnightblue" stroke="midnightblue" points="785.81,-142.046 788.312,-131.751 779.936,-138.239 785.81,-142.046"/>
</g>
<!-- Node20 -->
<g id="node20" class="node"><title>Node20</title>
<polygon fill="none" stroke="#bfbfbf" points="876.984,-112.5 876.984,-131.5 930.984,-131.5 930.984,-112.5 876.984,-112.5"/>
<text text-anchor="middle" x="903.984" y="-119.5" font-family="Helvetica,sans-Serif" font-size="10.00">iostream</text>
</g>
<!-- Node18&#45;&gt;Node20 -->
<g id="edge32" class="edge"><title>Node18&#45;&gt;Node20</title>
<path fill="none" stroke="midnightblue" d="M781.96,-168.444C806.141,-159.438 844.402,-145.189 871.63,-135.049"/>
<polygon fill="midnightblue" stroke="midnightblue" points="872.966,-138.286 881.116,-131.516 870.523,-131.727 872.966,-138.286"/>
</g>
<!-- Node21 -->
<g id="node21" class="node"><title>Node21</title>
<polygon fill="none" stroke="#bfbfbf" points="949.484,-112.5 949.484,-131.5 1030.48,-131.5 1030.48,-112.5 949.484,-112.5"/>
<text text-anchor="middle" x="989.984" y="-119.5" font-family="Helvetica,sans-Serif" font-size="10.00">sys/resource.h</text>
</g>
<!-- Node18&#45;&gt;Node21 -->
<g id="edge35" class="edge"><title>Node18&#45;&gt;Node21</title>
<path fill="none" stroke="midnightblue" d="M795.586,-168.444C835.715,-159.063 900.182,-143.993 943.768,-133.804"/>
<polygon fill="midnightblue" stroke="midnightblue" points="944.612,-137.201 953.552,-131.516 943.018,-130.385 944.612,-137.201"/>
</g>
</g>
</svg>
