<?xml version="1.0" encoding="UTF-8" standalone="no"?>
<!DOCTYPE svg PUBLIC "-//W3C//DTD SVG 1.1//EN"
 "http://www.w3.org/Graphics/SVG/1.1/DTD/svg11.dtd">
<!-- Generated by graphviz version 2.38.0 (20140413.2041)
 -->
<!-- Title: /home/travis/build/AliceO2Group/Monitoring/src/Monitoring.cxx Pages: 1 -->
<svg width="1782pt" height="330pt"
 viewBox="0.00 0.00 1782.00 330.00" xmlns="http://www.w3.org/2000/svg" xmlns:xlink="http://www.w3.org/1999/xlink">
<g id="graph0" class="graph" transform="scale(1 1) rotate(0) translate(4 326)">
<title>/home/travis/build/AliceO2Group/Monitoring/src/Monitoring.cxx</title>
<!-- Node1 -->
<g id="node1" class="node"><title>Node1</title>
<polygon fill="#bfbfbf" stroke="black" points="708,-280.5 708,-321.5 836,-321.5 836,-280.5 708,-280.5"/>
<text text-anchor="start" x="716" y="-309.5" font-family="Helvetica,sans-Serif" font-size="10.00">/home/travis/build</text>
<text text-anchor="start" x="716" y="-298.5" font-family="Helvetica,sans-Serif" font-size="10.00">/AliceO2Group/Monitoring</text>
<text text-anchor="middle" x="772" y="-287.5" font-family="Helvetica,sans-Serif" font-size="10.00">/src/Monitoring.cxx</text>
</g>
<!-- Node2 -->
<g id="node2" class="node"><title>Node2</title>
<g id="a_node2"><a xlink:href="Monitoring_8h.html" target="_top" xlink:title="Monitoring/Monitoring.h">
<polygon fill="none" stroke="black" points="713,-224.5 713,-243.5 831,-243.5 831,-224.5 713,-224.5"/>
<text text-anchor="middle" x="772" y="-231.5" font-family="Helvetica,sans-Serif" font-size="10.00">Monitoring/Monitoring.h</text>
</a>
</g>
</g>
<!-- Node1&#45;&gt;Node2 -->
<g id="edge1" class="edge"><title>Node1&#45;&gt;Node2</title>
<path fill="none" stroke="midnightblue" d="M772,-280.498C772,-272.065 772,-262.235 772,-253.874"/>
<polygon fill="midnightblue" stroke="midnightblue" points="775.5,-253.652 772,-243.652 768.5,-253.653 775.5,-253.652"/>
</g>
<!-- Node4 -->
<g id="node4" class="node"><title>Node4</title>
<polygon fill="none" stroke="#bfbfbf" points="1437,-56.5 1437,-75.5 1483,-75.5 1483,-56.5 1437,-56.5"/>
<text text-anchor="middle" x="1460" y="-63.5" font-family="Helvetica,sans-Serif" font-size="10.00">chrono</text>
</g>
<!-- Node1&#45;&gt;Node4 -->
<g id="edge42" class="edge"><title>Node1&#45;&gt;Node4</title>
<path fill="none" stroke="midnightblue" d="M836.103,-298.925C950.077,-294.721 1193.08,-275.293 1375,-188 1409.38,-171.503 1419.13,-163.915 1440,-132 1449.19,-117.949 1454.34,-99.4545 1457.1,-85.7871"/>
<polygon fill="midnightblue" stroke="midnightblue" points="1460.6,-86.1027 1458.9,-75.6453 1453.71,-84.8812 1460.6,-86.1027"/>
</g>
<!-- Node6 -->
<g id="node6" class="node"><title>Node6</title>
<polygon fill="none" stroke="#bfbfbf" points="583,-112.5 583,-131.5 635,-131.5 635,-112.5 583,-112.5"/>
<text text-anchor="middle" x="609" y="-119.5" font-family="Helvetica,sans-Serif" font-size="10.00">memory</text>
</g>
<!-- Node1&#45;&gt;Node6 -->
<g id="edge44" class="edge"><title>Node1&#45;&gt;Node6</title>
<path fill="none" stroke="midnightblue" d="M707.71,-290.049C611.139,-273.64 435.974,-237.707 399,-188 354.368,-127.998 501.083,-121.768 572.379,-122.147"/>
<polygon fill="midnightblue" stroke="midnightblue" points="572.692,-125.65 582.727,-122.251 572.763,-118.65 572.692,-125.65"/>
</g>
<!-- Node7 -->
<g id="node7" class="node"><title>Node7</title>
<polygon fill="none" stroke="#bfbfbf" points="642.5,-0.5 642.5,-19.5 683.5,-19.5 683.5,-0.5 642.5,-0.5"/>
<text text-anchor="middle" x="663" y="-7.5" font-family="Helvetica,sans-Serif" font-size="10.00">string</text>
</g>
<!-- Node1&#45;&gt;Node7 -->
<g id="edge45" class="edge"><title>Node1&#45;&gt;Node7</title>
<path fill="none" stroke="midnightblue" d="M707.966,-298.377C555.868,-293.957 182.331,-279.568 139,-244 115.736,-224.904 120,-209.098 120,-179 120,-179 120,-179 120,-121 120,-15.7067 517.155,-10.0572 632.152,-10.6284"/>
<polygon fill="midnightblue" stroke="midnightblue" points="632.353,-14.1298 642.377,-10.6999 632.402,-7.12994 632.353,-14.1298"/>
</g>
<!-- Node11 -->
<g id="node11" class="node"><title>Node11</title>
<polygon fill="none" stroke="#bfbfbf" points="691,-56.5 691,-75.5 735,-75.5 735,-56.5 691,-56.5"/>
<text text-anchor="middle" x="713" y="-63.5" font-family="Helvetica,sans-Serif" font-size="10.00">vector</text>
</g>
<!-- Node1&#45;&gt;Node11 -->
<g id="edge47" class="edge"><title>Node1&#45;&gt;Node11</title>
<path fill="none" stroke="midnightblue" d="M707.862,-298.364C641.491,-294.507 536.219,-282.232 454,-244 418.809,-227.636 403.435,-223.157 387,-188 333.204,-72.9237 588.088,-65.2735 680.559,-66.1974"/>
<polygon fill="midnightblue" stroke="midnightblue" points="680.701,-69.6996 690.75,-66.3413 680.8,-62.7003 680.701,-69.6996"/>
</g>
<!-- Node21 -->
<g id="node21" class="node"><title>Node21</title>
<polygon fill="none" stroke="#bfbfbf" points="1526,-112.5 1526,-131.5 1580,-131.5 1580,-112.5 1526,-112.5"/>
<text text-anchor="middle" x="1553" y="-119.5" font-family="Helvetica,sans-Serif" font-size="10.00">iostream</text>
</g>
<!-- Node1&#45;&gt;Node21 -->
<g id="edge43" class="edge"><title>Node1&#45;&gt;Node21</title>
<path fill="none" stroke="midnightblue" d="M836.239,-299.138C1006.37,-296.301 1459.22,-284.943 1512,-244 1543.74,-219.375 1551.09,-169.025 1552.68,-141.678"/>
<polygon fill="midnightblue" stroke="midnightblue" points="1556.18,-141.633 1553.06,-131.509 1549.18,-141.371 1556.18,-141.633"/>
</g>
<!-- Node23 -->
<g id="node23" class="node"><title>Node23</title>
<g id="a_node23"><a xlink:href="MonitoringException_8h.html" target="_top" xlink:title="Exceptions/MonitoringException.h">
<polygon fill="none" stroke="black" points="148.5,-224.5 148.5,-243.5 313.5,-243.5 313.5,-224.5 148.5,-224.5"/>
<text text-anchor="middle" x="231" y="-231.5" font-family="Helvetica,sans-Serif" font-size="10.00">Exceptions/MonitoringException.h</text>
</a>
</g>
</g>
<!-- Node1&#45;&gt;Node23 -->
<g id="edge38" class="edge"><title>Node1&#45;&gt;Node23</title>
<path fill="none" stroke="midnightblue" d="M707.816,-292.288C609.118,-280.43 420.2,-257.732 312.15,-244.75"/>
<polygon fill="midnightblue" stroke="midnightblue" points="312.298,-241.243 301.952,-243.525 311.463,-248.193 312.298,-241.243"/>
</g>
<!-- Node25 -->
<g id="node25" class="node"><title>Node25</title>
<polygon fill="none" stroke="#bfbfbf" points="1602,-224.5 1602,-243.5 1716,-243.5 1716,-224.5 1602,-224.5"/>
<text text-anchor="middle" x="1659" y="-231.5" font-family="Helvetica,sans-Serif" font-size="10.00">boost/lexical_cast.hpp</text>
</g>
<!-- Node1&#45;&gt;Node25 -->
<g id="edge41" class="edge"><title>Node1&#45;&gt;Node25</title>
<path fill="none" stroke="midnightblue" d="M836.108,-296.859C973.913,-289.83 1308.52,-271.28 1588,-244 1589.11,-243.891 1590.24,-243.779 1591.37,-243.664"/>
<polygon fill="midnightblue" stroke="midnightblue" points="1592.11,-247.104 1601.68,-242.553 1591.36,-240.144 1592.11,-247.104"/>
</g>
<!-- Node26 -->
<g id="node26" class="node"><title>Node26</title>
<polygon fill="none" stroke="#bfbfbf" points="1734,-224.5 1734,-243.5 1774,-243.5 1774,-224.5 1734,-224.5"/>
<text text-anchor="middle" x="1754" y="-231.5" font-family="Helvetica,sans-Serif" font-size="10.00">utility</text>
</g>
<!-- Node1&#45;&gt;Node26 -->
<g id="edge46" class="edge"><title>Node1&#45;&gt;Node26</title>
<path fill="none" stroke="midnightblue" d="M836.007,-298.259C1017.58,-293.007 1534.45,-275.797 1723.76,-243.716"/>
<polygon fill="midnightblue" stroke="midnightblue" points="1724.64,-247.116 1733.87,-241.93 1723.42,-240.222 1724.64,-247.116"/>
</g>
<!-- Node27 -->
<g id="node27" class="node"><title>Node27</title>
<g id="a_node27"><a xlink:href="MonLogger_8h.html" target="_top" xlink:title="MonLogger.h">
<polygon fill="none" stroke="black" points="1567.5,-168.5 1567.5,-187.5 1640.5,-187.5 1640.5,-168.5 1567.5,-168.5"/>
<text text-anchor="middle" x="1604" y="-175.5" font-family="Helvetica,sans-Serif" font-size="10.00">MonLogger.h</text>
</a>
</g>
</g>
<!-- Node1&#45;&gt;Node27 -->
<g id="edge48" class="edge"><title>Node1&#45;&gt;Node27</title>
<path fill="none" stroke="midnightblue" d="M836.245,-298.255C1011.2,-293.1 1487.26,-276.245 1550,-244 1570.12,-233.658 1585.6,-212.188 1594.72,-196.75"/>
<polygon fill="midnightblue" stroke="midnightblue" points="1597.98,-198.093 1599.79,-187.654 1591.86,-194.689 1597.98,-198.093"/>
</g>
<!-- Node29 -->
<g id="node29" class="node"><title>Node29</title>
<g id="a_node29"><a xlink:href="ProcessDetails_8h.html" target="_top" xlink:title="ProcessDetails.h">
<polygon fill="none" stroke="black" points="0,-224.5 0,-243.5 92,-243.5 92,-224.5 0,-224.5"/>
<text text-anchor="middle" x="46" y="-231.5" font-family="Helvetica,sans-Serif" font-size="10.00">ProcessDetails.h</text>
</a>
</g>
</g>
<!-- Node1&#45;&gt;Node29 -->
<g id="edge52" class="edge"><title>Node1&#45;&gt;Node29</title>
<path fill="none" stroke="midnightblue" d="M707.569,-295.98C588.514,-288.242 326.124,-269.736 106,-244 104.735,-243.852 103.455,-243.698 102.165,-243.539"/>
<polygon fill="midnightblue" stroke="midnightblue" points="102.516,-240.055 92.1474,-242.231 101.61,-246.996 102.516,-240.055"/>
</g>
<!-- Node3 -->
<g id="node3" class="node"><title>Node3</title>
<polygon fill="none" stroke="#bfbfbf" points="1025,-112.5 1025,-131.5 1071,-131.5 1071,-112.5 1025,-112.5"/>
<text text-anchor="middle" x="1048" y="-119.5" font-family="Helvetica,sans-Serif" font-size="10.00">atomic</text>
</g>
<!-- Node2&#45;&gt;Node3 -->
<g id="edge2" class="edge"><title>Node2&#45;&gt;Node3</title>
<path fill="none" stroke="midnightblue" d="M831.277,-228.414C894.542,-222.449 989.524,-210.085 1018,-188 1032.56,-176.71 1040.31,-156.705 1044.27,-141.86"/>
<polygon fill="midnightblue" stroke="midnightblue" points="1047.76,-142.275 1046.59,-131.744 1040.94,-140.704 1047.76,-142.275"/>
</g>
<!-- Node2&#45;&gt;Node4 -->
<g id="edge3" class="edge"><title>Node2&#45;&gt;Node4</title>
<path fill="none" stroke="midnightblue" d="M831.243,-232.324C957.41,-230.238 1248.64,-221.798 1341,-188 1381.08,-173.335 1389.74,-163.067 1419,-132 1432.4,-117.775 1443.88,-98.553 1451.26,-84.7065"/>
<polygon fill="midnightblue" stroke="midnightblue" points="1454.42,-86.2169 1455.88,-75.7226 1448.19,-83.0186 1454.42,-86.2169"/>
</g>
<!-- Node5 -->
<g id="node5" class="node"><title>Node5</title>
<polygon fill="none" stroke="#bfbfbf" points="1274.5,-56.5 1274.5,-75.5 1309.5,-75.5 1309.5,-56.5 1274.5,-56.5"/>
<text text-anchor="middle" x="1292" y="-63.5" font-family="Helvetica,sans-Serif" font-size="10.00">map</text>
</g>
<!-- Node2&#45;&gt;Node5 -->
<g id="edge4" class="edge"><title>Node2&#45;&gt;Node5</title>
<path fill="none" stroke="midnightblue" d="M831.164,-233.427C974.858,-233.012 1335.43,-222.772 1403,-132 1427.42,-99.1944 1360.1,-80.061 1319.79,-71.8269"/>
<polygon fill="midnightblue" stroke="midnightblue" points="1320.2,-68.3414 1309.72,-69.8786 1318.87,-75.2141 1320.2,-68.3414"/>
</g>
<!-- Node2&#45;&gt;Node6 -->
<g id="edge5" class="edge"><title>Node2&#45;&gt;Node6</title>
<path fill="none" stroke="midnightblue" d="M755.254,-224.349C738.978,-215.736 713.748,-201.837 693,-188 669.355,-172.231 643.732,-151.887 627.084,-138.195"/>
<polygon fill="midnightblue" stroke="midnightblue" points="629.186,-135.391 619.255,-131.7 624.717,-140.778 629.186,-135.391"/>
</g>
<!-- Node2&#45;&gt;Node7 -->
<g id="edge6" class="edge"><title>Node2&#45;&gt;Node7</title>
<path fill="none" stroke="midnightblue" d="M712.779,-225.382C660.25,-214.855 588.468,-190.039 566,-132 548.586,-87.0174 603.053,-45.734 637.32,-25.0029"/>
<polygon fill="midnightblue" stroke="midnightblue" points="639.504,-27.7808 646.373,-19.7147 635.973,-21.7365 639.504,-27.7808"/>
</g>
<!-- Node8 -->
<g id="node8" class="node"><title>Node8</title>
<polygon fill="none" stroke="#bfbfbf" points="408,-168.5 408,-187.5 452,-187.5 452,-168.5 408,-168.5"/>
<text text-anchor="middle" x="430" y="-175.5" font-family="Helvetica,sans-Serif" font-size="10.00">thread</text>
</g>
<!-- Node2&#45;&gt;Node8 -->
<g id="edge7" class="edge"><title>Node2&#45;&gt;Node8</title>
<path fill="none" stroke="midnightblue" d="M712.811,-226.913C652.067,-220.11 554.716,-207.668 462.073,-187.98"/>
<polygon fill="midnightblue" stroke="midnightblue" points="462.77,-184.55 452.256,-185.863 461.294,-191.393 462.77,-184.55"/>
</g>
<!-- Node9 -->
<g id="node9" class="node"><title>Node9</title>
<polygon fill="none" stroke="#bfbfbf" points="470,-168.5 470,-187.5 508,-187.5 508,-168.5 470,-168.5"/>
<text text-anchor="middle" x="489" y="-175.5" font-family="Helvetica,sans-Serif" font-size="10.00">tuple</text>
</g>
<!-- Node2&#45;&gt;Node9 -->
<g id="edge8" class="edge"><title>Node2&#45;&gt;Node9</title>
<path fill="none" stroke="midnightblue" d="M712.779,-224.889C663.123,-217.559 590.235,-205.569 518.319,-188.054"/>
<polygon fill="midnightblue" stroke="midnightblue" points="518.729,-184.549 508.181,-185.545 517.047,-191.345 518.729,-184.549"/>
</g>
<!-- Node10 -->
<g id="node10" class="node"><title>Node10</title>
<polygon fill="none" stroke="#bfbfbf" points="729.5,-112.5 729.5,-131.5 812.5,-131.5 812.5,-112.5 729.5,-112.5"/>
<text text-anchor="middle" x="771" y="-119.5" font-family="Helvetica,sans-Serif" font-size="10.00">unordered_map</text>
</g>
<!-- Node2&#45;&gt;Node10 -->
<g id="edge9" class="edge"><title>Node2&#45;&gt;Node10</title>
<path fill="none" stroke="midnightblue" d="M798.589,-224.315C826.639,-213.595 864.881,-193.603 850,-168 841.264,-152.97 825.422,-142.543 810.205,-135.54"/>
<polygon fill="midnightblue" stroke="midnightblue" points="811.455,-132.269 800.881,-131.613 808.738,-138.72 811.455,-132.269"/>
</g>
<!-- Node2&#45;&gt;Node11 -->
<g id="edge10" class="edge"><title>Node2&#45;&gt;Node11</title>
<path fill="none" stroke="midnightblue" d="M747.482,-224.412C698.634,-206.722 592.283,-165.104 574,-132 550.243,-88.9827 632.894,-74.21 680.94,-69.313"/>
<polygon fill="midnightblue" stroke="midnightblue" points="681.268,-72.7976 690.901,-68.3872 680.62,-65.8276 681.268,-72.7976"/>
</g>
<!-- Node12 -->
<g id="node12" class="node"><title>Node12</title>
<polygon fill="none" stroke="#bfbfbf" points="526.5,-168.5 526.5,-187.5 569.5,-187.5 569.5,-168.5 526.5,-168.5"/>
<text text-anchor="middle" x="548" y="-175.5" font-family="Helvetica,sans-Serif" font-size="10.00">deque</text>
</g>
<!-- Node2&#45;&gt;Node12 -->
<g id="edge11" class="edge"><title>Node2&#45;&gt;Node12</title>
<path fill="none" stroke="midnightblue" d="M735.933,-224.48C698.068,-215.51 636.811,-200.921 584,-188 582.553,-187.646 581.073,-187.282 579.579,-186.914"/>
<polygon fill="midnightblue" stroke="midnightblue" points="580.242,-183.472 569.693,-184.461 578.556,-190.266 580.242,-183.472"/>
</g>
<!-- Node13 -->
<g id="node13" class="node"><title>Node13</title>
<g id="a_node13"><a xlink:href="Backend_8h.html" target="_top" xlink:title="Monitoring/Backend.h">
<polygon fill="none" stroke="black" points="898.5,-168.5 898.5,-187.5 1009.5,-187.5 1009.5,-168.5 898.5,-168.5"/>
<text text-anchor="middle" x="954" y="-175.5" font-family="Helvetica,sans-Serif" font-size="10.00">Monitoring/Backend.h</text>
</a>
</g>
</g>
<!-- Node2&#45;&gt;Node13 -->
<g id="edge12" class="edge"><title>Node2&#45;&gt;Node13</title>
<path fill="none" stroke="midnightblue" d="M800.838,-224.444C831.856,-215.241 881.329,-200.562 915.618,-190.388"/>
<polygon fill="midnightblue" stroke="midnightblue" points="916.705,-193.716 925.296,-187.516 914.714,-187.006 916.705,-193.716"/>
</g>
<!-- Node18 -->
<g id="node18" class="node"><title>Node18</title>
<g id="a_node18"><a xlink:href="DerivedMetrics_8h.html" target="_top" xlink:title="Monitoring/DerivedMetrics.h">
<polygon fill="none" stroke="black" points="702.5,-168.5 702.5,-187.5 841.5,-187.5 841.5,-168.5 702.5,-168.5"/>
<text text-anchor="middle" x="772" y="-175.5" font-family="Helvetica,sans-Serif" font-size="10.00">Monitoring/DerivedMetrics.h</text>
</a>
</g>
</g>
<!-- Node2&#45;&gt;Node18 -->
<g id="edge24" class="edge"><title>Node2&#45;&gt;Node18</title>
<path fill="none" stroke="midnightblue" d="M772,-224.083C772,-217.006 772,-206.861 772,-197.986"/>
<polygon fill="midnightblue" stroke="midnightblue" points="775.5,-197.751 772,-187.751 768.5,-197.751 775.5,-197.751"/>
</g>
<!-- Node19 -->
<g id="node19" class="node"><title>Node19</title>
<g id="a_node19"><a xlink:href="ProcessMonitor_8h.html" target="_top" xlink:title="Monitoring/ProcessMonitor.h">
<polygon fill="none" stroke="black" points="1066.5,-168.5 1066.5,-187.5 1207.5,-187.5 1207.5,-168.5 1066.5,-168.5"/>
<text text-anchor="middle" x="1137" y="-175.5" font-family="Helvetica,sans-Serif" font-size="10.00">Monitoring/ProcessMonitor.h</text>
</a>
</g>
</g>
<!-- Node2&#45;&gt;Node19 -->
<g id="edge30" class="edge"><title>Node2&#45;&gt;Node19</title>
<path fill="none" stroke="midnightblue" d="M829.835,-224.444C894.844,-214.826 1000.28,-199.228 1069.13,-189.041"/>
<polygon fill="midnightblue" stroke="midnightblue" points="1070.06,-192.442 1079.44,-187.516 1069.03,-185.518 1070.06,-192.442"/>
</g>
<!-- Node13&#45;&gt;Node4 -->
<g id="edge13" class="edge"><title>Node13&#45;&gt;Node4</title>
<path fill="none" stroke="midnightblue" d="M959.225,-168.405C968.572,-153.9 989.664,-124.885 1016,-112 1052.68,-94.052 1330.13,-75.143 1426.86,-69.031"/>
<polygon fill="midnightblue" stroke="midnightblue" points="1427.19,-72.5171 1436.95,-68.3983 1426.75,-65.5308 1427.19,-72.5171"/>
</g>
<!-- Node13&#45;&gt;Node7 -->
<g id="edge14" class="edge"><title>Node13&#45;&gt;Node7</title>
<path fill="none" stroke="midnightblue" d="M934.17,-168.436C914.874,-159.888 884.904,-146.036 860,-132 806.306,-101.737 796.752,-87.8764 744,-56 725.585,-44.8723 704.302,-33.0887 688.174,-24.3721"/>
<polygon fill="midnightblue" stroke="midnightblue" points="689.801,-21.2727 679.335,-19.6224 686.487,-27.4389 689.801,-21.2727"/>
</g>
<!-- Node14 -->
<g id="node14" class="node"><title>Node14</title>
<g id="a_node14"><a xlink:href="Metric_8h.html" target="_top" xlink:title="Monitoring/Metric.h">
<polygon fill="none" stroke="black" points="869,-112.5 869,-131.5 969,-131.5 969,-112.5 869,-112.5"/>
<text text-anchor="middle" x="919" y="-119.5" font-family="Helvetica,sans-Serif" font-size="10.00">Monitoring/Metric.h</text>
</a>
</g>
</g>
<!-- Node13&#45;&gt;Node14 -->
<g id="edge15" class="edge"><title>Node13&#45;&gt;Node14</title>
<path fill="none" stroke="midnightblue" d="M948.22,-168.083C943.328,-160.534 936.173,-149.495 930.167,-140.23"/>
<polygon fill="midnightblue" stroke="midnightblue" points="933.048,-138.239 924.672,-131.751 927.174,-142.046 933.048,-138.239"/>
</g>
<!-- Node14&#45;&gt;Node4 -->
<g id="edge17" class="edge"><title>Node14&#45;&gt;Node4</title>
<path fill="none" stroke="midnightblue" d="M969.281,-113.708C973.915,-113.103 978.542,-112.523 983,-112 1149.09,-92.4979 1348.49,-75.8736 1426.45,-69.6348"/>
<polygon fill="midnightblue" stroke="midnightblue" points="1426.94,-73.1071 1436.63,-68.8242 1426.39,-66.1292 1426.94,-73.1071"/>
</g>
<!-- Node14&#45;&gt;Node5 -->
<g id="edge18" class="edge"><title>Node14&#45;&gt;Node5</title>
<path fill="none" stroke="midnightblue" d="M969.304,-113.717C1049.01,-102.179 1201.68,-80.0758 1264.23,-71.0201"/>
<polygon fill="midnightblue" stroke="midnightblue" points="1264.76,-74.4808 1274.15,-69.5841 1263.75,-67.5531 1264.76,-74.4808"/>
</g>
<!-- Node14&#45;&gt;Node7 -->
<g id="edge16" class="edge"><title>Node14&#45;&gt;Node7</title>
<path fill="none" stroke="midnightblue" d="M928.531,-112.132C941.789,-98.7377 962.61,-73.0977 948,-56 915.556,-18.0318 760.747,-11.9096 693.877,-11.0585"/>
<polygon fill="midnightblue" stroke="midnightblue" points="693.596,-7.55577 683.563,-10.9608 693.529,-14.5555 693.596,-7.55577"/>
</g>
<!-- Node14&#45;&gt;Node11 -->
<g id="edge21" class="edge"><title>Node14&#45;&gt;Node11</title>
<path fill="none" stroke="midnightblue" d="M886.359,-112.444C847.678,-102.304 783.64,-85.5173 745.168,-75.4324"/>
<polygon fill="midnightblue" stroke="midnightblue" points="745.598,-71.9269 735.037,-72.7767 743.823,-78.6981 745.598,-71.9269"/>
</g>
<!-- Node15 -->
<g id="node15" class="node"><title>Node15</title>
<polygon fill="none" stroke="#bfbfbf" points="898.5,-56.5 898.5,-75.5 939.5,-75.5 939.5,-56.5 898.5,-56.5"/>
<text text-anchor="middle" x="919" y="-63.5" font-family="Helvetica,sans-Serif" font-size="10.00">regex</text>
</g>
<!-- Node14&#45;&gt;Node15 -->
<g id="edge19" class="edge"><title>Node14&#45;&gt;Node15</title>
<path fill="none" stroke="midnightblue" d="M919,-112.083C919,-105.006 919,-94.8611 919,-85.9865"/>
<polygon fill="midnightblue" stroke="midnightblue" points="922.5,-85.751 919,-75.7511 915.5,-85.7511 922.5,-85.751"/>
</g>
<!-- Node16 -->
<g id="node16" class="node"><title>Node16</title>
<polygon fill="none" stroke="#bfbfbf" points="834,-56.5 834,-75.5 880,-75.5 880,-56.5 834,-56.5"/>
<text text-anchor="middle" x="857" y="-63.5" font-family="Helvetica,sans-Serif" font-size="10.00">variant</text>
</g>
<!-- Node14&#45;&gt;Node16 -->
<g id="edge20" class="edge"><title>Node14&#45;&gt;Node16</title>
<path fill="none" stroke="midnightblue" d="M909.039,-112.324C899.873,-104.341 886.063,-92.3128 874.972,-82.6529"/>
<polygon fill="midnightblue" stroke="midnightblue" points="876.982,-79.7624 867.143,-75.8339 872.385,-85.041 876.982,-79.7624"/>
</g>
<!-- Node17 -->
<g id="node17" class="node"><title>Node17</title>
<g id="a_node17"><a xlink:href="Tags_8h.html" target="_top" xlink:title="Tags.h">
<polygon fill="none" stroke="black" points="996.5,-56.5 996.5,-75.5 1043.5,-75.5 1043.5,-56.5 996.5,-56.5"/>
<text text-anchor="middle" x="1020" y="-63.5" font-family="Helvetica,sans-Serif" font-size="10.00">Tags.h</text>
</a>
</g>
</g>
<!-- Node14&#45;&gt;Node17 -->
<g id="edge22" class="edge"><title>Node14&#45;&gt;Node17</title>
<path fill="none" stroke="midnightblue" d="M935.227,-112.324C951.351,-103.703 976.3,-90.3643 994.964,-80.3855"/>
<polygon fill="midnightblue" stroke="midnightblue" points="996.644,-83.456 1003.81,-75.6545 993.344,-77.283 996.644,-83.456"/>
</g>
<!-- Node17&#45;&gt;Node7 -->
<g id="edge23" class="edge"><title>Node17&#45;&gt;Node7</title>
<path fill="none" stroke="midnightblue" d="M996.356,-59.0432C991.618,-57.9506 986.664,-56.8793 982,-56 876.924,-36.1894 750.882,-20.8712 693.789,-14.3839"/>
<polygon fill="midnightblue" stroke="midnightblue" points="693.963,-10.8814 683.634,-13.2408 693.18,-17.8375 693.963,-10.8814"/>
</g>
<!-- Node18&#45;&gt;Node6 -->
<g id="edge26" class="edge"><title>Node18&#45;&gt;Node6</title>
<path fill="none" stroke="midnightblue" d="M746.172,-168.444C718.751,-159.359 675.223,-144.939 644.568,-134.783"/>
<polygon fill="midnightblue" stroke="midnightblue" points="645.3,-131.339 634.707,-131.516 643.099,-137.984 645.3,-131.339"/>
</g>
<!-- Node18&#45;&gt;Node7 -->
<g id="edge27" class="edge"><title>Node18&#45;&gt;Node7</title>
<path fill="none" stroke="midnightblue" d="M756.09,-168.388C742.481,-160.392 723.075,-147.419 710,-132 684.1,-101.456 671.51,-55.0125 666.232,-29.4608"/>
<polygon fill="midnightblue" stroke="midnightblue" points="669.664,-28.7743 664.349,-19.6089 662.788,-30.0881 669.664,-28.7743"/>
</g>
<!-- Node18&#45;&gt;Node10 -->
<g id="edge25" class="edge"><title>Node18&#45;&gt;Node10</title>
<path fill="none" stroke="midnightblue" d="M771.835,-168.083C771.704,-161.006 771.516,-150.861 771.352,-141.986"/>
<polygon fill="midnightblue" stroke="midnightblue" points="774.847,-141.685 771.162,-131.751 767.848,-141.814 774.847,-141.685"/>
</g>
<!-- Node18&#45;&gt;Node11 -->
<g id="edge28" class="edge"><title>Node18&#45;&gt;Node11</title>
<path fill="none" stroke="midnightblue" d="M756.91,-168.404C744.732,-160.588 728.307,-147.865 720,-132 712.514,-117.703 711.184,-99.2358 711.482,-85.6413"/>
<polygon fill="midnightblue" stroke="midnightblue" points="714.981,-85.7374 712.015,-75.5664 707.991,-85.3675 714.981,-85.7374"/>
</g>
<!-- Node18&#45;&gt;Node14 -->
<g id="edge29" class="edge"><title>Node18&#45;&gt;Node14</title>
<path fill="none" stroke="midnightblue" d="M795.293,-168.444C819.807,-159.438 858.596,-145.189 886.2,-135.049"/>
<polygon fill="midnightblue" stroke="midnightblue" points="887.637,-138.25 895.816,-131.516 885.223,-131.679 887.637,-138.25"/>
</g>
<!-- Node19&#45;&gt;Node3 -->
<g id="edge31" class="edge"><title>Node19&#45;&gt;Node3</title>
<path fill="none" stroke="midnightblue" d="M1122.7,-168.324C1108.82,-159.9 1087.51,-146.971 1071.2,-137.074"/>
<polygon fill="midnightblue" stroke="midnightblue" points="1072.63,-133.85 1062.26,-131.655 1069,-139.834 1072.63,-133.85"/>
</g>
<!-- Node19&#45;&gt;Node7 -->
<g id="edge34" class="edge"><title>Node19&#45;&gt;Node7</title>
<path fill="none" stroke="midnightblue" d="M1134.22,-168.307C1126.1,-144.675 1099.97,-79.4563 1052,-56 989.002,-25.1958 774.925,-14.816 694.172,-11.9467"/>
<polygon fill="midnightblue" stroke="midnightblue" points="693.805,-8.43226 683.692,-11.5903 693.568,-15.4282 693.805,-8.43226"/>
</g>
<!-- Node19&#45;&gt;Node11 -->
<g id="edge35" class="edge"><title>Node19&#45;&gt;Node11</title>
<path fill="none" stroke="midnightblue" d="M1132.35,-168.47C1123.99,-154.063 1104.94,-125.191 1080,-112 1050.65,-96.4778 829.017,-76.652 745.082,-69.618"/>
<polygon fill="midnightblue" stroke="midnightblue" points="745.35,-66.1283 735.094,-68.7871 744.77,-73.1042 745.35,-66.1283"/>
</g>
<!-- Node19&#45;&gt;Node14 -->
<g id="edge37" class="edge"><title>Node19&#45;&gt;Node14</title>
<path fill="none" stroke="midnightblue" d="M1102.46,-168.444C1064.75,-159.102 1004.26,-144.119 963.135,-133.933"/>
<polygon fill="midnightblue" stroke="midnightblue" points="963.929,-130.524 953.381,-131.516 962.246,-137.318 963.929,-130.524"/>
</g>
<!-- Node20 -->
<g id="node20" class="node"><title>Node20</title>
<polygon fill="none" stroke="#bfbfbf" points="1165.5,-112.5 1165.5,-131.5 1294.5,-131.5 1294.5,-112.5 1165.5,-112.5"/>
<text text-anchor="middle" x="1230" y="-119.5" font-family="Helvetica,sans-Serif" font-size="10.00">boost/algorithm/string.hpp</text>
</g>
<!-- Node19&#45;&gt;Node20 -->
<g id="edge32" class="edge"><title>Node19&#45;&gt;Node20</title>
<path fill="none" stroke="midnightblue" d="M1151.94,-168.324C1166.59,-159.822 1189.13,-146.729 1206.24,-136.797"/>
<polygon fill="midnightblue" stroke="midnightblue" points="1208.2,-139.703 1215.1,-131.655 1204.69,-133.649 1208.2,-139.703"/>
</g>
<!-- Node19&#45;&gt;Node21 -->
<g id="edge33" class="edge"><title>Node19&#45;&gt;Node21</title>
<path fill="none" stroke="midnightblue" d="M1202.92,-168.444C1291.17,-156.987 1444.8,-137.045 1515.47,-127.872"/>
<polygon fill="midnightblue" stroke="midnightblue" points="1516.21,-131.305 1525.68,-126.547 1515.31,-124.363 1516.21,-131.305"/>
</g>
<!-- Node22 -->
<g id="node22" class="node"><title>Node22</title>
<polygon fill="none" stroke="#bfbfbf" points="1312.5,-112.5 1312.5,-131.5 1393.5,-131.5 1393.5,-112.5 1312.5,-112.5"/>
<text text-anchor="middle" x="1353" y="-119.5" font-family="Helvetica,sans-Serif" font-size="10.00">sys/resource.h</text>
</g>
<!-- Node19&#45;&gt;Node22 -->
<g id="edge36" class="edge"><title>Node19&#45;&gt;Node22</title>
<path fill="none" stroke="midnightblue" d="M1171.23,-168.444C1208.51,-159.122 1268.27,-144.183 1309.01,-133.997"/>
<polygon fill="midnightblue" stroke="midnightblue" points="1310.08,-137.337 1318.93,-131.516 1308.38,-130.546 1310.08,-137.337"/>
</g>
<!-- Node23&#45;&gt;Node7 -->
<g id="edge40" class="edge"><title>Node23&#45;&gt;Node7</title>
<path fill="none" stroke="midnightblue" d="M230.448,-224.318C230.06,-210.708 231.297,-184.229 245,-168 347.456,-46.6603 553.619,-18.982 631.893,-12.7659"/>
<polygon fill="midnightblue" stroke="midnightblue" points="632.346,-16.2423 642.064,-12.0238 631.836,-9.26084 632.346,-16.2423"/>
</g>
<!-- Node24 -->
<g id="node24" class="node"><title>Node24</title>
<polygon fill="none" stroke="#bfbfbf" points="254.5,-168.5 254.5,-187.5 313.5,-187.5 313.5,-168.5 254.5,-168.5"/>
<text text-anchor="middle" x="284" y="-175.5" font-family="Helvetica,sans-Serif" font-size="10.00">exception</text>
</g>
<!-- Node23&#45;&gt;Node24 -->
<g id="edge39" class="edge"><title>Node23&#45;&gt;Node24</title>
<path fill="none" stroke="midnightblue" d="M239.752,-224.083C247.47,-216.22 258.905,-204.569 268.217,-195.081"/>
<polygon fill="midnightblue" stroke="midnightblue" points="270.904,-197.34 275.411,-187.751 265.908,-192.436 270.904,-197.34"/>
</g>
<!-- Node27&#45;&gt;Node4 -->
<g id="edge49" class="edge"><title>Node27&#45;&gt;Node4</title>
<path fill="none" stroke="midnightblue" d="M1604.48,-168.232C1604.75,-154.503 1603.23,-127.865 1589,-112 1564.6,-84.7904 1522.84,-74.033 1493.46,-69.7802"/>
<polygon fill="midnightblue" stroke="midnightblue" points="1493.61,-66.2713 1483.25,-68.4892 1492.73,-73.216 1493.61,-66.2713"/>
</g>
<!-- Node27&#45;&gt;Node21 -->
<g id="edge51" class="edge"><title>Node27&#45;&gt;Node21</title>
<path fill="none" stroke="midnightblue" d="M1595.58,-168.083C1588.15,-160.22 1577.15,-148.569 1568.19,-139.081"/>
<polygon fill="midnightblue" stroke="midnightblue" points="1570.68,-136.618 1561.26,-131.751 1565.59,-141.424 1570.68,-136.618"/>
</g>
<!-- Node28 -->
<g id="node28" class="node"><title>Node28</title>
<polygon fill="none" stroke="#bfbfbf" points="1636,-112.5 1636,-131.5 1686,-131.5 1686,-112.5 1636,-112.5"/>
<text text-anchor="middle" x="1661" y="-119.5" font-family="Helvetica,sans-Serif" font-size="10.00">iomanip</text>
</g>
<!-- Node27&#45;&gt;Node28 -->
<g id="edge50" class="edge"><title>Node27&#45;&gt;Node28</title>
<path fill="none" stroke="midnightblue" d="M1613.16,-168.324C1621.5,-160.42 1634.03,-148.548 1644.18,-138.938"/>
<polygon fill="midnightblue" stroke="midnightblue" points="1646.82,-141.252 1651.68,-131.834 1642.01,-136.171 1646.82,-141.252"/>
</g>
<!-- Node29&#45;&gt;Node7 -->
<g id="edge53" class="edge"><title>Node29&#45;&gt;Node7</title>
<path fill="none" stroke="midnightblue" d="M45.8909,-224.135C46.0587,-194.585 50.988,-98.8975 106,-56 147.648,-23.5238 521.43,-13.7379 632.199,-11.5386"/>
<polygon fill="midnightblue" stroke="midnightblue" points="632.437,-15.0348 642.368,-11.3436 632.303,-8.03605 632.437,-15.0348"/>
</g>
</g>
</svg>
