<?xml version="1.0" encoding="UTF-8" standalone="no"?>
<!DOCTYPE svg PUBLIC "-//W3C//DTD SVG 1.1//EN"
 "http://www.w3.org/Graphics/SVG/1.1/DTD/svg11.dtd">
<!-- Generated by graphviz version 2.38.0 (20140413.2041)
 -->
<!-- Title: /home/travis/build/AliceO2Group/Monitoring/src/Exceptions/MonitoringException.cxx Pages: 1 -->
<svg width="331pt" height="162pt"
 viewBox="0.00 0.00 330.50 162.00" xmlns="http://www.w3.org/2000/svg" xmlns:xlink="http://www.w3.org/1999/xlink">
<g id="graph0" class="graph" transform="scale(1 1) rotate(0) translate(4 158)">
<title>/home/travis/build/AliceO2Group/Monitoring/src/Exceptions/MonitoringException.cxx</title>
<!-- Node1 -->
<g id="node1" class="node"><title>Node1</title>
<polygon fill="#bfbfbf" stroke="black" points="61,-112.5 61,-153.5 256,-153.5 256,-112.5 61,-112.5"/>
<text text-anchor="start" x="69" y="-141.5" font-family="Helvetica,sans-Serif" font-size="10.00">/home/travis/build</text>
<text text-anchor="start" x="69" y="-130.5" font-family="Helvetica,sans-Serif" font-size="10.00">/AliceO2Group/Monitoring</text>
<text text-anchor="middle" x="158.5" y="-119.5" font-family="Helvetica,sans-Serif" font-size="10.00">/src/Exceptions/MonitoringException.cxx</text>
</g>
<!-- Node2 -->
<g id="node2" class="node"><title>Node2</title>
<g id="a_node2"><a xlink:href="MonitoringException_8h.html" target="_top" xlink:title="MonitoringException.h">
<polygon fill="none" stroke="black" points="41,-56.5 41,-75.5 154,-75.5 154,-56.5 41,-56.5"/>
<text text-anchor="middle" x="97.5" y="-63.5" font-family="Helvetica,sans-Serif" font-size="10.00">MonitoringException.h</text>
</a>
</g>
</g>
<!-- Node1&#45;&gt;Node2 -->
<g id="edge1" class="edge"><title>Node1&#45;&gt;Node2</title>
<path fill="none" stroke="midnightblue" d="M140.198,-112.498C131.385,-103.107 120.945,-91.9829 112.595,-83.0848"/>
<polygon fill="midnightblue" stroke="midnightblue" points="115.015,-80.5493 105.62,-75.6525 109.911,-85.3395 115.015,-80.5493"/>
</g>
<!-- Node5 -->
<g id="node5" class="node"><title>Node5</title>
<g id="a_node5"><a xlink:href="MonLogger_8h.html" target="_top" xlink:title="../MonLogger.h">
<polygon fill="none" stroke="black" points="178.5,-56.5 178.5,-75.5 260.5,-75.5 260.5,-56.5 178.5,-56.5"/>
<text text-anchor="middle" x="219.5" y="-63.5" font-family="Helvetica,sans-Serif" font-size="10.00">../MonLogger.h</text>
</a>
</g>
</g>
<!-- Node1&#45;&gt;Node5 -->
<g id="edge4" class="edge"><title>Node1&#45;&gt;Node5</title>
<path fill="none" stroke="midnightblue" d="M176.802,-112.498C185.615,-103.107 196.055,-91.9829 204.405,-83.0848"/>
<polygon fill="midnightblue" stroke="midnightblue" points="207.089,-85.3395 211.38,-75.6525 201.985,-80.5493 207.089,-85.3395"/>
</g>
<!-- Node3 -->
<g id="node3" class="node"><title>Node3</title>
<polygon fill="none" stroke="#bfbfbf" points="0,-0.5 0,-19.5 59,-19.5 59,-0.5 0,-0.5"/>
<text text-anchor="middle" x="29.5" y="-7.5" font-family="Helvetica,sans-Serif" font-size="10.00">exception</text>
</g>
<!-- Node2&#45;&gt;Node3 -->
<g id="edge2" class="edge"><title>Node2&#45;&gt;Node3</title>
<path fill="none" stroke="midnightblue" d="M86.5746,-56.324C76.3254,-48.1849 60.7794,-35.8395 48.499,-26.0874"/>
<polygon fill="midnightblue" stroke="midnightblue" points="50.6319,-23.3119 40.6242,-19.8339 46.2787,-28.7937 50.6319,-23.3119"/>
</g>
<!-- Node4 -->
<g id="node4" class="node"><title>Node4</title>
<polygon fill="none" stroke="#bfbfbf" points="77,-0.5 77,-19.5 118,-19.5 118,-0.5 77,-0.5"/>
<text text-anchor="middle" x="97.5" y="-7.5" font-family="Helvetica,sans-Serif" font-size="10.00">string</text>
</g>
<!-- Node2&#45;&gt;Node4 -->
<g id="edge3" class="edge"><title>Node2&#45;&gt;Node4</title>
<path fill="none" stroke="midnightblue" d="M97.5,-56.083C97.5,-49.0059 97.5,-38.8611 97.5,-29.9865"/>
<polygon fill="midnightblue" stroke="midnightblue" points="101,-29.751 97.5,-19.7511 94.0001,-29.7511 101,-29.751"/>
</g>
<!-- Node6 -->
<g id="node6" class="node"><title>Node6</title>
<polygon fill="none" stroke="#bfbfbf" points="136.5,-0.5 136.5,-19.5 182.5,-19.5 182.5,-0.5 136.5,-0.5"/>
<text text-anchor="middle" x="159.5" y="-7.5" font-family="Helvetica,sans-Serif" font-size="10.00">chrono</text>
</g>
<!-- Node5&#45;&gt;Node6 -->
<g id="edge5" class="edge"><title>Node5&#45;&gt;Node6</title>
<path fill="none" stroke="midnightblue" d="M209.86,-56.324C200.99,-48.3414 187.625,-36.3128 176.892,-26.6529"/>
<polygon fill="midnightblue" stroke="midnightblue" points="179.09,-23.922 169.315,-19.8339 174.407,-29.1251 179.09,-23.922"/>
</g>
<!-- Node7 -->
<g id="node7" class="node"><title>Node7</title>
<polygon fill="none" stroke="#bfbfbf" points="200.5,-0.5 200.5,-19.5 250.5,-19.5 250.5,-0.5 200.5,-0.5"/>
<text text-anchor="middle" x="225.5" y="-7.5" font-family="Helvetica,sans-Serif" font-size="10.00">iomanip</text>
</g>
<!-- Node5&#45;&gt;Node7 -->
<g id="edge6" class="edge"><title>Node5&#45;&gt;Node7</title>
<path fill="none" stroke="midnightblue" d="M220.491,-56.083C221.286,-48.9272 222.429,-38.6353 223.423,-29.6911"/>
<polygon fill="midnightblue" stroke="midnightblue" points="226.902,-30.0765 224.528,-19.7511 219.945,-29.3034 226.902,-30.0765"/>
</g>
<!-- Node8 -->
<g id="node8" class="node"><title>Node8</title>
<polygon fill="none" stroke="#bfbfbf" points="268.5,-0.5 268.5,-19.5 322.5,-19.5 322.5,-0.5 268.5,-0.5"/>
<text text-anchor="middle" x="295.5" y="-7.5" font-family="Helvetica,sans-Serif" font-size="10.00">iostream</text>
</g>
<!-- Node5&#45;&gt;Node8 -->
<g id="edge7" class="edge"><title>Node5&#45;&gt;Node8</title>
<path fill="none" stroke="midnightblue" d="M231.711,-56.324C243.276,-48.1066 260.875,-35.6017 274.661,-25.8069"/>
<polygon fill="midnightblue" stroke="midnightblue" points="276.943,-28.4791 283.067,-19.8339 272.888,-22.7729 276.943,-28.4791"/>
</g>
</g>
</svg>
