<?xml version="1.0" encoding="UTF-8" standalone="no"?>
<!DOCTYPE svg PUBLIC "-//W3C//DTD SVG 1.1//EN"
 "http://www.w3.org/Graphics/SVG/1.1/DTD/svg11.dtd">
<!-- Generated by graphviz version 2.38.0 (20140413.2041)
 -->
<!-- Title: /home/travis/build/AliceO2Group/Monitoring/src/MonLogger.h Pages: 1 -->
<svg width="194pt" height="106pt"
 viewBox="0.00 0.00 194.00 106.00" xmlns="http://www.w3.org/2000/svg" xmlns:xlink="http://www.w3.org/1999/xlink">
<g id="graph0" class="graph" transform="scale(1 1) rotate(0) translate(4 102)">
<title>/home/travis/build/AliceO2Group/Monitoring/src/MonLogger.h</title>
<!-- Node1 -->
<g id="node1" class="node"><title>Node1</title>
<polygon fill="#bfbfbf" stroke="black" points="25,-56.5 25,-97.5 153,-97.5 153,-56.5 25,-56.5"/>
<text text-anchor="start" x="33" y="-85.5" font-family="Helvetica,sans-Serif" font-size="10.00">/home/travis/build</text>
<text text-anchor="start" x="33" y="-74.5" font-family="Helvetica,sans-Serif" font-size="10.00">/AliceO2Group/Monitoring</text>
<text text-anchor="middle" x="89" y="-63.5" font-family="Helvetica,sans-Serif" font-size="10.00">/src/MonLogger.h</text>
</g>
<!-- Node2 -->
<g id="node2" class="node"><title>Node2</title>
<polygon fill="none" stroke="#bfbfbf" points="0,-0.5 0,-19.5 46,-19.5 46,-0.5 0,-0.5"/>
<text text-anchor="middle" x="23" y="-7.5" font-family="Helvetica,sans-Serif" font-size="10.00">chrono</text>
</g>
<!-- Node1&#45;&gt;Node2 -->
<g id="edge1" class="edge"><title>Node1&#45;&gt;Node2</title>
<path fill="none" stroke="midnightblue" d="M69.1978,-56.4979C59.5653,-47.0113 48.1365,-35.7557 39.0564,-26.8131"/>
<polygon fill="midnightblue" stroke="midnightblue" points="41.3664,-24.1757 31.7856,-19.6525 36.4546,-29.1631 41.3664,-24.1757"/>
</g>
<!-- Node3 -->
<g id="node3" class="node"><title>Node3</title>
<polygon fill="none" stroke="#bfbfbf" points="64,-0.5 64,-19.5 114,-19.5 114,-0.5 64,-0.5"/>
<text text-anchor="middle" x="89" y="-7.5" font-family="Helvetica,sans-Serif" font-size="10.00">iomanip</text>
</g>
<!-- Node1&#45;&gt;Node3 -->
<g id="edge2" class="edge"><title>Node1&#45;&gt;Node3</title>
<path fill="none" stroke="midnightblue" d="M89,-56.4979C89,-48.0653 89,-38.2351 89,-29.874"/>
<polygon fill="midnightblue" stroke="midnightblue" points="92.5001,-29.6525 89,-19.6525 85.5001,-29.6525 92.5001,-29.6525"/>
</g>
<!-- Node4 -->
<g id="node4" class="node"><title>Node4</title>
<polygon fill="none" stroke="#bfbfbf" points="132,-0.5 132,-19.5 186,-19.5 186,-0.5 132,-0.5"/>
<text text-anchor="middle" x="159" y="-7.5" font-family="Helvetica,sans-Serif" font-size="10.00">iostream</text>
</g>
<!-- Node1&#45;&gt;Node4 -->
<g id="edge3" class="edge"><title>Node1&#45;&gt;Node4</title>
<path fill="none" stroke="midnightblue" d="M110.002,-56.4979C120.322,-46.9154 132.585,-35.5281 142.262,-26.5428"/>
<polygon fill="midnightblue" stroke="midnightblue" points="144.736,-29.0218 149.682,-19.6525 139.972,-23.8922 144.736,-29.0218"/>
</g>
</g>
</svg>
