<?xml version="1.0" encoding="UTF-8" standalone="no"?>
<!DOCTYPE svg PUBLIC "-//W3C//DTD SVG 1.1//EN"
 "http://www.w3.org/Graphics/SVG/1.1/DTD/svg11.dtd">
<!-- Generated by graphviz version 2.38.0 (20140413.2041)
 -->
<!-- Title: /home/travis/build/AliceO2Group/Monitoring/src/Backends/Noop.h Pages: 1 -->
<svg width="409pt" height="274pt"
 viewBox="0.00 0.00 409.03 274.00" xmlns="http://www.w3.org/2000/svg" xmlns:xlink="http://www.w3.org/1999/xlink">
<g id="graph0" class="graph" transform="scale(1 1) rotate(0) translate(4 270)">
<title>/home/travis/build/AliceO2Group/Monitoring/src/Backends/Noop.h</title>
<!-- Node1 -->
<g id="node1" class="node"><title>Node1</title>
<polygon fill="#bfbfbf" stroke="black" points="121,-224.5 121,-265.5 249,-265.5 249,-224.5 121,-224.5"/>
<text text-anchor="start" x="129" y="-253.5" font-family="Helvetica,sans-Serif" font-size="10.00">/home/travis/build</text>
<text text-anchor="start" x="129" y="-242.5" font-family="Helvetica,sans-Serif" font-size="10.00">/AliceO2Group/Monitoring</text>
<text text-anchor="middle" x="185" y="-231.5" font-family="Helvetica,sans-Serif" font-size="10.00">/src/Backends/Noop.h</text>
</g>
<!-- Node2 -->
<g id="node2" class="node"><title>Node2</title>
<g id="a_node2"><a xlink:href="Backend_8h.html" target="_top" xlink:title="Monitoring/Backend.h">
<polygon fill="none" stroke="black" points="129.5,-168.5 129.5,-187.5 240.5,-187.5 240.5,-168.5 129.5,-168.5"/>
<text text-anchor="middle" x="185" y="-175.5" font-family="Helvetica,sans-Serif" font-size="10.00">Monitoring/Backend.h</text>
</a>
</g>
</g>
<!-- Node1&#45;&gt;Node2 -->
<g id="edge1" class="edge"><title>Node1&#45;&gt;Node2</title>
<path fill="none" stroke="midnightblue" d="M185,-224.498C185,-216.065 185,-206.235 185,-197.874"/>
<polygon fill="midnightblue" stroke="midnightblue" points="188.5,-197.652 185,-187.652 181.5,-197.653 188.5,-197.652"/>
</g>
<!-- Node3 -->
<g id="node3" class="node"><title>Node3</title>
<polygon fill="none" stroke="#bfbfbf" points="0,-56.5 0,-75.5 46,-75.5 46,-56.5 0,-56.5"/>
<text text-anchor="middle" x="23" y="-63.5" font-family="Helvetica,sans-Serif" font-size="10.00">chrono</text>
</g>
<!-- Node2&#45;&gt;Node3 -->
<g id="edge2" class="edge"><title>Node2&#45;&gt;Node3</title>
<path fill="none" stroke="midnightblue" d="M172.288,-168.368C144.489,-149.492 78.0579,-104.385 43.9667,-81.2367"/>
<polygon fill="midnightblue" stroke="midnightblue" points="45.892,-78.3134 35.6528,-75.5914 41.9598,-84.1046 45.892,-78.3134"/>
</g>
<!-- Node4 -->
<g id="node4" class="node"><title>Node4</title>
<polygon fill="none" stroke="#bfbfbf" points="291.5,-0.5 291.5,-19.5 332.5,-19.5 332.5,-0.5 291.5,-0.5"/>
<text text-anchor="middle" x="312" y="-7.5" font-family="Helvetica,sans-Serif" font-size="10.00">string</text>
</g>
<!-- Node2&#45;&gt;Node4 -->
<g id="edge3" class="edge"><title>Node2&#45;&gt;Node4</title>
<path fill="none" stroke="midnightblue" d="M236.914,-168.421C287.609,-156.983 362.071,-131.332 397,-76 413.393,-50.0311 373.17,-30.4964 342.615,-19.9151"/>
<polygon fill="midnightblue" stroke="midnightblue" points="343.312,-16.4604 332.719,-16.6735 341.132,-23.1126 343.312,-16.4604"/>
</g>
<!-- Node5 -->
<g id="node5" class="node"><title>Node5</title>
<g id="a_node5"><a xlink:href="Metric_8h.html" target="_top" xlink:title="Monitoring/Metric.h">
<polygon fill="none" stroke="black" points="135,-112.5 135,-131.5 235,-131.5 235,-112.5 135,-112.5"/>
<text text-anchor="middle" x="185" y="-119.5" font-family="Helvetica,sans-Serif" font-size="10.00">Monitoring/Metric.h</text>
</a>
</g>
</g>
<!-- Node2&#45;&gt;Node5 -->
<g id="edge4" class="edge"><title>Node2&#45;&gt;Node5</title>
<path fill="none" stroke="midnightblue" d="M185,-168.083C185,-161.006 185,-150.861 185,-141.986"/>
<polygon fill="midnightblue" stroke="midnightblue" points="188.5,-141.751 185,-131.751 181.5,-141.751 188.5,-141.751"/>
</g>
<!-- Node5&#45;&gt;Node3 -->
<g id="edge6" class="edge"><title>Node5&#45;&gt;Node3</title>
<path fill="none" stroke="midnightblue" d="M159.331,-112.444C131.356,-103.119 86.5148,-88.1716 55.9574,-77.9858"/>
<polygon fill="midnightblue" stroke="midnightblue" points="56.7808,-74.571 46.1871,-74.729 54.5671,-81.2118 56.7808,-74.571"/>
</g>
<!-- Node5&#45;&gt;Node4 -->
<g id="edge5" class="edge"><title>Node5&#45;&gt;Node4</title>
<path fill="none" stroke="midnightblue" d="M153.109,-112.456C118.898,-101.737 72.1137,-81.6144 93,-56 116.399,-27.3045 226.551,-16.3869 281.157,-12.6865"/>
<polygon fill="midnightblue" stroke="midnightblue" points="281.539,-16.1694 291.295,-12.0395 281.093,-9.18358 281.539,-16.1694"/>
</g>
<!-- Node6 -->
<g id="node6" class="node"><title>Node6</title>
<polygon fill="none" stroke="#bfbfbf" points="353.5,-56.5 353.5,-75.5 388.5,-75.5 388.5,-56.5 353.5,-56.5"/>
<text text-anchor="middle" x="371" y="-63.5" font-family="Helvetica,sans-Serif" font-size="10.00">map</text>
</g>
<!-- Node5&#45;&gt;Node6 -->
<g id="edge7" class="edge"><title>Node5&#45;&gt;Node6</title>
<path fill="none" stroke="midnightblue" d="M216.802,-112.462C247.041,-104.241 294.009,-91.2108 343.684,-75.9921"/>
<polygon fill="midnightblue" stroke="midnightblue" points="344.793,-79.3128 353.319,-73.023 342.731,-72.6233 344.793,-79.3128"/>
</g>
<!-- Node7 -->
<g id="node7" class="node"><title>Node7</title>
<polygon fill="none" stroke="#bfbfbf" points="102.5,-56.5 102.5,-75.5 143.5,-75.5 143.5,-56.5 102.5,-56.5"/>
<text text-anchor="middle" x="123" y="-63.5" font-family="Helvetica,sans-Serif" font-size="10.00">regex</text>
</g>
<!-- Node5&#45;&gt;Node7 -->
<g id="edge8" class="edge"><title>Node5&#45;&gt;Node7</title>
<path fill="none" stroke="midnightblue" d="M175.039,-112.324C165.873,-104.341 152.063,-92.3128 140.972,-82.6529"/>
<polygon fill="midnightblue" stroke="midnightblue" points="142.982,-79.7624 133.143,-75.8339 138.385,-85.041 142.982,-79.7624"/>
</g>
<!-- Node8 -->
<g id="node8" class="node"><title>Node8</title>
<polygon fill="none" stroke="#bfbfbf" points="162,-56.5 162,-75.5 208,-75.5 208,-56.5 162,-56.5"/>
<text text-anchor="middle" x="185" y="-63.5" font-family="Helvetica,sans-Serif" font-size="10.00">variant</text>
</g>
<!-- Node5&#45;&gt;Node8 -->
<g id="edge9" class="edge"><title>Node5&#45;&gt;Node8</title>
<path fill="none" stroke="midnightblue" d="M185,-112.083C185,-105.006 185,-94.8611 185,-85.9865"/>
<polygon fill="midnightblue" stroke="midnightblue" points="188.5,-85.751 185,-75.7511 181.5,-85.7511 188.5,-85.751"/>
</g>
<!-- Node9 -->
<g id="node9" class="node"><title>Node9</title>
<polygon fill="none" stroke="#bfbfbf" points="226,-56.5 226,-75.5 270,-75.5 270,-56.5 226,-56.5"/>
<text text-anchor="middle" x="248" y="-63.5" font-family="Helvetica,sans-Serif" font-size="10.00">vector</text>
</g>
<!-- Node5&#45;&gt;Node9 -->
<g id="edge10" class="edge"><title>Node5&#45;&gt;Node9</title>
<path fill="none" stroke="midnightblue" d="M195.122,-112.324C204.526,-104.263 218.744,-92.0765 230.069,-82.3695"/>
<polygon fill="midnightblue" stroke="midnightblue" points="232.379,-84.9993 237.694,-75.8339 227.823,-79.6844 232.379,-84.9993"/>
</g>
<!-- Node10 -->
<g id="node10" class="node"><title>Node10</title>
<g id="a_node10"><a xlink:href="Tags_8h.html" target="_top" xlink:title="Tags.h">
<polygon fill="none" stroke="black" points="288.5,-56.5 288.5,-75.5 335.5,-75.5 335.5,-56.5 288.5,-56.5"/>
<text text-anchor="middle" x="312" y="-63.5" font-family="Helvetica,sans-Serif" font-size="10.00">Tags.h</text>
</a>
</g>
</g>
<!-- Node5&#45;&gt;Node10 -->
<g id="edge11" class="edge"><title>Node5&#45;&gt;Node10</title>
<path fill="none" stroke="midnightblue" d="M205.124,-112.444C226.024,-103.557 258.935,-89.5632 282.716,-79.4514"/>
<polygon fill="midnightblue" stroke="midnightblue" points="284.138,-82.6504 291.971,-75.5164 281.398,-76.2085 284.138,-82.6504"/>
</g>
<!-- Node10&#45;&gt;Node4 -->
<g id="edge12" class="edge"><title>Node10&#45;&gt;Node4</title>
<path fill="none" stroke="midnightblue" d="M312,-56.083C312,-49.0059 312,-38.8611 312,-29.9865"/>
<polygon fill="midnightblue" stroke="midnightblue" points="315.5,-29.751 312,-19.7511 308.5,-29.7511 315.5,-29.751"/>
</g>
</g>
</svg>
