<?xml version="1.0" encoding="UTF-8" standalone="no"?>
<!DOCTYPE svg PUBLIC "-//W3C//DTD SVG 1.1//EN"
 "http://www.w3.org/Graphics/SVG/1.1/DTD/svg11.dtd">
<!-- Generated by graphviz version 2.38.0 (20140413.2041)
 -->
<!-- Title: /home/travis/build/AliceO2Group/Monitoring/include/Monitoring/ProcessMonitor.h Pages: 1 -->
<svg width="719pt" height="218pt"
 viewBox="0.00 0.00 718.50 218.00" xmlns="http://www.w3.org/2000/svg" xmlns:xlink="http://www.w3.org/1999/xlink">
<g id="graph0" class="graph" transform="scale(1 1) rotate(0) translate(4 214)">
<title>/home/travis/build/AliceO2Group/Monitoring/include/Monitoring/ProcessMonitor.h</title>
<!-- Node1 -->
<g id="node1" class="node"><title>Node1</title>
<polygon fill="#bfbfbf" stroke="black" points="205,-168.5 205,-209.5 383,-209.5 383,-168.5 205,-168.5"/>
<text text-anchor="start" x="213" y="-197.5" font-family="Helvetica,sans-Serif" font-size="10.00">/home/travis/build</text>
<text text-anchor="start" x="213" y="-186.5" font-family="Helvetica,sans-Serif" font-size="10.00">/AliceO2Group/Monitoring</text>
<text text-anchor="middle" x="294" y="-175.5" font-family="Helvetica,sans-Serif" font-size="10.00">/include/Monitoring/ProcessMonitor.h</text>
</g>
<!-- Node2 -->
<g id="node2" class="node"><title>Node2</title>
<polygon fill="none" stroke="#bfbfbf" points="0,-112.5 0,-131.5 46,-131.5 46,-112.5 0,-112.5"/>
<text text-anchor="middle" x="23" y="-119.5" font-family="Helvetica,sans-Serif" font-size="10.00">atomic</text>
</g>
<!-- Node1&#45;&gt;Node2 -->
<g id="edge1" class="edge"><title>Node1&#45;&gt;Node2</title>
<path fill="none" stroke="midnightblue" d="M206.367,-168.439C163.626,-158.667 111.259,-146.354 56.0189,-132.183"/>
<polygon fill="midnightblue" stroke="midnightblue" points="56.5964,-128.717 46.0393,-129.61 54.8491,-135.496 56.5964,-128.717"/>
</g>
<!-- Node3 -->
<g id="node3" class="node"><title>Node3</title>
<polygon fill="none" stroke="#bfbfbf" points="64.5,-112.5 64.5,-131.5 193.5,-131.5 193.5,-112.5 64.5,-112.5"/>
<text text-anchor="middle" x="129" y="-119.5" font-family="Helvetica,sans-Serif" font-size="10.00">boost/algorithm/string.hpp</text>
</g>
<!-- Node1&#45;&gt;Node3 -->
<g id="edge2" class="edge"><title>Node1&#45;&gt;Node3</title>
<path fill="none" stroke="midnightblue" d="M244.495,-168.498C217.251,-157.766 184.26,-144.769 160.526,-135.419"/>
<polygon fill="midnightblue" stroke="midnightblue" points="161.551,-132.061 150.964,-131.652 158.985,-138.574 161.551,-132.061"/>
</g>
<!-- Node4 -->
<g id="node4" class="node"><title>Node4</title>
<polygon fill="none" stroke="#bfbfbf" points="212,-112.5 212,-131.5 266,-131.5 266,-112.5 212,-112.5"/>
<text text-anchor="middle" x="239" y="-119.5" font-family="Helvetica,sans-Serif" font-size="10.00">iostream</text>
</g>
<!-- Node1&#45;&gt;Node4 -->
<g id="edge3" class="edge"><title>Node1&#45;&gt;Node4</title>
<path fill="none" stroke="midnightblue" d="M277.498,-168.498C269.633,-159.203 260.331,-148.21 252.841,-139.358"/>
<polygon fill="midnightblue" stroke="midnightblue" points="255.453,-137.026 246.321,-131.652 250.109,-141.547 255.453,-137.026"/>
</g>
<!-- Node5 -->
<g id="node5" class="node"><title>Node5</title>
<polygon fill="none" stroke="#bfbfbf" points="373.5,-0.5 373.5,-19.5 414.5,-19.5 414.5,-0.5 373.5,-0.5"/>
<text text-anchor="middle" x="394" y="-7.5" font-family="Helvetica,sans-Serif" font-size="10.00">string</text>
</g>
<!-- Node1&#45;&gt;Node5 -->
<g id="edge4" class="edge"><title>Node1&#45;&gt;Node5</title>
<path fill="none" stroke="midnightblue" d="M291.704,-168.156C289.565,-140.497 289.617,-89.9362 313,-56 324.979,-38.6146 345.965,-27.2278 363.573,-20.2584"/>
<polygon fill="midnightblue" stroke="midnightblue" points="365.262,-23.3681 373.457,-16.6535 362.864,-16.7919 365.262,-23.3681"/>
</g>
<!-- Node6 -->
<g id="node6" class="node"><title>Node6</title>
<polygon fill="none" stroke="#bfbfbf" points="322,-56.5 322,-75.5 366,-75.5 366,-56.5 322,-56.5"/>
<text text-anchor="middle" x="344" y="-63.5" font-family="Helvetica,sans-Serif" font-size="10.00">vector</text>
</g>
<!-- Node1&#45;&gt;Node6 -->
<g id="edge5" class="edge"><title>Node1&#45;&gt;Node6</title>
<path fill="none" stroke="midnightblue" d="M302.145,-168.29C311.7,-145.166 327.405,-107.16 336.618,-84.8641"/>
<polygon fill="midnightblue" stroke="midnightblue" points="339.872,-86.1535 340.457,-75.5748 333.403,-83.4802 339.872,-86.1535"/>
</g>
<!-- Node7 -->
<g id="node7" class="node"><title>Node7</title>
<polygon fill="none" stroke="#bfbfbf" points="360.5,-112.5 360.5,-131.5 441.5,-131.5 441.5,-112.5 360.5,-112.5"/>
<text text-anchor="middle" x="401" y="-119.5" font-family="Helvetica,sans-Serif" font-size="10.00">sys/resource.h</text>
</g>
<!-- Node1&#45;&gt;Node7 -->
<g id="edge6" class="edge"><title>Node1&#45;&gt;Node7</title>
<path fill="none" stroke="midnightblue" d="M326.104,-168.498C342.824,-158.34 362.883,-146.155 378.032,-136.952"/>
<polygon fill="midnightblue" stroke="midnightblue" points="380.027,-139.836 386.757,-131.652 376.393,-133.853 380.027,-139.836"/>
</g>
<!-- Node8 -->
<g id="node8" class="node"><title>Node8</title>
<g id="a_node8"><a xlink:href="Metric_8h.html" target="_top" xlink:title="Monitoring/Metric.h">
<polygon fill="none" stroke="black" points="460,-112.5 460,-131.5 560,-131.5 560,-112.5 460,-112.5"/>
<text text-anchor="middle" x="510" y="-119.5" font-family="Helvetica,sans-Serif" font-size="10.00">Monitoring/Metric.h</text>
</a>
</g>
</g>
<!-- Node1&#45;&gt;Node8 -->
<g id="edge7" class="edge"><title>Node1&#45;&gt;Node8</title>
<path fill="none" stroke="midnightblue" d="M358.807,-168.498C395.698,-157.396 440.639,-143.872 471.892,-134.468"/>
<polygon fill="midnightblue" stroke="midnightblue" points="472.964,-137.8 481.531,-131.567 470.947,-131.097 472.964,-137.8"/>
</g>
<!-- Node8&#45;&gt;Node5 -->
<g id="edge8" class="edge"><title>Node8&#45;&gt;Node5</title>
<path fill="none" stroke="midnightblue" d="M474.548,-112.477C453.888,-105.788 428.86,-94.4362 413,-76 401.868,-63.0596 397.252,-43.8902 395.341,-29.7194"/>
<polygon fill="midnightblue" stroke="midnightblue" points="398.81,-29.2354 394.316,-19.6409 391.846,-29.9438 398.81,-29.2354"/>
</g>
<!-- Node8&#45;&gt;Node6 -->
<g id="edge13" class="edge"><title>Node8&#45;&gt;Node6</title>
<path fill="none" stroke="midnightblue" d="M483.697,-112.444C454.412,-102.917 407.089,-87.5228 375.762,-77.3321"/>
<polygon fill="midnightblue" stroke="midnightblue" points="376.788,-73.9855 366.196,-74.2203 374.623,-80.6422 376.788,-73.9855"/>
</g>
<!-- Node9 -->
<g id="node9" class="node"><title>Node9</title>
<polygon fill="none" stroke="#bfbfbf" points="422,-56.5 422,-75.5 468,-75.5 468,-56.5 422,-56.5"/>
<text text-anchor="middle" x="445" y="-63.5" font-family="Helvetica,sans-Serif" font-size="10.00">chrono</text>
</g>
<!-- Node8&#45;&gt;Node9 -->
<g id="edge9" class="edge"><title>Node8&#45;&gt;Node9</title>
<path fill="none" stroke="midnightblue" d="M499.557,-112.324C489.854,-104.263 475.185,-92.0765 463.5,-82.3695"/>
<polygon fill="midnightblue" stroke="midnightblue" points="465.562,-79.532 455.633,-75.8339 461.089,-84.9163 465.562,-79.532"/>
</g>
<!-- Node10 -->
<g id="node10" class="node"><title>Node10</title>
<polygon fill="none" stroke="#bfbfbf" points="486.5,-56.5 486.5,-75.5 521.5,-75.5 521.5,-56.5 486.5,-56.5"/>
<text text-anchor="middle" x="504" y="-63.5" font-family="Helvetica,sans-Serif" font-size="10.00">map</text>
</g>
<!-- Node8&#45;&gt;Node10 -->
<g id="edge10" class="edge"><title>Node8&#45;&gt;Node10</title>
<path fill="none" stroke="midnightblue" d="M509.009,-112.083C508.214,-104.927 507.071,-94.6353 506.077,-85.6911"/>
<polygon fill="midnightblue" stroke="midnightblue" points="509.555,-85.3034 504.972,-75.7511 502.598,-86.0765 509.555,-85.3034"/>
</g>
<!-- Node11 -->
<g id="node11" class="node"><title>Node11</title>
<polygon fill="none" stroke="#bfbfbf" points="539.5,-56.5 539.5,-75.5 580.5,-75.5 580.5,-56.5 539.5,-56.5"/>
<text text-anchor="middle" x="560" y="-63.5" font-family="Helvetica,sans-Serif" font-size="10.00">regex</text>
</g>
<!-- Node8&#45;&gt;Node11 -->
<g id="edge11" class="edge"><title>Node8&#45;&gt;Node11</title>
<path fill="none" stroke="midnightblue" d="M518.256,-112.083C525.465,-104.298 536.11,-92.8015 544.846,-83.3665"/>
<polygon fill="midnightblue" stroke="midnightblue" points="547.671,-85.4666 551.897,-75.7511 542.535,-80.7108 547.671,-85.4666"/>
</g>
<!-- Node12 -->
<g id="node12" class="node"><title>Node12</title>
<polygon fill="none" stroke="#bfbfbf" points="599,-56.5 599,-75.5 645,-75.5 645,-56.5 599,-56.5"/>
<text text-anchor="middle" x="622" y="-63.5" font-family="Helvetica,sans-Serif" font-size="10.00">variant</text>
</g>
<!-- Node8&#45;&gt;Node12 -->
<g id="edge12" class="edge"><title>Node8&#45;&gt;Node12</title>
<path fill="none" stroke="midnightblue" d="M527.995,-112.324C546.038,-103.625 574.047,-90.1202 594.803,-80.113"/>
<polygon fill="midnightblue" stroke="midnightblue" points="596.562,-83.1502 604.05,-75.6545 593.522,-76.8449 596.562,-83.1502"/>
</g>
<!-- Node13 -->
<g id="node13" class="node"><title>Node13</title>
<g id="a_node13"><a xlink:href="Tags_8h.html" target="_top" xlink:title="Tags.h">
<polygon fill="none" stroke="black" points="663.5,-56.5 663.5,-75.5 710.5,-75.5 710.5,-56.5 663.5,-56.5"/>
<text text-anchor="middle" x="687" y="-63.5" font-family="Helvetica,sans-Serif" font-size="10.00">Tags.h</text>
</a>
</g>
</g>
<!-- Node8&#45;&gt;Node13 -->
<g id="edge14" class="edge"><title>Node8&#45;&gt;Node13</title>
<path fill="none" stroke="midnightblue" d="M538.046,-112.444C569.407,-102.876 620.168,-87.3894 653.566,-77.2001"/>
<polygon fill="midnightblue" stroke="midnightblue" points="654.79,-80.4861 663.333,-74.2203 652.747,-73.7908 654.79,-80.4861"/>
</g>
<!-- Node13&#45;&gt;Node5 -->
<g id="edge15" class="edge"><title>Node13&#45;&gt;Node5</title>
<path fill="none" stroke="midnightblue" d="M663.274,-58.2401C660.166,-57.4397 657.014,-56.6703 654,-56 571.72,-37.7029 473.402,-22.4609 424.606,-15.3346"/>
<polygon fill="midnightblue" stroke="midnightblue" points="425.089,-11.868 414.69,-13.8989 424.086,-18.7958 425.089,-11.868"/>
</g>
</g>
</svg>
