<?xml version="1.0" encoding="UTF-8" standalone="no"?>
<!DOCTYPE svg PUBLIC "-//W3C//DTD SVG 1.1//EN"
 "http://www.w3.org/Graphics/SVG/1.1/DTD/svg11.dtd">
<!-- Generated by graphviz version 2.38.0 (20140413.2041)
 -->
<!-- Title: /home/travis/build/AliceO2Group/Monitoring/include/Monitoring/ProcessMonitor.h Pages: 1 -->
<!--zoomable 295 -->
<svg id="main" version="1.1" xmlns="http://www.w3.org/2000/svg" xmlns:xlink="http://www.w3.org/1999/xlink" xml:space="preserve" onload="init(evt)">
<style type="text/css"><![CDATA[
.edge:hover path { stroke: red; }
.edge:hover polygon { stroke: red; fill: red; }
]]></style>
<script type="text/javascript"><![CDATA[
var edges = document.getElementsByTagName('g');
if (edges && edges.length) {
  for (var i=0;i<edges.length;i++) {
    if (edges[i].id.substr(0,4)=='edge') {
      edges[i].setAttribute('class','edge');
    }
  }
}
]]></script>
        <defs>
                <circle id="rim" cx="0" cy="0" r="7"/>
                <circle id="rim2" cx="0" cy="0" r="3.5"/>
                <g id="zoomPlus">
                        <use xlink:href="#rim" fill="#404040">
                                <set attributeName="fill" to="#808080" begin="zoomplus.mouseover" end="zoomplus.mouseout"/>
                        </use>
                        <path d="M-4,0h8M0,-4v8" fill="none" stroke="white" stroke-width="1.5" pointer-events="none"/>
                </g>
                <g id="zoomMin">
                        <use xlink:href="#rim" fill="#404040">
                                <set attributeName="fill" to="#808080" begin="zoomminus.mouseover" end="zoomminus.mouseout"/>
                        </use>
                        <path d="M-4,0h8" fill="none" stroke="white" stroke-width="1.5" pointer-events="none"/>
                </g>
                <g id="dirArrow">
                        <path fill="none" stroke="white" stroke-width="1.5" d="M0,-3.0v7 M-2.5,-0.5L0,-3.0L2.5,-0.5"/>
                </g>
               <g id="resetDef">
                       <use xlink:href="#rim2" fill="#404040">
                               <set attributeName="fill" to="#808080" begin="reset.mouseover" end="reset.mouseout"/>
                       </use>
               </g>
        </defs>

<script type="text/javascript">
var viewWidth = 2524;
var viewHeight = 295;
var sectionId = 'dynsection-1';
</script>
<script xlink:href="svgpan.js"/>
<svg id="graph" class="graph">
<g id="viewport">
<title>/home/travis/build/AliceO2Group/Monitoring/include/Monitoring/ProcessMonitor.h</title>
<!-- Node1 -->
<g id="node1" class="node"><title>Node1</title>
<polygon fill="#bfbfbf" stroke="black" points="2155,-245.5 2155,-286.5 2333,-286.5 2333,-245.5 2155,-245.5"/>
<text text-anchor="start" x="2163" y="-274.5" font-family="Helvetica,sans-Serif" font-size="10.00">/home/travis/build</text>
<text text-anchor="start" x="2163" y="-263.5" font-family="Helvetica,sans-Serif" font-size="10.00">/AliceO2Group/Monitoring</text>
<text text-anchor="middle" x="2244" y="-252.5" font-family="Helvetica,sans-Serif" font-size="10.00">/include/Monitoring/ProcessMonitor.h</text>
</g>
<!-- Node2 -->
<g id="node2" class="node"><title>Node2</title>
<g id="a_node2"><a xlink:href="Monitoring_8h.html" target="_top" xlink:title="/home/travis/build\l/AliceO2Group/Monitoring\l/include/Monitoring/Monitoring.h">
<polygon fill="none" stroke="black" points="1661.5,-167.5 1661.5,-208.5 1816.5,-208.5 1816.5,-167.5 1661.5,-167.5"/>
<text text-anchor="start" x="1669.5" y="-196.5" font-family="Helvetica,sans-Serif" font-size="10.00">/home/travis/build</text>
<text text-anchor="start" x="1669.5" y="-185.5" font-family="Helvetica,sans-Serif" font-size="10.00">/AliceO2Group/Monitoring</text>
<text text-anchor="middle" x="1739" y="-174.5" font-family="Helvetica,sans-Serif" font-size="10.00">/include/Monitoring/Monitoring.h</text>
</a>
</g>
</g>
<!-- Node1&#45;&gt;Node2 -->
<g id="edge1" class="edge"><title>Node1&#45;&gt;Node2</title>
<path fill="none" stroke="midnightblue" d="M2144.86,-250.08C2048.79,-235.621 1905.02,-213.985 1816.88,-200.721"/>
<polygon fill="midnightblue" stroke="midnightblue" points="2144.47,-253.56 2154.88,-251.588 2145.51,-246.638 2144.47,-253.56"/>
</g>
<!-- Node18 -->
<g id="node18" class="node"><title>Node18</title>
<polygon fill="none" stroke="#bfbfbf" points="2372.5,-0.5 2372.5,-41.5 2515.5,-41.5 2515.5,-0.5 2372.5,-0.5"/>
<text text-anchor="start" x="2380.5" y="-29.5" font-family="Helvetica,sans-Serif" font-size="10.00">/home/travis/build</text>
<text text-anchor="start" x="2380.5" y="-18.5" font-family="Helvetica,sans-Serif" font-size="10.00">/AliceO2Group/Monitoring</text>
<text text-anchor="middle" x="2444" y="-7.5" font-family="Helvetica,sans-Serif" font-size="10.00">/test/testProcessMonitor.cxx</text>
</g>
<!-- Node1&#45;&gt;Node18 -->
<g id="edge21" class="edge"><title>Node1&#45;&gt;Node18</title>
<path fill="none" stroke="midnightblue" d="M2244.48,-235.135C2246.03,-214.663 2250.56,-187.59 2263,-167 2297.77,-109.447 2364.2,-65.2775 2406.19,-41.5221"/>
<polygon fill="midnightblue" stroke="midnightblue" points="2240.98,-234.99 2243.92,-245.17 2247.97,-235.381 2240.98,-234.99"/>
</g>
<!-- Node21 -->
<g id="node21" class="node"><title>Node21</title>
<g id="a_node21"><a xlink:href="ProcessMonitor_8cxx.html" target="_top" xlink:title="/home/travis/build\l/AliceO2Group/Monitoring\l/src/ProcessMonitor.cxx">
<polygon fill="none" stroke="black" points="2272,-167.5 2272,-208.5 2400,-208.5 2400,-167.5 2272,-167.5"/>
<text text-anchor="start" x="2280" y="-196.5" font-family="Helvetica,sans-Serif" font-size="10.00">/home/travis/build</text>
<text text-anchor="start" x="2280" y="-185.5" font-family="Helvetica,sans-Serif" font-size="10.00">/AliceO2Group/Monitoring</text>
<text text-anchor="middle" x="2336" y="-174.5" font-family="Helvetica,sans-Serif" font-size="10.00">/src/ProcessMonitor.cxx</text>
</a>
</g>
</g>
<!-- Node1&#45;&gt;Node21 -->
<g id="edge20" class="edge"><title>Node1&#45;&gt;Node21</title>
<path fill="none" stroke="midnightblue" d="M2275.74,-238.779C2287.77,-228.843 2301.24,-217.716 2312.39,-208.506"/>
<polygon fill="midnightblue" stroke="midnightblue" points="2273.17,-236.361 2267.69,-245.428 2277.63,-241.758 2273.17,-236.361"/>
</g>
<!-- Node3 -->
<g id="node3" class="node"><title>Node3</title>
<g id="a_node3"><a xlink:href="MonitoringFactory_8h.html" target="_top" xlink:title="/home/travis/build\l/AliceO2Group/Monitoring\l/include/Monitoring/Monitoring\lFactory.h">
<polygon fill="none" stroke="black" points="1311,-78.5 1311,-130.5 1457,-130.5 1457,-78.5 1311,-78.5"/>
<text text-anchor="start" x="1319" y="-118.5" font-family="Helvetica,sans-Serif" font-size="10.00">/home/travis/build</text>
<text text-anchor="start" x="1319" y="-107.5" font-family="Helvetica,sans-Serif" font-size="10.00">/AliceO2Group/Monitoring</text>
<text text-anchor="start" x="1319" y="-96.5" font-family="Helvetica,sans-Serif" font-size="10.00">/include/Monitoring/Monitoring</text>
<text text-anchor="middle" x="1384" y="-85.5" font-family="Helvetica,sans-Serif" font-size="10.00">Factory.h</text>
</a>
</g>
</g>
<!-- Node2&#45;&gt;Node3 -->
<g id="edge2" class="edge"><title>Node2&#45;&gt;Node3</title>
<path fill="none" stroke="midnightblue" d="M1651.3,-166.867C1591.61,-153.163 1513.53,-135.236 1457.18,-122.301"/>
<polygon fill="midnightblue" stroke="midnightblue" points="1650.56,-170.288 1661.09,-169.114 1652.13,-163.466 1650.56,-170.288"/>
</g>
<!-- Node20 -->
<g id="node20" class="node"><title>Node20</title>
<g id="a_node20"><a xlink:href="Monitoring_8cxx.html" target="_top" xlink:title="/home/travis/build\l/AliceO2Group/Monitoring\l/src/Monitoring.cxx">
<polygon fill="none" stroke="black" points="1675,-84 1675,-125 1803,-125 1803,-84 1675,-84"/>
<text text-anchor="start" x="1683" y="-113" font-family="Helvetica,sans-Serif" font-size="10.00">/home/travis/build</text>
<text text-anchor="start" x="1683" y="-102" font-family="Helvetica,sans-Serif" font-size="10.00">/AliceO2Group/Monitoring</text>
<text text-anchor="middle" x="1739" y="-91" font-family="Helvetica,sans-Serif" font-size="10.00">/src/Monitoring.cxx</text>
</a>
</g>
</g>
<!-- Node2&#45;&gt;Node20 -->
<g id="edge19" class="edge"><title>Node2&#45;&gt;Node20</title>
<path fill="none" stroke="midnightblue" d="M1739,-157.065C1739,-146.382 1739,-134.63 1739,-125.047"/>
<polygon fill="midnightblue" stroke="midnightblue" points="1735.5,-157.271 1739,-167.271 1742.5,-157.271 1735.5,-157.271"/>
</g>
<!-- Node4 -->
<g id="node4" class="node"><title>Node4</title>
<g id="a_node4"><a xlink:href="1-Basic_8cxx.html" target="_top" xlink:title="/home/travis/build\l/AliceO2Group/Monitoring\l/examples/1&#45;Basic.cxx">
<polygon fill="none" stroke="black" points="0,-0.5 0,-41.5 128,-41.5 128,-0.5 0,-0.5"/>
<text text-anchor="start" x="8" y="-29.5" font-family="Helvetica,sans-Serif" font-size="10.00">/home/travis/build</text>
<text text-anchor="start" x="8" y="-18.5" font-family="Helvetica,sans-Serif" font-size="10.00">/AliceO2Group/Monitoring</text>
<text text-anchor="middle" x="64" y="-7.5" font-family="Helvetica,sans-Serif" font-size="10.00">/examples/1&#45;Basic.cxx</text>
</a>
</g>
</g>
<!-- Node3&#45;&gt;Node4 -->
<g id="edge3" class="edge"><title>Node3&#45;&gt;Node4</title>
<path fill="none" stroke="midnightblue" d="M1300.67,-101.76C1059.23,-96.3432 362.125,-77.9483 137,-42 134.145,-41.5441 131.242,-41.0189 128.32,-40.4397"/>
<polygon fill="midnightblue" stroke="midnightblue" points="1300.72,-105.262 1310.79,-101.986 1300.87,-98.2636 1300.72,-105.262"/>
</g>
<!-- Node5 -->
<g id="node5" class="node"><title>Node5</title>
<g id="a_node5"><a xlink:href="10-Buffering_8cxx.html" target="_top" xlink:title="/home/travis/build\l/AliceO2Group/Monitoring\l/examples/10&#45;Buffering.cxx">
<polygon fill="none" stroke="black" points="146,-0.5 146,-41.5 282,-41.5 282,-0.5 146,-0.5"/>
<text text-anchor="start" x="154" y="-29.5" font-family="Helvetica,sans-Serif" font-size="10.00">/home/travis/build</text>
<text text-anchor="start" x="154" y="-18.5" font-family="Helvetica,sans-Serif" font-size="10.00">/AliceO2Group/Monitoring</text>
<text text-anchor="middle" x="214" y="-7.5" font-family="Helvetica,sans-Serif" font-size="10.00">/examples/10&#45;Buffering.cxx</text>
</a>
</g>
</g>
<!-- Node3&#45;&gt;Node5 -->
<g id="edge4" class="edge"><title>Node3&#45;&gt;Node5</title>
<path fill="none" stroke="midnightblue" d="M1300.77,-104.406C1117.25,-105.185 664.417,-100.411 291,-42 288.134,-41.5518 285.221,-41.0425 282.286,-40.4852"/>
<polygon fill="midnightblue" stroke="midnightblue" points="1300.91,-107.905 1310.89,-104.356 1300.87,-100.905 1300.91,-107.905"/>
</g>
<!-- Node6 -->
<g id="node6" class="node"><title>Node6</title>
<g id="a_node6"><a xlink:href="2-TaggedMetrics_8cxx.html" target="_top" xlink:title="/home/travis/build\l/AliceO2Group/Monitoring\l/examples/2&#45;TaggedMetrics.cxx">
<polygon fill="none" stroke="black" points="300,-0.5 300,-41.5 456,-41.5 456,-0.5 300,-0.5"/>
<text text-anchor="start" x="308" y="-29.5" font-family="Helvetica,sans-Serif" font-size="10.00">/home/travis/build</text>
<text text-anchor="start" x="308" y="-18.5" font-family="Helvetica,sans-Serif" font-size="10.00">/AliceO2Group/Monitoring</text>
<text text-anchor="middle" x="378" y="-7.5" font-family="Helvetica,sans-Serif" font-size="10.00">/examples/2&#45;TaggedMetrics.cxx</text>
</a>
</g>
</g>
<!-- Node3&#45;&gt;Node6 -->
<g id="edge5" class="edge"><title>Node3&#45;&gt;Node6</title>
<path fill="none" stroke="midnightblue" d="M1300.54,-102.351C1138.59,-99.1442 770.723,-87.0773 465,-42 462.087,-41.5705 459.127,-41.0945 456.143,-40.5814"/>
<polygon fill="midnightblue" stroke="midnightblue" points="1300.84,-105.858 1310.91,-102.55 1300.98,-98.859 1300.84,-105.858"/>
</g>
<!-- Node7 -->
<g id="node7" class="node"><title>Node7</title>
<polygon fill="none" stroke="#bfbfbf" points="474.5,-0.5 474.5,-41.5 607.5,-41.5 607.5,-0.5 474.5,-0.5"/>
<text text-anchor="start" x="482.5" y="-29.5" font-family="Helvetica,sans-Serif" font-size="10.00">/home/travis/build</text>
<text text-anchor="start" x="482.5" y="-18.5" font-family="Helvetica,sans-Serif" font-size="10.00">/AliceO2Group/Monitoring</text>
<text text-anchor="middle" x="541" y="-7.5" font-family="Helvetica,sans-Serif" font-size="10.00">/examples/3&#45;Verbosity.cxx</text>
</g>
<!-- Node3&#45;&gt;Node7 -->
<g id="edge6" class="edge"><title>Node3&#45;&gt;Node7</title>
<path fill="none" stroke="midnightblue" d="M1300.58,-101.746C1158.9,-97.671 862.605,-84.3962 616,-42 613.211,-41.5205 610.375,-40.9851 607.518,-40.4062"/>
<polygon fill="midnightblue" stroke="midnightblue" points="1300.83,-105.254 1310.92,-102.035 1301.02,-98.257 1300.83,-105.254"/>
</g>
<!-- Node8 -->
<g id="node8" class="node"><title>Node8</title>
<g id="a_node8"><a xlink:href="4-RateDerivedMetric_8cxx.html" target="_top" xlink:title="/home/travis/build\l/AliceO2Group/Monitoring\l/examples/4&#45;RateDerivedMetric.cxx">
<polygon fill="none" stroke="black" points="625.5,-0.5 625.5,-41.5 798.5,-41.5 798.5,-0.5 625.5,-0.5"/>
<text text-anchor="start" x="633.5" y="-29.5" font-family="Helvetica,sans-Serif" font-size="10.00">/home/travis/build</text>
<text text-anchor="start" x="633.5" y="-18.5" font-family="Helvetica,sans-Serif" font-size="10.00">/AliceO2Group/Monitoring</text>
<text text-anchor="middle" x="712" y="-7.5" font-family="Helvetica,sans-Serif" font-size="10.00">/examples/4&#45;RateDerivedMetric.cxx</text>
</a>
</g>
</g>
<!-- Node3&#45;&gt;Node8 -->
<g id="edge7" class="edge"><title>Node3&#45;&gt;Node8</title>
<path fill="none" stroke="midnightblue" d="M1300.56,-97.2762C1188.05,-88.2756 981.651,-69.6192 807,-42 804.253,-41.5656 801.466,-41.1041 798.654,-40.6209"/>
<polygon fill="midnightblue" stroke="midnightblue" points="1300.57,-100.788 1310.82,-98.0909 1301.13,-93.8102 1300.57,-100.788"/>
</g>
<!-- Node9 -->
<g id="node9" class="node"><title>Node9</title>
<g id="a_node9"><a xlink:href="5-Benchmark_8cxx.html" target="_top" xlink:title="/home/travis/build\l/AliceO2Group/Monitoring\l/examples/5&#45;Benchmark.cxx">
<polygon fill="none" stroke="black" points="816.5,-0.5 816.5,-41.5 957.5,-41.5 957.5,-0.5 816.5,-0.5"/>
<text text-anchor="start" x="824.5" y="-29.5" font-family="Helvetica,sans-Serif" font-size="10.00">/home/travis/build</text>
<text text-anchor="start" x="824.5" y="-18.5" font-family="Helvetica,sans-Serif" font-size="10.00">/AliceO2Group/Monitoring</text>
<text text-anchor="middle" x="887" y="-7.5" font-family="Helvetica,sans-Serif" font-size="10.00">/examples/5&#45;Benchmark.cxx</text>
</a>
</g>
</g>
<!-- Node3&#45;&gt;Node9 -->
<g id="edge8" class="edge"><title>Node3&#45;&gt;Node9</title>
<path fill="none" stroke="midnightblue" d="M1300.67,-93.7791C1216,-83.3071 1081.26,-65.0069 966,-42 963.225,-41.4461 960.402,-40.8567 957.554,-40.2407"/>
<polygon fill="midnightblue" stroke="midnightblue" points="1300.39,-97.2711 1310.74,-95.0172 1301.25,-90.3234 1300.39,-97.2711"/>
</g>
<!-- Node10 -->
<g id="node10" class="node"><title>Node10</title>
<g id="a_node10"><a xlink:href="6-Increment_8cxx.html" target="_top" xlink:title="/home/travis/build\l/AliceO2Group/Monitoring\l/examples/6&#45;Increment.cxx">
<polygon fill="none" stroke="black" points="975.5,-0.5 975.5,-41.5 1110.5,-41.5 1110.5,-0.5 975.5,-0.5"/>
<text text-anchor="start" x="983.5" y="-29.5" font-family="Helvetica,sans-Serif" font-size="10.00">/home/travis/build</text>
<text text-anchor="start" x="983.5" y="-18.5" font-family="Helvetica,sans-Serif" font-size="10.00">/AliceO2Group/Monitoring</text>
<text text-anchor="middle" x="1043" y="-7.5" font-family="Helvetica,sans-Serif" font-size="10.00">/examples/6&#45;Increment.cxx</text>
</a>
</g>
</g>
<!-- Node3&#45;&gt;Node10 -->
<g id="edge9" class="edge"><title>Node3&#45;&gt;Node10</title>
<path fill="none" stroke="midnightblue" d="M1300.85,-84.8605C1248.56,-72.9756 1179.73,-57.034 1119,-42 1116.22,-41.3115 1113.38,-40.6013 1110.52,-39.8778"/>
<polygon fill="midnightblue" stroke="midnightblue" points="1300.22,-88.3066 1310.75,-87.1065 1301.77,-81.4802 1300.22,-88.3066"/>
</g>
<!-- Node11 -->
<g id="node11" class="node"><title>Node11</title>
<polygon fill="none" stroke="#bfbfbf" points="1128.5,-0.5 1128.5,-41.5 1301.5,-41.5 1301.5,-0.5 1128.5,-0.5"/>
<text text-anchor="start" x="1136.5" y="-29.5" font-family="Helvetica,sans-Serif" font-size="10.00">/home/travis/build</text>
<text text-anchor="start" x="1136.5" y="-18.5" font-family="Helvetica,sans-Serif" font-size="10.00">/AliceO2Group/Monitoring</text>
<text text-anchor="middle" x="1215" y="-7.5" font-family="Helvetica,sans-Serif" font-size="10.00">/examples/7&#45;InternalBenchamrk.cxx</text>
</g>
<!-- Node3&#45;&gt;Node11 -->
<g id="edge10" class="edge"><title>Node3&#45;&gt;Node11</title>
<path fill="none" stroke="midnightblue" d="M1322.83,-74.0012C1300.48,-63.2235 1275.77,-51.3065 1255.65,-41.6027"/>
<polygon fill="midnightblue" stroke="midnightblue" points="1321.39,-77.191 1331.92,-78.3823 1324.43,-70.8859 1321.39,-77.191"/>
</g>
<!-- Node12 -->
<g id="node12" class="node"><title>Node12</title>
<g id="a_node12"><a xlink:href="8-DbFiller_8cxx.html" target="_top" xlink:title="/home/travis/build\l/AliceO2Group/Monitoring\l/examples/8&#45;DbFiller.cxx">
<polygon fill="none" stroke="black" points="1320,-0.5 1320,-41.5 1448,-41.5 1448,-0.5 1320,-0.5"/>
<text text-anchor="start" x="1328" y="-29.5" font-family="Helvetica,sans-Serif" font-size="10.00">/home/travis/build</text>
<text text-anchor="start" x="1328" y="-18.5" font-family="Helvetica,sans-Serif" font-size="10.00">/AliceO2Group/Monitoring</text>
<text text-anchor="middle" x="1384" y="-7.5" font-family="Helvetica,sans-Serif" font-size="10.00">/examples/8&#45;DbFiller.cxx</text>
</a>
</g>
</g>
<!-- Node3&#45;&gt;Node12 -->
<g id="edge11" class="edge"><title>Node3&#45;&gt;Node12</title>
<path fill="none" stroke="midnightblue" d="M1384,-68.1474C1384,-59.0546 1384,-49.5968 1384,-41.6282"/>
<polygon fill="midnightblue" stroke="midnightblue" points="1380.5,-68.1596 1384,-78.1596 1387.5,-68.1597 1380.5,-68.1596"/>
</g>
<!-- Node13 -->
<g id="node13" class="node"><title>Node13</title>
<g id="a_node13"><a xlink:href="MonitoringFactory_8cxx.html" target="_top" xlink:title="/home/travis/build\l/AliceO2Group/Monitoring\l/src/MonitoringFactory.cxx">
<polygon fill="none" stroke="black" points="1466.5,-0.5 1466.5,-41.5 1599.5,-41.5 1599.5,-0.5 1466.5,-0.5"/>
<text text-anchor="start" x="1474.5" y="-29.5" font-family="Helvetica,sans-Serif" font-size="10.00">/home/travis/build</text>
<text text-anchor="start" x="1474.5" y="-18.5" font-family="Helvetica,sans-Serif" font-size="10.00">/AliceO2Group/Monitoring</text>
<text text-anchor="middle" x="1533" y="-7.5" font-family="Helvetica,sans-Serif" font-size="10.00">/src/MonitoringFactory.cxx</text>
</a>
</g>
</g>
<!-- Node3&#45;&gt;Node13 -->
<g id="edge12" class="edge"><title>Node3&#45;&gt;Node13</title>
<path fill="none" stroke="midnightblue" d="M1438.95,-73.4453C1458.29,-62.8637 1479.53,-51.2468 1496.92,-41.7338"/>
<polygon fill="midnightblue" stroke="midnightblue" points="1437.01,-70.5127 1429.92,-78.3823 1440.37,-76.6541 1437.01,-70.5127"/>
</g>
<!-- Node14 -->
<g id="node14" class="node"><title>Node14</title>
<polygon fill="none" stroke="#bfbfbf" points="1618,-0.5 1618,-41.5 1746,-41.5 1746,-0.5 1618,-0.5"/>
<text text-anchor="start" x="1626" y="-29.5" font-family="Helvetica,sans-Serif" font-size="10.00">/home/travis/build</text>
<text text-anchor="start" x="1626" y="-18.5" font-family="Helvetica,sans-Serif" font-size="10.00">/AliceO2Group/Monitoring</text>
<text text-anchor="middle" x="1682" y="-7.5" font-family="Helvetica,sans-Serif" font-size="10.00">/test/testApMon.cxx</text>
</g>
<!-- Node3&#45;&gt;Node14 -->
<g id="edge13" class="edge"><title>Node3&#45;&gt;Node14</title>
<path fill="none" stroke="midnightblue" d="M1466.96,-80.8126C1514.58,-67.7866 1573.5,-51.6736 1617.61,-39.6088"/>
<polygon fill="midnightblue" stroke="midnightblue" points="1466,-77.4444 1457.28,-83.4585 1467.85,-84.1964 1466,-77.4444"/>
</g>
<!-- Node15 -->
<g id="node15" class="node"><title>Node15</title>
<polygon fill="none" stroke="#bfbfbf" points="1764,-0.5 1764,-41.5 1892,-41.5 1892,-0.5 1764,-0.5"/>
<text text-anchor="start" x="1772" y="-29.5" font-family="Helvetica,sans-Serif" font-size="10.00">/home/travis/build</text>
<text text-anchor="start" x="1772" y="-18.5" font-family="Helvetica,sans-Serif" font-size="10.00">/AliceO2Group/Monitoring</text>
<text text-anchor="middle" x="1828" y="-7.5" font-family="Helvetica,sans-Serif" font-size="10.00">/test/testInfluxDb.cxx</text>
</g>
<!-- Node3&#45;&gt;Node15 -->
<g id="edge14" class="edge"><title>Node3&#45;&gt;Node15</title>
<path fill="none" stroke="midnightblue" d="M1467.22,-92.2127C1542.71,-81.3786 1656.89,-63.5117 1755,-42 1757.95,-41.3527 1760.96,-40.6603 1764,-39.9361"/>
<polygon fill="midnightblue" stroke="midnightblue" points="1466.69,-88.752 1457.28,-93.6291 1467.68,-95.6819 1466.69,-88.752"/>
</g>
<!-- Node16 -->
<g id="node16" class="node"><title>Node16</title>
<polygon fill="none" stroke="#bfbfbf" points="1910,-0.5 1910,-41.5 2038,-41.5 2038,-0.5 1910,-0.5"/>
<text text-anchor="start" x="1918" y="-29.5" font-family="Helvetica,sans-Serif" font-size="10.00">/home/travis/build</text>
<text text-anchor="start" x="1918" y="-18.5" font-family="Helvetica,sans-Serif" font-size="10.00">/AliceO2Group/Monitoring</text>
<text text-anchor="middle" x="1974" y="-7.5" font-family="Helvetica,sans-Serif" font-size="10.00">/test/testMonitoring.cxx</text>
</g>
<!-- Node3&#45;&gt;Node16 -->
<g id="edge15" class="edge"><title>Node3&#45;&gt;Node16</title>
<path fill="none" stroke="midnightblue" d="M1467.31,-97.435C1569.98,-89.0793 1749.47,-71.5995 1901,-42 1903.84,-41.4458 1906.73,-40.8391 1909.64,-40.1931"/>
<polygon fill="midnightblue" stroke="midnightblue" points="1467,-93.9486 1457.31,-98.2395 1467.56,-100.926 1467,-93.9486"/>
</g>
<!-- Node17 -->
<g id="node17" class="node"><title>Node17</title>
<polygon fill="none" stroke="#bfbfbf" points="2056,-0.5 2056,-41.5 2208,-41.5 2208,-0.5 2056,-0.5"/>
<text text-anchor="start" x="2064" y="-29.5" font-family="Helvetica,sans-Serif" font-size="10.00">/home/travis/build</text>
<text text-anchor="start" x="2064" y="-18.5" font-family="Helvetica,sans-Serif" font-size="10.00">/AliceO2Group/Monitoring</text>
<text text-anchor="middle" x="2132" y="-7.5" font-family="Helvetica,sans-Serif" font-size="10.00">/test/testMonitoringFactory.cxx</text>
</g>
<!-- Node3&#45;&gt;Node17 -->
<g id="edge16" class="edge"><title>Node3&#45;&gt;Node17</title>
<path fill="none" stroke="midnightblue" d="M1467.38,-95.9168C1642.33,-79.9856 2032.85,-44.3093 2047,-42 2049.84,-41.536 2052.73,-41.0307 2055.64,-40.4928"/>
<polygon fill="midnightblue" stroke="midnightblue" points="1466.83,-92.4525 1457.19,-96.845 1467.46,-99.4237 1466.83,-92.4525"/>
</g>
<!-- Node3&#45;&gt;Node18 -->
<g id="edge17" class="edge"><title>Node3&#45;&gt;Node18</title>
<path fill="none" stroke="midnightblue" d="M1467.51,-95.0975C1523.6,-89.6636 1599.18,-82.7449 1666,-78 1975.41,-56.0283 2056.15,-87.3842 2363,-42 2366.01,-41.5549 2369.07,-41.0483 2372.15,-40.4932"/>
<polygon fill="midnightblue" stroke="midnightblue" points="1466.88,-91.6417 1457.27,-96.0939 1467.56,-98.6088 1466.88,-91.6417"/>
</g>
<!-- Node19 -->
<g id="node19" class="node"><title>Node19</title>
<polygon fill="none" stroke="#bfbfbf" points="2226,-0.5 2226,-41.5 2354,-41.5 2354,-0.5 2226,-0.5"/>
<text text-anchor="start" x="2234" y="-29.5" font-family="Helvetica,sans-Serif" font-size="10.00">/home/travis/build</text>
<text text-anchor="start" x="2234" y="-18.5" font-family="Helvetica,sans-Serif" font-size="10.00">/AliceO2Group/Monitoring</text>
<text text-anchor="middle" x="2290" y="-7.5" font-family="Helvetica,sans-Serif" font-size="10.00">/test/testThreads.cxx</text>
</g>
<!-- Node3&#45;&gt;Node19 -->
<g id="edge18" class="edge"><title>Node3&#45;&gt;Node19</title>
<path fill="none" stroke="midnightblue" d="M1467.53,-95.3964C1523.63,-90.0897 1599.22,-83.2004 1666,-78 1910.67,-58.9479 1974.98,-82.6305 2217,-42 2219.85,-41.5214 2222.75,-40.9773 2225.67,-40.3826"/>
<polygon fill="midnightblue" stroke="midnightblue" points="1466.91,-91.9391 1457.29,-96.3681 1467.57,-98.9078 1466.91,-91.9391"/>
</g>
</g>
</svg>
        <g id="navigator" transform="translate(0 0)" fill="#404254">
                <rect fill="#f2f5e9" fill-opacity="0.5" stroke="#606060" stroke-width=".5" x="0" y="0" width="60" height="60"/>
                <use id="zoomplus" xlink:href="#zoomPlus" x="17" y="9" onmousedown="handleZoom(evt,'in')"/>
                <use id="zoomminus" xlink:href="#zoomMin" x="42" y="9" onmousedown="handleZoom(evt,'out')"/>
                <use id="reset" xlink:href="#resetDef" x="30" y="36" onmousedown="handleReset()"/>
                <g id="arrowUp" xlink:href="#dirArrow" transform="translate(30 24)" onmousedown="handlePan(0,-1)">
                  <use xlink:href="#rim" fill="#404040">
                        <set attributeName="fill" to="#808080" begin="arrowUp.mouseover" end="arrowUp.mouseout"/>
                  </use>
                  <path fill="none" stroke="white" stroke-width="1.5" d="M0,-3.0v7 M-2.5,-0.5L0,-3.0L2.5,-0.5"/>
                </g>
                <g id="arrowRight" xlink:href="#dirArrow" transform="rotate(90) translate(36 -43)" onmousedown="handlePan(1,0)">
                  <use xlink:href="#rim" fill="#404040">
                        <set attributeName="fill" to="#808080" begin="arrowRight.mouseover" end="arrowRight.mouseout"/>
                  </use>
                  <path fill="none" stroke="white" stroke-width="1.5" d="M0,-3.0v7 M-2.5,-0.5L0,-3.0L2.5,-0.5"/>
                </g>
                <g id="arrowDown" xlink:href="#dirArrow" transform="rotate(180) translate(-30 -48)" onmousedown="handlePan(0,1)">
                  <use xlink:href="#rim" fill="#404040">
                        <set attributeName="fill" to="#808080" begin="arrowDown.mouseover" end="arrowDown.mouseout"/>
                  </use>
                  <path fill="none" stroke="white" stroke-width="1.5" d="M0,-3.0v7 M-2.5,-0.5L0,-3.0L2.5,-0.5"/>
                </g>
                <g id="arrowLeft" xlink:href="#dirArrow" transform="rotate(270) translate(-36 17)" onmousedown="handlePan(-1,0)">
                  <use xlink:href="#rim" fill="#404040">
                        <set attributeName="fill" to="#808080" begin="arrowLeft.mouseover" end="arrowLeft.mouseout"/>
                  </use>
                  <path fill="none" stroke="white" stroke-width="1.5" d="M0,-3.0v7 M-2.5,-0.5L0,-3.0L2.5,-0.5"/>
                </g>
        </g>
        <svg viewBox="0 0 15 15" width="100%" height="30px" preserveAspectRatio="xMaxYMin meet">
         <g id="arrow_out" transform="scale(0.3 0.3)">
          <a xlink:href="ProcessMonitor_8h__dep__incl_org.svg" target="_base">
           <rect id="button" ry="5" rx="5" y="6" x="6" height="38" width="38"
                fill="#f2f5e9" fill-opacity="0.5" stroke="#606060" stroke-width="1.0"/>
           <path id="arrow"
             d="M 11.500037,31.436501 C 11.940474,20.09759 22.043105,11.32322 32.158766,21.979434 L 37.068811,17.246167 C 37.068811,17.246167 37.088388,32 37.088388,32 L 22.160133,31.978069 C 22.160133,31.978069 26.997745,27.140456 26.997745,27.140456 C 18.528582,18.264221 13.291696,25.230495 11.500037,31.436501 z"
             style="fill:#404040;"/>
          </a>
         </g>
        </svg>
</svg>
