<?xml version="1.0" encoding="UTF-8" standalone="no"?>
<!DOCTYPE svg PUBLIC "-//W3C//DTD SVG 1.1//EN"
 "http://www.w3.org/Graphics/SVG/1.1/DTD/svg11.dtd">
<!-- Generated by graphviz version 2.38.0 (20140413.2041)
 -->
<!-- Title: /home/travis/build/AliceO2Group/Monitoring/src/ProcessMonitor.cxx Pages: 1 -->
<svg width="1154pt" height="285pt"
 viewBox="0.00 0.00 1153.50 285.00" xmlns="http://www.w3.org/2000/svg" xmlns:xlink="http://www.w3.org/1999/xlink">
<g id="graph0" class="graph" transform="scale(1 1) rotate(0) translate(4 281)">
<title>/home/travis/build/AliceO2Group/Monitoring/src/ProcessMonitor.cxx</title>
<!-- Node1 -->
<g id="node1" class="node"><title>Node1</title>
<polygon fill="#bfbfbf" stroke="black" points="798,-235.5 798,-276.5 926,-276.5 926,-235.5 798,-235.5"/>
<text text-anchor="start" x="806" y="-264.5" font-family="Helvetica,sans-Serif" font-size="10.00">/home/travis/build</text>
<text text-anchor="start" x="806" y="-253.5" font-family="Helvetica,sans-Serif" font-size="10.00">/AliceO2Group/Monitoring</text>
<text text-anchor="middle" x="862" y="-242.5" font-family="Helvetica,sans-Serif" font-size="10.00">/src/ProcessMonitor.cxx</text>
</g>
<!-- Node2 -->
<g id="node2" class="node"><title>Node2</title>
<g id="a_node2"><a xlink:href="ProcessMonitor_8h.html" target="_top" xlink:title="Monitoring/ProcessMonitor.h">
<polygon fill="none" stroke="black" points="223.5,-174 223.5,-193 364.5,-193 364.5,-174 223.5,-174"/>
<text text-anchor="middle" x="294" y="-181" font-family="Helvetica,sans-Serif" font-size="10.00">Monitoring/ProcessMonitor.h</text>
</a>
</g>
</g>
<!-- Node1&#45;&gt;Node2 -->
<g id="edge1" class="edge"><title>Node1&#45;&gt;Node2</title>
<path fill="none" stroke="midnightblue" d="M797.947,-247.05C693.322,-234.064 486.08,-208.341 372.676,-194.265"/>
<polygon fill="midnightblue" stroke="midnightblue" points="373.025,-190.782 362.67,-193.023 372.162,-197.728 373.025,-190.782"/>
</g>
<!-- Node10 -->
<g id="node10" class="node"><title>Node10</title>
<polygon fill="none" stroke="#bfbfbf" points="593,-56.5 593,-75.5 639,-75.5 639,-56.5 593,-56.5"/>
<text text-anchor="middle" x="616" y="-63.5" font-family="Helvetica,sans-Serif" font-size="10.00">chrono</text>
</g>
<!-- Node1&#45;&gt;Node10 -->
<g id="edge22" class="edge"><title>Node1&#45;&gt;Node10</title>
<path fill="none" stroke="midnightblue" d="M797.989,-249.873C730.706,-242.999 631.406,-228.128 608,-199 581.604,-166.15 597.172,-112.548 608.098,-84.8394"/>
<polygon fill="midnightblue" stroke="midnightblue" points="611.339,-86.1615 611.961,-75.585 604.879,-83.4651 611.339,-86.1615"/>
</g>
<!-- Node15 -->
<g id="node15" class="node"><title>Node15</title>
<g id="a_node15"><a xlink:href="MonLogger_8h.html" target="_top" xlink:title="MonLogger.h">
<polygon fill="none" stroke="black" points="616.5,-174 616.5,-193 689.5,-193 689.5,-174 616.5,-174"/>
<text text-anchor="middle" x="653" y="-181" font-family="Helvetica,sans-Serif" font-size="10.00">MonLogger.h</text>
</a>
</g>
</g>
<!-- Node1&#45;&gt;Node15 -->
<g id="edge17" class="edge"><title>Node1&#45;&gt;Node15</title>
<path fill="none" stroke="midnightblue" d="M804.059,-235.455C766.779,-222.88 719.56,-206.952 687.927,-196.282"/>
<polygon fill="midnightblue" stroke="midnightblue" points="688.831,-192.893 678.237,-193.013 686.594,-199.526 688.831,-192.893"/>
</g>
<!-- Node17 -->
<g id="node17" class="node"><title>Node17</title>
<polygon fill="none" stroke="#bfbfbf" points="708,-168.5 708,-198.5 818,-198.5 818,-168.5 708,-168.5"/>
<text text-anchor="start" x="716" y="-186.5" font-family="Helvetica,sans-Serif" font-size="10.00">boost/algorithm/string</text>
<text text-anchor="middle" x="763" y="-175.5" font-family="Helvetica,sans-Serif" font-size="10.00">/classification.hpp</text>
</g>
<!-- Node1&#45;&gt;Node17 -->
<g id="edge21" class="edge"><title>Node1&#45;&gt;Node17</title>
<path fill="none" stroke="midnightblue" d="M834.423,-235.362C821,-225.803 804.882,-214.325 791.357,-204.694"/>
<polygon fill="midnightblue" stroke="midnightblue" points="793.074,-201.62 782.898,-198.67 789.014,-207.322 793.074,-201.62"/>
</g>
<!-- Node18 -->
<g id="node18" class="node"><title>Node18</title>
<polygon fill="none" stroke="#bfbfbf" points="836,-174 836,-193 888,-193 888,-174 836,-174"/>
<text text-anchor="middle" x="862" y="-181" font-family="Helvetica,sans-Serif" font-size="10.00">sstream</text>
</g>
<!-- Node1&#45;&gt;Node18 -->
<g id="edge23" class="edge"><title>Node1&#45;&gt;Node18</title>
<path fill="none" stroke="midnightblue" d="M862,-235.362C862,-225.297 862,-213.104 862,-203.18"/>
<polygon fill="midnightblue" stroke="midnightblue" points="865.5,-203.173 862,-193.173 858.5,-203.173 865.5,-203.173"/>
</g>
<!-- Node19 -->
<g id="node19" class="node"><title>Node19</title>
<polygon fill="none" stroke="#bfbfbf" points="906,-174 906,-193 950,-193 950,-174 906,-174"/>
<text text-anchor="middle" x="928" y="-181" font-family="Helvetica,sans-Serif" font-size="10.00">cmath</text>
</g>
<!-- Node1&#45;&gt;Node19 -->
<g id="edge24" class="edge"><title>Node1&#45;&gt;Node19</title>
<path fill="none" stroke="midnightblue" d="M880.385,-235.362C890.618,-224.431 903.2,-210.991 912.86,-200.672"/>
<polygon fill="midnightblue" stroke="midnightblue" points="915.601,-202.866 919.88,-193.173 910.491,-198.082 915.601,-202.866"/>
</g>
<!-- Node20 -->
<g id="node20" class="node"><title>Node20</title>
<polygon fill="none" stroke="#bfbfbf" points="968,-174 968,-193 1018,-193 1018,-174 968,-174"/>
<text text-anchor="middle" x="993" y="-181" font-family="Helvetica,sans-Serif" font-size="10.00">fstream</text>
</g>
<!-- Node1&#45;&gt;Node20 -->
<g id="edge25" class="edge"><title>Node1&#45;&gt;Node20</title>
<path fill="none" stroke="midnightblue" d="M898.491,-235.362C920.611,-223.457 948.264,-208.576 967.93,-197.992"/>
<polygon fill="midnightblue" stroke="midnightblue" points="969.736,-200.994 976.884,-193.173 966.419,-194.83 969.736,-200.994"/>
</g>
<!-- Node21 -->
<g id="node21" class="node"><title>Node21</title>
<polygon fill="none" stroke="#bfbfbf" points="1036,-174 1036,-193 1076,-193 1076,-174 1036,-174"/>
<text text-anchor="middle" x="1056" y="-181" font-family="Helvetica,sans-Serif" font-size="10.00">utility</text>
</g>
<!-- Node1&#45;&gt;Node21 -->
<g id="edge26" class="edge"><title>Node1&#45;&gt;Node21</title>
<path fill="none" stroke="midnightblue" d="M926.221,-235.458C957.066,-225.502 994.338,-212.633 1027,-199 1028.2,-198.5 1029.42,-197.972 1030.64,-197.426"/>
<polygon fill="midnightblue" stroke="midnightblue" points="1032.39,-200.471 1039.92,-193.026 1029.39,-194.146 1032.39,-200.471"/>
</g>
<!-- Node22 -->
<g id="node22" class="node"><title>Node22</title>
<polygon fill="none" stroke="#bfbfbf" points="1094.5,-174 1094.5,-193 1145.5,-193 1145.5,-174 1094.5,-174"/>
<text text-anchor="middle" x="1120" y="-181" font-family="Helvetica,sans-Serif" font-size="10.00">numeric</text>
</g>
<!-- Node1&#45;&gt;Node22 -->
<g id="edge27" class="edge"><title>Node1&#45;&gt;Node22</title>
<path fill="none" stroke="midnightblue" d="M926.152,-241.518C971.104,-231.434 1032.32,-216.422 1085,-199 1086.92,-198.365 1088.88,-197.673 1090.85,-196.948"/>
<polygon fill="midnightblue" stroke="midnightblue" points="1092.53,-200.048 1100.57,-193.143 1089.98,-193.53 1092.53,-200.048"/>
</g>
<!-- Node3 -->
<g id="node3" class="node"><title>Node3</title>
<polygon fill="none" stroke="#bfbfbf" points="0,-112.5 0,-131.5 46,-131.5 46,-112.5 0,-112.5"/>
<text text-anchor="middle" x="23" y="-119.5" font-family="Helvetica,sans-Serif" font-size="10.00">atomic</text>
</g>
<!-- Node2&#45;&gt;Node3 -->
<g id="edge2" class="edge"><title>Node2&#45;&gt;Node3</title>
<path fill="none" stroke="midnightblue" d="M249.311,-173.972C203.216,-164.972 129.048,-149.926 55.8718,-132.09"/>
<polygon fill="midnightblue" stroke="midnightblue" points="56.5702,-128.658 46.024,-129.671 54.9004,-135.456 56.5702,-128.658"/>
</g>
<!-- Node4 -->
<g id="node4" class="node"><title>Node4</title>
<polygon fill="none" stroke="#bfbfbf" points="64.5,-112.5 64.5,-131.5 193.5,-131.5 193.5,-112.5 64.5,-112.5"/>
<text text-anchor="middle" x="129" y="-119.5" font-family="Helvetica,sans-Serif" font-size="10.00">boost/algorithm/string.hpp</text>
</g>
<!-- Node2&#45;&gt;Node4 -->
<g id="edge3" class="edge"><title>Node2&#45;&gt;Node4</title>
<path fill="none" stroke="midnightblue" d="M270.36,-173.975C242.056,-163.769 194.467,-146.608 162.414,-135.049"/>
<polygon fill="midnightblue" stroke="midnightblue" points="163.191,-131.609 152.597,-131.509 160.816,-138.194 163.191,-131.609"/>
</g>
<!-- Node5 -->
<g id="node5" class="node"><title>Node5</title>
<polygon fill="none" stroke="#bfbfbf" points="506,-112.5 506,-131.5 560,-131.5 560,-112.5 506,-112.5"/>
<text text-anchor="middle" x="533" y="-119.5" font-family="Helvetica,sans-Serif" font-size="10.00">iostream</text>
</g>
<!-- Node2&#45;&gt;Node5 -->
<g id="edge4" class="edge"><title>Node2&#45;&gt;Node5</title>
<path fill="none" stroke="midnightblue" d="M328.485,-173.934C366.903,-164.388 431.137,-148.42 495.9,-132.272"/>
<polygon fill="midnightblue" stroke="midnightblue" points="497.018,-135.601 505.874,-129.785 495.324,-128.809 497.018,-135.601"/>
</g>
<!-- Node6 -->
<g id="node6" class="node"><title>Node6</title>
<polygon fill="none" stroke="#bfbfbf" points="301.5,-0.5 301.5,-19.5 342.5,-19.5 342.5,-0.5 301.5,-0.5"/>
<text text-anchor="middle" x="322" y="-7.5" font-family="Helvetica,sans-Serif" font-size="10.00">string</text>
</g>
<!-- Node2&#45;&gt;Node6 -->
<g id="edge5" class="edge"><title>Node2&#45;&gt;Node6</title>
<path fill="none" stroke="midnightblue" d="M284.974,-173.836C264.176,-152.793 216.487,-97.6605 241,-56 251.876,-37.5164 273.39,-26.0803 291.514,-19.3642"/>
<polygon fill="midnightblue" stroke="midnightblue" points="292.795,-22.6257 301.144,-16.1038 290.55,-15.9953 292.795,-22.6257"/>
</g>
<!-- Node7 -->
<g id="node7" class="node"><title>Node7</title>
<polygon fill="none" stroke="#bfbfbf" points="250,-56.5 250,-75.5 294,-75.5 294,-56.5 250,-56.5"/>
<text text-anchor="middle" x="272" y="-63.5" font-family="Helvetica,sans-Serif" font-size="10.00">vector</text>
</g>
<!-- Node2&#45;&gt;Node7 -->
<g id="edge6" class="edge"><title>Node2&#45;&gt;Node7</title>
<path fill="none" stroke="midnightblue" d="M290.849,-173.683C287.407,-163.7 281.987,-146.886 279,-132 275.926,-116.68 274.134,-99.0387 273.134,-86.0039"/>
<polygon fill="midnightblue" stroke="midnightblue" points="276.618,-85.6481 272.447,-75.909 269.634,-86.1236 276.618,-85.6481"/>
</g>
<!-- Node8 -->
<g id="node8" class="node"><title>Node8</title>
<polygon fill="none" stroke="#bfbfbf" points="288.5,-112.5 288.5,-131.5 369.5,-131.5 369.5,-112.5 288.5,-112.5"/>
<text text-anchor="middle" x="329" y="-119.5" font-family="Helvetica,sans-Serif" font-size="10.00">sys/resource.h</text>
</g>
<!-- Node2&#45;&gt;Node8 -->
<g id="edge7" class="edge"><title>Node2&#45;&gt;Node8</title>
<path fill="none" stroke="midnightblue" d="M299.015,-173.975C304.161,-165.227 312.312,-151.369 318.818,-140.309"/>
<polygon fill="midnightblue" stroke="midnightblue" points="321.941,-141.903 323.995,-131.509 315.908,-138.354 321.941,-141.903"/>
</g>
<!-- Node9 -->
<g id="node9" class="node"><title>Node9</title>
<g id="a_node9"><a xlink:href="Metric_8h.html" target="_top" xlink:title="Monitoring/Metric.h">
<polygon fill="none" stroke="black" points="388,-112.5 388,-131.5 488,-131.5 488,-112.5 388,-112.5"/>
<text text-anchor="middle" x="438" y="-119.5" font-family="Helvetica,sans-Serif" font-size="10.00">Monitoring/Metric.h</text>
</a>
</g>
</g>
<!-- Node2&#45;&gt;Node9 -->
<g id="edge8" class="edge"><title>Node2&#45;&gt;Node9</title>
<path fill="none" stroke="midnightblue" d="M314.632,-173.975C339.119,-163.857 380.147,-146.905 408.109,-135.351"/>
<polygon fill="midnightblue" stroke="midnightblue" points="409.501,-138.563 417.407,-131.509 406.828,-132.093 409.501,-138.563"/>
</g>
<!-- Node9&#45;&gt;Node6 -->
<g id="edge9" class="edge"><title>Node9&#45;&gt;Node6</title>
<path fill="none" stroke="midnightblue" d="M402.548,-112.477C381.888,-105.788 356.86,-94.4362 341,-76 329.868,-63.0596 325.252,-43.8902 323.341,-29.7194"/>
<polygon fill="midnightblue" stroke="midnightblue" points="326.81,-29.2354 322.316,-19.6409 319.846,-29.9438 326.81,-29.2354"/>
</g>
<!-- Node9&#45;&gt;Node7 -->
<g id="edge14" class="edge"><title>Node9&#45;&gt;Node7</title>
<path fill="none" stroke="midnightblue" d="M411.697,-112.444C382.412,-102.917 335.089,-87.5228 303.762,-77.3321"/>
<polygon fill="midnightblue" stroke="midnightblue" points="304.788,-73.9855 294.196,-74.2203 302.623,-80.6422 304.788,-73.9855"/>
</g>
<!-- Node9&#45;&gt;Node10 -->
<g id="edge10" class="edge"><title>Node9&#45;&gt;Node10</title>
<path fill="none" stroke="midnightblue" d="M466.205,-112.444C497.92,-102.822 549.366,-87.2147 582.944,-77.0283"/>
<polygon fill="midnightblue" stroke="midnightblue" points="584.196,-80.3061 592.749,-74.0537 582.163,-73.6076 584.196,-80.3061"/>
</g>
<!-- Node11 -->
<g id="node11" class="node"><title>Node11</title>
<polygon fill="none" stroke="#bfbfbf" points="350.5,-56.5 350.5,-75.5 385.5,-75.5 385.5,-56.5 350.5,-56.5"/>
<text text-anchor="middle" x="368" y="-63.5" font-family="Helvetica,sans-Serif" font-size="10.00">map</text>
</g>
<!-- Node9&#45;&gt;Node11 -->
<g id="edge11" class="edge"><title>Node9&#45;&gt;Node11</title>
<path fill="none" stroke="midnightblue" d="M426.753,-112.324C416.203,-104.185 400.199,-91.8395 387.558,-82.0874"/>
<polygon fill="midnightblue" stroke="midnightblue" points="389.507,-79.1707 379.451,-75.8339 385.231,-84.7132 389.507,-79.1707"/>
</g>
<!-- Node12 -->
<g id="node12" class="node"><title>Node12</title>
<polygon fill="none" stroke="#bfbfbf" points="403.5,-56.5 403.5,-75.5 444.5,-75.5 444.5,-56.5 403.5,-56.5"/>
<text text-anchor="middle" x="424" y="-63.5" font-family="Helvetica,sans-Serif" font-size="10.00">regex</text>
</g>
<!-- Node9&#45;&gt;Node12 -->
<g id="edge12" class="edge"><title>Node9&#45;&gt;Node12</title>
<path fill="none" stroke="midnightblue" d="M435.688,-112.083C433.833,-104.927 431.165,-94.6353 428.846,-85.6911"/>
<polygon fill="midnightblue" stroke="midnightblue" points="432.166,-84.5527 426.269,-75.7511 425.391,-86.3094 432.166,-84.5527"/>
</g>
<!-- Node13 -->
<g id="node13" class="node"><title>Node13</title>
<polygon fill="none" stroke="#bfbfbf" points="463,-56.5 463,-75.5 509,-75.5 509,-56.5 463,-56.5"/>
<text text-anchor="middle" x="486" y="-63.5" font-family="Helvetica,sans-Serif" font-size="10.00">variant</text>
</g>
<!-- Node9&#45;&gt;Node13 -->
<g id="edge13" class="edge"><title>Node9&#45;&gt;Node13</title>
<path fill="none" stroke="midnightblue" d="M445.926,-112.083C452.846,-104.298 463.065,-92.8015 471.452,-83.3665"/>
<polygon fill="midnightblue" stroke="midnightblue" points="474.194,-85.5505 478.221,-75.7511 468.962,-80.8999 474.194,-85.5505"/>
</g>
<!-- Node14 -->
<g id="node14" class="node"><title>Node14</title>
<g id="a_node14"><a xlink:href="Tags_8h.html" target="_top" xlink:title="Tags.h">
<polygon fill="none" stroke="black" points="527.5,-56.5 527.5,-75.5 574.5,-75.5 574.5,-56.5 527.5,-56.5"/>
<text text-anchor="middle" x="551" y="-63.5" font-family="Helvetica,sans-Serif" font-size="10.00">Tags.h</text>
</a>
</g>
</g>
<!-- Node9&#45;&gt;Node14 -->
<g id="edge15" class="edge"><title>Node9&#45;&gt;Node14</title>
<path fill="none" stroke="midnightblue" d="M455.905,-112.444C474.254,-103.675 503.005,-89.9355 524.094,-79.8579"/>
<polygon fill="midnightblue" stroke="midnightblue" points="525.665,-82.9862 533.179,-75.5164 522.647,-76.6703 525.665,-82.9862"/>
</g>
<!-- Node14&#45;&gt;Node6 -->
<g id="edge16" class="edge"><title>Node14&#45;&gt;Node6</title>
<path fill="none" stroke="midnightblue" d="M527.237,-58.3956C524.135,-57.5697 520.995,-56.7519 518,-56 459.81,-41.3914 391.425,-26.1184 352.752,-17.6556"/>
<polygon fill="midnightblue" stroke="midnightblue" points="353.182,-14.1671 342.665,-15.4555 351.69,-21.0063 353.182,-14.1671"/>
</g>
<!-- Node15&#45;&gt;Node5 -->
<g id="edge20" class="edge"><title>Node15&#45;&gt;Node5</title>
<path fill="none" stroke="midnightblue" d="M635.807,-173.975C615.757,-164.034 582.401,-147.495 559.14,-135.961"/>
<polygon fill="midnightblue" stroke="midnightblue" points="560.675,-132.816 550.161,-131.509 557.566,-139.087 560.675,-132.816"/>
</g>
<!-- Node15&#45;&gt;Node10 -->
<g id="edge18" class="edge"><title>Node15&#45;&gt;Node10</title>
<path fill="none" stroke="midnightblue" d="M650.219,-173.819C644.246,-155.173 630.077,-110.943 621.969,-85.6317"/>
<polygon fill="midnightblue" stroke="midnightblue" points="625.197,-84.2375 618.813,-75.782 618.531,-86.3731 625.197,-84.2375"/>
</g>
<!-- Node16 -->
<g id="node16" class="node"><title>Node16</title>
<polygon fill="none" stroke="#bfbfbf" points="654,-112.5 654,-131.5 704,-131.5 704,-112.5 654,-112.5"/>
<text text-anchor="middle" x="679" y="-119.5" font-family="Helvetica,sans-Serif" font-size="10.00">iomanip</text>
</g>
<!-- Node15&#45;&gt;Node16 -->
<g id="edge19" class="edge"><title>Node15&#45;&gt;Node16</title>
<path fill="none" stroke="midnightblue" d="M656.725,-173.975C660.471,-165.404 666.36,-151.927 671.142,-140.983"/>
<polygon fill="midnightblue" stroke="midnightblue" points="674.485,-142.074 675.282,-131.509 668.07,-139.271 674.485,-142.074"/>
</g>
</g>
</svg>
