<?xml version="1.0" encoding="UTF-8" standalone="no"?>
<!DOCTYPE svg PUBLIC "-//W3C//DTD SVG 1.1//EN"
 "http://www.w3.org/Graphics/SVG/1.1/DTD/svg11.dtd">
<!-- Generated by graphviz version 2.38.0 (20140413.2041)
 -->
<!-- Title: http::url Pages: 1 -->
<svg width="117pt" height="237pt"
 viewBox="0.00 0.00 116.50 237.00" xmlns="http://www.w3.org/2000/svg" xmlns:xlink="http://www.w3.org/1999/xlink">
<g id="graph0" class="graph" transform="scale(1 1) rotate(0) translate(4 233)">
<title>http::url</title>
<!-- Node1 -->
<g id="node1" class="node"><title>Node1</title>
<polygon fill="#bfbfbf" stroke="black" points="15.5,-0.5 15.5,-57.5 65.5,-57.5 65.5,-0.5 15.5,-0.5"/>
<text text-anchor="middle" x="40.5" y="-45.5" font-family="Helvetica,sans-Serif" font-size="10.00">http::url</text>
<polyline fill="none" stroke="black" points="15.5,-38.5 65.5,-38.5 "/>
<text text-anchor="middle" x="40.5" y="-26.5" font-family="Helvetica,sans-Serif" font-size="10.00"> </text>
<polyline fill="none" stroke="black" points="15.5,-19.5 65.5,-19.5 "/>
<text text-anchor="middle" x="40.5" y="-7.5" font-family="Helvetica,sans-Serif" font-size="10.00"> </text>
</g>
<!-- Node2 -->
<g id="node2" class="node"><title>Node2</title>
<polygon fill="none" stroke="#bfbfbf" points="0,-171.5 0,-228.5 29,-228.5 29,-171.5 0,-171.5"/>
<text text-anchor="middle" x="14.5" y="-216.5" font-family="Helvetica,sans-Serif" font-size="10.00">int</text>
<polyline fill="none" stroke="#bfbfbf" points="0,-209.5 29,-209.5 "/>
<text text-anchor="middle" x="14.5" y="-197.5" font-family="Helvetica,sans-Serif" font-size="10.00"> </text>
<polyline fill="none" stroke="#bfbfbf" points="0,-190.5 29,-190.5 "/>
<text text-anchor="middle" x="14.5" y="-178.5" font-family="Helvetica,sans-Serif" font-size="10.00"> </text>
</g>
<!-- Node2&#45;&gt;Node1 -->
<g id="edge1" class="edge"><title>Node2&#45;&gt;Node1</title>
<path fill="none" stroke="#404040" d="M12.6074,-171.227C11.5979,-146.021 11.8543,-108.012 19.5,-76 20.0506,-73.6945 20.7187,-71.3637 21.4733,-69.0384"/>
<polygon fill="none" stroke="#404040" points="21.5571,-68.8182 19.9524,-61.7879 25.8247,-57.6026 27.4294,-64.6329 21.5571,-68.8182"/>
<text text-anchor="middle" x="32.5" y="-112" font-family="Helvetica,sans-Serif" font-size="10.00"> +port</text>
</g>
<!-- Node3 -->
<g id="node3" class="node"><title>Node3</title>
<polygon fill="none" stroke="#bfbfbf" points="47,-171.5 47,-228.5 88,-228.5 88,-171.5 47,-171.5"/>
<text text-anchor="middle" x="67.5" y="-216.5" font-family="Helvetica,sans-Serif" font-size="10.00">string</text>
<polyline fill="none" stroke="#bfbfbf" points="47,-209.5 88,-209.5 "/>
<text text-anchor="middle" x="67.5" y="-197.5" font-family="Helvetica,sans-Serif" font-size="10.00"> </text>
<polyline fill="none" stroke="#bfbfbf" points="47,-190.5 88,-190.5 "/>
<text text-anchor="middle" x="67.5" y="-178.5" font-family="Helvetica,sans-Serif" font-size="10.00"> </text>
</g>
<!-- Node3&#45;&gt;Node1 -->
<g id="edge2" class="edge"><title>Node3&#45;&gt;Node1</title>
<path fill="none" stroke="#404040" d="M63.1019,-171.471C58.6891,-143.85 51.8476,-101.027 46.8471,-69.728"/>
<polygon fill="none" stroke="#404040" points="46.7895,-69.3668 41.8929,-64.0731 44.8962,-57.5171 49.7928,-62.8109 46.7895,-69.3668"/>
<text text-anchor="middle" x="84" y="-145" font-family="Helvetica,sans-Serif" font-size="10.00"> +url</text>
<text text-anchor="middle" x="84" y="-134" font-family="Helvetica,sans-Serif" font-size="10.00">+host</text>
<text text-anchor="middle" x="84" y="-123" font-family="Helvetica,sans-Serif" font-size="10.00">+search</text>
<text text-anchor="middle" x="84" y="-112" font-family="Helvetica,sans-Serif" font-size="10.00">+user</text>
<text text-anchor="middle" x="84" y="-101" font-family="Helvetica,sans-Serif" font-size="10.00">+password</text>
<text text-anchor="middle" x="84" y="-90" font-family="Helvetica,sans-Serif" font-size="10.00">+protocol</text>
<text text-anchor="middle" x="84" y="-79" font-family="Helvetica,sans-Serif" font-size="10.00">+path</text>
</g>
</g>
</svg>
