<?xml version="1.0" encoding="UTF-8" standalone="no"?>
<!DOCTYPE svg PUBLIC "-//W3C//DTD SVG 1.1//EN"
 "http://www.w3.org/Graphics/SVG/1.1/DTD/svg11.dtd">
<!-- Generated by graphviz version 2.38.0 (20140413.2041)
 -->
<!-- Title: o2::monitoring::backends::overloaded&lt; Ts &gt; Pages: 1 -->
<svg width="134pt" height="171pt"
 viewBox="0.00 0.00 134.00 171.00" xmlns="http://www.w3.org/2000/svg" xmlns:xlink="http://www.w3.org/1999/xlink">
<g id="graph0" class="graph" transform="scale(1 1) rotate(0) translate(4 167)">
<title>o2::monitoring::backends::overloaded&lt; Ts &gt;</title>
<!-- Node1 -->
<g id="node1" class="node"><title>Node1</title>
<polygon fill="#bfbfbf" stroke="black" points="0,-0.5 0,-68.5 126,-68.5 126,-0.5 0,-0.5"/>
<text text-anchor="start" x="8" y="-56.5" font-family="Helvetica,sans-Serif" font-size="10.00">o2::monitoring::backends</text>
<text text-anchor="middle" x="63" y="-45.5" font-family="Helvetica,sans-Serif" font-size="10.00">::overloaded&lt; Ts &gt;</text>
<polyline fill="none" stroke="black" points="0,-38.5 126,-38.5 "/>
<text text-anchor="middle" x="63" y="-26.5" font-family="Helvetica,sans-Serif" font-size="10.00"> </text>
<polyline fill="none" stroke="black" points="0,-19.5 126,-19.5 "/>
<text text-anchor="middle" x="63" y="-7.5" font-family="Helvetica,sans-Serif" font-size="10.00"> </text>
</g>
<!-- Node2 -->
<g id="node2" class="node"><title>Node2</title>
<g id="a_node2"><a xlink:href="classo2_1_1monitoring_1_1backends_1_1Ts.html" target="_top" xlink:title="{Ts\n||}">
<polygon fill="none" stroke="black" points="48.5,-105.5 48.5,-162.5 77.5,-162.5 77.5,-105.5 48.5,-105.5"/>
<text text-anchor="middle" x="63" y="-150.5" font-family="Helvetica,sans-Serif" font-size="10.00">Ts</text>
<polyline fill="none" stroke="black" points="48.5,-143.5 77.5,-143.5 "/>
<text text-anchor="middle" x="63" y="-131.5" font-family="Helvetica,sans-Serif" font-size="10.00"> </text>
<polyline fill="none" stroke="black" points="48.5,-124.5 77.5,-124.5 "/>
<text text-anchor="middle" x="63" y="-112.5" font-family="Helvetica,sans-Serif" font-size="10.00"> </text>
</a>
</g>
</g>
<!-- Node2&#45;&gt;Node1 -->
<g id="edge1" class="edge"><title>Node2&#45;&gt;Node1</title>
<path fill="none" stroke="midnightblue" d="M49.8159,-95.3488C49.3096,-86.5945 49.4119,-77.336 50.1228,-68.7855"/>
<polygon fill="none" stroke="midnightblue" points="46.3301,-95.665 50.6898,-105.321 53.3034,-95.0538 46.3301,-95.665"/>
</g>
<!-- Node2&#45;&gt;Node1 -->
<g id="edge2" class="edge"><title>Node2&#45;&gt;Node1</title>
<path fill="none" stroke="midnightblue" d="M63,-95.0631C63,-86.3933 63,-77.2431 63,-68.7855"/>
<polygon fill="none" stroke="midnightblue" points="59.5001,-95.3212 63,-105.321 66.5001,-95.3212 59.5001,-95.3212"/>
</g>
<!-- Node2&#45;&gt;Node1 -->
<g id="edge3" class="edge"><title>Node2&#45;&gt;Node1</title>
<path fill="none" stroke="midnightblue" d="M76.1841,-95.3488C76.6904,-86.5945 76.5881,-77.336 75.8772,-68.7855"/>
<polygon fill="none" stroke="midnightblue" points="72.6966,-95.0538 75.3102,-105.321 79.6699,-95.665 72.6966,-95.0538"/>
</g>
</g>
</svg>
