<?xml version="1.0" encoding="UTF-8" standalone="no"?>
<!DOCTYPE svg PUBLIC "-//W3C//DTD SVG 1.1//EN"
 "http://www.w3.org/Graphics/SVG/1.1/DTD/svg11.dtd">
<!-- Generated by graphviz version 2.38.0 (20140413.2041)
 -->
<!-- Title: overloaded&lt; Ts &gt; Pages: 1 -->
<svg width="101pt" height="160pt"
 viewBox="0.00 0.00 101.00 160.00" xmlns="http://www.w3.org/2000/svg" xmlns:xlink="http://www.w3.org/1999/xlink">
<g id="graph0" class="graph" transform="scale(1 1) rotate(0) translate(4 156)">
<title>overloaded&lt; Ts &gt;</title>
<!-- Node1 -->
<g id="node1" class="node"><title>Node1</title>
<polygon fill="#bfbfbf" stroke="black" points="-7.10543e-15,-0.5 -7.10543e-15,-57.5 93,-57.5 93,-0.5 -7.10543e-15,-0.5"/>
<text text-anchor="middle" x="46.5" y="-45.5" font-family="Helvetica,sans-Serif" font-size="10.00">overloaded&lt; Ts &gt;</text>
<polyline fill="none" stroke="black" points="-7.10543e-15,-38.5 93,-38.5 "/>
<text text-anchor="middle" x="46.5" y="-26.5" font-family="Helvetica,sans-Serif" font-size="10.00"> </text>
<polyline fill="none" stroke="black" points="-7.10543e-15,-19.5 93,-19.5 "/>
<text text-anchor="middle" x="46.5" y="-7.5" font-family="Helvetica,sans-Serif" font-size="10.00"> </text>
</g>
<!-- Node2 -->
<g id="node2" class="node"><title>Node2</title>
<g id="a_node2"><a xlink:href="classo2_1_1monitoring_1_1backends_1_1Ts.html" target="_top" xlink:title="{Ts\n||}">
<polygon fill="none" stroke="black" points="32,-94.5 32,-151.5 61,-151.5 61,-94.5 32,-94.5"/>
<text text-anchor="middle" x="46.5" y="-139.5" font-family="Helvetica,sans-Serif" font-size="10.00">Ts</text>
<polyline fill="none" stroke="black" points="32,-132.5 61,-132.5 "/>
<text text-anchor="middle" x="46.5" y="-120.5" font-family="Helvetica,sans-Serif" font-size="10.00"> </text>
<polyline fill="none" stroke="black" points="32,-113.5 61,-113.5 "/>
<text text-anchor="middle" x="46.5" y="-101.5" font-family="Helvetica,sans-Serif" font-size="10.00"> </text>
</a>
</g>
</g>
<!-- Node2&#45;&gt;Node1 -->
<g id="edge1" class="edge"><title>Node2&#45;&gt;Node1</title>
<path fill="none" stroke="midnightblue" d="M46.5,-84.2092C46.5,-75.2929 46.5,-65.9513 46.5,-57.5836"/>
<polygon fill="none" stroke="midnightblue" points="43.0001,-84.3969 46.5,-94.397 50.0001,-84.397 43.0001,-84.3969"/>
</g>
</g>
</svg>
