<?xml version="1.0" encoding="UTF-8" standalone="no"?>
<!DOCTYPE svg PUBLIC "-//W3C//DTD SVG 1.1//EN"
 "http://www.w3.org/Graphics/SVG/1.1/DTD/svg11.dtd">
<!-- Generated by graphviz version 2.38.0 (20140413.2041)
 -->
<!-- Title: /home/travis/build/AliceO2Group/Monitoring/src/Transports/TCP.cxx Pages: 1 -->
<svg width="836pt" height="218pt"
 viewBox="0.00 0.00 836.16 218.00" xmlns="http://www.w3.org/2000/svg" xmlns:xlink="http://www.w3.org/1999/xlink">
<g id="graph0" class="graph" transform="scale(1 1) rotate(0) translate(4 214)">
<title>/home/travis/build/AliceO2Group/Monitoring/src/Transports/TCP.cxx</title>
<!-- Node1 -->
<g id="node1" class="node"><title>Node1</title>
<polygon fill="#bfbfbf" stroke="black" points="322.163,-168.5 322.163,-209.5 450.163,-209.5 450.163,-168.5 322.163,-168.5"/>
<text text-anchor="start" x="330.163" y="-197.5" font-family="Helvetica,sans-Serif" font-size="10.00">/home/travis/build</text>
<text text-anchor="start" x="330.163" y="-186.5" font-family="Helvetica,sans-Serif" font-size="10.00">/AliceO2Group/Monitoring</text>
<text text-anchor="middle" x="386.163" y="-175.5" font-family="Helvetica,sans-Serif" font-size="10.00">/src/Transports/TCP.cxx</text>
</g>
<!-- Node2 -->
<g id="node2" class="node"><title>Node2</title>
<g id="a_node2"><a xlink:href="TCP_8h.html" target="_top" xlink:title="TCP.h">
<polygon fill="none" stroke="black" points="363.663,-112.5 363.663,-131.5 408.663,-131.5 408.663,-112.5 363.663,-112.5"/>
<text text-anchor="middle" x="386.163" y="-119.5" font-family="Helvetica,sans-Serif" font-size="10.00">TCP.h</text>
</a>
</g>
</g>
<!-- Node1&#45;&gt;Node2 -->
<g id="edge1" class="edge"><title>Node1&#45;&gt;Node2</title>
<path fill="none" stroke="midnightblue" d="M386.163,-168.498C386.163,-160.065 386.163,-150.235 386.163,-141.874"/>
<polygon fill="midnightblue" stroke="midnightblue" points="389.663,-141.652 386.163,-131.652 382.663,-141.653 389.663,-141.652"/>
</g>
<!-- Node4 -->
<g id="node4" class="node"><title>Node4</title>
<polygon fill="none" stroke="#bfbfbf" points="65.6628,-0.5 65.6628,-19.5 106.663,-19.5 106.663,-0.5 65.6628,-0.5"/>
<text text-anchor="middle" x="86.1628" y="-7.5" font-family="Helvetica,sans-Serif" font-size="10.00">string</text>
</g>
<!-- Node1&#45;&gt;Node4 -->
<g id="edge9" class="edge"><title>Node1&#45;&gt;Node4</title>
<path fill="none" stroke="midnightblue" d="M322.119,-188.132C225.322,-186.813 48.8126,-177.975 9.16276,-132 -20.8634,-97.1843 32.4791,-49.6456 64.5503,-25.8482"/>
<polygon fill="midnightblue" stroke="midnightblue" points="66.8802,-28.4833 72.9451,-19.796 62.7865,-22.8051 66.8802,-28.4833"/>
</g>
<!-- Node9 -->
<g id="node9" class="node"><title>Node9</title>
<polygon fill="none" stroke="#bfbfbf" points="774.163,-56.5 774.163,-75.5 828.163,-75.5 828.163,-56.5 774.163,-56.5"/>
<text text-anchor="middle" x="801.163" y="-63.5" font-family="Helvetica,sans-Serif" font-size="10.00">iostream</text>
</g>
<!-- Node1&#45;&gt;Node9 -->
<g id="edge10" class="edge"><title>Node1&#45;&gt;Node9</title>
<path fill="none" stroke="midnightblue" d="M450.467,-188.671C522.618,-186.982 641.424,-176.731 732.163,-132 755.114,-120.686 775.639,-99.1374 788.219,-83.9604"/>
<polygon fill="midnightblue" stroke="midnightblue" points="791.161,-85.8846 794.666,-75.8861 785.691,-81.5169 791.161,-85.8846"/>
</g>
<!-- Node10 -->
<g id="node10" class="node"><title>Node10</title>
<g id="a_node10"><a xlink:href="MonitoringException_8h.html" target="_top" xlink:title="Exceptions/MonitoringException.h">
<polygon fill="none" stroke="black" points="18.6628,-112.5 18.6628,-131.5 183.663,-131.5 183.663,-112.5 18.6628,-112.5"/>
<text text-anchor="middle" x="101.163" y="-119.5" font-family="Helvetica,sans-Serif" font-size="10.00">Exceptions/MonitoringException.h</text>
</a>
</g>
</g>
<!-- Node1&#45;&gt;Node10 -->
<g id="edge11" class="edge"><title>Node1&#45;&gt;Node10</title>
<path fill="none" stroke="midnightblue" d="M321.848,-173.332C269.232,-161.332 196.019,-144.634 148.61,-133.821"/>
<polygon fill="midnightblue" stroke="midnightblue" points="149.137,-130.352 138.609,-131.54 147.581,-137.176 149.137,-130.352"/>
</g>
<!-- Node12 -->
<g id="node12" class="node"><title>Node12</title>
<g id="a_node12"><a xlink:href="MonLogger_8h.html" target="_top" xlink:title="../MonLogger.h">
<polygon fill="none" stroke="black" points="641.163,-112.5 641.163,-131.5 723.163,-131.5 723.163,-112.5 641.163,-112.5"/>
<text text-anchor="middle" x="682.163" y="-119.5" font-family="Helvetica,sans-Serif" font-size="10.00">../MonLogger.h</text>
</a>
</g>
</g>
<!-- Node1&#45;&gt;Node12 -->
<g id="edge14" class="edge"><title>Node1&#45;&gt;Node12</title>
<path fill="none" stroke="midnightblue" d="M450.39,-173.896C505.429,-161.81 583.516,-144.662 633.508,-133.684"/>
<polygon fill="midnightblue" stroke="midnightblue" points="634.407,-137.07 643.423,-131.507 632.905,-130.233 634.407,-137.07"/>
</g>
<!-- Node3 -->
<g id="node3" class="node"><title>Node3</title>
<g id="a_node3"><a xlink:href="TransportInterface_8h.html" target="_top" xlink:title="TransportInterface.h">
<polygon fill="none" stroke="black" points="172.163,-56.5 172.163,-75.5 276.163,-75.5 276.163,-56.5 172.163,-56.5"/>
<text text-anchor="middle" x="224.163" y="-63.5" font-family="Helvetica,sans-Serif" font-size="10.00">TransportInterface.h</text>
</a>
</g>
</g>
<!-- Node2&#45;&gt;Node3 -->
<g id="edge2" class="edge"><title>Node2&#45;&gt;Node3</title>
<path fill="none" stroke="midnightblue" d="M363.637,-113.492C336.651,-104.496 291.122,-89.3196 259.452,-78.7632"/>
<polygon fill="midnightblue" stroke="midnightblue" points="260.292,-75.3537 249.698,-75.5118 258.078,-81.9945 260.292,-75.3537"/>
</g>
<!-- Node2&#45;&gt;Node4 -->
<g id="edge8" class="edge"><title>Node2&#45;&gt;Node4</title>
<path fill="none" stroke="midnightblue" d="M363.471,-120.117C321.789,-117.716 231.086,-108.82 163.163,-76 138.442,-64.0554 115.093,-42.3278 100.724,-27.3009"/>
<polygon fill="midnightblue" stroke="midnightblue" points="103.082,-24.6958 93.714,-19.7466 97.9508,-29.4574 103.082,-24.6958"/>
</g>
<!-- Node5 -->
<g id="node5" class="node"><title>Node5</title>
<polygon fill="none" stroke="#bfbfbf" points="294.163,-56.5 294.163,-75.5 378.163,-75.5 378.163,-56.5 294.163,-56.5"/>
<text text-anchor="middle" x="336.163" y="-63.5" font-family="Helvetica,sans-Serif" font-size="10.00">boost/array.hpp</text>
</g>
<!-- Node2&#45;&gt;Node5 -->
<g id="edge4" class="edge"><title>Node2&#45;&gt;Node5</title>
<path fill="none" stroke="midnightblue" d="M377.906,-112.083C370.698,-104.298 360.053,-92.8015 351.317,-83.3665"/>
<polygon fill="midnightblue" stroke="midnightblue" points="353.628,-80.7108 344.266,-75.7511 348.492,-85.4666 353.628,-80.7108"/>
</g>
<!-- Node6 -->
<g id="node6" class="node"><title>Node6</title>
<polygon fill="none" stroke="#bfbfbf" points="396.163,-56.5 396.163,-75.5 476.163,-75.5 476.163,-56.5 396.163,-56.5"/>
<text text-anchor="middle" x="436.163" y="-63.5" font-family="Helvetica,sans-Serif" font-size="10.00">boost/asio.hpp</text>
</g>
<!-- Node2&#45;&gt;Node6 -->
<g id="edge5" class="edge"><title>Node2&#45;&gt;Node6</title>
<path fill="none" stroke="midnightblue" d="M394.419,-112.083C401.627,-104.298 412.273,-92.8015 421.009,-83.3665"/>
<polygon fill="midnightblue" stroke="midnightblue" points="423.834,-85.4666 428.06,-75.7511 418.698,-80.7108 423.834,-85.4666"/>
</g>
<!-- Node7 -->
<g id="node7" class="node"><title>Node7</title>
<polygon fill="none" stroke="#bfbfbf" points="494.663,-56.5 494.663,-75.5 623.663,-75.5 623.663,-56.5 494.663,-56.5"/>
<text text-anchor="middle" x="559.163" y="-63.5" font-family="Helvetica,sans-Serif" font-size="10.00">boost/algorithm/string.hpp</text>
</g>
<!-- Node2&#45;&gt;Node7 -->
<g id="edge6" class="edge"><title>Node2&#45;&gt;Node7</title>
<path fill="none" stroke="midnightblue" d="M408.779,-113.94C437.539,-104.964 487.585,-89.3421 521.991,-78.6026"/>
<polygon fill="midnightblue" stroke="midnightblue" points="523.185,-81.8967 531.688,-75.576 521.099,-75.2147 523.185,-81.8967"/>
</g>
<!-- Node8 -->
<g id="node8" class="node"><title>Node8</title>
<polygon fill="none" stroke="#bfbfbf" points="642.163,-56.5 642.163,-75.5 688.163,-75.5 688.163,-56.5 642.163,-56.5"/>
<text text-anchor="middle" x="665.163" y="-63.5" font-family="Helvetica,sans-Serif" font-size="10.00">chrono</text>
</g>
<!-- Node2&#45;&gt;Node8 -->
<g id="edge7" class="edge"><title>Node2&#45;&gt;Node8</title>
<path fill="none" stroke="midnightblue" d="M408.679,-117.541C452.126,-110.722 550.454,-94.5799 632.163,-76 632.264,-75.977 632.366,-75.9538 632.467,-75.9306"/>
<polygon fill="midnightblue" stroke="midnightblue" points="633.274,-79.3365 642.147,-73.5463 631.6,-72.5396 633.274,-79.3365"/>
</g>
<!-- Node3&#45;&gt;Node4 -->
<g id="edge3" class="edge"><title>Node3&#45;&gt;Node4</title>
<path fill="none" stroke="midnightblue" d="M202.296,-56.4435C179.114,-47.3721 142.334,-32.98 116.387,-22.8268"/>
<polygon fill="midnightblue" stroke="midnightblue" points="117.611,-19.5477 107.024,-19.1629 115.061,-26.0664 117.611,-19.5477"/>
</g>
<!-- Node10&#45;&gt;Node4 -->
<g id="edge13" class="edge"><title>Node10&#45;&gt;Node4</title>
<path fill="none" stroke="midnightblue" d="M84.5297,-112.464C71.6749,-104.841 54.8235,-92.356 47.1628,-76 38.857,-58.2669 53.3821,-39.1886 67.0038,-26.3199"/>
<polygon fill="midnightblue" stroke="midnightblue" points="69.5414,-28.7492 74.7402,-19.5176 64.9192,-23.4923 69.5414,-28.7492"/>
</g>
<!-- Node11 -->
<g id="node11" class="node"><title>Node11</title>
<polygon fill="none" stroke="#bfbfbf" points="56.6628,-56.5 56.6628,-75.5 115.663,-75.5 115.663,-56.5 56.6628,-56.5"/>
<text text-anchor="middle" x="86.1628" y="-63.5" font-family="Helvetica,sans-Serif" font-size="10.00">exception</text>
</g>
<!-- Node10&#45;&gt;Node11 -->
<g id="edge12" class="edge"><title>Node10&#45;&gt;Node11</title>
<path fill="none" stroke="midnightblue" d="M98.6858,-112.083C96.6763,-104.849 93.7763,-94.4087 91.273,-85.3968"/>
<polygon fill="midnightblue" stroke="midnightblue" points="94.6424,-84.4495 88.5936,-75.7511 87.8978,-86.323 94.6424,-84.4495"/>
</g>
<!-- Node12&#45;&gt;Node8 -->
<g id="edge15" class="edge"><title>Node12&#45;&gt;Node8</title>
<path fill="none" stroke="midnightblue" d="M679.356,-112.083C677.078,-104.849 673.791,-94.4087 670.954,-85.3968"/>
<polygon fill="midnightblue" stroke="midnightblue" points="674.259,-84.2385 667.918,-75.7511 667.582,-86.3406 674.259,-84.2385"/>
</g>
<!-- Node12&#45;&gt;Node9 -->
<g id="edge17" class="edge"><title>Node12&#45;&gt;Node9</title>
<path fill="none" stroke="midnightblue" d="M701.019,-112.444C720.429,-103.636 750.893,-89.8116 773.127,-79.722"/>
<polygon fill="midnightblue" stroke="midnightblue" points="774.735,-82.836 782.395,-75.5164 771.842,-76.4615 774.735,-82.836"/>
</g>
<!-- Node13 -->
<g id="node13" class="node"><title>Node13</title>
<polygon fill="none" stroke="#bfbfbf" points="706.163,-56.5 706.163,-75.5 756.163,-75.5 756.163,-56.5 706.163,-56.5"/>
<text text-anchor="middle" x="731.163" y="-63.5" font-family="Helvetica,sans-Serif" font-size="10.00">iomanip</text>
</g>
<!-- Node12&#45;&gt;Node13 -->
<g id="edge16" class="edge"><title>Node12&#45;&gt;Node13</title>
<path fill="none" stroke="midnightblue" d="M690.254,-112.083C697.318,-104.298 707.75,-92.8015 716.312,-83.3665"/>
<polygon fill="midnightblue" stroke="midnightblue" points="719.094,-85.5087 723.222,-75.7511 713.91,-80.8047 719.094,-85.5087"/>
</g>
</g>
</svg>
