<?xml version="1.0" encoding="UTF-8" standalone="no"?>
<!DOCTYPE svg PUBLIC "-//W3C//DTD SVG 1.1//EN"
 "http://www.w3.org/Graphics/SVG/1.1/DTD/svg11.dtd">
<!-- Generated by graphviz version 2.38.0 (20140413.2041)
 -->
<!-- Title: /home/travis/build/AliceO2Group/Monitoring/src/Transports/TCP.h Pages: 1 -->
<svg width="562pt" height="162pt"
 viewBox="0.00 0.00 562.00 162.00" xmlns="http://www.w3.org/2000/svg" xmlns:xlink="http://www.w3.org/1999/xlink">
<g id="graph0" class="graph" transform="scale(1 1) rotate(0) translate(4 158)">
<title>/home/travis/build/AliceO2Group/Monitoring/src/Transports/TCP.h</title>
<!-- Node1 -->
<g id="node1" class="node"><title>Node1</title>
<polygon fill="#bfbfbf" stroke="black" points="188,-112.5 188,-153.5 316,-153.5 316,-112.5 188,-112.5"/>
<text text-anchor="start" x="196" y="-141.5" font-family="Helvetica,sans-Serif" font-size="10.00">/home/travis/build</text>
<text text-anchor="start" x="196" y="-130.5" font-family="Helvetica,sans-Serif" font-size="10.00">/AliceO2Group/Monitoring</text>
<text text-anchor="middle" x="252" y="-119.5" font-family="Helvetica,sans-Serif" font-size="10.00">/src/Transports/TCP.h</text>
</g>
<!-- Node2 -->
<g id="node2" class="node"><title>Node2</title>
<g id="a_node2"><a xlink:href="TransportInterface_8h.html" target="_top" xlink:title="TransportInterface.h">
<polygon fill="none" stroke="black" points="0,-56.5 0,-75.5 104,-75.5 104,-56.5 0,-56.5"/>
<text text-anchor="middle" x="52" y="-63.5" font-family="Helvetica,sans-Serif" font-size="10.00">TransportInterface.h</text>
</a>
</g>
</g>
<!-- Node1&#45;&gt;Node2 -->
<g id="edge1" class="edge"><title>Node1&#45;&gt;Node2</title>
<path fill="none" stroke="midnightblue" d="M191.993,-112.498C158.131,-101.493 116.943,-88.1065 88.0393,-78.7128"/>
<polygon fill="midnightblue" stroke="midnightblue" points="88.9524,-75.3294 78.3602,-75.5671 86.7887,-81.9866 88.9524,-75.3294"/>
</g>
<!-- Node3 -->
<g id="node3" class="node"><title>Node3</title>
<polygon fill="none" stroke="#bfbfbf" points="71.5,-0.5 71.5,-19.5 112.5,-19.5 112.5,-0.5 71.5,-0.5"/>
<text text-anchor="middle" x="92" y="-7.5" font-family="Helvetica,sans-Serif" font-size="10.00">string</text>
</g>
<!-- Node1&#45;&gt;Node3 -->
<g id="edge7" class="edge"><title>Node1&#45;&gt;Node3</title>
<path fill="none" stroke="midnightblue" d="M209.287,-112.271C190.518,-102.629 168.758,-90.0692 151,-76 133.166,-61.8705 116.066,-42.1142 104.91,-28.0996"/>
<polygon fill="midnightblue" stroke="midnightblue" points="107.389,-25.5851 98.4897,-19.836 101.861,-29.88 107.389,-25.5851"/>
</g>
<!-- Node4 -->
<g id="node4" class="node"><title>Node4</title>
<polygon fill="none" stroke="#bfbfbf" points="160,-56.5 160,-75.5 244,-75.5 244,-56.5 160,-56.5"/>
<text text-anchor="middle" x="202" y="-63.5" font-family="Helvetica,sans-Serif" font-size="10.00">boost/array.hpp</text>
</g>
<!-- Node1&#45;&gt;Node4 -->
<g id="edge3" class="edge"><title>Node1&#45;&gt;Node4</title>
<path fill="none" stroke="midnightblue" d="M236.998,-112.498C229.922,-103.299 221.566,-92.4362 214.794,-83.6323"/>
<polygon fill="midnightblue" stroke="midnightblue" points="217.527,-81.4447 208.656,-75.6525 211.979,-85.7128 217.527,-81.4447"/>
</g>
<!-- Node5 -->
<g id="node5" class="node"><title>Node5</title>
<polygon fill="none" stroke="#bfbfbf" points="262,-56.5 262,-75.5 342,-75.5 342,-56.5 262,-56.5"/>
<text text-anchor="middle" x="302" y="-63.5" font-family="Helvetica,sans-Serif" font-size="10.00">boost/asio.hpp</text>
</g>
<!-- Node1&#45;&gt;Node5 -->
<g id="edge4" class="edge"><title>Node1&#45;&gt;Node5</title>
<path fill="none" stroke="midnightblue" d="M267.002,-112.498C274.078,-103.299 282.434,-92.4362 289.206,-83.6323"/>
<polygon fill="midnightblue" stroke="midnightblue" points="292.021,-85.7128 295.344,-75.6525 286.473,-81.4447 292.021,-85.7128"/>
</g>
<!-- Node6 -->
<g id="node6" class="node"><title>Node6</title>
<polygon fill="none" stroke="#bfbfbf" points="360.5,-56.5 360.5,-75.5 489.5,-75.5 489.5,-56.5 360.5,-56.5"/>
<text text-anchor="middle" x="425" y="-63.5" font-family="Helvetica,sans-Serif" font-size="10.00">boost/algorithm/string.hpp</text>
</g>
<!-- Node1&#45;&gt;Node6 -->
<g id="edge5" class="edge"><title>Node1&#45;&gt;Node6</title>
<path fill="none" stroke="midnightblue" d="M303.906,-112.498C332.598,-101.718 367.37,-88.6531 392.279,-79.2941"/>
<polygon fill="midnightblue" stroke="midnightblue" points="393.841,-82.4461 401.971,-75.6525 391.379,-75.8933 393.841,-82.4461"/>
</g>
<!-- Node7 -->
<g id="node7" class="node"><title>Node7</title>
<polygon fill="none" stroke="#bfbfbf" points="508,-56.5 508,-75.5 554,-75.5 554,-56.5 508,-56.5"/>
<text text-anchor="middle" x="531" y="-63.5" font-family="Helvetica,sans-Serif" font-size="10.00">chrono</text>
</g>
<!-- Node1&#45;&gt;Node7 -->
<g id="edge6" class="edge"><title>Node1&#45;&gt;Node7</title>
<path fill="none" stroke="midnightblue" d="M316.187,-118.392C363.826,-108.075 430.589,-93.1626 498.015,-76.1547"/>
<polygon fill="midnightblue" stroke="midnightblue" points="499.133,-79.4819 507.966,-73.6304 497.412,-72.6969 499.133,-79.4819"/>
</g>
<!-- Node2&#45;&gt;Node3 -->
<g id="edge2" class="edge"><title>Node2&#45;&gt;Node3</title>
<path fill="none" stroke="midnightblue" d="M58.6052,-56.083C64.2552,-48.4554 72.5448,-37.2645 79.4512,-27.9408"/>
<polygon fill="midnightblue" stroke="midnightblue" points="82.3779,-29.87 85.5177,-19.7511 76.7529,-25.7034 82.3779,-29.87"/>
</g>
</g>
</svg>
