<?xml version="1.0" encoding="UTF-8" standalone="no"?>
<!DOCTYPE svg PUBLIC "-//W3C//DTD SVG 1.1//EN"
 "http://www.w3.org/Graphics/SVG/1.1/DTD/svg11.dtd">
<!-- Generated by graphviz version 2.38.0 (20140413.2041)
 -->
<!-- Title: /home/travis/build/AliceO2Group/Monitoring/src/Transports/TransportInterface.h Pages: 1 -->
<svg width="1189pt" height="206pt"
 viewBox="0.00 0.00 1189.00 206.00" xmlns="http://www.w3.org/2000/svg" xmlns:xlink="http://www.w3.org/1999/xlink">
<g id="graph0" class="graph" transform="scale(1 1) rotate(0) translate(4 202)">
<title>/home/travis/build/AliceO2Group/Monitoring/src/Transports/TransportInterface.h</title>
<!-- Node1 -->
<g id="node1" class="node"><title>Node1</title>
<polygon fill="#bfbfbf" stroke="black" points="580.5,-156.5 580.5,-197.5 753.5,-197.5 753.5,-156.5 580.5,-156.5"/>
<text text-anchor="start" x="588.5" y="-185.5" font-family="Helvetica,sans-Serif" font-size="10.00">/home/travis/build</text>
<text text-anchor="start" x="588.5" y="-174.5" font-family="Helvetica,sans-Serif" font-size="10.00">/AliceO2Group/Monitoring</text>
<text text-anchor="middle" x="667" y="-163.5" font-family="Helvetica,sans-Serif" font-size="10.00">/src/Transports/TransportInterface.h</text>
</g>
<!-- Node2 -->
<g id="node2" class="node"><title>Node2</title>
<g id="a_node2"><a xlink:href="InfluxDB_8h.html" target="_top" xlink:title="/home/travis/build\l/AliceO2Group/Monitoring\l/src/Backends/InfluxDB.h">
<polygon fill="none" stroke="black" points="160.5,-78.5 160.5,-119.5 289.5,-119.5 289.5,-78.5 160.5,-78.5"/>
<text text-anchor="start" x="168.5" y="-107.5" font-family="Helvetica,sans-Serif" font-size="10.00">/home/travis/build</text>
<text text-anchor="start" x="168.5" y="-96.5" font-family="Helvetica,sans-Serif" font-size="10.00">/AliceO2Group/Monitoring</text>
<text text-anchor="middle" x="225" y="-85.5" font-family="Helvetica,sans-Serif" font-size="10.00">/src/Backends/InfluxDB.h</text>
</a>
</g>
</g>
<!-- Node1&#45;&gt;Node2 -->
<g id="edge1" class="edge"><title>Node1&#45;&gt;Node2</title>
<path fill="none" stroke="midnightblue" d="M569.947,-164.275C495.434,-154.539 390.2,-139.199 299,-120 296.005,-119.369 292.95,-118.691 289.872,-117.978"/>
<polygon fill="midnightblue" stroke="midnightblue" points="569.885,-167.796 580.252,-165.611 570.785,-160.854 569.885,-167.796"/>
</g>
<!-- Node5 -->
<g id="node5" class="node"><title>Node5</title>
<g id="a_node5"><a xlink:href="UDP_8h.html" target="_top" xlink:title="/home/travis/build\l/AliceO2Group/Monitoring\l/src/Transports/UDP.h">
<polygon fill="none" stroke="black" points="308,-78.5 308,-119.5 436,-119.5 436,-78.5 308,-78.5"/>
<text text-anchor="start" x="316" y="-107.5" font-family="Helvetica,sans-Serif" font-size="10.00">/home/travis/build</text>
<text text-anchor="start" x="316" y="-96.5" font-family="Helvetica,sans-Serif" font-size="10.00">/AliceO2Group/Monitoring</text>
<text text-anchor="middle" x="372" y="-85.5" font-family="Helvetica,sans-Serif" font-size="10.00">/src/Transports/UDP.h</text>
</a>
</g>
</g>
<!-- Node1&#45;&gt;Node5 -->
<g id="edge4" class="edge"><title>Node1&#45;&gt;Node5</title>
<path fill="none" stroke="midnightblue" d="M579.5,-153.97C539.135,-143.745 490.602,-131.362 447,-120 443.479,-119.082 439.867,-118.136 436.221,-117.177"/>
<polygon fill="midnightblue" stroke="midnightblue" points="578.757,-157.392 589.311,-156.453 580.475,-150.606 578.757,-157.392"/>
</g>
<!-- Node7 -->
<g id="node7" class="node"><title>Node7</title>
<g id="a_node7"><a xlink:href="Unix_8h.html" target="_top" xlink:title="/home/travis/build\l/AliceO2Group/Monitoring\l/src/Transports/Unix.h">
<polygon fill="none" stroke="black" points="456,-78.5 456,-119.5 584,-119.5 584,-78.5 456,-78.5"/>
<text text-anchor="start" x="464" y="-107.5" font-family="Helvetica,sans-Serif" font-size="10.00">/home/travis/build</text>
<text text-anchor="start" x="464" y="-96.5" font-family="Helvetica,sans-Serif" font-size="10.00">/AliceO2Group/Monitoring</text>
<text text-anchor="middle" x="520" y="-85.5" font-family="Helvetica,sans-Serif" font-size="10.00">/src/Transports/Unix.h</text>
</a>
</g>
</g>
<!-- Node1&#45;&gt;Node7 -->
<g id="edge7" class="edge"><title>Node1&#45;&gt;Node7</title>
<path fill="none" stroke="midnightblue" d="M620.129,-151.768C599.979,-141.35 576.742,-129.336 557.728,-119.506"/>
<polygon fill="midnightblue" stroke="midnightblue" points="618.653,-154.945 629.144,-156.428 621.868,-148.726 618.653,-154.945"/>
</g>
<!-- Node9 -->
<g id="node9" class="node"><title>Node9</title>
<g id="a_node9"><a xlink:href="Transports_2StdOut_8h_source.html" target="_top" xlink:title="/home/travis/build\l/AliceO2Group/Monitoring\l/src/Transports/StdOut.h">
<polygon fill="none" stroke="black" points="603,-78.5 603,-119.5 731,-119.5 731,-78.5 603,-78.5"/>
<text text-anchor="start" x="611" y="-107.5" font-family="Helvetica,sans-Serif" font-size="10.00">/home/travis/build</text>
<text text-anchor="start" x="611" y="-96.5" font-family="Helvetica,sans-Serif" font-size="10.00">/AliceO2Group/Monitoring</text>
<text text-anchor="middle" x="667" y="-85.5" font-family="Helvetica,sans-Serif" font-size="10.00">/src/Transports/StdOut.h</text>
</a>
</g>
</g>
<!-- Node1&#45;&gt;Node9 -->
<g id="edge10" class="edge"><title>Node1&#45;&gt;Node9</title>
<path fill="none" stroke="midnightblue" d="M667,-146.297C667,-137.301 667,-127.653 667,-119.506"/>
<polygon fill="midnightblue" stroke="midnightblue" points="663.5,-146.428 667,-156.428 670.5,-146.428 663.5,-146.428"/>
</g>
<!-- Node11 -->
<g id="node11" class="node"><title>Node11</title>
<g id="a_node11"><a xlink:href="HTTP_8h.html" target="_top" xlink:title="/home/travis/build\l/AliceO2Group/Monitoring\l/src/Transports/HTTP.h">
<polygon fill="none" stroke="black" points="751,-78.5 751,-119.5 879,-119.5 879,-78.5 751,-78.5"/>
<text text-anchor="start" x="759" y="-107.5" font-family="Helvetica,sans-Serif" font-size="10.00">/home/travis/build</text>
<text text-anchor="start" x="759" y="-96.5" font-family="Helvetica,sans-Serif" font-size="10.00">/AliceO2Group/Monitoring</text>
<text text-anchor="middle" x="815" y="-85.5" font-family="Helvetica,sans-Serif" font-size="10.00">/src/Transports/HTTP.h</text>
</a>
</g>
</g>
<!-- Node1&#45;&gt;Node11 -->
<g id="edge13" class="edge"><title>Node1&#45;&gt;Node11</title>
<path fill="none" stroke="midnightblue" d="M714.19,-151.768C734.477,-141.35 757.872,-129.336 777.015,-119.506"/>
<polygon fill="midnightblue" stroke="midnightblue" points="712.411,-148.747 705.114,-156.428 715.608,-154.973 712.411,-148.747"/>
</g>
<!-- Node13 -->
<g id="node13" class="node"><title>Node13</title>
<g id="a_node13"><a xlink:href="Kafka_8h.html" target="_top" xlink:title="/home/travis/build\l/AliceO2Group/Monitoring\l/src/Transports/Kafka.h">
<polygon fill="none" stroke="black" points="900,-78.5 900,-119.5 1028,-119.5 1028,-78.5 900,-78.5"/>
<text text-anchor="start" x="908" y="-107.5" font-family="Helvetica,sans-Serif" font-size="10.00">/home/travis/build</text>
<text text-anchor="start" x="908" y="-96.5" font-family="Helvetica,sans-Serif" font-size="10.00">/AliceO2Group/Monitoring</text>
<text text-anchor="middle" x="964" y="-85.5" font-family="Helvetica,sans-Serif" font-size="10.00">/src/Transports/Kafka.h</text>
</a>
</g>
</g>
<!-- Node1&#45;&gt;Node13 -->
<g id="edge15" class="edge"><title>Node1&#45;&gt;Node13</title>
<path fill="none" stroke="midnightblue" d="M754.64,-153.989C795.235,-143.743 844.099,-131.338 888,-120 891.831,-119.011 895.769,-117.989 899.741,-116.954"/>
<polygon fill="midnightblue" stroke="midnightblue" points="753.615,-150.637 744.775,-156.477 755.327,-157.425 753.615,-150.637"/>
</g>
<!-- Node15 -->
<g id="node15" class="node"><title>Node15</title>
<g id="a_node15"><a xlink:href="TCP_8h.html" target="_top" xlink:title="/home/travis/build\l/AliceO2Group/Monitoring\l/src/Transports/TCP.h">
<polygon fill="none" stroke="black" points="1052,-78.5 1052,-119.5 1180,-119.5 1180,-78.5 1052,-78.5"/>
<text text-anchor="start" x="1060" y="-107.5" font-family="Helvetica,sans-Serif" font-size="10.00">/home/travis/build</text>
<text text-anchor="start" x="1060" y="-96.5" font-family="Helvetica,sans-Serif" font-size="10.00">/AliceO2Group/Monitoring</text>
<text text-anchor="middle" x="1116" y="-85.5" font-family="Helvetica,sans-Serif" font-size="10.00">/src/Transports/TCP.h</text>
</a>
</g>
</g>
<!-- Node1&#45;&gt;Node15 -->
<g id="edge17" class="edge"><title>Node1&#45;&gt;Node15</title>
<path fill="none" stroke="midnightblue" d="M764.125,-163.941C839.019,-154.006 945.004,-138.561 1037,-120 1041.85,-119.021 1046.86,-117.935 1051.88,-116.791"/>
<polygon fill="midnightblue" stroke="midnightblue" points="763.225,-160.529 753.768,-165.306 764.139,-167.469 763.225,-160.529"/>
</g>
<!-- Node3 -->
<g id="node3" class="node"><title>Node3</title>
<g id="a_node3"><a xlink:href="InfluxDB_8cxx.html" target="_top" xlink:title="/home/travis/build\l/AliceO2Group/Monitoring\l/src/Backends/InfluxDB.cxx">
<polygon fill="none" stroke="black" points="0,-0.5 0,-41.5 140,-41.5 140,-0.5 0,-0.5"/>
<text text-anchor="start" x="8" y="-29.5" font-family="Helvetica,sans-Serif" font-size="10.00">/home/travis/build</text>
<text text-anchor="start" x="8" y="-18.5" font-family="Helvetica,sans-Serif" font-size="10.00">/AliceO2Group/Monitoring</text>
<text text-anchor="middle" x="70" y="-7.5" font-family="Helvetica,sans-Serif" font-size="10.00">/src/Backends/InfluxDB.cxx</text>
</a>
</g>
</g>
<!-- Node2&#45;&gt;Node3 -->
<g id="edge2" class="edge"><title>Node2&#45;&gt;Node3</title>
<path fill="none" stroke="midnightblue" d="M175.865,-73.9082C154.553,-63.4581 129.92,-51.3801 109.781,-41.5056"/>
<polygon fill="midnightblue" stroke="midnightblue" points="174.564,-77.1681 185.084,-78.4281 177.646,-70.883 174.564,-77.1681"/>
</g>
<!-- Node4 -->
<g id="node4" class="node"><title>Node4</title>
<g id="a_node4"><a xlink:href="MonitoringFactory_8cxx.html" target="_top" xlink:title="/home/travis/build\l/AliceO2Group/Monitoring\l/src/MonitoringFactory.cxx">
<polygon fill="none" stroke="black" points="304.5,-0.5 304.5,-41.5 437.5,-41.5 437.5,-0.5 304.5,-0.5"/>
<text text-anchor="start" x="312.5" y="-29.5" font-family="Helvetica,sans-Serif" font-size="10.00">/home/travis/build</text>
<text text-anchor="start" x="312.5" y="-18.5" font-family="Helvetica,sans-Serif" font-size="10.00">/AliceO2Group/Monitoring</text>
<text text-anchor="middle" x="371" y="-7.5" font-family="Helvetica,sans-Serif" font-size="10.00">/src/MonitoringFactory.cxx</text>
</a>
</g>
</g>
<!-- Node2&#45;&gt;Node4 -->
<g id="edge3" class="edge"><title>Node2&#45;&gt;Node4</title>
<path fill="none" stroke="midnightblue" d="M271.552,-73.7675C291.565,-63.3498 314.644,-51.3358 333.529,-41.5056"/>
<polygon fill="midnightblue" stroke="midnightblue" points="269.853,-70.7061 262.599,-78.4281 273.085,-76.9153 269.853,-70.7061"/>
</g>
<!-- Node5&#45;&gt;Node4 -->
<g id="edge5" class="edge"><title>Node5&#45;&gt;Node4</title>
<path fill="none" stroke="midnightblue" d="M371.609,-68.2965C371.491,-59.3009 371.364,-49.6532 371.257,-41.5056"/>
<polygon fill="midnightblue" stroke="midnightblue" points="368.111,-68.4751 371.742,-78.4281 375.111,-68.3829 368.111,-68.4751"/>
</g>
<!-- Node6 -->
<g id="node6" class="node"><title>Node6</title>
<g id="a_node6"><a xlink:href="UDP_8cxx.html" target="_top" xlink:title="/home/travis/build\l/AliceO2Group/Monitoring\l/src/Transports/UDP.cxx">
<polygon fill="none" stroke="black" points="158,-0.5 158,-41.5 286,-41.5 286,-0.5 158,-0.5"/>
<text text-anchor="start" x="166" y="-29.5" font-family="Helvetica,sans-Serif" font-size="10.00">/home/travis/build</text>
<text text-anchor="start" x="166" y="-18.5" font-family="Helvetica,sans-Serif" font-size="10.00">/AliceO2Group/Monitoring</text>
<text text-anchor="middle" x="222" y="-7.5" font-family="Helvetica,sans-Serif" font-size="10.00">/src/Transports/UDP.cxx</text>
</a>
</g>
</g>
<!-- Node5&#45;&gt;Node6 -->
<g id="edge6" class="edge"><title>Node5&#45;&gt;Node6</title>
<path fill="none" stroke="midnightblue" d="M324.45,-73.9082C303.825,-63.4581 279.987,-51.3801 260.498,-41.5056"/>
<polygon fill="midnightblue" stroke="midnightblue" points="322.869,-77.0305 333.371,-78.4281 326.033,-70.7863 322.869,-77.0305"/>
</g>
<!-- Node7&#45;&gt;Node4 -->
<g id="edge8" class="edge"><title>Node7&#45;&gt;Node4</title>
<path fill="none" stroke="midnightblue" d="M472.492,-73.7675C452.067,-63.3498 428.514,-51.3358 409.241,-41.5056"/>
<polygon fill="midnightblue" stroke="midnightblue" points="471.13,-77.0022 481.629,-78.4281 474.311,-70.7665 471.13,-77.0022"/>
</g>
<!-- Node8 -->
<g id="node8" class="node"><title>Node8</title>
<g id="a_node8"><a xlink:href="Unix_8cxx.html" target="_top" xlink:title="/home/travis/build\l/AliceO2Group/Monitoring\l/src/Transports/Unix.cxx">
<polygon fill="none" stroke="black" points="456,-0.5 456,-41.5 584,-41.5 584,-0.5 456,-0.5"/>
<text text-anchor="start" x="464" y="-29.5" font-family="Helvetica,sans-Serif" font-size="10.00">/home/travis/build</text>
<text text-anchor="start" x="464" y="-18.5" font-family="Helvetica,sans-Serif" font-size="10.00">/AliceO2Group/Monitoring</text>
<text text-anchor="middle" x="520" y="-7.5" font-family="Helvetica,sans-Serif" font-size="10.00">/src/Transports/Unix.cxx</text>
</a>
</g>
</g>
<!-- Node7&#45;&gt;Node8 -->
<g id="edge9" class="edge"><title>Node7&#45;&gt;Node8</title>
<path fill="none" stroke="midnightblue" d="M520,-68.2965C520,-59.3009 520,-49.6532 520,-41.5056"/>
<polygon fill="midnightblue" stroke="midnightblue" points="516.5,-68.4281 520,-78.4281 523.5,-68.4281 516.5,-68.4281"/>
</g>
<!-- Node9&#45;&gt;Node4 -->
<g id="edge11" class="edge"><title>Node9&#45;&gt;Node4</title>
<path fill="none" stroke="midnightblue" d="M593.302,-78.0781C593.201,-78.052 593.101,-78.026 593,-78 528.293,-61.2804 511.762,-58.5047 447,-42 443.959,-41.225 440.851,-40.4279 437.713,-39.6188"/>
<polygon fill="midnightblue" stroke="midnightblue" points="592.288,-81.4306 602.848,-80.5681 594.055,-74.6573 592.288,-81.4306"/>
</g>
<!-- Node10 -->
<g id="node10" class="node"><title>Node10</title>
<polygon fill="none" stroke="#bfbfbf" points="602.5,-0.5 602.5,-41.5 737.5,-41.5 737.5,-0.5 602.5,-0.5"/>
<text text-anchor="start" x="610.5" y="-29.5" font-family="Helvetica,sans-Serif" font-size="10.00">/home/travis/build</text>
<text text-anchor="start" x="610.5" y="-18.5" font-family="Helvetica,sans-Serif" font-size="10.00">/AliceO2Group/Monitoring</text>
<text text-anchor="middle" x="670" y="-7.5" font-family="Helvetica,sans-Serif" font-size="10.00">/src/Transports/StdOut.cxx</text>
</g>
<!-- Node9&#45;&gt;Node10 -->
<g id="edge12" class="edge"><title>Node9&#45;&gt;Node10</title>
<path fill="none" stroke="midnightblue" d="M668.173,-68.2965C668.528,-59.3009 668.908,-49.6532 669.23,-41.5056"/>
<polygon fill="midnightblue" stroke="midnightblue" points="664.67,-68.2978 667.773,-78.4281 671.664,-68.574 664.67,-68.2978"/>
</g>
<!-- Node12 -->
<g id="node12" class="node"><title>Node12</title>
<g id="a_node12"><a xlink:href="HTTP_8cxx.html" target="_top" xlink:title="/home/travis/build\l/AliceO2Group/Monitoring\l/src/Transports/HTTP.cxx">
<polygon fill="none" stroke="black" points="755.5,-0.5 755.5,-41.5 886.5,-41.5 886.5,-0.5 755.5,-0.5"/>
<text text-anchor="start" x="763.5" y="-29.5" font-family="Helvetica,sans-Serif" font-size="10.00">/home/travis/build</text>
<text text-anchor="start" x="763.5" y="-18.5" font-family="Helvetica,sans-Serif" font-size="10.00">/AliceO2Group/Monitoring</text>
<text text-anchor="middle" x="821" y="-7.5" font-family="Helvetica,sans-Serif" font-size="10.00">/src/Transports/HTTP.cxx</text>
</a>
</g>
</g>
<!-- Node11&#45;&gt;Node12 -->
<g id="edge14" class="edge"><title>Node11&#45;&gt;Node12</title>
<path fill="none" stroke="midnightblue" d="M817.345,-68.2965C818.055,-59.3009 818.817,-49.6532 819.46,-41.5056"/>
<polygon fill="midnightblue" stroke="midnightblue" points="813.843,-68.1836 816.545,-78.4281 820.821,-68.7346 813.843,-68.1836"/>
</g>
<!-- Node14 -->
<g id="node14" class="node"><title>Node14</title>
<g id="a_node14"><a xlink:href="Kafka_8cxx.html" target="_top" xlink:title="/home/travis/build\l/AliceO2Group/Monitoring\l/src/Transports/Kafka.cxx">
<polygon fill="none" stroke="black" points="905,-0.5 905,-41.5 1035,-41.5 1035,-0.5 905,-0.5"/>
<text text-anchor="start" x="913" y="-29.5" font-family="Helvetica,sans-Serif" font-size="10.00">/home/travis/build</text>
<text text-anchor="start" x="913" y="-18.5" font-family="Helvetica,sans-Serif" font-size="10.00">/AliceO2Group/Monitoring</text>
<text text-anchor="middle" x="970" y="-7.5" font-family="Helvetica,sans-Serif" font-size="10.00">/src/Transports/Kafka.cxx</text>
</a>
</g>
</g>
<!-- Node13&#45;&gt;Node14 -->
<g id="edge16" class="edge"><title>Node13&#45;&gt;Node14</title>
<path fill="none" stroke="midnightblue" d="M966.345,-68.2965C967.055,-59.3009 967.817,-49.6532 968.46,-41.5056"/>
<polygon fill="midnightblue" stroke="midnightblue" points="962.843,-68.1836 965.545,-78.4281 969.821,-68.7346 962.843,-68.1836"/>
</g>
<!-- Node16 -->
<g id="node16" class="node"><title>Node16</title>
<g id="a_node16"><a xlink:href="TCP_8cxx.html" target="_top" xlink:title="/home/travis/build\l/AliceO2Group/Monitoring\l/src/Transports/TCP.cxx">
<polygon fill="none" stroke="black" points="1053,-0.5 1053,-41.5 1181,-41.5 1181,-0.5 1053,-0.5"/>
<text text-anchor="start" x="1061" y="-29.5" font-family="Helvetica,sans-Serif" font-size="10.00">/home/travis/build</text>
<text text-anchor="start" x="1061" y="-18.5" font-family="Helvetica,sans-Serif" font-size="10.00">/AliceO2Group/Monitoring</text>
<text text-anchor="middle" x="1117" y="-7.5" font-family="Helvetica,sans-Serif" font-size="10.00">/src/Transports/TCP.cxx</text>
</a>
</g>
</g>
<!-- Node15&#45;&gt;Node16 -->
<g id="edge18" class="edge"><title>Node15&#45;&gt;Node16</title>
<path fill="none" stroke="midnightblue" d="M1116.39,-68.2965C1116.51,-59.3009 1116.64,-49.6532 1116.74,-41.5056"/>
<polygon fill="midnightblue" stroke="midnightblue" points="1112.89,-68.3829 1116.26,-78.4281 1119.89,-68.4751 1112.89,-68.3829"/>
</g>
</g>
</svg>
