<?xml version="1.0" encoding="UTF-8" standalone="no"?>
<!DOCTYPE svg PUBLIC "-//W3C//DTD SVG 1.1//EN"
 "http://www.w3.org/Graphics/SVG/1.1/DTD/svg11.dtd">
<!-- Generated by graphviz version 2.38.0 (20140413.2041)
 -->
<!-- Title: /home/travis/build/AliceO2Group/Monitoring/src/Transports/UDP.cxx Pages: 1 -->
<svg width="713pt" height="218pt"
 viewBox="0.00 0.00 712.50 218.00" xmlns="http://www.w3.org/2000/svg" xmlns:xlink="http://www.w3.org/1999/xlink">
<g id="graph0" class="graph" transform="scale(1 1) rotate(0) translate(4 214)">
<title>/home/travis/build/AliceO2Group/Monitoring/src/Transports/UDP.cxx</title>
<!-- Node1 -->
<g id="node1" class="node"><title>Node1</title>
<polygon fill="#bfbfbf" stroke="black" points="198.5,-168.5 198.5,-209.5 326.5,-209.5 326.5,-168.5 198.5,-168.5"/>
<text text-anchor="start" x="206.5" y="-197.5" font-family="Helvetica,sans-Serif" font-size="10.00">/home/travis/build</text>
<text text-anchor="start" x="206.5" y="-186.5" font-family="Helvetica,sans-Serif" font-size="10.00">/AliceO2Group/Monitoring</text>
<text text-anchor="middle" x="262.5" y="-175.5" font-family="Helvetica,sans-Serif" font-size="10.00">/src/Transports/UDP.cxx</text>
</g>
<!-- Node2 -->
<g id="node2" class="node"><title>Node2</title>
<g id="a_node2"><a xlink:href="UDP_8h.html" target="_top" xlink:title="UDP.h">
<polygon fill="none" stroke="black" points="239,-112.5 239,-131.5 286,-131.5 286,-112.5 239,-112.5"/>
<text text-anchor="middle" x="262.5" y="-119.5" font-family="Helvetica,sans-Serif" font-size="10.00">UDP.h</text>
</a>
</g>
</g>
<!-- Node1&#45;&gt;Node2 -->
<g id="edge1" class="edge"><title>Node1&#45;&gt;Node2</title>
<path fill="none" stroke="midnightblue" d="M262.5,-168.498C262.5,-160.065 262.5,-150.235 262.5,-141.874"/>
<polygon fill="midnightblue" stroke="midnightblue" points="266,-141.652 262.5,-131.652 259,-141.653 266,-141.652"/>
</g>
<!-- Node4 -->
<g id="node4" class="node"><title>Node4</title>
<polygon fill="none" stroke="#bfbfbf" points="0,-0.5 0,-19.5 41,-19.5 41,-0.5 0,-0.5"/>
<text text-anchor="middle" x="20.5" y="-7.5" font-family="Helvetica,sans-Serif" font-size="10.00">string</text>
</g>
<!-- Node1&#45;&gt;Node4 -->
<g id="edge9" class="edge"><title>Node1&#45;&gt;Node4</title>
<path fill="none" stroke="midnightblue" d="M198.411,-176.963C142.01,-163.556 62.9136,-134.949 23.5,-76 14.4829,-62.5136 14.6384,-43.7033 16.513,-29.7862"/>
<polygon fill="midnightblue" stroke="midnightblue" points="19.9723,-30.322 18.2425,-19.8693 13.0764,-29.1193 19.9723,-30.322"/>
</g>
<!-- Node9 -->
<g id="node9" class="node"><title>Node9</title>
<g id="a_node9"><a xlink:href="MonLogger_8h.html" target="_top" xlink:title="../MonLogger.h">
<polygon fill="none" stroke="black" points="533.5,-112.5 533.5,-131.5 615.5,-131.5 615.5,-112.5 533.5,-112.5"/>
<text text-anchor="middle" x="574.5" y="-119.5" font-family="Helvetica,sans-Serif" font-size="10.00">../MonLogger.h</text>
</a>
</g>
</g>
<!-- Node1&#45;&gt;Node9 -->
<g id="edge10" class="edge"><title>Node1&#45;&gt;Node9</title>
<path fill="none" stroke="midnightblue" d="M326.768,-174.611C385.088,-162.461 469.936,-144.784 523.656,-133.593"/>
<polygon fill="midnightblue" stroke="midnightblue" points="524.563,-136.979 533.639,-131.513 523.135,-130.126 524.563,-136.979"/>
</g>
<!-- Node3 -->
<g id="node3" class="node"><title>Node3</title>
<g id="a_node3"><a xlink:href="TransportInterface_8h.html" target="_top" xlink:title="TransportInterface.h">
<polygon fill="none" stroke="black" points="48.5,-56.5 48.5,-75.5 152.5,-75.5 152.5,-56.5 48.5,-56.5"/>
<text text-anchor="middle" x="100.5" y="-63.5" font-family="Helvetica,sans-Serif" font-size="10.00">TransportInterface.h</text>
</a>
</g>
</g>
<!-- Node2&#45;&gt;Node3 -->
<g id="edge2" class="edge"><title>Node2&#45;&gt;Node3</title>
<path fill="none" stroke="midnightblue" d="M238.944,-113.148C211.863,-104.121 167.132,-89.2105 135.865,-78.7885"/>
<polygon fill="midnightblue" stroke="midnightblue" points="136.82,-75.4175 126.227,-75.5756 134.607,-82.0583 136.82,-75.4175"/>
</g>
<!-- Node2&#45;&gt;Node4 -->
<g id="edge8" class="edge"><title>Node2&#45;&gt;Node4</title>
<path fill="none" stroke="midnightblue" d="M238.948,-119.285C187.738,-115.09 68.5198,-102.645 39.5,-76 26.664,-64.2143 22.3224,-44.2868 20.9419,-29.5962"/>
<polygon fill="midnightblue" stroke="midnightblue" points="24.4359,-29.3889 20.3718,-19.6046 17.4473,-29.7877 24.4359,-29.3889"/>
</g>
<!-- Node5 -->
<g id="node5" class="node"><title>Node5</title>
<polygon fill="none" stroke="#bfbfbf" points="170.5,-56.5 170.5,-75.5 254.5,-75.5 254.5,-56.5 170.5,-56.5"/>
<text text-anchor="middle" x="212.5" y="-63.5" font-family="Helvetica,sans-Serif" font-size="10.00">boost/array.hpp</text>
</g>
<!-- Node2&#45;&gt;Node5 -->
<g id="edge4" class="edge"><title>Node2&#45;&gt;Node5</title>
<path fill="none" stroke="midnightblue" d="M254.244,-112.083C247.035,-104.298 236.39,-92.8015 227.654,-83.3665"/>
<polygon fill="midnightblue" stroke="midnightblue" points="229.965,-80.7108 220.603,-75.7511 224.829,-85.4666 229.965,-80.7108"/>
</g>
<!-- Node6 -->
<g id="node6" class="node"><title>Node6</title>
<polygon fill="none" stroke="#bfbfbf" points="272.5,-56.5 272.5,-75.5 352.5,-75.5 352.5,-56.5 272.5,-56.5"/>
<text text-anchor="middle" x="312.5" y="-63.5" font-family="Helvetica,sans-Serif" font-size="10.00">boost/asio.hpp</text>
</g>
<!-- Node2&#45;&gt;Node6 -->
<g id="edge5" class="edge"><title>Node2&#45;&gt;Node6</title>
<path fill="none" stroke="midnightblue" d="M270.756,-112.083C277.965,-104.298 288.61,-92.8015 297.346,-83.3665"/>
<polygon fill="midnightblue" stroke="midnightblue" points="300.171,-85.4666 304.397,-75.7511 295.035,-80.7108 300.171,-85.4666"/>
</g>
<!-- Node7 -->
<g id="node7" class="node"><title>Node7</title>
<polygon fill="none" stroke="#bfbfbf" points="371,-56.5 371,-75.5 500,-75.5 500,-56.5 371,-56.5"/>
<text text-anchor="middle" x="435.5" y="-63.5" font-family="Helvetica,sans-Serif" font-size="10.00">boost/algorithm/string.hpp</text>
</g>
<!-- Node2&#45;&gt;Node7 -->
<g id="edge6" class="edge"><title>Node2&#45;&gt;Node7</title>
<path fill="none" stroke="midnightblue" d="M286.192,-113.605C315.166,-104.561 364.537,-89.1503 398.525,-78.5414"/>
<polygon fill="midnightblue" stroke="midnightblue" points="399.603,-81.8716 408.106,-75.5509 397.517,-75.1895 399.603,-81.8716"/>
</g>
<!-- Node8 -->
<g id="node8" class="node"><title>Node8</title>
<polygon fill="none" stroke="#bfbfbf" points="518.5,-56.5 518.5,-75.5 564.5,-75.5 564.5,-56.5 518.5,-56.5"/>
<text text-anchor="middle" x="541.5" y="-63.5" font-family="Helvetica,sans-Serif" font-size="10.00">chrono</text>
</g>
<!-- Node2&#45;&gt;Node8 -->
<g id="edge7" class="edge"><title>Node2&#45;&gt;Node8</title>
<path fill="none" stroke="midnightblue" d="M286.04,-117.38C329.991,-110.471 427.426,-94.4355 508.5,-76 508.601,-75.977 508.703,-75.9538 508.804,-75.9306"/>
<polygon fill="midnightblue" stroke="midnightblue" points="509.611,-79.3365 518.484,-73.5463 507.937,-72.5396 509.611,-79.3365"/>
</g>
<!-- Node3&#45;&gt;Node4 -->
<g id="edge3" class="edge"><title>Node3&#45;&gt;Node4</title>
<path fill="none" stroke="midnightblue" d="M87.6466,-56.324C75.2836,-47.979 56.3699,-35.2122 41.7628,-25.3524"/>
<polygon fill="midnightblue" stroke="midnightblue" points="43.5682,-22.3483 33.3215,-19.6545 39.6518,-28.1503 43.5682,-22.3483"/>
</g>
<!-- Node9&#45;&gt;Node8 -->
<g id="edge11" class="edge"><title>Node9&#45;&gt;Node8</title>
<path fill="none" stroke="midnightblue" d="M569.051,-112.083C564.486,-104.613 557.832,-93.7244 552.207,-84.5199"/>
<polygon fill="midnightblue" stroke="midnightblue" points="555.049,-82.4588 546.848,-75.7511 549.076,-86.109 555.049,-82.4588"/>
</g>
<!-- Node10 -->
<g id="node10" class="node"><title>Node10</title>
<polygon fill="none" stroke="#bfbfbf" points="582.5,-56.5 582.5,-75.5 632.5,-75.5 632.5,-56.5 582.5,-56.5"/>
<text text-anchor="middle" x="607.5" y="-63.5" font-family="Helvetica,sans-Serif" font-size="10.00">iomanip</text>
</g>
<!-- Node9&#45;&gt;Node10 -->
<g id="edge12" class="edge"><title>Node9&#45;&gt;Node10</title>
<path fill="none" stroke="midnightblue" d="M579.949,-112.083C584.514,-104.613 591.168,-93.7244 596.793,-84.5199"/>
<polygon fill="midnightblue" stroke="midnightblue" points="599.924,-86.109 602.152,-75.7511 593.951,-82.4588 599.924,-86.109"/>
</g>
<!-- Node11 -->
<g id="node11" class="node"><title>Node11</title>
<polygon fill="none" stroke="#bfbfbf" points="650.5,-56.5 650.5,-75.5 704.5,-75.5 704.5,-56.5 650.5,-56.5"/>
<text text-anchor="middle" x="677.5" y="-63.5" font-family="Helvetica,sans-Serif" font-size="10.00">iostream</text>
</g>
<!-- Node9&#45;&gt;Node11 -->
<g id="edge13" class="edge"><title>Node9&#45;&gt;Node11</title>
<path fill="none" stroke="midnightblue" d="M591.049,-112.324C607.492,-103.703 632.935,-90.3643 651.968,-80.3855"/>
<polygon fill="midnightblue" stroke="midnightblue" points="653.761,-83.3977 660.992,-75.6545 650.511,-77.198 653.761,-83.3977"/>
</g>
</g>
</svg>
